<svg width="620" height="78" viewBox="0 0 620 78" xmlns="http://www.w3.org/2000/svg"><title>oracle-logo</title><g fill="#F80000" fill-rule="nonzero"><path d="M258.075 50.5286H297.6l-20.925-33.5572-38.3625 60.5572H220.875l46.5-72.9C269.3125 1.5429 272.8 0 276.675 0c3.4875 0 6.975 1.5429 8.9125 4.6286l46.8875 72.9h-17.4375l-8.1375-13.5h-39.9125l-8.9125-13.5M439.425 63.6429V.7714H424.7V70.2c0 1.9286.775 3.8571 2.325 5.0143 1.55 1.5428 3.4875 2.3143 5.425 2.3143h67.425l8.9125-13.5-69.3625-.3857M194.525 52.4571c14.3375 0 25.9625-11.5714 25.9625-25.8428S208.8625.7714 194.525.7714h-64.7125v76.7572h14.725V14.2714h48.825c6.975 0 12.4 5.4 12.4 12.3429 0 6.9428-5.425 12.3428-12.4 12.3428h-41.85l44.175 38.5715H217l-29.8375-24.6857 7.3625-.3858M38.3625 77.5286C17.05 77.5286 0 60.557 0 39.3429 0 18.1286 17.05 1.157 38.3625 1.157H82.925c21.3125 0 38.3625 16.9715 38.3625 38.1858 0 21.2142-17.05 38.1857-38.3625 38.1857H38.3625m43.7875-13.5c13.95 0 24.8-11.1857 24.8-24.6857 0-13.8858-11.2375-24.6858-24.8-24.6858H39.525c-13.5625 0-24.8 11.1858-24.8 24.6858s11.2375 24.6857 24.8 24.6857H82.15M363.475 77.5286c-21.3125 0-38.75-16.9715-38.75-38.1857 0-21.2143 17.4375-38.1858 38.75-38.1858h53.0875l-8.9125 13.5h-43.4c-13.95 0-25.1875 11.1858-25.1875 24.6858S350.3 64.0286 364.25 64.0286h53.475l-8.525 13.5h-45.725M544.4375 64.0286c-11.2375 0-20.925-7.7143-24.025-18.1286h63.55l8.525-13.5h-72.075c3.1-10.4143 12.7875-18.1286 24.025-18.1286h43.4l8.525-13.5H543.275c-21.3125 0-38.3625 16.9715-38.3625 38.1857 0 21.2143 17.05 38.1858 38.3625 38.1858H589l8.525-13.5h-53.0875M604.5 8.8714c0-3.8571 3.1-6.9428 6.975-6.9428 3.875 0 6.975 3.0857 6.975 6.9428 0 3.8572-3.1 6.9429-6.975 6.9429-3.875 0-6.975-3.0857-6.975-6.9429m6.975 8.8715c4.65 0 8.525-3.8572 8.525-8.4858 0-4.6285-3.875-8.4857-8.525-8.4857s-8.525 3.8572-8.525 8.4857c0 4.6286 3.4875 8.4858 8.525 8.4858M610.7 3.857c1.1625 0 1.9375 0 2.325.3858 1.9375.3857 1.9375 2.3142 1.9375 2.7v.7714c0 .3857-.3875 1.1571-1.1625 1.5428l-.3875.3858 2.325 3.8571h-2.325l-1.9375-3.8571h-1.1625V13.5h-1.9375V3.8571h2.325m.3875 4.2429c.775 0 1.1625 0 1.55-.7714.3875 0 .3875-.3857.3875-.7715 0-.3857-.3875-.7714-.775-1.1571-.3875-.3857-.775-.3857-1.9375-.3857h-.3875v2.7h1.1625"/></g></svg>