<svg width="640" height="640" viewBox="0 0 640 640" xmlns="http://www.w3.org/2000/svg"><title>pinterest-logo</title><g fill="none" fill-rule="evenodd"><circle fill="#FFF" fill-rule="nonzero" cx="320" cy="320" r="320"/><path d="M236 584c26.4 8 53.6 12.8 82.4 12.8 153.6 0 278.4-124.8 278.4-278.4C596.8 164.8 472 40 318.4 40 164.8 40 40 164.8 40 318.4c0 118.4 74.4 220 179.2 260-2.4-21.6-4.8-57.6 0-82.4l32-137.6s-8-16-8-41.6c0-38.4 24-67.2 51.2-67.2 24 0 35.2 17.6 35.2 40 0 24-16 58.4-24 91.2C300.8 408 320 432 348 432c49.6 0 88-52.8 88-128 0-66.4-48-112-116.8-112-78.4 0-124.8 58.4-124.8 120 0 24 8 48 20.8 64 2.4 1.6 2.4 4 1.6 8l-8 30.4c0 4.8-3.2 6.4-8 3.2-35.2-16-56-66.4-56-107.2 0-88 62.4-168 182.4-168 96 0 170.4 68.8 170.4 160 0 96-59.2 172.8-144 172.8-27.2 0-53.6-14.4-62.4-32L272 509.6c-6.4 24-24 56-36 75.2v-.8z" fill="#E60023"/></g></svg>