<?xml version="1.0" encoding="UTF-8" standalone="no"?>
<!-- Created with Inkscape (http://www.inkscape.org/) -->

<svg
   width="29.104168mm"
   height="26.458334mm"
   viewBox="0 0 29.104168 26.458334"
   version="1.1"
   id="svg1"
   inkscape:version="1.3 (0e150ed6c4, 2023-07-21)"
   sodipodi:docname="designing.svg"
   xmlns:inkscape="http://www.inkscape.org/namespaces/inkscape"
   xmlns:sodipodi="http://sodipodi.sourceforge.net/DTD/sodipodi-0.dtd"
   xmlns="http://www.w3.org/2000/svg"
   xmlns:svg="http://www.w3.org/2000/svg">
  <sodipodi:namedview
     id="namedview1"
     pagecolor="#505050"
     bordercolor="#eeeeee"
     borderopacity="1"
     inkscape:showpageshadow="0"
     inkscape:pageopacity="0"
     inkscape:pagecheckerboard="0"
     inkscape:deskcolor="#505050"
     inkscape:document-units="mm"
     inkscape:zoom="5.96"
     inkscape:cx="54.949664"
     inkscape:cy="49.916107"
     inkscape:window-width="1254"
     inkscape:window-height="1041"
     inkscape:window-x="669"
     inkscape:window-y="0"
     inkscape:window-maximized="0"
     inkscape:current-layer="layer1" />
  <defs
     id="defs1" />
  <g
     inkscape:label="Layer 1"
     inkscape:groupmode="layer"
     id="layer1"
     transform="translate(-24.456803,-33.04062)">
    <g
       id="g23"
       inkscape:label="design"
       transform="translate(-46.232359,-115.87437)"
       style="display:inline">
      <rect
         style="fill:#ff1161;fill-opacity:1;fill-rule:evenodd;stroke:#45bb88;stroke-width:0;stroke-dasharray:none"
         id="rect15"
         width="29.104166"
         height="26.458332"
         x="70.689163"
         y="148.91499"
         inkscape:label="bg" />
      <circle
         style="display:inline;fill:#fe9900;fill-opacity:1;fill-rule:evenodd;stroke:#45bb88;stroke-width:0;stroke-dasharray:none"
         id="path23"
         cx="85.241241"
         cy="162.14415"
         r="5.9531245"
         inkscape:label="circle" />
      <path
         style="display:inline;fill:#000000"
         d="m 86.638703,166.70379 1.38684,-1.38688 h -0.0756 -0.0756 l -1.3836,1.38364 c -1.30997,1.31 -1.38576,1.38363 -1.42429,1.38363 -0.039,0 0.0174,-0.0581 1.3429,-1.38363 l 1.3836,-1.38364 h -0.0756 -0.0756 l -1.38147,1.38151 c -1.30993,1.30996 -1.38332,1.38124 -1.41696,1.3763 -0.034,-0.005 0.0243,-0.065 1.34077,-1.38151 l 1.37627,-1.3763 h -0.0756 -0.0756 l -1.37197,1.37201 c -1.15674,1.15677 -1.37699,1.37201 -1.40397,1.37201 -0.0176,0 -0.032,-0.004 -0.032,-0.009 0,-0.005 0.61347,-0.62219 1.36327,-1.37201 l 1.36327,-1.36331 h -0.0755 -0.0755 l -1.362,1.36197 c -1.29203,1.29199 -1.36368,1.36155 -1.39451,1.35381 -0.031,-0.008 0.0278,-0.0684 1.32127,-1.36197 l 1.35378,-1.35381 h -0.0756 -0.0756 l -1.3429,1.34294 c -1.13208,1.13211 -1.34793,1.34294 -1.3749,1.34294 -0.0176,0 -0.032,-0.004 -0.032,-0.009 0,-0.005 0.60039,-0.60911 1.3342,-1.34294 l 1.3342,-1.33424 h -0.0756 -0.0756 l -1.32546,1.3255 c -0.91192,0.91194 -1.33303,1.3255 -1.3497,1.3255 -0.0133,0 -0.0279,-0.004 -0.0325,-0.008 -0.005,-0.005 0.58453,-0.601 1.30901,-1.3255 l 1.31723,-1.31727 h -0.0756 -0.0756 l -1.3062,1.30624 c -1.12915,1.12918 -1.31,1.30552 -1.3342,1.30089 -0.0154,-0.003 -0.028,-0.009 -0.028,-0.0127 0,-0.004 0.58207,-0.58944 1.2935,-1.30089 l 1.29351,-1.29354 h -0.0756 -0.0756 l -1.27895,1.27899 c -0.87967,0.8797 -1.28652,1.27899 -1.3032,1.27899 -0.0133,0 -0.0279,-0.004 -0.0325,-0.008 -0.005,-0.005 0.5636,-0.58007 1.2625,-1.279 l 1.27073,-1.27076 h -0.0755 -0.0755 l -1.25654,1.25649 c -1.19158,1.19154 -1.25821,1.25607 -1.28903,1.24834 -0.0311,-0.008 0.0228,-0.0634 1.2158,-1.25649 l 1.2483,-1.24834 h -0.0755 -0.0755 l -1.22747,1.22742 c -1.1639,1.16386 -1.22915,1.22701 -1.25996,1.21927 -0.0311,-0.008 0.0214,-0.062 1.18673,-1.22742 l 1.21922,-1.21927 h -0.0755 -0.0755 l -1.19891,1.19887 c -1.139,1.13896 -1.20024,1.19817 -1.2254,1.1847 -0.0253,-0.0135 0.0281,-0.0687 1.15818,-1.19887 l 1.18466,-1.1847 h -0.0756 -0.0756 l -1.16268,1.16272 c -0.63947,0.63949 -1.16792,1.16264 -1.17432,1.16254 -0.0667,-0.001 -0.0444,-0.0247 1.10454,-1.17391 l 1.15107,-1.15135 h -0.0756 -0.0756 l -1.1278,1.12784 c -0.62028,0.62031 -1.13303,1.12775 -1.13944,1.12766 -0.0666,-0.001 -0.0443,-0.0248 1.06966,-1.13903 l 1.11619,-1.11647 h -0.0755 -0.0755 l -1.09428,1.09423 c -1.03934,1.03929 -1.0956,1.09351 -1.12075,1.08005 -0.0253,-0.0135 0.0231,-0.0637 1.05353,-1.09422 l 1.08001,-1.08006 h -0.0756 -0.0756 l -1.05221,1.05226 c -0.57872,0.57874 -1.05772,1.05226 -1.06445,1.05226 -0.067,0 -0.0356,-0.0336 0.99729,-1.06649 l 1.03798,-1.03803 h -0.0755 -0.0755 l -1.01289,1.01284 c -0.96182,0.96178 -1.01422,1.01212 -1.03936,0.99866 -0.0253,-0.0135 0.0192,-0.0598 0.97214,-1.01283 l 0.99862,-0.99867 h -0.0755 -0.0755 l -0.97209,0.97204 c -0.92353,0.92348 -0.97334,0.97126 -0.99711,0.95641 -0.0239,-0.0149 0.0192,-0.0598 0.93134,-0.97204 l 0.95637,-0.95641 h -0.0756 -0.0756 l -0.92431,0.92436 c -0.50837,0.5084 -0.92981,0.92436 -0.93654,0.92436 -0.007,0 -0.0186,-0.006 -0.0265,-0.0142 -0.0112,-0.0112 0.17817,-0.20664 0.89584,-0.92436 l 0.91008,-0.91013 h -0.0756 -0.0756 l -0.87779,0.87785 c -0.48279,0.48282 -0.88331,0.87786 -0.89004,0.87786 -0.007,0 -0.0186,-0.006 -0.0265,-0.0142 -0.0112,-0.0112 0.16837,-0.19684 0.84934,-0.87786 l 0.86357,-0.86362 h -0.0755 -0.0755 l -0.83268,0.83261 c -0.79019,0.79014 -0.83402,0.83189 -0.85914,0.81845 -0.0253,-0.0135 0.0106,-0.0513 0.79192,-0.83261 l 0.81838,-0.81845 h -0.0755 -0.0755 l -0.78486,0.78429 c -0.74206,0.74152 -0.78612,0.78336 -0.80782,0.76712 -0.0218,-0.0163 0.0167,-0.0568 0.74411,-0.78429 l 0.76705,-0.76712 h -0.0755 -0.0755 l -0.73285,0.73279 c -0.69281,0.69274 -0.73411,0.73185 -0.7558,0.71562 -0.0218,-0.0163 0.0139,-0.0541 0.69209,-0.73279 l 0.71504,-0.71562 h -0.0755 -0.0755 l -0.68054,0.68046 c -0.64324,0.64317 -0.6818,0.67953 -0.70348,0.6633 -0.0218,-0.0163 0.0112,-0.0513 0.63976,-0.68046 l 0.66272,-0.6633 h -0.0756 -0.0756 l -0.62738,0.62745 c -0.5971,0.59718 -0.6284,0.62652 -0.64873,0.60812 -0.0204,-0.0184 0.007,-0.0479 0.58668,-0.62745 l 0.60803,-0.60812 h -0.0755 -0.0755 l -0.57249,0.57241 c -0.54476,0.54467 -0.57348,0.57142 -0.5928,0.55211 -0.0193,-0.0193 0.006,-0.0471 0.53171,-0.57241 l 0.55201,-0.55211 h -0.0755 -0.0755 l -0.51436,0.51427 c -0.4894,0.4893 -0.51536,0.51329 -0.53467,0.49397 -0.0193,-0.0193 0.004,-0.0443 0.47357,-0.51427 l 0.49387,-0.49397 h -0.0756 -0.0756 l -0.45294,0.45305 c -0.43098,0.43109 -0.45397,0.45212 -0.4743,0.43372 -0.0204,-0.0184 -10e-4,-0.0396 0.41224,-0.45305 l 0.43361,-0.43372 h -0.0755 -0.0754 l -0.39231,0.39218 c -0.37313,0.37301 -0.39329,0.39118 -0.41258,0.37189 -0.0193,-0.0193 -0.002,-0.0385 0.35148,-0.39217 l 0.37176,-0.3719 h -0.0754 -0.0754 l -0.33207,0.33191 c -0.31666,0.31653 -0.33296,0.33093 -0.3514,0.31055 -0.0184,-0.0203 -0.004,-0.0364 0.28827,-0.32881 l 0.30761,-0.30744 -0.0609,-0.014 -0.0609,-0.014 -0.27938,0.27861 c -0.22,0.21938 -0.28241,0.27559 -0.29359,0.2644 -0.008,-0.008 -0.0142,-0.0197 -0.0142,-0.0263 0,-0.007 0.12197,-0.13512 0.27105,-0.28545 l 0.27104,-0.27333 -0.0251,-0.0483 -0.0251,-0.0483 -0.28302,0.2832 c -0.27092,0.27109 -0.28374,0.28217 -0.29979,0.25926 -0.0159,-0.0227 -9.6e-4,-0.0398 0.28632,-0.32788 l 0.30309,-0.30394 0.004,-0.0785 0.004,-0.0785 -0.33752,0.33742 c -0.26587,0.2658 -0.34053,0.33441 -0.35172,0.32322 -0.008,-0.008 -0.0142,-0.0196 -0.0142,-0.0262 0,-0.007 0.21897,-0.23186 0.48659,-0.50055 0.40418,-0.40578 0.5085,-0.51736 0.61593,-0.65876 0.13577,-0.17872 0.21213,-0.25615 0.27502,-0.27889 l 0.0378,-0.0136 -0.0187,-0.0445 -0.0187,-0.0445 -0.72352,0.72324 c -0.68621,0.68595 -0.72441,0.72207 -0.74069,0.70031 -0.0162,-0.0217 0.0229,-0.063 0.7148,-0.75549 l 0.73196,-0.73255 v -0.0755 -0.0755 l -0.75898,0.75891 c -0.59844,0.5984 -0.76199,0.75591 -0.77321,0.74469 -0.008,-0.008 -0.0142,-0.0197 -0.0142,-0.0265 0,-0.007 0.34795,-0.36016 0.77321,-0.78539 l 0.77321,-0.77314 v -0.0756 -0.0756 l -0.80526,0.8052 c -0.76825,0.76819 -0.80598,0.80405 -0.82089,0.78019 -0.0148,-0.0237 0.0257,-0.0664 0.80527,-0.84596 l 0.82088,-0.82094 v -0.0755 -0.0755 l -0.84751,0.84746 c -0.80904,0.80898 -0.84816,0.84626 -0.86169,0.82099 -0.0135,-0.0251 0.0297,-0.0703 0.84752,-0.88821 l 0.86168,-0.86174 v -0.0755 -0.0755 l -0.88821,0.88815 c -0.8478,0.84774 -0.88885,0.88695 -0.90238,0.86168 -0.0135,-0.0251 0.0316,-0.0723 0.88821,-0.9289 l 0.90238,-0.90244 v -0.0755 -0.0755 l -0.92301,0.92295 c -0.54765,0.54763 -0.92828,0.91969 -0.93598,0.91493 -0.007,-0.004 -0.013,-0.0169 -0.013,-0.0277 0,-0.0108 0.42119,-0.44086 0.93599,-0.95562 l 0.93598,-0.93594 v -0.0756 -0.0756 l -0.96287,0.96282 c -0.91992,0.91987 -0.96344,0.96157 -0.97561,0.93486 -0.0121,-0.0265 0.0366,-0.0773 0.96287,-1.00352 l 0.97561,-0.97556 v -0.0756 -0.0756 l -0.99775,0.9977 c -0.95314,0.9531 -0.99832,0.99646 -1.01049,0.96975 -0.0121,-0.0265 0.0383,-0.079 0.99775,-1.0384 l 1.01049,-1.01044 v -0.0756 -0.0756 l -1.02926,1.02899 c -1.02689,1.0266 -1.05081,1.04894 -1.05183,0.98245 -9e-5,-0.006 0.46811,-0.47992 1.04046,-1.05224 l 1.04063,-1.04059 v -0.0756 -0.0756 l -1.0623,1.06225 c -1.01589,1.01585 -1.06266,1.06084 -1.07046,1.02977 -0.008,-0.0308 0.0479,-0.0886 1.06231,-1.103 l 1.07045,-1.07051 v -0.0755 -0.0755 l -1.08667,1.08663 c -0.59766,0.59764 -1.08884,1.08423 -1.09151,1.0813 -0.0338,-0.0371 -0.0278,-0.0434 1.07951,-1.15069 l 1.09867,-1.09863 v -0.0756 -0.0756 l -1.11545,1.11541 c -1.06651,1.06647 -1.11581,1.11398 -1.12361,1.08291 -0.008,-0.0308 0.0505,-0.0911 1.11545,-1.15615 l 1.12361,-1.12365 v -0.0755 -0.0755 l -1.1387,1.13867 c -1.08866,1.08862 -1.13907,1.13724 -1.14687,1.10617 -0.008,-0.0308 0.0516,-0.0922 1.13871,-1.17941 l 1.14686,-1.14691 v -0.0755 -0.0755 l -1.1612,1.16115 c -1.11167,1.11164 -1.16142,1.15965 -1.1664,1.12567 -0.005,-0.0336 0.0561,-0.0968 1.1612,-1.20185 l 1.1664,-1.16636 v -0.0756 -0.0756 l -1.18016,1.18012 c -1.13172,1.13168 -1.18016,1.17845 -1.18016,1.13942 0,-0.0385 0.0639,-0.10463 1.18016,-1.22081 l 1.18016,-1.18012 v -0.0756 -0.0756 l -1.19103,1.19099 c -1.13849,1.13845 -1.19139,1.18955 -1.19918,1.15849 -0.008,-0.0308 0.0541,-0.0947 1.19103,-1.23173 l 1.19918,-1.19923 v -0.0755 -0.0755 l -1.20182,1.20178 c -1.14878,1.14874 -1.20219,1.20035 -1.20999,1.16929 -0.008,-0.0308 0.0546,-0.0952 1.20183,-1.24252 l 1.20998,-1.21003 v -0.0755 -0.0755 l -1.21504,1.215 c -1.16494,1.1649 -1.21504,1.21332 -1.21504,1.17431 0,-0.0385 0.0656,-0.1063 1.21504,-1.2557 l 1.21504,-1.215 v -0.0756 -0.0756 l -1.21504,1.215 c -1.16494,1.1649 -1.21504,1.21332 -1.21504,1.1743 0,-0.0385 0.0656,-0.10629 1.21504,-1.25569 l 1.21504,-1.215 v -0.0756 -0.0756 l -1.21504,1.215 c -1.16494,1.16491 -1.21504,1.21333 -1.21504,1.17431 0,-0.0385 0.0656,-0.1063 1.21504,-1.2557 l 1.21504,-1.215 v -0.0756 -0.0756 l -1.21472,1.21469 c -1.15152,1.15148 -1.21438,1.21228 -1.20791,1.16851 0.006,-0.043 0.0922,-0.13169 1.231,-1.27285 0.67902,-0.68041 1.23826,-1.24996 1.25581,-1.27899 0.0438,-0.0724 0.0838,-0.11326 0.14511,-0.14806 0.0327,-0.0186 0.58029,-0.55655 1.45922,-1.4336 1.31036,-1.30756 1.41006,-1.40435 1.45307,-1.4107 0.0437,-0.006 -0.0278,0.0671 -1.34589,1.38522 l -1.39206,1.39204 0.0794,-0.004 0.0794,-0.004 1.38854,-1.38858 c 1.31467,-1.31471 1.3907,-1.38857 1.42924,-1.38857 0.039,0 -0.0177,0.0584 -1.34872,1.38945 l -1.38942,1.38945 h 0.0756 0.0756 l 1.38942,-1.38945 c 1.3155,-1.31555 1.39158,-1.38945 1.43011,-1.38945 0.039,0 -0.0177,0.0584 -1.34872,1.38945 l -1.38942,1.38945 h 0.0756 0.0756 l 1.38942,-1.38945 c 1.3155,-1.31555 1.39158,-1.38945 1.43011,-1.38945 0.039,0 -0.0177,0.0584 -1.34872,1.38945 l -1.38941,1.38945 h 0.0755 0.0755 l 1.38443,-1.3844 c 1.31338,-1.31335 1.38609,-1.38397 1.41693,-1.37623 0.031,0.008 -0.0289,0.0695 -1.3437,1.38439 l -1.3762,1.37624 h 0.0755 0.0755 l 1.37363,-1.3736 c 1.3031,-1.30307 1.3753,-1.37318 1.40614,-1.36544 0.031,0.008 -0.0283,0.069 -1.3329,1.3736 l -1.36541,1.36544 h 0.0756 0.0756 l 1.35822,-1.35826 c 1.28778,-1.28781 1.36006,-1.35799 1.39371,-1.35305 0.034,0.005 -0.0232,0.0639 -1.31753,1.35826 l -1.35301,1.35305 h 0.0756 0.0756 l 1.34078,-1.34082 c 1.27117,-1.2712 1.34262,-1.34054 1.37627,-1.33561 0.034,0.005 -0.0223,0.063 -1.30009,1.34082 l -1.33557,1.33561 h 0.0755 0.0755 l 1.32132,-1.32128 c 1.25327,-1.25323 1.32298,-1.32085 1.35381,-1.31311 0.0311,0.008 -0.0258,0.0665 -1.28058,1.32127 l -1.31308,1.31312 h 0.0755 0.0755 l 1.29806,-1.29802 c 1.23112,-1.23109 1.29973,-1.2976 1.33056,-1.28987 0.0311,0.008 -0.0247,0.0654 -1.25733,1.29802 l -1.28982,1.28987 h 0.0755 0.0755 l 1.2732,-1.27248 c 1.19855,-1.19788 1.27514,-1.27208 1.30646,-1.26576 0.0316,0.006 -0.0306,0.0705 -1.23247,1.27247 l -1.26572,1.26577 h 0.0755 0.0755 l 1.24491,-1.24448 c 1.18051,-1.18047 1.24659,-1.24444 1.2774,-1.23671 0.0311,0.008 -0.0222,0.0629 -1.20417,1.24487 l -1.23666,1.23671 h 0.0756 0.0756 l 1.215,-1.21505 c 0.66825,-0.66827 1.22024,-1.21496 1.22664,-1.21486 0.0667,10e-4 0.0445,0.0246 -1.15686,1.22623 l -1.20339,1.20368 h 0.0756 0.0756 l 1.18485,-1.1849 c 1.12554,-1.12558 1.18626,-1.18427 1.21282,-1.17216 0.0267,0.0122 -0.025,0.0657 -1.14416,1.18489 l -1.17212,1.17217 h 0.0756 0.0756 l 1.14997,-1.15002 c 1.09232,-1.09236 1.15138,-1.14938 1.17793,-1.13728 0.0267,0.0122 -0.0233,0.064 -1.10928,1.15002 l -1.13723,1.13728 h 0.0755 0.0755 l 1.11203,-1.11199 c 1.05395,-1.05391 1.11372,-1.11155 1.14452,-1.10383 0.0311,0.008 -0.0159,0.0565 -1.07129,1.11199 l -1.10378,1.10383 h 0.0755 0.0755 l 1.07683,-1.07679 c 1.02273,-1.02269 1.07817,-1.07608 1.10332,-1.06262 0.0253,0.0135 -0.0222,0.0629 -1.0361,1.07679 l -1.06257,1.06262 h 0.0755 0.0755 l 1.03615,-1.0361 c 0.98397,-0.98392 1.03747,-1.03537 1.06261,-1.02192 0.0253,0.0135 -0.0203,0.0609 -0.99539,1.03609 l -1.02188,1.02193 h 0.0755 0.0755 l 0.99535,-0.9953 c 0.94568,-0.94563 0.99659,-0.99451 1.02036,-0.97967 0.0239,0.0149 -0.0203,0.0609 -0.9546,0.9953 l -0.97961,0.97967 h 0.0756 0.0756 l 0.94756,-0.94762 c 0.52116,-0.52119 0.95307,-0.94762 0.9598,-0.94762 0.007,0 0.0186,0.006 0.0265,0.0142 0.0112,0.0112 -0.18308,0.21155 -0.9191,0.94762 l -0.93334,0.93339 h 0.0755 0.0755 l 0.90695,-0.90638 c 0.85772,-0.85718 0.9082,-0.90545 0.9299,-0.88921 0.0218,0.0163 -0.0231,0.0632 -0.8662,0.90638 l -0.88915,0.88921 h 0.0756 0.0756 l 0.85454,-0.8546 c 0.47,-0.47003 0.86005,-0.8546 0.86678,-0.8546 0.007,0 0.0186,0.006 0.0265,0.0142 0.0112,0.0112 -0.16346,0.19193 -0.82608,0.8546 l -0.84031,0.84037 h 0.0454 0.0454 l -0.20822,0.20289 -0.20821,0.2029 -2.26399,5.8e-4 c -2.23182,5.7e-4 -2.26416,9e-4 -2.27611,0.0232 -0.008,0.0156 -0.0112,0.72275 -0.009,2.2561 0.003,1.97045 0.005,2.23475 0.0204,2.24447 0.0109,0.007 1.18649,0.0111 3.12398,0.0112 2.80877,1.6e-4 3.10829,-0.002 3.12481,-0.0181 0.0165,-0.0165 0.0183,-0.23696 0.0183,-2.25335 0,-1.72289 -0.003,-2.23827 -0.0139,-2.24903 -0.0102,-0.0102 -0.0995,-0.0139 -0.32901,-0.0139 h -0.31557 l -0.092,0.1308 c -0.35924,0.51067 -0.83482,1.12379 -1.15668,1.49119 -0.14932,0.17046 -0.53347,0.56392 -0.55056,0.56392 -0.007,0 -0.031,-0.017 -0.0537,-0.0378 l -0.0413,-0.0378 0.0406,0.0442 0.0406,0.0442 -0.10456,0.10165 c -0.0575,0.0559 -0.24005,0.22811 -0.40564,0.38267 l -0.30107,0.28103 -0.032,-0.0257 c -0.0176,-0.0141 -0.0652,-0.0538 -0.10588,-0.0882 -0.0407,-0.0344 -0.053,-0.0422 -0.0274,-0.0174 0.0256,0.0248 0.0727,0.0673 0.10465,0.0944 l 0.0581,0.0492 -0.002,0.16585 c -0.004,0.35392 -0.10288,0.62623 -0.30443,0.83755 -0.29368,0.3079 -0.81639,0.41065 -1.38551,0.27235 l -0.11045,-0.0268 0.11389,-0.008 c 0.41635,-0.0305 0.64408,-0.18316 0.78774,-0.52826 0.0202,-0.0485 0.0655,-0.18278 0.10074,-0.29832 0.0811,-0.26622 0.11939,-0.36218 0.18485,-0.46336 0.0578,-0.0894 0.15563,-0.18873 0.22319,-0.2267 l 0.0437,-0.0246 0.0627,0.0553 0.0627,0.0553 0.18094,-0.21003 c 0.59191,-0.68705 0.56304,-0.65582 0.71908,-0.7778 0.22414,-0.17522 0.4315,-0.35773 0.62489,-0.55001 0.41464,-0.41228 0.66936,-0.74277 1.17826,-1.52874 0.21681,-0.33485 0.4019,-0.59706 0.54614,-0.77369 0.12316,-0.15081 0.26911,-0.31068 0.2881,-0.31559 0.0146,-0.004 0.0277,0.0331 0.0279,0.079 1.3e-4,0.024 0.0486,-0.0194 0.28274,-0.25343 0.26949,-0.26932 0.28347,-0.28141 0.30191,-0.26104 0.0184,0.0203 0.004,0.0367 -0.29545,0.33482 -0.26089,0.25979 -0.31971,0.3244 -0.34365,0.3774 -0.0159,0.0352 -0.0468,0.10058 -0.0688,0.14534 l -0.0399,0.0814 0.42445,-0.42415 c 0.4038,-0.40352 0.42544,-0.42317 0.44475,-0.40387 0.0193,0.0193 -0.004,0.0445 -0.47619,0.51718 -0.47555,0.47593 -0.49993,0.50244 -0.57822,0.62887 -0.045,0.0726 -0.0817,0.13408 -0.0817,0.13662 0,0.0361 0.13147,-0.0861 0.63908,-0.59376 0.56942,-0.5695 0.59933,-0.59745 0.61966,-0.57905 0.0204,0.0184 -0.006,0.0465 -0.5576,0.59838 l -0.57897,0.57906 h 0.0755 0.0755 l 0.54343,-0.54334 c 0.51707,-0.51699 0.54442,-0.54236 0.56374,-0.52304 0.0193,0.0193 -0.005,0.0456 -0.50212,0.54281 -0.33736,0.33742 -0.51644,0.52443 -0.50555,0.52795 0.009,0.003 0.0374,0.009 0.0624,0.013 l 0.0456,0.008 0.49783,-0.49772 c 0.47364,-0.47355 0.49881,-0.49674 0.51812,-0.47743 0.0193,0.0193 -0.004,0.0442 -0.47022,0.51136 l -0.49051,0.49107 0.0431,0.0313 0.0431,0.0313 0.48313,-0.48244 c 0.46052,-0.45987 0.48403,-0.48145 0.50246,-0.46108 0.0184,0.0203 -0.004,0.0446 -0.46174,0.50234 l -0.48108,0.48097 0.0301,0.0455 0.0301,0.0455 0.48683,-0.48622 c 0.46198,-0.46142 0.48769,-0.48505 0.50397,-0.46329 0.0162,0.0217 -0.0103,0.0505 -0.47483,0.51741 l -0.49199,0.49448 0.0114,0.0617 0.0114,0.0617 0.515,-0.51491 c 0.49,-0.48992 0.51598,-0.51392 0.53529,-0.4946 0.0193,0.0193 -0.006,0.0464 -0.51722,0.55792 l -0.53752,0.53762 v 0.0755 0.0755 l 0.56946,-0.56937 c 0.54024,-0.54017 0.57033,-0.5682 0.58661,-0.54644 0.0162,0.0217 -0.0152,0.0554 -0.56945,0.61016 l -0.58662,0.58722 v 0.0755 0.0755 l 0.62079,-0.62071 c 0.5931,-0.59303 0.62141,-0.61952 0.63493,-0.59425 0.0134,0.0251 -0.0189,0.0595 -0.62077,0.66149 l -0.63495,0.63502 v 0.0755 0.0755 l 0.66596,-0.66589 c 0.52504,-0.52498 0.66897,-0.66288 0.68018,-0.65167 0.008,0.008 0.0142,0.0197 0.0142,0.0265 0,0.007 -0.30608,0.31829 -0.68018,0.69236 l -0.68019,0.68011 v 0.0756 0.0756 l 0.71248,-0.7124 c 0.56173,-0.56169 0.71547,-0.7094 0.72669,-0.69818 0.008,0.008 0.0142,0.0197 0.0142,0.0265 0,0.007 -0.32702,0.33923 -0.72669,0.73887 l -0.7267,0.72663 v 0.0756 0.0756 l 0.75874,-0.75869 c 0.72395,-0.72389 0.75947,-0.75754 0.77438,-0.73368 0.0148,0.0238 -0.0235,0.0642 -0.75876,0.79945 l -0.77436,0.77444 v 0.0755 0.0755 l 0.79966,-0.79962 c 0.63056,-0.6305 0.80269,-0.7966 0.81391,-0.78538 0.008,0.008 0.0142,0.0197 0.0142,0.0265 0,0.007 -0.36626,0.37846 -0.81391,0.82608 l -0.81389,0.81384 v 0.0756 0.0756 l 0.84036,-0.84031 c 0.66267,-0.66262 0.84338,-0.8373 0.8546,-0.82608 0.008,0.008 0.0142,0.0197 0.0142,0.0265 0,0.007 -0.38457,0.39678 -0.8546,0.86678 l -0.85459,0.85453 v 0.0756 0.0756 l 0.88239,-0.88234 c 0.84226,-0.8422 0.88304,-0.88114 0.89656,-0.85587 0.0134,0.0251 -0.0314,0.072 -0.88239,0.92309 l -0.89656,0.89662 v 0.0755 0.0755 l 0.9188,-0.91852 c 0.91621,-0.91592 0.94035,-0.93829 0.94136,-0.87199 10e-5,0.006 -0.4184,0.43021 -0.92999,0.94178 l -0.93017,0.93012 v 0.0756 0.0756 l 0.95368,-0.9534 c 0.95116,-0.95087 0.97523,-0.97323 0.97625,-0.90687 1e-4,0.006 -0.4341,0.44591 -0.96488,0.97666 l -0.96505,0.965 v 0.0756 0.0756 l 0.98783,-0.98779 c 0.54331,-0.54328 0.99002,-0.9854 0.99268,-0.98247 0.0337,0.037 0.0264,0.0448 -0.98068,1.05186 l -0.99983,0.99979 v 0.0756 0.0756 l 1.0216,-1.02155 c 0.97713,-0.97709 1.02196,-1.02015 1.02976,-0.98907 0.008,0.0308 -0.046,0.0866 -1.02161,1.0623 l -1.02975,1.02981 v 0.0755 0.0755 l 1.05067,-1.05063 c 1.00482,-1.00477 1.05103,-1.04921 1.05883,-1.01813 0.008,0.0308 -0.0474,0.088 -1.05068,1.09137 l -1.05882,1.05888 v 0.0755 0.0755 l 1.075,-1.07496 c 1.01653,-1.01649 1.07562,-1.07341 1.08613,-1.04642 0.0104,0.0268 -0.0549,0.0946 -1.07501,1.1157 l -1.08612,1.08717 v 0.0755 0.0755 l 1.09588,-1.09584 c 0.60273,-0.60271 1.09919,-1.09584 1.10323,-1.09584 0.004,0 0.01,0.0126 0.0127,0.028 0.005,0.0242 -0.14566,0.17901 -1.10323,1.13653 l -1.10857,1.10854 v 0.0756 0.0756 l 1.1196,-1.11956 c 0.61579,-0.61577 1.12331,-1.11587 1.12784,-1.11135 0.004,0.005 0.008,0.0191 0.008,0.0325 0,0.0167 -0.35294,0.37717 -1.12784,1.15204 l -1.12783,1.12779 v 0.0756 0.0756 l 1.13657,-1.13654 c 0.62512,-0.62509 1.1405,-1.13653 1.14528,-1.13653 0.005,0 0.009,0.0144 0.009,0.032 0,0.0269 -0.18088,0.21288 -1.14528,1.17723 l -1.14527,1.14524 v 0.0756 0.0756 l 1.15614,-1.1561 c 1.10527,-1.10523 1.15651,-1.15468 1.16431,-1.12361 0.008,0.0308 -0.0524,0.0931 -1.15615,1.19684 l -1.1643,1.16435 v 0.0755 0.0755 l 1.16564,-1.16561 c 0.64111,-0.64108 1.16956,-1.1656 1.17435,-1.1656 0.005,0 0.009,0.0144 0.009,0.032 0,0.0269 -0.18529,0.21728 -1.17435,1.2063 -0.76265,0.76264 -1.17447,1.18247 -1.17471,1.19758 -2.1e-4,0.0128 -0.0103,0.052 -0.0224,0.0871 -0.0121,0.0351 -0.0196,0.0663 -0.0166,0.0693 0.003,0.003 0.54415,-0.53324 1.20256,-1.19164 1.1474,-1.14736 1.19712,-1.19539 1.19712,-1.15643 0,0.0384 -0.0637,0.10438 -1.1655,1.2062 l -1.16549,1.16555 0.0378,0.0378 0.0378,0.0378 1.13354,-1.13351 c 1.08733,-1.08729 1.13355,-1.13185 1.13355,-1.09281 0,0.0385 -0.0606,0.10131 -1.1104,1.15105 -0.61071,0.61069 -1.11022,1.11559 -1.11002,1.122 2e-4,0.006 0.0138,0.0269 0.0301,0.0455 l 0.0297,0.0338 1.08029,-1.08025 c 1.03613,-1.03609 1.08029,-1.07859 1.08029,-1.0396 0,0.0384 -0.0589,0.0996 -1.06342,1.10456 l -1.06341,1.06391 0.034,0.0407 0.034,0.0407 1.02946,-1.02898 c 0.98782,-0.98735 1.02947,-1.02734 1.02947,-0.98834 0,0.0384 -0.0564,0.0971 -1.01161,1.05231 l -1.0116,1.01167 0.0314,0.0441 0.0314,0.0441 0.97407,-0.97403 c 0.92541,-0.92536 0.97375,-0.97173 0.96727,-0.92787 -0.006,0.0428 -0.0752,0.11464 -0.95515,0.99584 l -0.94831,0.94967 0.0327,0.0429 0.0327,0.0428 0.90666,-0.90531 c 0.86239,-0.86111 0.90633,-0.90306 0.89984,-0.85915 -0.006,0.0428 -0.0706,0.10997 -0.88499,0.92439 -0.483,0.48303 -0.87797,0.88345 -0.87774,0.88983 2.3e-4,0.006 0.0133,0.0273 0.029,0.0465 l 0.0285,0.0349 0.83597,-0.83586 c 0.80696,-0.80684 0.83568,-0.83414 0.8269,-0.78614 -0.008,0.0466 -0.0598,0.10056 -0.81643,0.85912 l -0.80733,0.80939 0.005,0.0685 0.005,0.0686 0.78297,-0.78292 c 0.74735,-0.74729 0.78242,-0.78057 0.77062,-0.73131 -0.0114,0.0476 -0.0731,0.11244 -0.78416,0.82486 -0.70887,0.71021 -0.77178,0.77636 -0.77178,0.81157 0,0.0819 -0.0595,0.14443 -0.15116,0.15885 -0.0509,0.008 -0.0874,0.0433 -1.35457,1.30807 -1.20871,1.20647 -1.30595,1.30072 -1.35387,1.31219 -0.0489,0.0117 0.0165,-0.0557 1.26153,-1.30083 l 1.31316,-1.3132 h -0.0755 -0.0755 l -1.33731,1.33713 c -0.94901,0.94887 -1.3446,1.33712 -1.36241,1.33712 -0.0138,0 -0.0347,0.003 -0.0464,0.007 -0.0117,0.004 0.58302,-0.59768 1.32162,-1.33712 l 1.34293,-1.34445 h -0.0755 -0.0755 l -1.35492,1.35488 c -1.26235,1.26231 -1.35808,1.35535 -1.4011,1.36171 -0.0437,0.006 0.0255,-0.0649 1.31419,-1.35489 l 1.36036,-1.3617 h -0.0755 -0.0755 l -1.37203,1.37068 c -1.27806,1.27682 -1.37519,1.37116 -1.4182,1.37751 -0.0437,0.006 0.0269,-0.0662 1.3313,-1.37068 l 1.37747,-1.37751 h -0.0756 -0.0756 l -1.3836,1.38364 c -1.30997,1.31 -1.38577,1.38363 -1.4243,1.38363 -0.039,0 0.0174,-0.0581 1.34291,-1.38363 l 1.3836,-1.38364 h -0.0756 -0.0756 l -1.38256,1.38259 c -1.30734,1.30738 -1.385,1.38282 -1.42754,1.38688 -0.0432,0.004 0.0117,-0.0524 1.34186,-1.38259 z m -0.83973,-5.26026 c -0.0352,-0.0322 -0.0849,-0.0744 -0.11046,-0.0938 -0.0257,-0.0194 -0.0179,-0.01 0.0173,0.0213 0.0351,0.0311 0.0822,0.0734 0.10465,0.094 0.0225,0.0206 0.0435,0.0374 0.0466,0.0373 0.003,-1.2e-4 -0.023,-0.0266 -0.0581,-0.0588 z m 3.11647,4.37878 c 1.12208,-1.12211 2.04096,-2.04019 2.04194,-2.04019 9.8e-4,0 -0.006,0.0248 -0.0147,0.0552 -0.0153,0.0511 -0.16284,0.20156 -1.9842,2.02292 -1.85555,1.85556 -1.97098,1.96868 -2.02544,1.98496 -0.0553,0.0165 0.0293,-0.0697 1.98243,-2.02292 z m 0.1154,0.11824 c 0.99413,-0.99476 1.80927,-1.80691 1.81141,-1.80478 0.002,0.002 -0.005,0.0268 -0.0156,0.0548 -0.0161,0.0422 -0.31525,0.34702 -1.74746,1.78108 -0.98064,0.9819 -1.74353,1.73687 -1.7639,1.7456 -0.0197,0.008 -0.0485,0.0191 -0.064,0.0237 -0.0156,0.005 0.7731,-0.79335 1.77948,-1.80035 z m 0.11675,0.11521 c 0.84731,-0.84762 1.54176,-1.54113 1.54321,-1.54113 0.004,0 -0.0176,0.0545 -0.0383,0.096 -0.0263,0.0526 -2.88332,2.91125 -2.93831,2.9399 -0.0242,0.0126 -0.0582,0.0282 -0.0756,0.0346 -0.0178,0.007 0.6399,-0.66001 1.50901,-1.52942 z m 0.11626,0.11701 c 0.66186,-0.66257 1.20491,-1.20468 1.20677,-1.20468 0.002,0 -0.0138,0.0327 -0.0349,0.0727 -0.0329,0.0625 -0.19109,0.22552 -1.13119,1.16563 -0.96912,0.96912 -1.10152,1.09738 -1.16853,1.132 -0.0703,0.0363 0.009,-0.0455 1.12781,-1.16562 z m 0.11626,0.11703 c 0.38686,-0.388 0.70536,-0.70547 0.70777,-0.70547 0.002,0 -6.8e-4,0.007 -0.007,0.0145 -0.006,0.008 -0.0521,0.0695 -0.10201,0.13662 -0.0643,0.0865 -0.22004,0.252 -0.53377,0.56737 -0.40179,0.40388 -0.5376,0.52788 -0.72204,0.65928 -0.0256,0.0182 0.27002,-0.28433 0.6569,-0.67234 z m -10.05218,-4.79243 c 0.007,-0.0432 0.19214,-0.23095 2.61316,-2.65265 2.2973,-2.29793 2.61032,-2.60694 2.64678,-2.61285 0.0227,-0.004 0.0427,-0.005 0.0444,-0.004 0.002,0.002 -1.19286,1.19839 -2.65452,2.65937 -2.49192,2.49077 -2.65706,2.65342 -2.64981,2.60981 z m 0.0349,-0.26742 c 0.007,-0.0432 0.18211,-0.22093 2.46234,-2.50183 2.08808,-2.0887 2.46056,-2.45644 2.49451,-2.46281 0.022,-0.004 0.0418,-0.006 0.0441,-0.003 0.002,0.002 -1.12373,1.13147 -2.50225,2.50932 -2.35081,2.34966 -2.50592,2.50228 -2.49866,2.45866 z m 0.0448,-0.2558 c 0.003,-0.0128 0.009,-0.0363 0.0124,-0.0523 0.004,-0.0186 0.82999,-0.85238 2.28948,-2.31164 2.02567,-2.02537 2.28804,-2.28373 2.32835,-2.29283 0.025,-0.006 0.0467,-0.009 0.0482,-0.007 0.001,0.002 -1.05182,1.05683 -2.34075,2.34514 -1.28893,1.28832 -2.34088,2.33193 -2.33767,2.31914 z m 0.0703,-0.30231 c 0.004,-0.0128 0.01,-0.0367 0.0134,-0.053 0.005,-0.0192 0.75074,-0.77314 2.10217,-2.12399 1.81482,-1.81405 2.10122,-2.09583 2.14094,-2.10639 0.0252,-0.007 0.0472,-0.0108 0.0489,-0.009 0.002,0.002 -0.96778,0.97344 -2.15439,2.15943 -1.18661,1.186 -2.15461,2.14589 -2.1511,2.1331 z m 0.095,-0.33137 c 0.005,-0.016 0.015,-0.0448 0.0232,-0.064 0.008,-0.0192 0.8565,-0.87582 1.88512,-1.90362 1.60699,-1.60573 1.87742,-1.87126 1.92144,-1.88664 0.0282,-0.01 0.0528,-0.0163 0.0548,-0.0144 0.002,0.002 -0.87316,0.8797 -1.94466,1.95058 -1.15719,1.15653 -1.94481,1.93526 -1.93987,1.918 z m 0.12799,-0.36044 c 0.005,-0.016 0.0179,-0.0474 0.0294,-0.0698 0.0115,-0.0224 0.74732,-0.76649 1.63504,-1.65357 1.3388,-1.33783 1.62363,-1.61707 1.67024,-1.63749 0.0309,-0.0136 0.0582,-0.0227 0.0606,-0.0203 0.002,0.002 -0.76244,0.77067 -1.69964,1.70726 -1.00798,1.00731 -1.70058,1.69102 -1.6956,1.67383 z m 0.16821,-0.38696 c 0,-0.005 0.0153,-0.039 0.0341,-0.0756 0.0286,-0.0558 0.24616,-0.27831 1.34585,-1.37646 1.0752,-1.07369 1.32299,-1.3155 1.37397,-1.34081 0.0342,-0.017 0.0641,-0.029 0.0664,-0.0267 0.002,0.002 -0.63132,0.63967 -1.40804,1.41637 -0.77673,0.77671 -1.41223,1.40813 -1.41223,1.40316 z m 0.2806,-0.52287 c 0.0684,-0.12793 0.15157,-0.21635 0.98853,-1.05095 0.82258,-0.82027 0.91865,-0.91033 1.03343,-0.96872 0.0158,-0.008 -0.43435,0.449 -1.00029,1.01562 -0.56594,0.56661 -1.03048,1.03021 -1.03232,1.03021 -0.002,0 0.003,-0.0118 0.0106,-0.0262 z m 8.12165,-1.20635 c 0.47737,-0.47883 0.50272,-0.50229 0.52562,-0.48625 0.023,0.0161 0.008,0.0331 -0.36204,0.40101 -0.34902,0.34727 -0.46421,0.44997 -0.64179,0.57225 -0.0129,0.009 0.20235,-0.21031 0.47821,-0.48701 z m -7.47036,0.32268 c 0.10134,-0.11565 0.38067,-0.39379 0.48663,-0.48456 0.048,-0.0411 -0.0566,0.0701 -0.23246,0.24708 -0.17582,0.17698 -0.32155,0.32178 -0.32386,0.32178 -0.002,0 0.0291,-0.0379 0.0697,-0.0843 z m 7.57922,-0.19448 c 0,-0.0125 0.51794,-0.5235 0.53062,-0.5235 0.007,0 0.0187,0.007 0.0256,0.0151 0.01,0.0117 -0.0454,0.0731 -0.24004,0.26752 -0.21638,0.21622 -0.25714,0.25201 -0.28437,0.24976 -0.0175,-0.001 -0.0318,-0.005 -0.0318,-0.009 z"
         id="path24"
         inkscape:label="icon" />
    </g>
  </g>
</svg>
