<?xml version="1.0" encoding="UTF-8" standalone="no"?>
<!-- Created with Inkscape (http://www.inkscape.org/) -->

<svg
   width="29.104168mm"
   height="26.458334mm"
   viewBox="0 0 29.104168 26.458334"
   version="1.1"
   id="svg1"
   inkscape:version="1.3 (0e150ed6c4, 2023-07-21)"
   sodipodi:docname="training.svg"
   xmlns:inkscape="http://www.inkscape.org/namespaces/inkscape"
   xmlns:sodipodi="http://sodipodi.sourceforge.net/DTD/sodipodi-0.dtd"
   xmlns="http://www.w3.org/2000/svg"
   xmlns:svg="http://www.w3.org/2000/svg">
  <sodipodi:namedview
     id="namedview1"
     pagecolor="#505050"
     bordercolor="#eeeeee"
     borderopacity="1"
     inkscape:showpageshadow="0"
     inkscape:pageopacity="0"
     inkscape:pagecheckerboard="0"
     inkscape:deskcolor="#505050"
     inkscape:document-units="mm"
     inkscape:zoom="5.96"
     inkscape:cx="55.11745"
     inkscape:cy="49.916107"
     inkscape:window-width="1868"
     inkscape:window-height="1057"
     inkscape:window-x="2604"
     inkscape:window-y="-8"
     inkscape:window-maximized="1"
     inkscape:current-layer="g22"
     showgrid="false" />
  <defs
     id="defs1" />
  <g
     inkscape:label="Layer 1"
     inkscape:groupmode="layer"
     id="layer1"
     transform="translate(-24.456803,-33.04062)">
    <g
       id="g22"
       inkscape:label="train"
       transform="translate(-180.07457,-120.74304)"
       style="display:inline">
      <rect
         style="display:inline;fill:#45bb88;fill-opacity:1;fill-rule:evenodd;stroke:#45bb88;stroke-width:0;stroke-dasharray:none"
         id="rect15"
         width="29.104166"
         height="26.458332"
         x="204.53137"
         y="153.78366"
         inkscape:label="bg"
         ry="5.2383881" />
      <path
         style="fill:#000000;fill-opacity:1;stroke-width:0.0767202"
         d="m 218.48819,172.9307 c -1.42376,-0.15532 -2.69347,-0.77233 -3.67694,-1.78678 -1.21209,-1.25028 -1.8232,-2.98766 -1.65282,-4.6989 0.24447,-2.45518 1.92625,-4.47199 4.30746,-5.16554 0.17322,-0.0504 0.61453,-0.14441 0.76291,-0.16243 0.0467,-0.006 0.1534,-0.0201 0.23714,-0.032 0.20706,-0.0295 0.99868,-0.0286 1.24838,0.001 1.3942,0.16738 2.61175,0.75201 3.57336,1.71584 1.93899,1.94346 2.30689,4.92516 0.89679,7.26832 -0.41999,0.6979 -1.03359,1.35477 -1.69935,1.81917 -1.16041,0.80944 -2.62427,1.19067 -3.99693,1.04093 z m -2.03627,-1.68384 c 0.13728,-0.0573 0.24068,-0.18496 0.25908,-0.31976 0.005,-0.0357 0.009,-0.82072 0.009,-1.74457 l -3e-5,-1.67974 h 0.0713 0.0713 l 4.6e-4,1.72034 c 5.3e-4,1.92629 -0.008,1.81053 0.14686,1.94671 0.0949,0.0834 0.19008,0.11293 0.32589,0.10128 0.12735,-0.0109 0.20489,-0.0463 0.28045,-0.12794 0.11604,-0.12537 0.10861,0.0579 0.11449,-2.82336 l 0.005,-2.66423 h 0.0707 0.0707 v 0.2549 c 0,0.14019 0.01,0.2945 0.0222,0.3429 0.0433,0.17212 0.22112,0.27761 0.39135,0.23222 0.10213,-0.0272 1.08992,-0.68636 1.13756,-0.75907 0.0251,-0.0383 0.0374,-0.0991 0.0394,-0.19447 l 0.003,-0.13877 0.61911,-0.41879 c 0.34052,-0.23034 0.69448,-0.46957 0.78659,-0.53162 0.0943,-0.0636 0.16726,-0.127 0.16701,-0.14529 -2.3e-4,-0.0179 -0.0177,-0.055 -0.0389,-0.0825 l -0.0385,-0.05 -0.47364,0.31796 c -0.2605,0.17488 -0.62691,0.42231 -0.81424,0.54984 l -0.34059,0.23188 -0.0755,-0.027 c -0.15117,-0.054 -0.18788,-0.0415 -0.49396,0.16806 l -0.21543,0.14748 -0.0114,-0.0962 c -0.0282,-0.2382 -0.18785,-0.48589 -0.38924,-0.60391 -0.18707,-0.10963 -0.30117,-0.13404 -0.68256,-0.14602 l -0.35702,-0.0112 -0.13015,0.21748 c -0.2049,0.34237 -0.16696,0.3378 -0.34329,0.0414 l -0.15224,-0.25588 -0.36538,0.01 c -0.37442,0.0101 -0.46376,0.0258 -0.6558,0.11559 -0.19515,0.0913 -0.35246,0.29656 -0.40361,0.52676 -0.0329,0.14811 -0.0366,1.92132 -0.004,2.04004 0.0406,0.14892 0.15979,0.23344 0.32922,0.23344 0.099,0 0.19554,-0.054 0.26567,-0.14863 0.0413,-0.0558 0.0426,-0.0807 0.0482,-0.93883 l 0.006,-0.88154 h 0.0704 0.0704 l 8e-5,2.62364 c 8e-5,1.76814 0.007,2.64863 0.0214,2.70031 0.0278,0.10027 0.12934,0.21399 0.23166,0.25957 0.10237,0.0456 0.25283,0.0489 0.35136,0.008 z m 6.61171,-4.17125 0.0516,-0.0517 -6.9e-4,-1.69381 -6.9e-4,-1.6938 -0.051,-0.051 -0.051,-0.051 h -2.28133 -2.28133 l -0.0445,0.0565 c -0.0436,0.0555 -0.0444,0.0676 -0.0415,0.65831 l 0.003,0.60178 0.0692,0.0766 c 0.0381,0.0421 0.0877,0.11294 0.1104,0.15735 0.0536,0.10498 0.0672,0.11142 0.13043,0.0617 l 0.0528,-0.0416 0.005,-0.59779 0.005,-0.59779 1.99944,1e-5 h 1.99944 v 1.42113 c 0,0.78162 -0.007,1.42112 -0.0152,1.42112 -0.008,0 -0.91041,0 -2.00452,0 h -1.98929 v -0.15224 c 0,-0.10835 -0.007,-0.15219 -0.0254,-0.15207 -0.0139,7e-5 -0.0975,0.0492 -0.18564,0.10916 l -0.16027,0.10898 0.004,0.17888 c 0.005,0.20809 0.0197,0.24461 0.10865,0.27056 0.0395,0.0115 0.95346,0.0178 2.303,0.0157 l 2.23749,-0.003 z m -5.96787,-2.54301 c 0.21851,-0.1013 0.35454,-0.27321 0.39567,-0.50003 0.0663,-0.36581 -0.0797,-0.6583 -0.40489,-0.81078 -0.0951,-0.0446 -0.14092,-0.0528 -0.29526,-0.0528 -0.15768,-1e-5 -0.19936,0.008 -0.30448,0.0569 -0.18767,0.0877 -0.31828,0.23107 -0.38382,0.4213 -0.0437,0.12686 -0.0299,0.40987 0.0263,0.53673 0.0748,0.16896 0.2527,0.32658 0.43668,0.3868 0.14029,0.0459 0.38679,0.0282 0.52982,-0.0381 z"
         id="path19"
         inkscape:label="icon" />
    </g>
  </g>
</svg>
