<?xml version="1.0" encoding="UTF-8" standalone="no"?>
<svg
   width="8"
   height="8"
   viewBox="0 0 8 8"
   version="1.1"
   id="svg1"
   sodipodi:docname="beaker.svg"
   inkscape:version="1.3 (0e150ed6c4, 2023-07-21)"
   xmlns:inkscape="http://www.inkscape.org/namespaces/inkscape"
   xmlns:sodipodi="http://sodipodi.sourceforge.net/DTD/sodipodi-0.dtd"
   xmlns="http://www.w3.org/2000/svg"
   xmlns:svg="http://www.w3.org/2000/svg">
  <defs
     id="defs1" />
  <sodipodi:namedview
     id="namedview1"
     pagecolor="#505050"
     bordercolor="#eeeeee"
     borderopacity="1"
     inkscape:showpageshadow="0"
     inkscape:pageopacity="0"
     inkscape:pagecheckerboard="0"
     inkscape:deskcolor="#505050"
     showgrid="false"
     inkscape:zoom="94.88"
     inkscape:cx="3.9997892"
     inkscape:cy="3.9997892"
     inkscape:window-width="1254"
     inkscape:window-height="1041"
     inkscape:window-x="1297"
     inkscape:window-y="0"
     inkscape:window-maximized="0"
     inkscape:current-layer="svg1" />
  <rect
     style="fill:#ff1161;fill-rule:evenodd;stroke:#11a1ff;stroke-width:0;stroke-dasharray:none;stroke-opacity:0"
     id="rect1"
     width="7.9999943"
     height="7.9999971"
     x="2.8610229e-06"
     y="1.4305115e-06"
     ry="0"
     sodipodi:insensitive="true" />
  <path
     d="M 1.34,0 A 0.50635956,0.50635956 0 0 0 1.5,1 H 2 V 2.41 C 1.91,2.58 0.8,4.72 0.34,5.5 0.18,5.76 0,6.11 0,6.56 0,6.95 0.15,7.33 0.41,7.59 0.67,7.85 1.05,8 1.44,8 h 5.13 c 0.38,0 0.74,-0.16 1,-0.41 H 7.6 C 7.86,7.33 8.01,6.95 8.01,6.56 8.01,6.11 7.82,5.76 7.67,5.5 7.21,4.72 6.1,2.58 6.01,2.41 V 1 h 0.5 a 0.5,0.5 0 1 0 0,-1 h -5 A 0.5,0.5 0 0 0 1.42,0 0.5,0.5 0 0 0 1.36,0 Z M 3,1 h 2 v 1.63 l 0.06,0.09 c 0,0 0.63,1.23 1.19,2.28 H 1.75 C 2.31,3.95 2.94,2.72 2.94,2.72 L 3,2.63 Z"
     id="path1"
     style="display:inline;fill:#f6e04e;fill-opacity:1;stroke:#f6e04e;stroke-width:0;stroke-dasharray:none;stroke-opacity:0"
     sodipodi:insensitive="true" />
  <g
     id="g5"
     inkscape:label="liquid"
     style="display:inline"
     transform="matrix(1,0,0,0.92592602,-0.00498657,0.36786186)"
     sodipodi:insensitive="true">
    <rect
       style="display:inline;fill:#11a1ff;fill-rule:evenodd;stroke:#11a1ff;stroke-width:0;stroke-dasharray:none;stroke-opacity:0"
       id="rect4"
       width="2.1135364"
       height="2.6899617"
       x="1.8606406"
       y="4.7302256" />
    <path
       style="display:inline;fill:#11a1ff;fill-rule:evenodd;stroke:#11a1ff;stroke-width:0;stroke-dasharray:none;stroke-opacity:0"
       d="M 1.8560349,4.7201894 1.0402684,6.6642833 c 0,0 -0.28821129,0.7459604 0.7828592,0.7516652 1.1232029,0.00598 0.032907,-2.6957591 0.032907,-2.6957591 z"
       id="path4"
       sodipodi:nodetypes="ccsc" />
    <rect
       style="display:inline;fill:#11a1ff;fill-rule:evenodd;stroke:#11a1ff;stroke-width:0;stroke-dasharray:none;stroke-opacity:0"
       id="rect5"
       width="2.1840386"
       height="2.6899617"
       x="-6.1493869"
       y="4.7302256"
       transform="scale(-1,1)" />
    <path
       style="display:inline;fill:#11a1ff;fill-rule:evenodd;stroke:#11a1ff;stroke-width:0;stroke-dasharray:none;stroke-opacity:0"
       d="M 6.1539925,4.7201894 6.969707,6.6642833 c 0,0 0.2881929,0.7459604 -0.7828093,0.7516652 -1.1231313,0.00598 -0.032905,-2.6957591 -0.032905,-2.6957591 z"
       id="path5"
       sodipodi:nodetypes="ccsc" />
  </g>
</svg>
