<svg width="600" height="241" viewBox="0 0 600 241" xmlns="http://www.w3.org/2000/svg" xmlns:xlink="http://www.w3.org/1999/xlink"><title>ibm-logo</title><defs><path d="M0 0v49.7587h33.5622v141.4826H.9138v49.1592h116.79v-49.1592H84.141V49.7587h32.6484V0H0zm332.412.5995v49.1592h33.5628v141.4826h-32.6484v49.1592h83.226V103.618l49.5936 136.7345 1.008.024 48.7032-136.7585v136.7825h84.138v-49.1592h-33.5628V49.7587h32.649V.5995h-93.798l-38.8356 109.643L427.1196.5995H332.412zm-199.074 0v49.1592h33.5622v77.9353h129.186v-14.9444s10.8066-8.4182 14.25-16.4066l6.9138-15.5s3.2112-8.676 3.2112-16.4295l-1.383-15.5s-2.1696-12.6274-5.9532-16.3833l-13.3596-15.5241S282.7656.5995 260.25.5995H133.338zm84.138 49.1592h49.1952V95.321H217.476V49.7587zM133.2 241v-49.1592h33.5622v-77.9353h129.186v14.9444s10.8066 8.4182 14.25 16.4066l6.9138 15.5s3.2112 8.676 3.2112 16.4295l-1.383 15.5s-2.1696 12.6274-5.9532 16.3833l-13.3596 15.5241S282.6276 241 260.112 241H133.2zm84-49.1592h49.1952v-45.5622H217.2v45.5622z" id="a"/></defs><g fill="none" fill-rule="evenodd"><mask id="b" fill="#fff"><use xlink:href="#a"/></mask><path d="M0 8.8025h618v31.9127H0M0 72.628h585v31.9187H0v31.9068h585V168.36H0m0 31.9187h618v31.9187H0" stroke="#1F70C1" stroke-width="16.422" mask="url(#b)"/></g></svg>