<svg width="599" height="172" viewBox="0 0 599 172" xmlns="http://www.w3.org/2000/svg"><title>slack-logo</title><g fill-rule="nonzero" fill="none"><path d="M107.8182 15.4827C105.2272 7.718 96.909 3.4953 89.1364 5.9472c-7.7728 2.5882-12 10.8977-9.5455 18.6622l38.3182 117.6945c2.5909 7.2197 10.5 11.3063 18 9.1268 7.909-2.3157 12.6818-10.6252 10.0909-18.2535 0-.2725-38.1818-117.6945-38.1818-117.6945z" fill="#ECB32D"/><path d="M48.5 34.6898c-2.591-7.7646-10.909-11.9874-18.6818-9.5355-7.7727 2.5882-12 10.8977-9.5455 18.6622L58.591 161.511c2.591 7.2197 10.5 11.3063 18 9.1268 7.9091-2.3158 12.6818-10.6252 10.091-18.2535 0-.2725-38.1819-117.6945-38.1819-117.6945z" fill="#63C1A0"/><path d="M156.091 112.8803c7.7726-2.5882 12-10.8976 9.5454-18.6622-2.591-7.7646-10.9091-11.9874-18.6819-9.5354L29 123.0969c-7.2273 2.5881-11.3182 10.489-9.1364 17.981 2.3182 7.9008 10.6364 12.6686 18.2728 10.0804.2727 0 117.9545-38.278 117.9545-38.278z" fill="#E01A59"/><path d="M53.5455 146.2543c7.6363-2.452 17.5909-5.7212 28.2272-9.1267-2.4545-7.6284-5.7272-17.5725-9.1363-28.1977l-28.2273 9.1268 9.1364 28.1976z" fill="#331433"/><path d="M113 126.911c10.6364-3.4055 20.591-6.6748 28.2273-9.1267-2.4546-7.6284-5.7273-17.5725-9.1364-28.1977l-28.2273 9.1268L113 126.911z" fill="#D62027"/><path d="M136.7273 53.6244c7.7727-2.5882 12-10.8976 9.5454-18.6622-2.5909-7.7646-10.909-11.9874-18.6818-9.5354L9.7727 63.7048C2.5455 66.2928-1.5455 74.1936.6364 81.6857c2.3181 7.9008 10.6363 12.6685 18.2727 10.0803.2727 0 117.8182-38.1417 117.8182-38.1417z" fill="#89D3DF"/><path d="M34.3182 86.8622c7.6363-2.452 17.5909-5.7213 28.2273-9.1268-3.4091-10.6252-6.6819-20.5693-9.1364-28.1976l-28.2273 9.1268 9.1364 28.1976z" fill="#258B74"/><path d="M93.6364 67.6551c10.6363-3.4055 20.5909-6.6748 28.2272-9.1268-3.409-10.6252-6.6818-20.5692-9.1363-28.1976L84.5 39.4575l9.1364 28.1976z" fill="#819C3C"/><path d="M275.5455 46.4047c5.1818 2.3158 5.5909 3.9504 1.5 11.715-4.2273 7.9008-5.1819 8.4457-10.3637 6.4023-6.409-2.7244-14.7273-4.7677-20.0454-4.7677-8.7273 0-14.4546 3.1331-14.4546 7.9008 0 15.6654 49.9091 7.2197 49.9091 40.4575 0 16.7551-14.4545 27.9252-36 27.9252-11.3182 0-25.3636-3.8142-35.0454-8.7181-4.7728-2.452-5.1819-3.8142-.9546-11.8512 3.5455-6.9472 4.7727-7.7646 9.9546-5.585 8.1818 3.5417 18.6818 6.4023 25.6363 6.4023 7.9091 0 13.2273-3.2693 13.2273-7.9008 0-15.1204-50.8636-7.9007-50.8636-40.185 0-17.1638 14.3181-28.6063 35.7272-28.6063 10.3637-.1362 23.0455 2.8606 31.7728 6.811zM315.909 6.9008v124.233c0 1.9071-2.0454 3.8142-4.7726 3.8142h-13.091c-2.8636 0-4.7727-2.0433-4.7727-3.8141V6.9008c0-6.13 1.7728-6.6748 11.3182-6.6748C315.5.0898 315.9091.907 315.9091 6.9008zM408.909 76.6457v53.5346c0 2.8606-2.0454 4.7677-4.7726 4.7677h-12.9546c-3 0-5.0454-2.1795-4.7727-5.1763l.1364-5.7213c-6.9546 7.7646-17.0455 11.8512-27.1364 11.8512-19.5 0-32.591-11.3063-32.591-28.0614 0-17.845 14.7274-29.9685 36.9546-29.9685 8.4546 0 16.091 1.4984 22.3637 4.0866v-6.13c0-9.8078-7.7728-15.6653-21-15.6653-6.1364 0-13.7728 2.452-19.7728 5.9937-4.6363 2.5882-5.7272 2.452-10.7727-5.0402-4.909-7.492-4.7727-8.8543 0-11.9874 9.1364-5.8574 21.4091-9.6716 32.7273-9.6716 25.5 0 41.5909 13.7582 41.5909 37.1882zm-60.2726 31.0582c0 6.4024 5.4545 10.6252 13.5 10.6252 9.8181 0 18.8181-4.7677 24-12.8047V97.215c-5.1819-2.0433-11.591-3.1331-17.1819-3.1331-12.2727 0-20.3181 5.7212-20.3181 13.622zM497.5455 46.541c4.7727 2.7244 4.909 4.2228-.2728 12.2598-4.909 7.6283-5.7272 8.037-11.0454 5.4488-3.9546-2.0433-10.3637-3.8142-15.5455-3.8142-16.3636 0-27.2727 10.7615-27.2727 27.108 0 16.8912 10.909 28.3338 27.2727 28.3338 5.7273 0 12.8182-2.1796 17.4546-4.7678 4.7727-2.7244 5.7272-2.5881 10.7727 4.7678 4.5 6.811 4.5 8.4456.409 11.3063-7.3636 5.0401-18.8181 8.8543-29.0454 8.8543-30.2727 0-50.5909-19.3433-50.5909-48.4945 0-28.8787 20.3182-48.0858 50.8637-48.0858 9.2727 0 20.1818 3.133 27 7.0834zM596.5455 123.233c3.8181 4.7678 2.3181 6.5387-7.2273 9.9442-9.6818 3.5417-11.0455 3.2693-14.4546-1.0898L547.7273 95.989l-12.1364 11.715v23.4299c0 1.907-2.0454 3.8141-4.7727 3.8141h-13.091c-2.8636 0-4.7727-2.0433-4.7727-3.8141V6.9008c0-6.13 1.7728-6.6748 11.3182-6.6748 11.0455 0 11.3182.8173 11.3182 6.6748V77.463l37.091-35.5536c4.0908-3.8141 6.409-3.5417 13.6363 1.226 8.0454 5.1764 8.5909 6.6748 4.7727 10.3528l-27.5454 26.9716 33 42.7733z" fill="#2D333A"/></g></svg>