 <svg
      version="1.1"
      xmlns="http://www.w3.org/2000/svg"
      xmlns:xlink="http://www.w3.org/1999/xlink"
      x="0px"
      y="0px"
      viewBox="0 0 600 300"
      enable-background="new 0 0 600 300"
      xml:space="preserve"
    >
    <g id="identitySkills">
        <g id="logo">
          <polygon
            id="blueV"
            fill="#58AADE"
            points="343.842,21.876 335.496,17.802 335.496,28.091 335.503,28.091 344.271,67.069     319.702,98.325 280.295,98.325 255.73,67.069 264.491,28.118 264.491,17.804 256.155,21.876 245.326,70.017 275.671,108.614     324.335,108.614 354.674,70.017   "
          />
          <polygon
            id="yellowV"
            fill="#F5E343"
            points="327.724,38.507 322.447,35.931 322.447,42.437 322.447,42.437 327.993,67.083     312.458,86.849 287.543,86.849 272.007,67.083 277.548,42.454 277.548,35.933 272.276,38.507 265.429,68.946 284.611,93.356     315.386,93.356 334.573,68.946   "
          />
          <g id="barGroup">
            <rect
              id="bar"
              x="291.836"
              y="12.614"
              fill="#EE3D7B"
              width="16.329"
              height="54.438"
            />
            <g id="onlineVertical">
              <path
                fill="#F1F2F2"
                d="M300,25.794c-0.87,0-1.304-0.607-1.304-1.82c0-1.244,0.434-1.867,1.304-1.867      c0.869,0,1.304,0.623,1.304,1.867C301.304,25.187,300.869,25.794,300,25.794z M300,25.329c0.521,0,0.781-0.451,0.781-1.355      c0-0.934-0.261-1.402-0.781-1.402s-0.782,0.469-0.782,1.402C299.218,24.878,299.479,25.329,300,25.329z"
              />
              <path
                fill="#F1F2F2"
                d="M298.874,31.95v-3.586h0.478v3.586H298.874z M300.496,31.95l-1.094-2.729h-0.229v-0.857h0.328      l1.097,2.727h0.122v0.859H300.496z M300.647,31.95v-3.586h0.479v3.586H300.647z"
              />
              <path
                fill="#F1F2F2"
                d="M298.904,38.157v-3.588h0.498v3.588H298.904z M298.904,38.157v-0.48h2.34v0.48H298.904z"
              />
              <path
                fill="#F1F2F2"
                d="M298.925,41.257v-0.48h2.151v0.48H298.925z M298.925,44.362v-0.479h2.151v0.479H298.925z       M299.748,44.362v-3.586h0.498v3.586H299.748z"
              />
              <path
                fill="#F1F2F2"
                d="M298.874,50.569v-3.586h0.478v3.586H298.874z M300.496,50.569l-1.094-2.727h-0.229v-0.859h0.328      l1.097,2.727h0.122v0.859H300.496z M300.647,50.569v-3.586h0.479v3.586H300.647z"
              />
              <path
                fill="#F1F2F2"
                d="M298.904,56.776V53.19h0.498v3.586H298.904z M298.904,53.669V53.19h2.34v0.479H298.904z M298.904,55.22 v-0.479h1.893v0.479H298.904z M298.904,56.776v-0.48h2.34v0.48H298.904z"
              />
            </g>
          </g>
        </g>
    </g>
</svg>