<svg width="611" height="121" viewBox="0 0 611 121" xmlns="http://www.w3.org/2000/svg"><title>xbox-one-logo</title><defs><radialGradient cx="48.9626%" cy="44.5789%" fx="48.9626%" fy="44.5789%" r="72.8529%" gradientTransform="matrix(0 1 -.98854 0 .9303 -.0438)" id="a"><stop stop-color="#FFF" offset="0%"/><stop stop-color="#FFF" stop-opacity="0" offset="100%"/></radialGradient><linearGradient x1="73.4964%" y1="56.2654%" x2="38.7232%" y2="32.2763%" id="b"><stop stop-color="#97CA43" offset="0%"/><stop stop-color="#97CA43" stop-opacity="0" offset="100%"/></linearGradient><linearGradient x1="78.0584%" y1="74.2822%" x2="109.4641%" y2="10.3439%" id="c"><stop stop-color="#97CA43" offset="0%"/><stop stop-color="#97CA43" stop-opacity="0" offset="100%"/></linearGradient><linearGradient x1="59.7509%" y1="65.865%" x2="86.5797%" y2="25.7755%" id="d"><stop stop-color="#97CA43" offset="0%"/><stop stop-color="#97CA43" stop-opacity="0" offset="100%"/></linearGradient></defs><g fill-rule="nonzero" fill="none"><path fill="#6B6B6B" d="M539.9578 22.3517v60.9797l-44.9235-61.0252-7.3637-.014V96.538h8.2597V36.9073l44.0207 59.6796 8.2804.007V22.3517zM444.7208 20.6283c-20.88 0-35.4742 15.9675-35.4742 38.8253 0 22.8945 14.5943 38.8585 35.4742 38.8585 20.8589 0 35.4041-15.964 35.4041-38.8585 0-22.8578-14.5452-38.8253-35.4041-38.8253m0 69.8173c-15.9032 0-27.0536-12.7447-27.0536-30.992 0-18.2316 11.1504-30.978 27.0536-30.978 15.8822 0 26.9626 12.7464 26.9626 30.978.0004 18.2474-11.08 30.992-26.9625 30.992M565.8498 89.3328V61.8594h40.8777v-7.2682h-40.8777V29.5656h43.6566v-7.2629h-51.9865V96.601h52.4975v-7.2681z"/><path fill="#177D3E" d="M385.973 96.6639l-23.7359-32.2238-23.7234 32.2238h-9.7784l28.5461-38.932-26.065-35.382h9.7716l21.2491 28.861 21.2298-28.861h9.7645l-26.0526 35.382 28.5587 38.932zM255.2914 60.5436c-1.5504-1.321-3.2338-2.3428-4.8682-3.0987 5.3932-2.9272 8.9315-8.4596 8.9315-14.8774 0-4.7557-1.7534-20.214-24.1592-20.214h-30.179v32.0348h-10.055c-1.3089 1.6989-4.2662 5.7791-5.3967 7.457h15.4517V96.657l30.179.0035c16.3476 0 26.5076-8.304 26.5076-21.6925 0-5.8508-2.2119-10.8252-6.4117-14.4243zm-41.9313-30.439h21.8354c5.9146 0 15.8086 1.4714 15.8086 11.8103 0 7.8158-5.7677 12.4734-15.8086 12.4734H213.36V30.1046zm21.8354 58.8048H213.36V61.8559h21.8354c8.2805 0 18.185 2.2868 18.185 12.9511 0 12.2617-11.3884 14.1024-18.185 14.1024z"/><path d="M300.957 20.6335c-20.8729 0-35.4636 15.9676-35.4636 38.8253 0 22.8928 14.5907 38.8498 35.4636 38.8498 20.859 0 35.4042-15.957 35.4042-38.8498 0-22.8577-14.5453-38.8253-35.4042-38.8253m0 69.8156c-15.9032 0-27.0431-12.7447-27.0431-30.9903 0-18.2316 11.14-30.9727 27.043-30.9727 15.8788 0 26.9627 12.7411 26.9627 30.9727 0 18.2456-11.0838 30.9903-26.9625 30.9903M200.9567 96.657l-28.569-38.9268 26.0702-35.3785h-9.768l-21.251 28.8679-21.2334-28.8679h-9.74l26.0527 35.3785-28.5655 38.9267h9.7855l23.7147-32.215 23.7288 32.215z" fill="#177D3E"/><path d="M121.0595 60.5676c0 33.0077-27.0682 59.7657-60.4584 59.7657-33.3902 0-60.4583-26.758-60.4583-59.7657C.1428 27.56 27.2109.802 60.601.802s60.4584 26.758 60.4584 59.7656z" fill="#666"/><path d="M123.3552 60.9836c0 33.0077-27.068 59.7657-60.4583 59.7657-33.3902 0-60.4584-26.758-60.4584-59.7657S29.5067 1.218 62.897 1.218c33.3902 0 60.4583 26.758 60.4583 59.7657z" fill="url(#a)" transform="translate(-2.2958 -.416)"/><path d="M123.3552 60.9836c0 33.0077-27.068 59.7657-60.4583 59.7657-33.3902 0-60.4584-26.758-60.4584-59.7657S29.5067 1.218 62.897 1.218c33.3902 0 60.4583 26.758 60.4583 59.7657z" fill="url(#a)" transform="translate(-2.2958 -.416)"/><path d="M123.3552 60.9836c0 33.0077-27.068 59.7657-60.4583 59.7657-33.3902 0-60.4584-26.758-60.4584-59.7657S29.5067 1.218 62.897 1.218c33.3902 0 60.4583 26.758 60.4583 59.7657z" fill="url(#a)" transform="translate(-2.2958 -.416)"/><path d="M45.2579 34.3917C38.5864 42.4827 10.6217 75.366 13.1 97.601c1.727 2.1878 3.6278 4.2331 5.6417 6.164-.2935-17.0197 19.6837-35.2344 35.2742-48.984L45.258 34.3918z" fill="#00A54D"/><path d="M32.3769 2.0918C25.7054 10.1828-2.2593 43.0662.219 65.3013c1.727 2.1877 3.6278 4.233 5.6417 6.164-.2935-17.0197 19.6837-35.2344 35.2742-48.984L32.377 2.0918z" transform="translate(12.881 32.2999)" fill="url(#b)"/><path d="M28.8493 9.7359c-3.4867 2.0977-6.7265 4.5629-9.7038 7.2848 9.591 1.8218 19.212 10.2657 24.485 17.2593 4.5944 7.1778 7.0892 13.7599 10.3323 20.5543 2.1957-1.859 4.4284-3.7526 6.8468-5.6905l-.014-29.5034C53.6498 15.2012 41.84 9.3584 28.962 9.7359c-.0274.0165-.0852-.0166-.1128 0z" fill="#02A74D"/><path d="M12.8565 2.428C9.3698 4.5258 6.13 6.991 3.1528 9.7128c9.591 1.8218 19.212 10.2657 24.485 17.2593 4.5943 7.1779 7.0891 13.76 10.3322 20.5543 2.1958-1.859 4.4285-3.7526 6.8468-5.6905l-.014-29.5034C37.6572 7.8934 25.8474 2.0505 12.9694 2.428c-.0275.0166-.0853-.0166-.1129 0z" fill="url(#c)" transform="translate(15.9927 7.3079)"/><g><path d="M75.965 34.4124c6.6494 8.0978 34.5216 41.009 32.0514 63.2627-1.7214 2.1896-3.6158 4.2367-5.623 6.1693.2925-17.0341-19.6186-35.2641-35.1576-49.0253l8.7292-20.4067z" fill="#00A54D"/><path d="M32.2697 2.0936C25.6204 10.1913-2.2519 43.1025.2184 65.3563c1.7213 2.1895 3.6157 4.2366 5.623 6.1692C5.549 54.4915 25.46 36.2614 40.999 22.5002L32.2697 2.0936z" transform="matrix(-1 0 0 1 108.2348 32.3189)" fill="url(#b)"/><path d="M92.3193 9.736c3.4752 2.0994 6.7042 4.5666 9.6717 7.2908-9.5592 1.8233-19.1484 10.2744-24.404 17.2739-4.5792 7.1839-7.0657 13.7715-10.298 20.5716-2.1886-1.8606-4.4139-3.7558-6.8242-5.6954l.014-29.5282c7.122-4.4429 18.8927-10.2906 31.728-9.9128.0274.0166.085-.0166.1125 0z" fill="#02A74D"/><path d="M12.814 2.43C9.3388 4.5297 6.1098 6.9969 3.1423 9.721c9.5592 1.8233 19.1484 10.2743 24.404 17.2738 4.5792 7.184 7.0657 13.7715 10.298 20.5716 2.1886-1.8605 4.4139-3.7557 6.8242-5.6953l-.014-29.5282C37.5325 7.9 25.7618 2.0523 12.9265 2.4301c-.0274.0165-.085-.0166-.1125 0z" fill="url(#d)" transform="matrix(-1 0 0 1 105.1333 7.3058)"/></g></g></svg>