<?xml version="1.0" encoding="UTF-8" standalone="no"?>
<!-- Uploaded to: SVG Repo, www.svgrepo.com, Generator: SVG Repo Mixer Tools -->

<svg
   fill="#000000"
   preserveAspectRatio="xMidYMid"
   width="20"
   height="20"
   viewBox="0 0 20 20"
   version="1.1"
   id="svg1"
   sodipodi:docname="actual-size-svgrepo-com.svg"
   inkscape:version="1.3 (0e150ed6c4, 2023-07-21)"
   xmlns:inkscape="http://www.inkscape.org/namespaces/inkscape"
   xmlns:sodipodi="http://sodipodi.sourceforge.net/DTD/sodipodi-0.dtd"
   xmlns="http://www.w3.org/2000/svg"
   xmlns:svg="http://www.w3.org/2000/svg">
  <defs
     id="defs1" />
  <sodipodi:namedview
     id="namedview1"
     pagecolor="#505050"
     bordercolor="#eeeeee"
     borderopacity="1"
     inkscape:showpageshadow="0"
     inkscape:pageopacity="0"
     inkscape:pagecheckerboard="0"
     inkscape:deskcolor="#505050"
     inkscape:zoom="24.666207"
     inkscape:cx="15.912459"
     inkscape:cy="15.953"
     inkscape:window-width="2560"
     inkscape:window-height="965"
     inkscape:window-x="-8"
     inkscape:window-y="34"
     inkscape:window-maximized="1"
     inkscape:current-layer="svg1" />
  <path
     d="m 14.389344,6.4376581 h 2.715243 c 0.326901,0 0.591875,0.2655697 0.591875,0.5936616 0,0.3274963 -0.214957,0.559721 -0.542453,0.559721 h -4.020465 c -0.05716,0.017268 -0.114325,0.033941 -0.173275,0.033941 -0.151839,0 -0.303083,-0.058354 -0.4186,-0.1738707 C 12.39638,7.3052257 12.352912,7.1039643 12.390426,6.9158028 V 2.8274571 c 0,-0.3280918 0.242347,-0.5460257 0.569843,-0.5460257 0.326901,0 0.591875,0.2655698 0.591875,0.5936616 v 2.7229834 l 4.910064,-4.92435446 c 0.231033,-0.23162925 0.605571,-0.23162925 0.8372,0 0.231034,0.2322247 0.231034,0.60795236 0,0.83958166 z M 7.6316056,17.124758 c 0,0.328092 -0.2649742,0.593661 -0.5918751,0.593661 -0.3274965,0 -0.5918753,-0.265569 -0.5918753,-0.593661 V 14.401774 L 1.5377914,19.325533 C 1.4222745,19.441645 1.2704353,19.5 1.1191915,19.5 c -0.15124378,0 -0.30308299,-0.05835 -0.4185999,-0.174467 -0.2310338,-0.231629 -0.2310338,-0.607356 0,-0.839581 l 4.9100637,-4.92376 H 2.8954127 c -0.3274963,0 -0.5918752,-0.265569 -0.5918752,-0.593661 0,-0.328091 0.2643789,-0.593662 0.5918752,-0.593662 h 4.1443178 c 0,0 5.955e-4,0 5.955e-4,0 0.076813,0 0.1536255,0.01608 0.2256747,0.04585 0.1446937,0.06014 0.2602107,0.175657 0.3203509,0.320947 0.029773,0.07265 0.045254,0.149457 0.045254,0.226865 z M 7.0397304,7.6249812 c -0.058949,0 -0.1167078,-0.016673 -0.1732754,-0.033941 H 2.8632585 c -0.3274964,0 -0.5597211,-0.2322247 -0.5597211,-0.559721 0,-0.3280919 0.2643789,-0.5936616 0.5918753,-0.5936616 H 5.6106553 L 0.7005916,1.5133036 c -0.2310338,-0.2316293 -0.2310338,-0.60735696 0,-0.83958166 0.2310338,-0.23162925 0.606166,-0.23162925 0.8371998,0 L 6.4478551,5.5980764 V 2.875093 c 0,-0.3280918 0.2643789,-0.5936616 0.5918753,-0.5936616 0.3269009,0 0.5918752,0.2655698 0.5918752,0.5936616 v 4.1556312 c 0,0.1524346 -0.057759,0.3042739 -0.1732753,0.4203863 C 7.3428134,7.5666274 7.1909741,7.6249812 7.0397304,7.6249812 Z m 5.5102746,4.9178048 c 0.101822,-0.104204 0.24473,-0.167917 0.410264,-0.167917 h 4.144318 c 0.326901,0 0.591875,0.265571 0.591875,0.593662 0,0.328092 -0.264974,0.593661 -0.591875,0.593661 h -2.715243 l 4.910064,4.92376 c 0.231034,0.232225 0.231034,0.607952 0,0.839581 C 19.183296,19.441645 19.032052,19.5 18.880808,19.5 c -0.151839,0 -0.303083,-0.05835 -0.4186,-0.174467 l -4.910064,-4.923759 v 2.722984 c 0,0.328092 -0.264974,0.593661 -0.591875,0.593661 -0.327496,0 -0.569843,-0.27212 -0.569843,-0.600212 v -4.034755 c -0.03751,-0.187565 0.006,-0.388827 0.151243,-0.534712 0.0024,-0.0024 0.006,-0.0029 0.0083,-0.006 z"
     id="path1"
     style="stroke-width:0.595448" />
</svg>
