<?xml version="1.0" encoding="UTF-8" standalone="no"?>
<!-- Uploaded to: SVG Repo, www.svgrepo.com, Generator: SVG Repo Mixer Tools -->

<svg
   fill="#000000"
   preserveAspectRatio="xMidYMid"
   width="20"
   height="20"
   viewBox="0 0 20 20"
   version="1.1"
   id="svg1"
   sodipodi:docname="full-screen-svgrepo-com.svg"
   inkscape:version="1.3 (0e150ed6c4, 2023-07-21)"
   xmlns:inkscape="http://www.inkscape.org/namespaces/inkscape"
   xmlns:sodipodi="http://sodipodi.sourceforge.net/DTD/sodipodi-0.dtd"
   xmlns="http://www.w3.org/2000/svg"
   xmlns:svg="http://www.w3.org/2000/svg">
  <defs
     id="defs1" />
  <sodipodi:namedview
     id="namedview1"
     pagecolor="#505050"
     bordercolor="#eeeeee"
     borderopacity="1"
     inkscape:showpageshadow="0"
     inkscape:pageopacity="0"
     inkscape:pagecheckerboard="0"
     inkscape:deskcolor="#505050"
     inkscape:zoom="24.666207"
     inkscape:cx="15.892188"
     inkscape:cy="12.709696"
     inkscape:window-width="2560"
     inkscape:window-height="965"
     inkscape:window-x="-8"
     inkscape:window-y="34"
     inkscape:window-maximized="1"
     inkscape:current-layer="svg1" />
  <path
     d="m 19.454018,19.159319 c -0.05972,0.145708 -0.175567,0.261557 -0.321275,0.321871 -0.07226,0.03046 -0.14929,0.04598 -0.226325,0.04598 h -4.156269 c -0.328441,0 -0.594179,-0.266335 -0.594179,-0.595374 0,-0.329038 0.265738,-0.595373 0.594179,-0.595373 l 2.71949,-0.0029 -5.514222,-5.530943 c -0.232298,-0.232297 -0.232298,-0.609108 0,-0.842002 0.2317,-0.232298 0.607316,-0.232298 0.839614,0 l 5.570953,5.587673 v -2.798913 c 0,-0.329037 0.211994,-0.581041 0.540434,-0.581041 0.327843,0 0.593582,0.266336 0.593582,0.595374 v 4.168211 c 0,0.07763 -0.01552,0.154666 -0.04598,0.227521 z m -0.5476,-13.32753 c -0.328441,0 -0.540434,-0.3081371 -0.540434,-0.637175 V 2.4518349 L 12.795031,8.038911 c -0.116447,0.1164472 -0.268127,0.1749694 -0.419807,0.1749694 -0.152277,0 -0.303957,-0.058522 -0.419807,-0.1749694 -0.232298,-0.2322972 -0.232298,-0.6091084 0,-0.8420027 l 5.569161,-5.5852846 h -2.741585 c -0.32844,0 -0.627023,-0.2149794 -0.627023,-0.5434202 0,-0.32903789 0.265738,-0.5953735 0.594179,-0.5953735 h 4.156269 c 0,0 0,0 5.97e-4,0 0.07703,0 0.153471,0.0155263 0.225728,0.0459817 0.145708,0.0603137 0.261559,0.17616369 0.321275,0.32187195 0.03046,0.0728542 0.04598,0.14988843 0.04598,0.22751984 v 4.168212 c 0,0.3284408 -0.265739,0.5953735 -0.593582,0.5953735 z m -16.3766541,12.50165 2.7200869,0.0029 c 0.3284407,0 0.593582,0.266335 0.593582,0.595373 0,0.329039 -0.2651413,0.595374 -0.593582,0.595374 H 1.093582 c -0.077034,0 -0.15406853,-0.01552 -0.22692267,-0.04598 C 0.72154823,19.420876 0.60569822,19.305027 0.54538454,19.159319 0.51552629,19.086464 0.5,19.009429 0.5,18.931798 v -4.168211 c 0,-0.329038 0.26573845,-0.595374 0.593582,-0.595374 0.3284408,0 0.5517806,0.252004 0.5517806,0.581041 v 2.78697 l 5.5596064,-5.57573 c 0.2322972,-0.232298 0.607914,-0.232298 0.8396141,0 0.2322972,0.232895 0.2322972,0.609705 0,0.842002 z M 7.6247761,8.2138804 c -0.15168,0 -0.3039571,-0.058522 -0.4198071,-0.1749694 L 1.6453626,2.4631811 V 5.194614 c 0,0.3290379 -0.2233398,0.637175 -0.5517806,0.637175 C 0.76573845,5.831789 0.5,5.5648563 0.5,5.2364155 V 1.0682035 C 0.5,0.99057214 0.51552629,0.91353779 0.54538454,0.84068366 0.60569822,0.6949754 0.72154823,0.57912538 0.86665933,0.51881171 0.9389163,0.48835629 1.0159506,0.47283 1.0923877,0.47283 c 5.972e-4,0 5.972e-4,0 0.00119,0 h 4.1562691 c 0.3284407,0 0.593582,0.26633561 0.593582,0.5953735 0,0.3284408 -0.2866392,0.5434202 -0.6150801,0.5434202 H 2.4754219 l 5.5691612,5.5852846 c 0.2322972,0.2328943 0.2322972,0.6097055 0,0.8420027 -0.1158501,0.1164472 -0.26753,0.1749694 -0.419807,0.1749694 z"
     id="path1"
     style="stroke-width:0.597165" />
</svg>
