<?xml version="1.0" encoding="UTF-8" standalone="no"?>
<!-- Created with Inkscape (http://www.inkscape.org/) -->

<svg
   width="241.88977"
   height="241.88977"
   viewBox="0 0 64.000002 64.000002"
   version="1.1"
   id="svg1"
   inkscape:version="1.3 (0e150ed6c4, 2023-07-21)"
   sodipodi:docname="favicon-LOADING.svg"
   inkscape:export-filename="..\..\..\Users\vvgon\source\repos\vvgonlineWEB\wwwroot\images\profile\favicon.svg"
   inkscape:export-xdpi="96"
   inkscape:export-ydpi="96"
   xml:space="preserve"
   xmlns:inkscape="http://www.inkscape.org/namespaces/inkscape"
   xmlns:sodipodi="http://sodipodi.sourceforge.net/DTD/sodipodi-0.dtd"
   xmlns="http://www.w3.org/2000/svg"
   xmlns:svg="http://www.w3.org/2000/svg"><sodipodi:namedview
     id="namedview1"
     pagecolor="#505050"
     bordercolor="#eeeeee"
     borderopacity="1"
     inkscape:showpageshadow="0"
     inkscape:pageopacity="0"
     inkscape:pagecheckerboard="0"
     inkscape:deskcolor="#505050"
     inkscape:document-units="mm"
     inkscape:zoom="3.58"
     inkscape:cx="120.81006"
     inkscape:cy="120.81006"
     inkscape:window-width="2512"
     inkscape:window-height="1057"
     inkscape:window-x="40"
     inkscape:window-y="-8"
     inkscape:window-maximized="1"
     inkscape:current-layer="layer1" /><defs
     id="defs1" /><g
     inkscape:label="Layer 1"
     inkscape:groupmode="layer"
     id="layer1"
     transform="translate(-78.691459,-147.16722)"><g
       id="g38"
       transform="translate(5.279197,14.731038)"
       style="display:inline"><rect
         style="display:inline;fill:#ff1161;fill-opacity:1;fill-rule:evenodd;stroke:#2e2e38;stroke-width:0"
         id="rect3"
         width="64"
         height="64"
         x="78.69146"
         y="147.16722"
         transform="translate(-5.2791975,-14.731037)" /><circle
         style="display:inline;fill:#f6e04e;fill-opacity:0;fill-rule:evenodd;stroke:#000000;stroke-width:5;stroke-dasharray:none"
         id="path3"
         cx="105.41226"
         cy="164.43619"
         r="28.121208" /><g
         id="g2"
         transform="matrix(0.27487221,0,0,0.29319702,-12.676134,99.79313)"
         style="display:inline;fill:#f6e04e;stroke:#16bb74;stroke-width:0;stroke-dasharray:none"><path
           d="m 387.01283,327.12114 c -0.8101,-1.8029 -8.82328,-21.79705 -8.93197,-22.28667 -0.0482,-0.21725 0.49697,-0.61058 1.37531,-0.99223 3.07575,-1.33643 21.78626,-8.89378 21.85301,-8.82663 0.0387,0.0389 -0.31598,0.96753 -0.78811,2.06361 -0.47212,1.09609 -1.38651,3.27459 -2.03197,4.84112 l -1.17355,2.84825 -4.69636,1.92542 c -2.58299,1.05897 -4.69428,2.05316 -4.69174,2.20929 0.003,0.15613 0.78667,2.20042 1.74253,4.54285 0.95585,2.34244 1.7401,4.49855 1.74276,4.79135 0.004,0.42192 -3.57985,9.29224 -3.91171,9.6822 -0.0466,0.0547 -0.26626,-0.30462 -0.4882,-0.79856 z m -64.97124,-55.93726 c 0,-0.0706 1.6808,-4.12612 3.7352,-9.01225 2.0544,-4.88613 4.2687,-10.16258 4.9208,-11.72544 l 1.1857,-2.84157 2.0244,0.86518 c 1.1135,0.47585 6.3405,2.69997 11.6157,4.94251 5.2751,2.24252 9.5911,4.15568 9.5911,4.25146 0,0.17995 -9.2839,4.00884 -9.7202,4.00884 -0.1349,0 -2.1986,-0.83849 -4.5861,-1.8633 -2.3875,-1.02482 -4.4745,-1.8633 -4.6378,-1.8633 -0.1634,0 -1.1669,2.08809 -2.2301,4.64019 l -1.933,4.64021 -4.6521,1.91126 c -2.5587,1.05119 -4.801,1.97051 -4.9829,2.04294 -0.1819,0.0724 -0.3307,0.0738 -0.3307,0.003 z m 21.77,-74.66214 -4.8206,-2.04881 -1.9145,-4.73097 c -1.0529,-2.60204 -1.9909,-4.73098 -2.0843,-4.73098 -0.093,0 -2.2281,0.84793 -4.7437,1.88428 l -4.5737,1.88427 -3.6025,-1.52128 c -1.9814,-0.8367 -4.2574,-1.81166 -5.0578,-2.16658 l -1.4552,-0.6453 11.3771,-4.65701 c 6.2574,-2.56135 11.6502,-4.68026 11.9839,-4.70868 0.5604,-0.0477 0.9325,0.75489 4.8513,10.46268 2.3345,5.78289 4.4707,11.08333 4.7471,11.77873 0.2765,0.69542 0.4151,1.26082 0.3081,1.25644 -0.107,-0.004 -2.3639,-0.92993 -5.0152,-2.05679 z m 41.52879,-45.31673 c -0.27687,-0.65863 -1.19778,-2.95959 -2.04648,-5.11324 l -1.54309,-3.91575 1.89539,-4.5343 c 1.04246,-2.49388 1.89539,-4.63466 1.89539,-4.7573 0,-0.12264 -2.0754,-1.1015 -4.61199,-2.17526 l -4.61199,-1.95227 -2.03125,-5.02866 c -1.11718,-2.76576 -1.98858,-5.06692 -1.93644,-5.11368 0.12132,-0.10883 23.04288,9.65883 23.32412,9.93919 0.16488,0.16436 -8.69683,21.78581 -9.61108,23.44982 -0.16494,0.30021 -0.34376,0.10259 -0.72258,-0.79855 z"
           style="fill:#f6e04e;fill-opacity:1;stroke:#16bb74;stroke-width:0;stroke-dasharray:none"
           id="path1-9" /><path
           d="m 472.21115,113.82702 c 0.8101,1.79205 8.82328,21.66581 8.93197,22.15248 0.0482,0.21594 -0.49697,0.6069 -1.37531,0.98625 -3.07575,1.32839 -21.78626,8.84023 -21.85301,8.77348 -0.0387,-0.0387 0.31598,-0.9617 0.78811,-2.05118 0.47212,-1.08949 1.38651,-3.25487 2.03197,-4.81197 l 1.17355,-2.8311 4.69636,-1.91382 c 2.58299,-1.0526 4.69428,-2.0408 4.69174,-2.19599 -0.003,-0.15519 -0.78667,-2.18717 -1.74253,-4.5155 -0.95585,-2.32833 -1.7401,-4.47146 -1.74276,-4.7625 -0.004,-0.41938 3.57985,-9.23628 3.91171,-9.6239 0.0466,-0.0544 0.26626,0.30279 0.4882,0.79375 z m 64.97124,55.60044 c 0,0.0702 -1.6808,4.10128 -3.7352,8.95799 -2.0544,4.85671 -4.2687,10.10139 -4.9208,11.65484 l -1.1857,2.82445 -2.0244,-0.85997 c -1.1135,-0.47298 -6.3405,-2.68371 -11.6157,-4.91274 -5.2751,-2.22902 -9.5911,-4.13066 -9.5911,-4.22587 0,-0.17886 9.2839,-3.9847 9.7202,-3.9847 0.1349,0 2.1986,0.83344 4.5861,1.85208 2.3875,1.01865 4.4745,1.85208 4.6378,1.85208 0.1634,0 1.1669,-2.07551 2.2301,-4.61225 l 1.933,-4.61226 4.6521,-1.89976 c 2.5587,-1.04486 4.801,-1.95864 4.9829,-2.03063 0.1819,-0.072 0.3307,-0.0734 0.3307,-0.003 z m -21.77,74.21257 4.8206,2.03648 1.9145,4.70248 c 1.0529,2.58637 1.9909,4.70249 2.0843,4.70249 0.093,0 2.2281,-0.84282 4.7437,-1.87293 l 4.5737,-1.87292 3.6025,1.51212 c 1.9814,0.83166 4.2574,1.80075 5.0578,2.15353 l 1.4552,0.64141 -11.3771,4.62897 c -6.2574,2.54593 -11.6502,4.65208 -11.9839,4.68033 -0.5604,0.0474 -0.9325,-0.75034 -4.8513,-10.39968 -2.3345,-5.74807 -4.4707,-11.01659 -4.7471,-11.70781 -0.2765,-0.69123 -0.4151,-1.25322 -0.3081,-1.24887 0.107,0.004 2.3639,0.92433 5.0152,2.0444 z M 473.8836,288.6839 c 0.27687,0.65466 1.19778,2.94176 2.04648,5.08245 l 1.54309,3.89217 -1.89539,4.507 c -1.04246,2.47886 -1.89539,4.60675 -1.89539,4.72865 0,0.1219 2.0754,1.09487 4.61199,2.16216 l 4.61199,1.94052 2.03125,4.99838 c 1.11718,2.7491 1.98858,5.03641 1.93644,5.08289 -0.12132,0.10817 -23.04288,-9.60067 -23.32412,-9.87935 -0.16488,-0.16337 8.69683,-21.65463 9.61108,-23.30862 0.16494,-0.2984 0.34376,-0.10197 0.72258,0.79375 z"
           style="display:inline;fill:#f6e04e;fill-opacity:1;stroke:#16bb74;stroke-width:0;stroke-dasharray:none"
           id="path2" /></g><path
         d="m 99.036865,180.79378 -12.5984,-32.7152 h 12.8016 l 6.146805,18.1864 6.1976,-18.1864 h 12.80159 l -12.59839,32.7152 z"
         id="text3"
         style="font-weight:900;font-size:50.8px;font-family:Kanit;-inkscape-font-specification:'Kanit, Heavy';text-align:end;letter-spacing:0px;word-spacing:0.00529167px;text-anchor:end;fill:#fffcff;fill-rule:evenodd;stroke:#2e2e38;stroke-width:0;fill-opacity:1"
         inkscape:label="V"
         aria-label="V" /><g
         id="g6"
         transform="matrix(0.25078342,0.11252737,-0.1200292,0.26750231,24.115818,57.283673)"
         style="display:none;fill:#f6e04e;stroke:#16bb74;stroke-width:0;stroke-dasharray:none"><path
           d="m 387.01283,327.12114 c -0.8101,-1.8029 -8.82328,-21.79705 -8.93197,-22.28667 -0.0482,-0.21725 0.49697,-0.61058 1.37531,-0.99223 3.07575,-1.33643 21.78626,-8.89378 21.85301,-8.82663 0.0387,0.0389 -0.31598,0.96753 -0.78811,2.06361 -0.47212,1.09609 -1.38651,3.27459 -2.03197,4.84112 l -1.17355,2.84825 -4.69636,1.92542 c -2.58299,1.05897 -4.69428,2.05316 -4.69174,2.20929 0.003,0.15613 0.78667,2.20042 1.74253,4.54285 0.95585,2.34244 1.7401,4.49855 1.74276,4.79135 0.004,0.42192 -3.57985,9.29224 -3.91171,9.6822 -0.0466,0.0547 -0.26626,-0.30462 -0.4882,-0.79856 z m -64.97124,-55.93726 c 0,-0.0706 1.6808,-4.12612 3.7352,-9.01225 2.0544,-4.88613 4.2687,-10.16258 4.9208,-11.72544 l 1.1857,-2.84157 2.0244,0.86518 c 1.1135,0.47585 6.3405,2.69997 11.6157,4.94251 5.2751,2.24252 9.5911,4.15568 9.5911,4.25146 0,0.17995 -9.2839,4.00884 -9.7202,4.00884 -0.1349,0 -2.1986,-0.83849 -4.5861,-1.8633 -2.3875,-1.02482 -4.4745,-1.8633 -4.6378,-1.8633 -0.1634,0 -1.1669,2.08809 -2.2301,4.64019 l -1.933,4.64021 -4.6521,1.91126 c -2.5587,1.05119 -4.801,1.97051 -4.9829,2.04294 -0.1819,0.0724 -0.3307,0.0738 -0.3307,0.003 z m 21.77,-74.66214 -4.8206,-2.04881 -1.9145,-4.73097 c -1.0529,-2.60204 -1.9909,-4.73098 -2.0843,-4.73098 -0.093,0 -2.2281,0.84793 -4.7437,1.88428 l -4.5737,1.88427 -3.6025,-1.52128 c -1.9814,-0.8367 -4.2574,-1.81166 -5.0578,-2.16658 l -1.4552,-0.6453 11.3771,-4.65701 c 6.2574,-2.56135 11.6502,-4.68026 11.9839,-4.70868 0.5604,-0.0477 0.9325,0.75489 4.8513,10.46268 2.3345,5.78289 4.4707,11.08333 4.7471,11.77873 0.2765,0.69542 0.4151,1.26082 0.3081,1.25644 -0.107,-0.004 -2.3639,-0.92993 -5.0152,-2.05679 z m 41.52879,-45.31673 c -0.27687,-0.65863 -1.19778,-2.95959 -2.04648,-5.11324 l -1.54309,-3.91575 1.89539,-4.5343 c 1.04246,-2.49388 1.89539,-4.63466 1.89539,-4.7573 0,-0.12264 -2.0754,-1.1015 -4.61199,-2.17526 l -4.61199,-1.95227 -2.03125,-5.02866 c -1.11718,-2.76576 -1.98858,-5.06692 -1.93644,-5.11368 0.12132,-0.10883 23.04288,9.65883 23.32412,9.93919 0.16488,0.16436 -8.69683,21.78581 -9.61108,23.44982 -0.16494,0.30021 -0.34376,0.10259 -0.72258,-0.79855 z"
           style="fill:#f6e04e;fill-opacity:1;stroke:#16bb74;stroke-width:0;stroke-dasharray:none"
           id="path5" /><path
           d="m 472.21115,113.82702 c 0.8101,1.79205 8.82328,21.66581 8.93197,22.15248 0.0482,0.21594 -0.49697,0.6069 -1.37531,0.98625 -3.07575,1.32839 -21.78626,8.84023 -21.85301,8.77348 -0.0387,-0.0387 0.31598,-0.9617 0.78811,-2.05118 0.47212,-1.08949 1.38651,-3.25487 2.03197,-4.81197 l 1.17355,-2.8311 4.69636,-1.91382 c 2.58299,-1.0526 4.69428,-2.0408 4.69174,-2.19599 -0.003,-0.15519 -0.78667,-2.18717 -1.74253,-4.5155 -0.95585,-2.32833 -1.7401,-4.47146 -1.74276,-4.7625 -0.004,-0.41938 3.57985,-9.23628 3.91171,-9.6239 0.0466,-0.0544 0.26626,0.30279 0.4882,0.79375 z m 64.97124,55.60044 c 0,0.0702 -1.6808,4.10128 -3.7352,8.95799 -2.0544,4.85671 -4.2687,10.10139 -4.9208,11.65484 l -1.1857,2.82445 -2.0244,-0.85997 c -1.1135,-0.47298 -6.3405,-2.68371 -11.6157,-4.91274 -5.2751,-2.22902 -9.5911,-4.13066 -9.5911,-4.22587 0,-0.17886 9.2839,-3.9847 9.7202,-3.9847 0.1349,0 2.1986,0.83344 4.5861,1.85208 2.3875,1.01865 4.4745,1.85208 4.6378,1.85208 0.1634,0 1.1669,-2.07551 2.2301,-4.61225 l 1.933,-4.61226 4.6521,-1.89976 c 2.5587,-1.04486 4.801,-1.95864 4.9829,-2.03063 0.1819,-0.072 0.3307,-0.0734 0.3307,-0.003 z m -21.77,74.21257 4.8206,2.03648 1.9145,4.70248 c 1.0529,2.58637 1.9909,4.70249 2.0843,4.70249 0.093,0 2.2281,-0.84282 4.7437,-1.87293 l 4.5737,-1.87292 3.6025,1.51212 c 1.9814,0.83166 4.2574,1.80075 5.0578,2.15353 l 1.4552,0.64141 -11.3771,4.62897 c -6.2574,2.54593 -11.6502,4.65208 -11.9839,4.68033 -0.5604,0.0474 -0.9325,-0.75034 -4.8513,-10.39968 -2.3345,-5.74807 -4.4707,-11.01659 -4.7471,-11.70781 -0.2765,-0.69123 -0.4151,-1.25322 -0.3081,-1.24887 0.107,0.004 2.3639,0.92433 5.0152,2.0444 z M 473.8836,288.6839 c 0.27687,0.65466 1.19778,2.94176 2.04648,5.08245 l 1.54309,3.89217 -1.89539,4.507 c -1.04246,2.47886 -1.89539,4.60675 -1.89539,4.72865 0,0.1219 2.0754,1.09487 4.61199,2.16216 l 4.61199,1.94052 2.03125,4.99838 c 1.11718,2.7491 1.98858,5.03641 1.93644,5.08289 -0.12132,0.10817 -23.04288,-9.60067 -23.32412,-9.87935 -0.16488,-0.16337 8.69683,-21.65463 9.61108,-23.30862 0.16494,-0.2984 0.34376,-0.10197 0.72258,0.79375 z"
           style="display:inline;fill:#f6e04e;fill-opacity:1;stroke:#16bb74;stroke-width:0;stroke-dasharray:none"
           id="path6" /></g></g></g></svg>
