<?xml version="1.0" encoding="UTF-8" standalone="no"?>
<!-- Created with Inkscape (http://www.inkscape.org/) -->

<svg
   width="160mm"
   height="32mm"
   viewBox="0 0 160 32"
   version="1.1"
   id="svg1"
   inkscape:version="1.3 (0e150ed6c4, 2023-07-21)"
   sodipodi:docname="vvgonline.svg"
   inkscape:export-filename="vvgonline.svg"
   inkscape:export-xdpi="96"
   inkscape:export-ydpi="96"
   xmlns:inkscape="http://www.inkscape.org/namespaces/inkscape"
   xmlns:sodipodi="http://sodipodi.sourceforge.net/DTD/sodipodi-0.dtd"
   xmlns="http://www.w3.org/2000/svg"
   xmlns:svg="http://www.w3.org/2000/svg">
  <sodipodi:namedview
     id="namedview1"
     pagecolor="#505050"
     bordercolor="#eeeeee"
     borderopacity="1"
     inkscape:showpageshadow="0"
     inkscape:pageopacity="0"
     inkscape:pagecheckerboard="0"
     inkscape:deskcolor="#505050"
     inkscape:document-units="mm"
     showguides="true"
     inkscape:zoom="1"
     inkscape:cx="364"
     inkscape:cy="100.5"
     inkscape:window-width="2560"
     inkscape:window-height="1009"
     inkscape:window-x="-8"
     inkscape:window-y="-8"
     inkscape:window-maximized="1"
     inkscape:current-layer="layer1">
    <sodipodi:guide
       position="110.35237,0.17980389"
       orientation="0,-1"
       id="guide2"
       inkscape:locked="false" />
  </sodipodi:namedview>
  <defs
     id="defs1" />
  <g
     inkscape:label="Layer 1"
     inkscape:groupmode="layer"
     id="layer1"
     transform="translate(-27.098673,-132.5801)">
    <g
       id="g1"
       transform="translate(34.631033)">
      <path
         d="m 71.203154,156.9328 q -2.7686,0 -4.7244,-0.8128 -1.9558,-0.8382 -2.9972,-2.6924 -1.041399,-1.8542 -1.041399,-4.9276 0,-3.0988 1.041399,-4.9276 1.0414,-1.8542 2.9972,-2.667 1.9558,-0.8382 4.7244,-0.8382 2.7686,0 4.7244,0.8382 1.9558,0.8128 2.9972,2.667 1.0414,1.8288 1.0414,4.9276 0,3.0734 -1.0414,4.9276 -1.0414,1.8542 -2.9972,2.6924 -1.9558,0.8128 -4.7244,0.8128 z m 0,-5.207 q 1.3462,0 1.905,-0.7112 0.5842,-0.7366 0.5842,-2.5146 0,-1.778 -0.5842,-2.4892 -0.5588,-0.7366 -1.905,-0.7366 -1.3462,0 -1.9304,0.7366 -0.5588,0.7112 -0.5588,2.4892 0,1.778 0.5588,2.5146 0.5842,0.7112 1.9304,0.7112 z m 10.032983,4.953 v -16.3576 h 5.1562 l 4.572,6.4008 v -6.4008 h 6.1468 v 16.3576 h -5.1816 l -4.5466,-6.4008 v 6.4008 z m 17.652993,0 v -16.3576 h 6.1468 v 11.684 h 6.6802 v 4.6736 z m 13.71602,0 v -16.3576 h 6.1468 v 16.3576 z m 7.92481,0 v -16.3576 h 5.1562 l 4.572,6.4008 v -6.4008 h 6.1468 v 16.3576 h -5.1816 l -4.5466,-6.4008 v 6.4008 z m 17.65299,0 v -16.3576 h 13.081 v 4.4196 h -6.9342 v 1.4732 h 5.969 v 4.572 h -5.969 v 1.4732 h 6.9342 v 4.4196 z"
         id="text2"
         style="font-weight:900;font-size:25.4px;font-family:Kanit;-inkscape-font-specification:'Kanit, Heavy';fill:#ffffff;stroke-width:0.264583"
         inkscape:label="ONLINE"
         aria-label="ONLINE" />
      <rect
         style="fill:#9e590d;fill-opacity:0;fill-rule:evenodd;stroke:#9e590d;stroke-width:2.5;stroke-dasharray:none;stroke-opacity:1"
         id="rect3"
         width="87.74469"
         height="1.2259433"
         x="62.97971"
         y="161.94397" />
    </g>
    <g
       id="g2"
       transform="translate(-47.81389,0.73019785)">
      <path
         d="m 85.999032,155.94861 -6.2992,-16.3576 h 6.4008 l 3.0734,9.0932 3.0988,-9.0932 h 6.4008 l -6.2992,16.3576 z m 19.735808,0 -6.299196,-16.3576 h 6.400796 l 3.0734,9.0932 3.0988,-9.0932 h 6.4008 l -6.2992,16.3576 z m 21.69163,0.254 q -4.6228,0 -7.0866,-2.1336 -2.4384,-2.1336 -2.4384,-6.2992 0,-4.1656 2.5654,-6.2992 2.5654,-2.1336 7.3914,-2.1336 1.5748,0 2.8194,0.1778 1.27,0.1524 2.4384,0.5588 v 5.2324 q -1.1684,-0.4572 -2.3876,-0.6096 -1.1938,-0.1778 -2.4638,-0.1778 -1.778,0 -2.9464,0.7112 -1.143,0.6858 -1.143,2.54 0,1.8542 0.8128,2.5654 0.8382,0.6858 2.3876,0.6858 0.8128,0 1.524,-0.1778 v -0.9906 h -2.7178 v -3.7084 h 7.7978 v 8.4582 q -1.0414,0.635 -2.667,1.1176 -1.6256,0.4826 -3.8862,0.4826 z"
         id="text1"
         style="font-weight:900;font-size:25.4px;font-family:Kanit;-inkscape-font-specification:'Kanit, Heavy';fill:#ffffff;stroke-width:0.264583"
         inkscape:label="VVG"
         aria-label="VVG" />
      <rect
         style="fill:#000000;fill-opacity:0;stroke:#9e590d;stroke-width:3.445;stroke-dasharray:none;stroke-opacity:1"
         id="rect2"
         width="60.409389"
         height="28.39481"
         x="76.635063"
         y="133.5724"
         inkscape:label="ALL border" />
    </g>
  </g>
</svg>
