<?xml version="1.0" encoding="UTF-8" standalone="no"?>
<!-- Created with Inkscape (http://www.inkscape.org/) -->

<svg
   width="29.104168mm"
   height="26.458334mm"
   viewBox="0 0 29.104168 26.458334"
   version="1.1"
   id="svg1"
   inkscape:version="1.3 (0e150ed6c4, 2023-07-21)"
   sodipodi:docname="marketing.svg"
   xmlns:inkscape="http://www.inkscape.org/namespaces/inkscape"
   xmlns:sodipodi="http://sodipodi.sourceforge.net/DTD/sodipodi-0.dtd"
   xmlns="http://www.w3.org/2000/svg"
   xmlns:svg="http://www.w3.org/2000/svg">
  <sodipodi:namedview
     id="namedview1"
     pagecolor="#505050"
     bordercolor="#eeeeee"
     borderopacity="1"
     inkscape:showpageshadow="0"
     inkscape:pageopacity="0"
     inkscape:pagecheckerboard="0"
     inkscape:deskcolor="#505050"
     inkscape:document-units="mm"
     inkscape:zoom="5.96"
     inkscape:cx="54.949664"
     inkscape:cy="49.916107"
     inkscape:window-width="1254"
     inkscape:window-height="1041"
     inkscape:window-x="669"
     inkscape:window-y="0"
     inkscape:window-maximized="0"
     inkscape:current-layer="svg1" />
  <defs
     id="defs1" />
  <g
     id="g21"
     inkscape:label="market"
     transform="translate(-164.99152,-153.77148)"
     style="display:inline">
    <rect
       style="fill:#f6e04e;fill-opacity:1;fill-rule:evenodd;stroke:#45bb88;stroke-width:0;stroke-dasharray:none"
       id="rect17"
       width="29.104166"
       height="26.458332"
       x="164.99152"
       y="153.77148"
       inkscape:label="bg" />
    <path
       style="fill:#000000;stroke-width:0.0569455"
       d="m 179.23288,172.94446 c -1.09028,-0.0631 -2.10768,-0.40053 -2.9983,-0.99434 -1.35309,-0.90216 -2.29174,-2.34197 -2.56099,-3.92834 -0.11109,-0.65454 -0.11067,-1.38555 0.001,-2.04678 0.27667,-1.63558 1.2894,-3.13674 2.71261,-4.02089 1.28377,-0.79752 2.8217,-1.07938 4.30699,-0.78936 1.82455,0.35627 3.3855,1.55625 4.20288,3.23094 0.7496,1.53584 0.79878,3.3448 0.13373,4.91924 -0.84121,1.9915 -2.6857,3.36127 -4.84889,3.60091 -0.20285,0.0225 -0.76343,0.0394 -0.94921,0.0286 z m -0.12585,-1.1181 c 0.0755,-0.0385 0.51031,-0.50345 0.56279,-0.60181 0.029,-0.0543 0.0374,-0.0919 0.0366,-0.16295 -0.002,-0.15838 -0.0253,-0.18601 -0.6468,-0.76075 -0.30661,-0.28355 -0.58029,-0.52516 -0.60816,-0.53691 l -0.0507,-0.0214 0.1124,-0.11585 c 0.11984,-0.12352 0.14213,-0.15644 0.1703,-0.25145 0.01,-0.0332 0.0239,-0.0603 0.0314,-0.0603 0.007,0 0.0799,-0.0659 0.16099,-0.14654 0.22593,-0.22446 0.57531,-0.47368 0.87781,-0.62615 0.14927,-0.0752 0.37459,-0.1651 0.57287,-0.22849 0.45508,-0.14549 1.04363,-0.21239 1.27337,-0.14476 0.0889,0.0262 0.10866,0.0272 0.18656,0.01 0.17168,-0.0384 0.278,-0.19232 0.25914,-0.37509 -0.0194,-0.18765 -0.0351,-0.20655 -0.81776,-0.98009 l -0.71616,-0.70784 0.0236,-0.0793 c 0.0606,-0.20421 -0.009,-0.44756 -0.1688,-0.58764 -0.0769,-0.0675 -0.21689,-0.12973 -0.31707,-0.14094 -0.0761,-0.008 -0.12029,-0.004 -0.27717,0.0312 -0.0375,0.008 -0.0968,-0.0466 -0.74075,-0.68586 -0.63364,-0.62905 -0.70929,-0.69926 -0.79828,-0.7409 -0.19407,-0.0908 -0.3636,-0.0711 -0.47475,0.0551 -0.0574,0.0653 -0.0925,0.15619 -0.0925,0.24008 0,0.0218 0.0177,0.0917 0.0392,0.1553 0.0367,0.10815 0.0386,0.12739 0.0295,0.29646 -0.0487,0.90223 -0.37585,1.72232 -0.94678,2.37339 -0.10995,0.1254 -0.11488,0.12891 -0.20782,0.14811 -0.0524,0.0108 -0.12269,0.0334 -0.15628,0.0503 -0.071,0.0356 -1.13275,1.08492 -1.23956,1.22505 -0.12778,0.16763 -0.19964,0.36007 -0.19996,0.53547 -2.8e-4,0.17181 0.0536,0.32294 0.18512,0.5192 0.075,0.11187 0.96087,1.00706 1.09635,1.10787 0.39931,0.2971 0.82351,0.31282 1.18381,0.0439 l 0.0774,-0.0578 0.0242,0.0634 c 0.0158,0.0414 0.0674,0.10584 0.14864,0.18558 0.18325,0.17992 0.98949,0.92303 1.03083,0.95011 0.10807,0.0708 0.2634,0.08 0.37647,0.0223 z m 3.03649,-0.54316 -0.10475,-0.19691 0.0721,-0.0463 c 0.0913,-0.0586 0.1979,-0.17205 0.24203,-0.2576 0.0245,-0.0475 0.036,-0.10095 0.0409,-0.18958 0.006,-0.11388 0.003,-0.13109 -0.0399,-0.22321 -0.0566,-0.12086 -0.16949,-0.2362 -0.29869,-0.30503 -0.0506,-0.0269 -0.0962,-0.049 -0.10152,-0.049 -0.005,0 -0.005,0.0425 6e-5,0.0946 0.0199,0.19458 -0.0583,0.37752 -0.23017,0.538 -0.183,0.1709 -0.44168,0.27586 -0.73095,0.2966 l -0.13113,0.009 0.0558,0.045 c 0.0729,0.0588 0.24334,0.13942 0.35713,0.16892 0.0978,0.0254 0.31601,0.0338 0.43694,0.017 l 0.0753,-0.0105 0.226,0.15707 c 0.1243,0.0864 0.22815,0.15514 0.23078,0.15277 0.003,-0.002 -0.0424,-0.0929 -0.1,-0.20121 z m -1.78034,-0.23487 c 0.14517,-0.10058 0.2715,-0.18755 0.28074,-0.19325 0.009,-0.006 0.0712,-0.004 0.13773,0.005 0.23386,0.0293 0.52373,-0.0302 0.71865,-0.14767 0.12091,-0.0728 0.24611,-0.20278 0.30148,-0.31289 0.0417,-0.0828 0.0452,-0.10232 0.0452,-0.24809 0,-0.15219 -0.002,-0.1619 -0.0527,-0.25567 -0.0985,-0.18202 -0.28395,-0.32544 -0.51981,-0.40193 -0.16329,-0.053 -0.4417,-0.0659 -0.62638,-0.029 -0.292,0.0582 -0.54747,0.23718 -0.65063,0.45573 -0.0428,0.0907 -0.0486,0.11806 -0.0487,0.23168 -1.7e-4,0.11845 0.004,0.13798 0.0557,0.24198 0.0539,0.10904 0.16738,0.23682 0.26803,0.30177 l 0.0377,0.0243 -0.0331,0.0659 c -0.0182,0.0362 -0.085,0.16373 -0.14845,0.28333 -0.10434,0.19678 -0.11122,0.2148 -0.0723,0.18968 0.0236,-0.0153 0.16176,-0.11005 0.30693,-0.21063 z m -0.0429,-0.1096 c 0.003,-0.006 0.0344,-0.0682 0.0701,-0.13742 0.0357,-0.0692 0.0627,-0.12735 0.0601,-0.12916 -0.003,-0.002 -0.0357,-0.021 -0.0736,-0.0427 -0.19958,-0.11418 -0.32354,-0.29819 -0.32196,-0.47791 0.002,-0.26657 0.25173,-0.5021 0.61532,-0.58112 0.25643,-0.0557 0.58814,-0.002 0.78621,0.1262 0.3041,0.19757 0.37817,0.4955 0.1866,0.75053 -0.16013,0.21317 -0.53925,0.34714 -0.86202,0.30462 -0.0684,-0.009 -0.13108,-0.0166 -0.13937,-0.0169 -0.008,-2.9e-4 -0.0852,0.0481 -0.17084,0.10745 -0.0857,0.0594 -0.15342,0.10281 -0.15053,0.0965 z m 0.29877,-0.8101 v -0.0979 h -0.0979 -0.0979 v 0.0979 0.0979 h 0.0979 0.0979 z m 0.39174,0 v -0.0979 h -0.0979 -0.0979 v 0.0979 0.0979 h 0.0979 0.0979 z m 0.37667,0 v -0.0979 h -0.0979 -0.0979 v 0.0979 0.0979 h 0.0979 0.0979 z m 2.77576,-0.41907 c 0.0475,-0.0233 0.10704,-0.0674 0.13235,-0.0979 0.0852,-0.10286 0.0923,-0.15859 0.0872,-0.69115 -0.004,-0.46104 -0.006,-0.48171 -0.0378,-0.54154 -0.0432,-0.0808 -0.15261,-0.17638 -0.22749,-0.19881 -0.042,-0.0126 -0.28554,-0.0177 -0.84195,-0.0177 -0.88806,0 -0.87465,-0.001 -0.9907,0.1145 -0.11202,0.11202 -0.11612,0.13821 -0.11088,0.70908 l 0.004,0.49476 0.0411,0.07 c 0.0646,0.10991 0.1433,0.16703 0.26773,0.19436 0.029,0.006 0.39852,0.0105 0.82114,0.009 l 0.76841,-0.002 z m -1.73341,-0.1464 c -0.0303,-0.0185 -0.0617,-0.0569 -0.0797,-0.0977 -0.0279,-0.063 -0.0294,-0.0967 -0.0253,-0.53339 0.004,-0.44581 0.006,-0.46806 0.0359,-0.50871 0.0173,-0.0234 0.0542,-0.0579 0.0819,-0.0768 l 0.0504,-0.0343 0.79466,0.004 c 0.77577,0.004 0.79564,0.005 0.83625,0.0352 0.0229,0.0171 0.0556,0.0498 0.0727,0.0727 0.0299,0.04 0.0311,0.0603 0.0311,0.52641 0,0.45809 -0.002,0.48756 -0.0301,0.53481 -0.0166,0.0275 -0.0513,0.0631 -0.0771,0.0791 -0.0449,0.0278 -0.0827,0.0291 -0.84374,0.029 -0.77321,-5e-5 -0.79824,-9.6e-4 -0.84676,-0.0305 z m 0.94105,-0.44778 c 0.16017,-0.10566 0.29116,-0.19549 0.29109,-0.19964 -2.2e-4,-0.0142 -0.5849,-0.38881 -0.59348,-0.38023 -0.0121,0.0121 -0.0108,0.77197 0.001,0.77197 0.005,0 0.14093,-0.0864 0.30109,-0.1921 z m 1.40254,-1.58988 0.0418,-0.0418 0.004,-0.54205 c 0.003,-0.36459 -9.8e-4,-0.55193 -0.0118,-0.57222 -0.009,-0.0166 -0.0312,-0.03 -0.0495,-0.0298 -0.0199,1.7e-4 -0.20888,0.13385 -0.46866,0.33147 -0.42564,0.32382 -0.43687,0.33116 -0.50678,0.33116 -0.0699,0 -0.0816,-0.008 -0.50951,-0.33148 -0.2409,-0.1823 -0.45162,-0.33147 -0.46826,-0.33147 -0.0166,0 -0.0373,0.0131 -0.0459,0.0291 -0.0249,0.0465 -0.0199,1.08362 0.005,1.12935 0.0432,0.078 0.0227,0.0765 1.02955,0.0729 l 0.93757,-0.003 z m -9.47736,-0.17929 c 0.0107,-0.009 0.0195,-0.0449 0.0195,-0.0801 0,-0.13443 0.12875,-0.18812 0.23255,-0.097 0.066,0.058 0.0879,0.0519 0.18524,-0.051 0.11317,-0.11966 0.11871,-0.13564 0.0658,-0.18979 -0.0574,-0.0587 -0.0678,-0.0954 -0.0461,-0.16135 0.0193,-0.0586 0.0979,-0.10527 0.14962,-0.0889 0.054,0.0171 0.0758,-0.0301 0.0758,-0.16378 0,-0.15268 -0.0161,-0.18049 -0.10576,-0.18274 -0.12398,-0.003 -0.17836,-0.13472 -0.0961,-0.23251 0.0279,-0.0331 0.0366,-0.0569 0.0303,-0.0823 -0.01,-0.0395 -0.18048,-0.20491 -0.21129,-0.20491 -0.0107,0 -0.0408,0.0203 -0.0668,0.0452 -0.0969,0.0926 -0.22644,0.0398 -0.24251,-0.099 -0.008,-0.0709 -0.0102,-0.0734 -0.0687,-0.086 -0.0693,-0.0149 -0.23172,-0.001 -0.25976,0.0222 -0.0104,0.009 -0.019,0.0415 -0.019,0.0729 0,0.0789 -0.0115,0.10227 -0.0639,0.12935 -0.0583,0.0301 -0.13122,0.0169 -0.17736,-0.0323 -0.0193,-0.0206 -0.045,-0.0374 -0.0569,-0.0374 -0.0295,0 -0.21406,0.19 -0.21406,0.22038 0,0.0133 0.0203,0.0474 0.0452,0.0757 0.0477,0.0543 0.0567,0.10623 0.0277,0.16065 -0.0275,0.0517 -0.0604,0.0696 -0.12884,0.0701 -0.047,3.5e-4 -0.0675,0.008 -0.0791,0.0296 -0.0197,0.0369 -0.0204,0.22758 -9.1e-4,0.27875 0.0126,0.0332 0.0238,0.0386 0.0795,0.0386 0.0794,0 0.12424,0.0294 0.14616,0.0958 0.0193,0.0584 0.005,0.10813 -0.0428,0.15136 -0.0456,0.0411 -0.0399,0.0709 0.0288,0.14902 0.0519,0.059 0.1447,0.13115 0.16861,0.13115 0.004,0 0.0286,-0.0203 0.0546,-0.0452 0.036,-0.0344 0.0613,-0.0452 0.10604,-0.0452 0.0879,0 0.12695,0.0392 0.13682,0.13756 0.008,0.0784 0.01,0.0812 0.0609,0.0911 0.0694,0.0134 0.24205,2.3e-4 0.26678,-0.0203 z m -0.24418,-0.47858 c -0.0657,-0.016 -0.13024,-0.0525 -0.17875,-0.10096 -0.1603,-0.1603 -0.12071,-0.44465 0.0768,-0.55156 0.19001,-0.10286 0.40043,-0.0422 0.49214,0.14181 0.10512,0.21096 -0.01,0.46061 -0.23348,0.50865 -0.0832,0.0178 -0.0915,0.018 -0.1567,0.002 z m 9.6277,-0.64457 c 0,-0.0447 -0.77359,-0.66196 -0.8475,-0.6762 -0.10206,-0.0197 -0.13654,6.9e-4 -0.5387,0.318 -0.21543,0.16998 -0.39785,0.31823 -0.40538,0.32944 -0.007,0.0112 -0.009,0.0315 -0.004,0.0452 0.009,0.0227 0.0857,0.0244 0.90264,0.0209 l 0.89314,-0.004 z m -2.09838,-0.89981 c 0.88059,-0.31554 1.41106,-0.51299 1.42336,-0.52982 0.0286,-0.0391 0.0241,-0.0867 -0.0127,-0.13343 -0.0254,-0.0322 -0.0424,-0.0399 -0.0791,-0.0356 -0.0257,0.003 -0.67966,0.23237 -1.45319,0.50966 -1.31147,0.47012 -1.40793,0.50708 -1.42877,0.54739 -0.0404,0.0781 0.0274,0.16994 0.11231,0.15203 0.0189,-0.004 0.66604,-0.23359 1.4381,-0.51024 z m -1.3438,-0.44165 c 0.20344,-0.2051 0.68655,-0.69611 1.07359,-1.09114 0.75781,-0.77346 0.74439,-0.75667 0.66673,-0.83433 -0.0549,-0.0549 -0.10447,-0.0475 -0.18199,0.0271 -0.0366,0.0352 -0.5175,0.52508 -1.06865,1.08858 -0.89874,0.91887 -1.00212,1.02948 -1.00232,1.07241 -2.2e-4,0.0538 0.0566,0.11033 0.11097,0.11033 0.0215,0 0.15124,-0.12042 0.40167,-0.3729 z m -5.49998,-0.44824 v -0.48967 h -0.30887 -0.30887 v 0.48967 0.48967 h 0.30887 0.30887 z m 0.78347,-0.30887 v -0.79854 h -0.3164 -0.3164 v 0.79854 0.79854 h 0.3164 0.3164 z m 0.76474,-0.33524 -0.004,-1.13378 -0.3051,-0.004 -0.30511,-0.004 v 1.13786 1.13786 h 0.30897 0.30896 z m 3.05034,1.06064 c 0.0254,-0.0244 0.99124,-2.83672 0.99124,-2.88613 0,-0.0377 -0.0687,-0.0993 -0.11064,-0.0993 -0.0202,0 -0.0505,0.0119 -0.0674,0.0264 -0.044,0.0378 -1.0045,2.86551 -0.99126,2.91828 0.0112,0.0446 0.0793,0.0858 0.12212,0.0739 0.0166,-0.005 0.0417,-0.0195 0.0559,-0.0332 z m -0.69624,-0.9287 c 0.0477,-0.0141 0.0981,-0.0414 0.11864,-0.0643 0.0337,-0.0375 0.0353,-0.0481 0.0282,-0.18369 -0.01,-0.18402 -0.061,-0.33246 -0.14017,-0.40538 -0.0632,-0.0583 -0.0813,-0.0577 -0.24442,0.008 -0.0556,0.0222 -0.11926,0.0404 -0.14143,0.0404 -0.11013,0 -0.17697,-0.11981 -0.23983,-0.42989 -0.0477,-0.23509 -0.0551,-0.37803 -0.0237,-0.45325 0.0344,-0.0824 0.0598,-0.0934 0.2227,-0.0967 0.0814,-0.002 0.16162,-0.0103 0.17834,-0.0193 0.0529,-0.0283 0.0759,-0.0956 0.0759,-0.2224 0,-0.19171 -0.0584,-0.37233 -0.13951,-0.43162 -0.0385,-0.0282 -0.0492,-0.0291 -0.14619,-0.0124 -0.16694,0.0286 -0.38791,0.10487 -0.41486,0.14314 -0.04,0.0568 -0.1097,0.29783 -0.13455,0.46518 -0.0268,0.1803 -0.031,0.5012 -0.008,0.64026 0.0488,0.30045 0.28865,0.77474 0.49744,0.98354 l 0.0805,0.0805 0.17423,-0.009 c 0.0958,-0.005 0.21152,-0.0197 0.2571,-0.0331 z"
       id="path18"
       inkscape:label="icon" />
  </g>
  <g
     inkscape:label="Layer 1"
     inkscape:groupmode="layer"
     id="layer1"
     transform="translate(-24.456803,-33.04062)" />
</svg>
