<?xml version="1.0" encoding="UTF-8" standalone="no"?>
<!-- Created with Inkscape (http://www.inkscape.org/) -->

<svg
   width="118.07726mm"
   height="16.497128mm"
   viewBox="0 0 118.07726 16.497128"
   version="1.1"
   id="svg1"
   inkscape:version="1.3 (0e150ed6c4, 2023-07-21)"
   sodipodi:docname="vvgonline-logo.svg"
   inkscape:export-filename="..\..\..\Users\vvgon\source\repos\vvgonlineWEB\wwwroot\images\profile\favicon.svg"
   inkscape:export-xdpi="96"
   inkscape:export-ydpi="96"
   xml:space="preserve"
   xmlns:inkscape="http://www.inkscape.org/namespaces/inkscape"
   xmlns:sodipodi="http://sodipodi.sourceforge.net/DTD/sodipodi-0.dtd"
   xmlns:xlink="http://www.w3.org/1999/xlink"
   xmlns="http://www.w3.org/2000/svg"
   xmlns:svg="http://www.w3.org/2000/svg"><sodipodi:namedview
     id="namedview1"
     pagecolor="#505050"
     bordercolor="#eeeeee"
     borderopacity="1"
     inkscape:showpageshadow="0"
     inkscape:pageopacity="0"
     inkscape:pagecheckerboard="0"
     inkscape:deskcolor="#505050"
     inkscape:document-units="mm"
     inkscape:zoom="2.0570218"
     inkscape:cx="223.13813"
     inkscape:cy="31.356012"
     inkscape:window-width="1824"
     inkscape:window-height="1041"
     inkscape:window-x="48"
     inkscape:window-y="0"
     inkscape:window-maximized="0"
     inkscape:current-layer="layer1"
     showguides="true" /><defs
     id="defs1"><linearGradient
       id="linearGradient31"
       inkscape:collect="always"><stop
         style="stop-color:#ffff03;stop-opacity:1;"
         offset="0"
         id="stop31" /><stop
         style="stop-color:#ffff03;stop-opacity:0;"
         offset="1"
         id="stop32" /></linearGradient><linearGradient
       id="linearGradient7"
       inkscape:swatch="gradient"><stop
         style="stop-color:#f6f0bc;stop-opacity:1;"
         offset="0"
         id="stop9" /><stop
         style="stop-color:#f6f0bc;stop-opacity:0.43529412;"
         offset="0.46178341"
         id="stop11" /><stop
         style="stop-color:#f6f0bc;stop-opacity:0.11764706;"
         offset="0.85031849"
         id="stop12" /><stop
         style="stop-color:#f6f0bc;stop-opacity:0;"
         offset="1"
         id="stop10" /></linearGradient><linearGradient
       inkscape:collect="always"
       xlink:href="#linearGradient31"
       id="linearGradient32"
       x1="84.3461"
       y1="225.07158"
       x2="205.85764"
       y2="225.07158"
       gradientUnits="userSpaceOnUse" /></defs><g
     inkscape:label="Layer 1"
     inkscape:groupmode="layer"
     id="layer1"
     transform="translate(-76.730988,-206.69848)"><rect
       style="display:none;fill:#d5fff3;fill-opacity:1;fill-rule:evenodd;stroke:none;stroke-width:0.449496;stroke-opacity:1"
       id="rect30"
       width="135.46666"
       height="34.395832"
       x="76.730988"
       y="206.3"
       inkscape:label="bg"
       sodipodi:insensitive="true" /><path
       style="display:none;fill:#ff1161;fill-rule:evenodd;stroke:#000000;stroke-width:0.268223;stroke-opacity:0"
       d="M 76.749039,240.5267 C 100.59176,237.91669 179.14398,227.75919 212.05875,206.58163 l -0.18187,33.94507 z"
       id="path6"
       sodipodi:nodetypes="cccc"
       sodipodi:insensitive="true" /><g
       id="g26"
       inkscape:label="online-path"
       transform="matrix(1.2399997,0,0,1.2399997,-178.07512,-67.745114)"
       style="fill:#f6e04e"><path
         style="font-weight:900;font-size:25.1248px;font-family:Kanit;-inkscape-font-specification:'Kanit, Heavy';letter-spacing:-1.17772px;fill:#f6e04e;fill-opacity:0.970213;fill-rule:evenodd;stroke-width:0.330902"
         d="m 249.62615,234.62967 q -1.90854,0 -3.25677,-0.63755 -1.34824,-0.65747 -2.06613,-2.11188 -0.71789,-1.45441 -0.71789,-3.86515 0,-2.43067 0.71789,-3.86515 0.71789,-1.45441 2.06613,-2.09197 1.34823,-0.65746 3.25677,-0.65746 1.90855,0 3.25677,0.65746 1.34824,0.63756 2.06613,2.09197 0.7179,1.43448 0.7179,3.86515 0,2.41074 -0.7179,3.86515 -0.71789,1.45441 -2.06613,2.11188 -1.34822,0.63755 -3.25677,0.63755 z m 0,-4.0843 q 0.92801,0 1.31322,-0.55786 0.40272,-0.57778 0.40272,-1.97242 0,-1.39465 -0.40272,-1.9525 -0.38521,-0.57778 -1.31322,-0.57778 -0.928,0 -1.33072,0.57778 -0.38522,0.55785 -0.38522,1.9525 0,1.39464 0.38522,1.97242 0.40272,0.55786 1.33072,0.55786 z m 6.09551,3.88506 v -12.8307 h 3.55444 l 3.15171,5.02071 v -5.02071 h 4.23731 v 12.8307 h -3.57194 l -3.13421,-5.0207 v 5.0207 z m 11.34837,0 v -12.8307 h 4.23731 v 9.16479 h 4.60501 v 3.66591 z m 8.63442,0 v -12.8307 h 4.23731 v 12.8307 z m 4.64223,0 v -12.8307 h 3.55443 l 3.15173,5.02071 v -5.02071 h 4.23731 v 12.8307 h -3.57195 l -3.13421,-5.0207 v 5.0207 z m 11.34837,0 v -12.8307 h 9.01742 v 3.46669 h -4.7801 v 1.15556 h 4.11474 v 3.58622 h -4.11474 v 1.15556 h 4.7801 v 3.46667 z"
         id="text26"
         inkscape:label="ONLINE-path"
         aria-label="ONLINE" /></g><g
       id="g28"
       inkscape:label="vvg-path"
       transform="translate(63.683519,147.26019)"><path
         d="m 207.08175,234.47973 -5.09446,-13.22917 h 5.17663 l 2.48561,7.3541 2.50615,-7.3541 h 5.17663 l -5.09446,13.22917 z"
         id="text4"
         style="font-weight:900;font-size:20.5422px;font-family:Kanit;-inkscape-font-specification:'Kanit, Heavy';letter-spacing:-0.962912px;word-spacing:0.0085592px;fill:#11a1ff;fill-opacity:0.970213;fill-rule:evenodd;stroke-width:0.363938"
         inkscape:label="VAIBHAV"
         aria-label="V"
         transform="matrix(1.2399997,0,0,1.2399997,-237.41671,-214.91234)" /><path
         d="m 220.31092,234.47973 -5.09447,-13.22917 h 5.17664 l 2.4856,7.3541 2.50615,-7.3541 h 5.17664 l -5.09447,13.22917 z"
         id="text5"
         style="font-weight:900;font-size:20.5422px;font-family:Kanit;-inkscape-font-specification:'Kanit, Heavy';letter-spacing:-0.962912px;word-spacing:0.0085592px;mix-blend-mode:normal;fill:#ff1161;fill-opacity:0.970213;fill-rule:evenodd;stroke-width:0.363938"
         inkscape:label="VIJAY"
         aria-label="V"
         transform="matrix(1.2399997,0,0,1.2399997,-237.41671,-214.91234)" /><path
         style="font-weight:900;font-size:23.8503px;font-family:Kanit;-inkscape-font-specification:'Kanit, Heavy';letter-spacing:-1.11798px;fill:#45bb88;fill-rule:evenodd;stroke:#000000;stroke-width:0.351899;stroke-opacity:0"
         d="m 236.25028,234.30378 q -3.70247,0 -5.67576,-1.62906 -1.95295,-1.62904 -1.95295,-4.80958 0,-3.18053 2.05467,-4.80958 2.05466,-1.62905 5.91988,-1.62905 1.26128,0 2.2581,0.13575 1.01716,0.11636 1.95295,0.42666 v 3.99506 q -0.93579,-0.34909 -1.91227,-0.46545 -0.95613,-0.13575 -1.97329,-0.13575 -1.42403,0 -2.35982,0.54302 -0.91544,0.52361 -0.91544,1.93934 0,1.41573 0.65098,1.95875 0.67133,0.52361 1.91227,0.52361 0.65098,0 1.22059,-0.13575 v -0.75634 h -2.17672 v -2.83145 h 6.24537 v 6.45803 q -0.83407,0.48483 -2.13604,0.85331 -1.30197,0.36848 -3.11252,0.36848 z"
         id="path3"
         inkscape:label="GUPTA"
         transform="matrix(1.2399997,0,0,1.2399997,-237.41671,-214.91234)" /></g><g
       id="g31"
       style="display:none;fill:#360568"><text
         xml:space="preserve"
         style="font-style:normal;font-variant:normal;font-weight:300;font-stretch:normal;font-size:8.46667px;font-family:Kanit;-inkscape-font-specification:'Kanit, Light';font-variant-ligatures:normal;font-variant-caps:normal;font-variant-numeric:normal;font-variant-east-asian:normal;letter-spacing:0px;word-spacing:0.0105833px;display:inline;mix-blend-mode:normal;fill:#360568;fill-opacity:1;fill-rule:evenodd;stroke:#ffffff;stroke-width:0;stroke-dasharray:none;stroke-opacity:0.944681"
         x="83.922768"
         y="227.17978"
         id="text30"
         inkscape:label="tagline-text"><tspan
           sodipodi:role="line"
           id="tspan30"
           style="font-style:normal;font-variant:normal;font-weight:300;font-stretch:normal;font-size:8.46667px;font-family:Kanit;-inkscape-font-specification:'Kanit, Light';font-variant-ligatures:normal;font-variant-caps:normal;font-variant-numeric:normal;font-variant-east-asian:normal;letter-spacing:0px;fill:#360568;fill-opacity:1;stroke:#ffffff;stroke-width:0;stroke-dasharray:none;stroke-opacity:0.944681"
           x="83.922768"
           y="227.17978">// sustainable. inclusive. growing.</tspan></text><text
         xml:space="preserve"
         style="font-style:normal;font-variant:normal;font-weight:300;font-stretch:normal;font-size:8.46667px;font-family:Kanit;-inkscape-font-specification:'Kanit, Light';font-variant-ligatures:normal;font-variant-caps:normal;font-variant-numeric:normal;font-variant-east-asian:normal;letter-spacing:0px;word-spacing:0.0105833px;display:inline;mix-blend-mode:normal;fill:#ffffff;fill-opacity:1;fill-rule:evenodd;stroke:#ffffff;stroke-width:0;stroke-dasharray:none;stroke-opacity:0"
         x="84.451935"
         y="226.65062"
         id="text31"
         inkscape:label="tagline-text"><tspan
           sodipodi:role="line"
           id="tspan31"
           style="font-style:normal;font-variant:normal;font-weight:300;font-stretch:normal;font-size:8.46667px;font-family:Kanit;-inkscape-font-specification:'Kanit, Light';font-variant-ligatures:normal;font-variant-caps:normal;font-variant-numeric:normal;font-variant-east-asian:normal;letter-spacing:0px;fill:#ffffff;fill-opacity:1;stroke:#ffffff;stroke-width:0;stroke-dasharray:none;stroke-opacity:0"
           x="84.451935"
           y="226.65062">// sustainable. inclusive. growing.</tspan></text></g></g></svg>
