<svg width="500" height="500" viewBox="0 0 500 500" xmlns="http://www.w3.org/2000/svg"><title>android-logo</title><g fill="none" fill-rule="evenodd"><path d="M431.5259 200.4878c0-14.6383-12.0957-26.6626-26.8209-26.6626-14.7251 0-26.8208 12.0243-26.8208 26.6626v111.0943c0 14.6383 12.0957 26.6626 26.8208 26.6626 14.7252 0 26.8209-12.0243 26.8209-26.6626V200.4878zm-312.91 0c0-14.6383-12.0958-26.6626-26.821-26.6626-14.7251 0-26.8208 12.0243-26.8208 26.6626v111.0943c0 14.6383 12.0957 26.6626 26.8209 26.6626 14.7251 0 26.8208-12.0243 26.8208-26.6626V200.4878zM306.8877 73.4483L325.82 39.4666c1.0518-1.8298.3945-4.1824-1.4462-5.0973-.5259-.2614-1.1833-.5228-1.8406-.5228-1.3148 0-2.6295.6535-3.2869 1.9605l-19.1953 34.3739c-15.6455-6.9271-33.2632-10.848-51.8011-10.848-18.538 0-36.1556 3.9209-51.801 10.848l-19.064-34.374c-1.0517-1.8297-3.2868-2.4832-5.1274-1.4376-1.8407 1.0456-2.498 3.2675-1.4463 5.0973l18.9324 33.9817c-36.55 18.8207-61.1358 54.5015-61.1358 95.541h239.2842c0-41.0395-24.5858-76.7203-61.0043-95.541zm-113.8572 52.0183c-5.522 0-9.9921-4.4438-9.9921-9.9332 0-5.4893 4.4701-9.9331 9.992-9.9331 5.522 0 9.9922 4.4438 9.9922 9.9331 0 5.4894-4.4702 9.9332-9.9921 9.9332zm110.4388 0c-5.522 0-9.992-4.4438-9.992-9.9332 0-5.4893 4.47-9.9331 9.992-9.9331 5.522 0 9.9921 4.4438 9.9921 9.9331 0 5.4894-4.4701 9.9332-9.992 9.9332zM128.608 178.3997v172.392c0 15.9454 12.8845 28.7539 28.9245 28.7539h19.1953v58.8146c0 14.6383 12.0957 26.6626 26.8209 26.6626 14.7251 0 26.8208-12.0243 26.8208-26.6626v-58.8146h35.7612v58.8146c0 14.6383 12.0957 26.6626 26.8208 26.6626 14.7252 0 26.8209-12.0243 26.8209-26.6626v-58.8146h19.1953c16.04 0 28.9245-12.8085 28.9245-28.7538V178.3997H128.6079z" fill="#79C257"/><path d="M35 34.5h430v430H35z"/></g></svg>