<?xml version="1.0" encoding="UTF-8" standalone="no"?>
<svg
   width="8"
   height="8"
   viewBox="0 0 8 8"
   version="1.1"
   id="svg1"
   sodipodi:docname="audio.svg"
   inkscape:version="1.3 (0e150ed6c4, 2023-07-21)"
   xmlns:inkscape="http://www.inkscape.org/namespaces/inkscape"
   xmlns:sodipodi="http://sodipodi.sourceforge.net/DTD/sodipodi-0.dtd"
   xmlns="http://www.w3.org/2000/svg"
   xmlns:svg="http://www.w3.org/2000/svg">
  <defs
     id="defs1" />
  <sodipodi:namedview
     id="namedview1"
     pagecolor="#505050"
     bordercolor="#eeeeee"
     borderopacity="1"
     inkscape:showpageshadow="0"
     inkscape:pageopacity="0"
     inkscape:pagecheckerboard="0"
     inkscape:deskcolor="#505050"
     showgrid="false"
     inkscape:zoom="94.88"
     inkscape:cx="3.9997892"
     inkscape:cy="3.9997892"
     inkscape:window-width="1254"
     inkscape:window-height="1041"
     inkscape:window-x="1297"
     inkscape:window-y="0"
     inkscape:window-maximized="0"
     inkscape:current-layer="svg1" />
  <rect
     style="fill:#ff1161;fill-rule:evenodd;stroke:#f6e04e;stroke-width:0;stroke-dasharray:none;stroke-opacity:0"
     id="rect1"
     width="7.9999957"
     height="7.9999971"
     x="2.1457672e-06"
     y="1.4305115e-06" />
  <path
     d="M 5.41,1.41 4.72,2.13 C 4.9,2.31 5,2.54 5,2.82 5,3.1 4.9,3.36 4.72,3.54 L 5.41,4.26 C 5.77,3.9 6,3.37 6,2.82 6,2.27 5.77,1.77 5.41,1.41 Z"
     transform="translate(0,1)"
     id="path4"
     style="fill:#f6e04e" />
  <path
     d="M 2.6,1.41 C 2.24,1.77 2.01,2.27 2.01,2.82 2.01,3.37 2.24,3.9 2.6,4.26 L 3.29,3.54 C 3.11,3.36 3.01,3.1 3.01,2.82 c 0,-0.28 0.1,-0.5 0.28,-0.69 z"
     transform="translate(0,1)"
     id="path3"
     style="fill:#f6e04e" />
  <path
     d="M 6.85,0 6.13,0.72 c 0.54,0.54 0.88,1.26 0.88,2.09 0,0.83 -0.33,1.58 -0.88,2.13 L 6.85,5.66 C 7.57,4.94 8.01,3.92 8.01,2.82 8.01,1.72 7.58,0.73 6.85,0.01 Z"
     transform="translate(0,1)"
     id="path2"
     style="fill:#11a1ff" />
  <path
     d="M 1.16,0 C 0.44,0.72 0,1.71 0,2.81 0,3.91 0.43,4.93 1.16,5.65 L 1.88,4.93 C 1.34,4.39 1,3.64 1,2.8 1,1.97 1.33,1.25 1.88,0.71 L 1.16,-0.01 Z"
     transform="translate(0,1)"
     id="path1"
     style="fill:#11a1ff" />
</svg>
