<svg width="600" height="600" viewBox="0 0 600 600" xmlns="http://www.w3.org/2000/svg"><title>hp-logo</title><path d="M300 600h-9l61.2-168.6h84.6c15 0 31.2-11.4 36-25.2l66.6-183c10.8-30-6-54.6-37.8-54.6H384l-153.6 423C98.4 560.4 0 441.6 0 300 0 162.6 92.4 46.2 219 10.8L66 431.4h63.6l81-223.2h48l-81 223.2h63.6l75.6-208.2c10.8-30-6-54.6-37.8-54.6h-53.4L286.8.6C291 0 295.2 0 300 0c165.6 0 300 134.4 300 300S465.6 600 300 600zm181.8-391.8h-48l-67.2 183.6h48l67.2-183.6z" fill="#0096D6" fill-rule="nonzero"/></svg>