<?xml version="1.0" encoding="UTF-8" standalone="no"?>
<svg
   version="1.1"
   x="0px"
   y="0px"
   viewBox="0 0 600 300"
   enable-background="new 0 0 600 300"
   xml:space="preserve"
   id="svg84"
   sodipodi:docname="logo2021.svg"
   inkscape:version="1.3 (0e150ed6c4, 2023-07-21)"
   xmlns:inkscape="http://www.inkscape.org/namespaces/inkscape"
   xmlns:sodipodi="http://sodipodi.sourceforge.net/DTD/sodipodi-0.dtd"
   xmlns="http://www.w3.org/2000/svg"
   xmlns:svg="http://www.w3.org/2000/svg"><defs
   id="defs84" /><sodipodi:namedview
   id="namedview84"
   pagecolor="#505050"
   bordercolor="#eeeeee"
   borderopacity="1"
   inkscape:showpageshadow="0"
   inkscape:pageopacity="0"
   inkscape:pagecheckerboard="0"
   inkscape:deskcolor="#505050"
   showgrid="false"
   inkscape:zoom="2.88"
   inkscape:cx="300"
   inkscape:cy="149.82639"
   inkscape:window-width="2512"
   inkscape:window-height="1057"
   inkscape:window-x="40"
   inkscape:window-y="-8"
   inkscape:window-maximized="1"
   inkscape:current-layer="identitySkills" />&#10;    <g
   id="identitySkills"
   transform="translate(2.965,67.675417)">&#10;        &#10;        <g
   id="design">&#10;            <g
   id="designText">&#10;                <path
   fill="#75739f"
   d="m 93.534,161.003 c -1.695,0 -3.008,-0.588 -3.939,-1.764 -0.931,-1.176 -1.396,-2.863 -1.396,-5.064 0,-2.25 0.468,-3.992 1.403,-5.227 0.935,-1.235 2.255,-1.854 3.958,-1.854 1.078,0 1.91,0.223 2.496,0.664 0.586,0.443 0.934,1.115 1.043,2.018 h 1.037 l -0.783,3.438 c 0,-2.561 -1.139,-3.842 -3.414,-3.842 -0.986,0 -1.747,0.416 -2.282,1.252 -0.534,0.834 -0.803,2.018 -0.803,3.551 0,3.035 1.037,4.553 3.11,4.553 2.259,0 3.389,-0.76 3.389,-2.275 v -1.467 l 0.91,3.691 h -1.164 c -0.084,0.768 -0.445,1.346 -1.086,1.738 -0.642,0.393 -1.468,0.588 -2.479,0.588 z m 4.096,-0.127 -0.277,-2.629 v -16.461 h 2.68 v 18.965 z"
   id="path7" />&#10;                <path
   fill="#75739f"
   d="m 111.032,161.003 c -2.285,0 -4.049,-0.6 -5.291,-1.801 -1.245,-1.201 -1.865,-2.928 -1.865,-5.178 0,-2.191 0.526,-3.895 1.58,-5.107 1.054,-1.215 2.541,-1.822 4.463,-1.822 1.813,0 3.213,0.549 4.203,1.645 0.991,1.096 1.485,2.689 1.485,4.779 0,0.615 -0.024,1.188 -0.075,1.719 h -9.406 v -2.047 h 7.055 c 0,-1.207 -0.287,-2.131 -0.859,-2.775 -0.574,-0.645 -1.365,-0.967 -2.377,-0.967 -1.139,0 -2.021,0.387 -2.648,1.162 -0.629,0.775 -0.942,1.871 -0.942,3.287 0,1.551 0.432,2.73 1.296,3.539 0.865,0.811 2.092,1.215 3.686,1.215 0.557,0 1.104,-0.031 1.645,-0.096 0.538,-0.063 1.085,-0.148 1.643,-0.258 l 0.328,2.352 c -0.792,0.15 -1.518,0.248 -2.174,0.291 -0.661,0.04 -1.243,0.062 -1.747,0.062 z"
   id="path8" />&#10;                <path
   fill="#75739f"
   d="m 123.877,161.003 c -1.012,0 -1.878,-0.029 -2.599,-0.088 -0.721,-0.061 -1.38,-0.156 -1.979,-0.291 l 0.304,-2.428 c 0.885,0.135 1.666,0.236 2.346,0.303 0.678,0.068 1.321,0.102 1.928,0.102 1.356,0 2.34,-0.133 2.952,-0.398 0.611,-0.266 0.916,-0.689 0.916,-1.27 0,-0.404 -0.107,-0.707 -0.322,-0.904 -0.215,-0.199 -0.547,-0.352 -0.992,-0.461 l -3.086,-0.785 c -1.322,-0.336 -2.293,-0.754 -2.913,-1.252 -0.62,-0.496 -0.929,-1.252 -0.929,-2.262 0,-1.467 0.563,-2.529 1.688,-3.188 1.124,-0.656 2.939,-0.986 5.443,-0.986 0.648,0 1.252,0.02 1.813,0.059 0.562,0.037 1.137,0.102 1.727,0.195 l -0.277,2.326 c -0.684,-0.066 -1.286,-0.113 -1.809,-0.139 -0.523,-0.025 -1.033,-0.039 -1.529,-0.039 -1.501,0 -2.588,0.129 -3.262,0.387 -0.676,0.256 -1.013,0.676 -1.013,1.258 0,0.387 0.14,0.668 0.418,0.84 0.278,0.174 0.704,0.332 1.276,0.475 l 2.478,0.607 c 1.408,0.336 2.438,0.787 3.093,1.354 0.652,0.564 0.979,1.385 0.979,2.465 0,1.441 -0.526,2.488 -1.58,3.141 -1.054,0.653 -2.746,0.979 -5.071,0.979 z"
   id="path9" />&#10;                <path
   fill="#75739f"
   d="m 134.522,160.751 v -2.201 h 5.36 v 2.201 z m 0.758,-11.178 v -2.225 h 7.029 v 2.225 z m 5.538,-4.349 c -0.515,0 -0.955,-0.182 -1.321,-0.549 -0.367,-0.367 -0.55,-0.807 -0.55,-1.322 0,-0.521 0.183,-0.965 0.55,-1.326 0.366,-0.363 0.807,-0.545 1.321,-0.545 0.522,0 0.965,0.182 1.327,0.545 0.363,0.361 0.544,0.805 0.544,1.326 0,0.516 -0.181,0.955 -0.544,1.322 -0.362,0.367 -0.804,0.549 -1.327,0.549 z m -1.188,15.527 v -12.645 h 2.68 v 12.645 z m 2.428,0 v -2.201 h 4.374 v 2.201 z"
   id="path10" />&#10;                <path
   fill="#75739f"
   d="m 154.22,161.003 c -1.694,0 -3.007,-0.588 -3.938,-1.764 -0.931,-1.176 -1.396,-2.863 -1.396,-5.064 0,-2.25 0.466,-3.992 1.403,-5.227 0.936,-1.234 2.254,-1.854 3.957,-1.854 1.079,0 1.911,0.223 2.497,0.664 0.585,0.443 0.933,1.115 1.043,2.018 h 1.037 l -0.784,2.934 c 0,-1.121 -0.253,-1.959 -0.76,-2.51 -0.504,-0.553 -1.264,-0.828 -2.275,-0.828 -1.104,0 -1.957,0.416 -2.56,1.252 -0.603,0.834 -0.903,2.018 -0.903,3.551 0,1.502 0.293,2.635 0.884,3.402 0.591,0.766 1.459,1.15 2.604,1.15 1.012,0 1.766,-0.189 2.264,-0.568 0.498,-0.381 0.746,-0.949 0.746,-1.707 v -1.467 l 0.909,3.691 h -1.162 c -0.085,0.768 -0.447,1.346 -1.087,1.738 -0.641,0.394 -1.469,0.589 -2.479,0.589 z m -4.248,5.791 -0.126,-2.453 4.298,-0.127 c 1.357,-0.041 2.342,-0.418 2.953,-1.125 0.609,-0.707 0.916,-1.748 0.916,-3.123 v -3.059 h 2.705 v 2.654 c 0,2.385 -0.543,4.146 -1.631,5.285 -1.087,1.137 -2.818,1.744 -5.195,1.82 z m 8.066,-9.33 v -7.283 l 0.253,-2.832 h 2.427 v 10.115 z"
   id="path11" />&#10;                <path
   fill="#75739f"
   d="m 164.966,160.751 v -13.402 h 2.428 l 0.252,2.832 v 10.57 z m 8.243,0 v -8.725 c 0,-0.809 -0.21,-1.434 -0.632,-1.871 -0.422,-0.437 -1.012,-0.658 -1.77,-0.658 -2.107,0 -3.162,1.24 -3.162,3.717 l -0.783,-3.438 h 1.037 c 0.076,-0.902 0.404,-1.574 0.986,-2.018 0.581,-0.441 1.432,-0.664 2.554,-0.664 1.416,0 2.512,0.432 3.287,1.291 0.775,0.859 1.163,2.072 1.163,3.641 v 8.725 z"
   id="path12" />&#10;            </g>&#10;            <g
   id="designIcon">&#10;                <path
   fill="none"
   stroke="#dcdae5"
   stroke-width="1.15"
   stroke-linecap="round"
   stroke-linejoin="round"
   stroke-miterlimit="10"
   d="m 128.173,130.403 c 0.795,-0.471 1.822,-0.209 2.293,0.588 0.471,0.795 0.381,1.818 -0.608,2.648 -1.554,1.307 -3.378,1.154 -4.436,0.334 2.929,-0.572 0.948,-2.505 2.751,-3.57 z"
   id="path13" />&#10;&#10;                <path
   fill="none"
   stroke="#dcdae5"
   stroke-width="1.15"
   stroke-linecap="round"
   stroke-linejoin="round"
   stroke-miterlimit="10"
   d="m 130.637,131.087 c 1.45,-0.633 3.967,-1.943 6.158,-4.133 1.833,-1.834 3.051,-3.898 3.771,-5.373 0.357,-0.732 -0.416,-1.506 -1.148,-1.148 -1.474,0.721 -3.539,1.938 -5.373,3.771 -2.189,2.189 -3.5,4.709 -4.134,6.156 z"
   id="path14" />&#10;&#10;                <line
   fill="none"
   stroke="#dcdae5"
   stroke-width="1.15"
   stroke-linecap="round"
   stroke-linejoin="round"
   stroke-miterlimit="10"
   x1="132.62199"
   y1="130.093"
   x2="130.907"
   y2="128.37801"
   id="line14" />&#10;            </g>&#10;        </g>&#10;        <g
   id="code">&#10;            <g
   id="codeText">&#10;                <path
   fill="#75739f"
   d="m 222.771,161.003 c -2.2,0 -3.9,-0.6 -5.102,-1.801 -1.202,-1.201 -1.802,-2.928 -1.802,-5.178 0,-2.191 0.588,-3.895 1.764,-5.107 1.176,-1.215 2.854,-1.822 5.038,-1.822 1.307,0 2.426,0.244 3.357,0.729 0.931,0.484 1.596,1.168 1.99,2.055 l -2.061,1.555 c -0.379,-0.615 -0.864,-1.092 -1.453,-1.43 -0.59,-0.336 -1.234,-0.506 -1.935,-0.506 -1.239,0 -2.202,0.383 -2.89,1.145 -0.686,0.764 -1.029,1.848 -1.029,3.256 0,1.525 0.383,2.691 1.15,3.496 0.767,0.805 1.857,1.207 3.273,1.207 0.674,0 1.344,-0.029 2.005,-0.088 0.661,-0.059 1.309,-0.139 1.94,-0.24 l 0.303,2.352 c -0.732,0.15 -1.487,0.252 -2.263,0.303 -0.776,0.051 -1.535,0.074 -2.285,0.074 z"
   id="path15" />&#10;                <path
   fill="#75739f"
   d="m 236.905,161.003 c -1.854,0 -3.296,-0.607 -4.323,-1.82 -1.029,-1.215 -1.544,-2.926 -1.544,-5.133 0,-2.217 0.515,-3.93 1.544,-5.141 1.027,-1.209 2.47,-1.814 4.323,-1.814 1.862,0 3.307,0.605 4.33,1.814 1.023,1.211 1.536,2.924 1.536,5.141 0,2.207 -0.513,3.918 -1.536,5.133 -1.023,1.213 -2.467,1.82 -4.33,1.82 z m 0,-2.402 c 0.986,0 1.746,-0.396 2.281,-1.188 0.536,-0.793 0.804,-1.914 0.804,-3.363 0,-1.459 -0.268,-2.582 -0.804,-3.369 -0.535,-0.789 -1.295,-1.184 -2.281,-1.184 -0.986,0 -1.748,0.395 -2.282,1.184 -0.535,0.787 -0.804,1.91 -0.804,3.369 0,1.449 0.269,2.57 0.804,3.363 0.534,0.791 1.296,1.188 2.282,1.188 z"
   id="path16" />&#10;                <path
   fill="#75739f"
   d="m 251.04,161.003 c -1.693,0 -3.006,-0.588 -3.938,-1.764 -0.932,-1.176 -1.398,-2.863 -1.398,-5.064 0,-2.25 0.469,-3.992 1.404,-5.227 0.935,-1.235 2.254,-1.854 3.957,-1.854 1.078,0 1.911,0.223 2.496,0.664 0.587,0.443 0.934,1.115 1.043,2.018 h 1.037 l -0.783,3.438 c 0,-2.561 -1.139,-3.842 -3.414,-3.842 -0.985,0 -1.747,0.416 -2.283,1.252 -0.534,0.834 -0.801,2.018 -0.801,3.551 0,3.035 1.036,4.553 3.109,4.553 2.26,0 3.389,-0.76 3.389,-2.275 v -1.467 l 0.91,3.691 h -1.164 c -0.083,0.768 -0.446,1.346 -1.086,1.738 -0.64,0.393 -1.468,0.588 -2.478,0.588 z m 4.097,-0.127 -0.278,-2.629 v -16.461 h 2.68 v 18.965 z"
   id="path17" />&#10;                <path
   fill="#75739f"
   d="m 268.537,161.003 c -2.283,0 -4.048,-0.6 -5.291,-1.801 -1.243,-1.201 -1.864,-2.928 -1.864,-5.178 0,-2.191 0.526,-3.895 1.58,-5.107 1.055,-1.215 2.541,-1.822 4.464,-1.822 1.812,0 3.213,0.549 4.204,1.645 0.99,1.096 1.484,2.689 1.484,4.779 0,0.615 -0.025,1.188 -0.075,1.719 h -9.407 v -2.047 h 7.056 c 0,-1.207 -0.287,-2.131 -0.86,-2.775 -0.572,-0.645 -1.365,-0.967 -2.377,-0.967 -1.137,0 -2.02,0.387 -2.648,1.162 -0.627,0.775 -0.941,1.871 -0.941,3.287 0,1.551 0.431,2.73 1.296,3.539 0.863,0.811 2.093,1.215 3.685,1.215 0.557,0 1.104,-0.031 1.645,-0.096 0.538,-0.063 1.086,-0.148 1.643,-0.258 l 0.329,2.352 c -0.792,0.15 -1.517,0.248 -2.175,0.291 -0.66,0.04 -1.241,0.062 -1.748,0.062 z"
   id="path18" />&#10;            </g>&#10;            <g
   id="codeIcon">&#10;                <path
   fill="#dbd9e5"
   d="m 238.993,131.405 -7.592,-3.123 v -1.6 l 7.592,-3.123 v 1.744 l -5.863,2.107 v 0.143 l 5.863,2.107 z"
   id="path19" />&#10;                <path
   fill="#dbd9e5"
   d="m 240.975,134.606 6.371,-14.264 h 1.679 l -6.371,14.264 z"
   id="path20" />&#10;                <path
   fill="#dbd9e5"
   d="m 250.816,131.405 v -1.744 l 5.547,-2.107 v -0.143 l -5.547,-2.107 v -1.744 l 7.591,3.123 v 1.6 z"
   id="path21" />&#10;            </g>&#10;        </g>&#10;        <g
   id="market">&#10;            <g
   id="marketText">&#10;                <path
   fill="#75739f"
   d="m 313.017,160.751 v -13.402 h 2.377 l 0.304,2.832 v 10.57 z m 5.031,0 v -10.494 c 0,-0.76 -0.354,-1.139 -1.063,-1.139 -0.859,0 -1.288,0.607 -1.288,1.82 l -0.784,-1.922 h 0.859 c 0.051,-0.648 0.263,-1.131 0.639,-1.447 0.375,-0.316 0.929,-0.475 1.662,-0.475 0.699,0 1.25,0.24 1.65,0.723 0.4,0.48 0.6,1.209 0.6,2.186 v 10.748 z m 4.627,0 v -10.242 c 0,-0.926 -0.344,-1.391 -1.036,-1.391 -0.877,0 -1.315,0.607 -1.315,1.82 l -0.91,-1.922 h 1.037 c 0.041,-0.521 0.25,-0.973 0.626,-1.352 0.375,-0.379 0.916,-0.57 1.625,-0.57 0.927,0 1.601,0.25 2.022,0.746 0.422,0.498 0.633,1.303 0.633,2.416 v 10.494 h -2.682 z"
   id="path22" />&#10;                <path
   fill="#75739f"
   d="m 332.385,161.003 c -1.399,0 -2.482,-0.338 -3.249,-1.012 -0.767,-0.674 -1.15,-1.627 -1.15,-2.857 0,-1.416 0.529,-2.504 1.586,-3.262 1.059,-0.758 2.553,-1.137 4.482,-1.137 0.801,0 1.515,0.047 2.144,0.145 0.628,0.098 1.187,0.242 1.675,0.436 l -0.556,1.822 c -0.565,-0.127 -1.118,-0.201 -1.656,-0.223 -0.54,-0.021 -1.092,-0.031 -1.657,-0.031 -2.326,0 -3.488,0.666 -3.488,1.998 0,0.623 0.199,1.107 0.6,1.453 0.401,0.346 0.968,0.52 1.701,0.52 0.834,0 1.531,-0.145 2.092,-0.432 0.561,-0.285 0.98,-0.652 1.258,-1.1 0.278,-0.445 0.418,-0.906 0.418,-1.377 v -1.467 l 0.783,3.439 h -1.063 l 0.431,-0.406 c 0,0.775 -0.179,1.424 -0.537,1.941 -0.358,0.517 -0.862,0.906 -1.511,1.164 -0.65,0.257 -1.417,0.386 -2.303,0.386 z m 4.729,-0.127 -0.178,-3.969 -0.354,-1.113 v -3.465 c 0,-0.893 -0.314,-1.549 -0.941,-1.965 -0.629,-0.418 -1.563,-0.643 -2.801,-0.676 l -3.212,-0.09 0.253,-2.377 2.705,0.039 c 2.217,0.033 3.863,0.512 4.938,1.434 1.074,0.924 1.611,2.27 1.611,4.041 v 5.588 l 2.276,0.277 v 2.15 z"
   id="path23" />&#10;                <path
   fill="#75739f"
   d="m 342.954,160.751 v -2.201 h 8.952 v 2.201 z m 0.506,-11.203 v -2.199 h 4.477 l 0.252,2.199 z m 2.478,11.203 v -13.402 h 2.174 l 0.506,3.844 v 9.559 h -2.68 z m 2.68,-5.766 -0.783,-4.197 h 1.036 c 0.152,-2.461 1.383,-3.693 3.692,-3.693 1.383,0 2.385,0.396 3.009,1.189 0.624,0.793 0.935,2.074 0.935,3.844 h -2.654 c 0,-0.979 -0.145,-1.682 -0.436,-2.111 -0.291,-0.429 -0.762,-0.645 -1.41,-0.645 -1.138,0 -1.986,0.486 -2.547,1.459 -0.561,0.975 -0.842,2.359 -0.842,4.154 z"
   id="path24" />&#10;                <path
   fill="#75739f"
   d="m 359.137,160.751 v -18.965 h 2.681 v 18.965 z m 1.897,-5.084 v -2.402 h 1.518 c 1.111,0 2.026,-0.191 2.743,-0.574 0.716,-0.383 1.279,-1.01 1.688,-1.877 0.409,-0.869 0.71,-2.023 0.903,-3.465 h 2.783 c -0.355,2.791 -1.15,4.873 -2.384,6.252 -1.235,1.379 -2.936,2.066 -5.103,2.066 z m 7.18,5.084 -3.816,-6.525 2.529,-1.035 4.602,7.561 h -3.315 z"
   id="path25" />&#10;                <path
   fill="#75739f"
   d="m 381.161,161.003 c -2.283,0 -4.047,-0.6 -5.291,-1.801 -1.242,-1.201 -1.864,-2.928 -1.864,-5.178 0,-2.191 0.526,-3.895 1.58,-5.107 1.054,-1.215 2.54,-1.822 4.464,-1.822 1.811,0 3.213,0.549 4.203,1.645 0.99,1.096 1.486,2.689 1.486,4.779 0,0.615 -0.026,1.188 -0.076,1.719 h -9.406 v -2.047 h 7.055 c 0,-1.207 -0.287,-2.131 -0.86,-2.775 -0.573,-0.644 -1.366,-0.967 -2.377,-0.967 -1.138,0 -2.021,0.387 -2.649,1.162 -0.627,0.775 -0.941,1.871 -0.941,3.287 0,1.551 0.433,2.73 1.297,3.539 0.863,0.811 2.092,1.215 3.685,1.215 0.558,0 1.104,-0.031 1.644,-0.096 0.54,-0.063 1.088,-0.148 1.644,-0.258 l 0.329,2.352 c -0.792,0.15 -1.518,0.248 -2.175,0.291 -0.66,0.04 -1.242,0.062 -1.748,0.062 z"
   id="path26" />&#10;                <path
   fill="#75739f"
   d="m 388.216,149.548 v -2.199 h 12.139 v 2.199 z m 3.363,4.881 v -11.127 h 2.682 v 11.127 z m 5.765,6.574 c -2.03,0 -3.499,-0.422 -4.405,-1.264 -0.906,-0.844 -1.359,-2.191 -1.359,-4.047 v -2.275 h 2.682 v 2.15 c 0,1.061 0.258,1.832 0.776,2.313 0.518,0.481 1.372,0.721 2.561,0.721 0.421,0 0.868,-0.023 1.341,-0.07 0.471,-0.045 1.011,-0.107 1.617,-0.182 l 0.304,2.352 c -0.59,0.1 -1.165,0.176 -1.726,0.227 -0.561,0.051 -1.158,0.075 -1.791,0.075 z"
   id="path27" />&#10;            </g>&#10;            <g
   id="marketIcon">&#10;                <g
   id="g28">&#10;                    <path
   fill="#dbd9e5"
   d="m 357.972,130.634 h -11.133 c -0.205,0 -0.388,-0.129 -0.457,-0.32 l -2.795,-7.699 c -0.055,-0.15 -0.033,-0.316 0.058,-0.445 0.091,-0.131 0.241,-0.207 0.398,-0.207 h 16.037 c 0.269,0 0.487,0.217 0.487,0.486 0,0.268 -0.219,0.486 -0.487,0.486 h -15.342 l 2.442,6.727 h 10.507 l 5.106,-9.07 c 0.086,-0.152 0.249,-0.248 0.424,-0.248 h 5.754 c 0.27,0 0.487,0.219 0.487,0.486 0,0.27 -0.218,0.486 -0.487,0.486 h -5.47 l -5.108,9.07 c -0.083,0.152 -0.246,0.248 -0.421,0.248 z"
   id="path28" />&#10;                </g>&#10;                <g
   id="g29">&#10;                    <path
   fill="#dbd9e5"
   d="m 367.694,124.173 h -4.217 c -0.27,0 -0.487,-0.219 -0.487,-0.486 0,-0.27 0.218,-0.486 0.487,-0.486 h 4.217 c 0.268,0 0.486,0.217 0.486,0.486 10e-4,0.267 -0.218,0.486 -0.486,0.486 z"
   id="path29" />&#10;                </g>&#10;                <g
   id="g30">&#10;                    <path
   fill="#dbd9e5"
   d="m 366.209,126.563 h -4.217 c -0.269,0 -0.485,-0.219 -0.485,-0.486 0,-0.27 0.217,-0.486 0.485,-0.486 h 4.217 c 0.271,0 0.487,0.217 0.487,0.486 0,0.268 -0.217,0.486 -0.487,0.486 z"
   id="path30" />&#10;                </g>&#10;                <g
   id="g31">&#10;                    <path
   fill="#dbd9e5"
   d="m 349.095,134.606 c -0.971,0 -1.762,-0.791 -1.762,-1.762 0,-0.973 0.791,-1.762 1.762,-1.762 0.971,0 1.76,0.789 1.76,1.762 -0.001,0.971 -0.79,1.762 -1.76,1.762 z m 0,-2.55 c -0.436,0 -0.789,0.354 -0.789,0.789 0,0.434 0.354,0.789 0.789,0.789 0.435,0 0.789,-0.355 0.789,-0.789 0,-0.436 -0.354,-0.789 -0.789,-0.789 z"
   id="path31" />&#10;                </g>&#10;                <g
   id="g32">&#10;                    <path
   fill="#dbd9e5"
   d="m 355.862,134.606 c -0.972,0 -1.762,-0.791 -1.762,-1.762 0,-0.973 0.79,-1.762 1.762,-1.762 0.972,0 1.762,0.789 1.762,1.762 0,0.971 -0.79,1.762 -1.762,1.762 z m 0,-2.55 c -0.435,0 -0.788,0.354 -0.788,0.789 0,0.434 0.354,0.789 0.788,0.789 0.434,0 0.788,-0.355 0.788,-0.789 0,-0.436 -0.353,-0.789 -0.788,-0.789 z"
   id="path32" />&#10;                </g>&#10;            </g>&#10;        </g>&#10;        <g
   id="training">&#10;            <g
   id="trainingText">&#10;                <path
   fill="#75739f"
   d="m 432.896,149.548 v -2.199 h 12.138 v 2.199 z m 3.365,4.881 v -11.127 h 2.68 v 11.127 z m 5.764,6.574 c -2.032,0 -3.5,-0.422 -4.405,-1.264 -0.907,-0.844 -1.359,-2.191 -1.359,-4.047 v -2.275 h 2.68 v 2.15 c 0,1.061 0.26,1.832 0.778,2.313 0.518,0.481 1.371,0.721 2.56,0.721 0.421,0 0.868,-0.023 1.34,-0.07 0.473,-0.045 1.012,-0.107 1.619,-0.182 l 0.303,2.352 c -0.59,0.1 -1.164,0.176 -1.726,0.227 -0.56,0.05 -1.158,0.075 -1.79,0.075 z"
   id="path33" />&#10;                <path
   fill="#75739f"
   d="m 448.321,160.751 v -2.201 h 8.951 v 2.201 z m 0.506,-11.203 v -2.199 h 4.477 l 0.252,2.199 z m 2.479,11.203 v -13.402 h 2.175 l 0.505,3.844 v 9.559 h -2.68 z m 2.679,-5.766 -0.784,-4.197 h 1.038 c 0.15,-2.461 1.381,-3.693 3.69,-3.693 1.383,0 2.386,0.396 3.01,1.189 0.624,0.793 0.936,2.074 0.936,3.844 h -2.655 c 0,-0.979 -0.145,-1.682 -0.436,-2.111 -0.292,-0.43 -0.762,-0.645 -1.41,-0.645 -1.137,0 -1.986,0.486 -2.547,1.459 -0.56,0.975 -0.842,2.359 -0.842,4.154 z"
   id="path34" />&#10;                <path
   fill="#75739f"
   d="m 468.095,161.003 c -1.398,0 -2.481,-0.338 -3.249,-1.012 -0.767,-0.674 -1.149,-1.627 -1.149,-2.857 0,-1.416 0.527,-2.504 1.586,-3.262 1.058,-0.758 2.552,-1.137 4.482,-1.137 0.801,0 1.515,0.047 2.143,0.145 0.627,0.098 1.187,0.242 1.676,0.436 l -0.559,1.822 c -0.563,-0.127 -1.115,-0.201 -1.654,-0.223 -0.54,-0.021 -1.092,-0.031 -1.656,-0.031 -2.326,0 -3.49,0.666 -3.49,1.998 0,0.623 0.201,1.107 0.601,1.453 0.401,0.346 0.968,0.52 1.7,0.52 0.835,0 1.533,-0.145 2.092,-0.432 0.562,-0.285 0.98,-0.652 1.259,-1.1 0.278,-0.445 0.418,-0.906 0.418,-1.377 v -1.467 l 0.784,3.439 h -1.063 l 0.43,-0.406 c 0,0.775 -0.179,1.424 -0.537,1.941 -0.357,0.518 -0.861,0.906 -1.512,1.164 -0.65,0.257 -1.418,0.386 -2.302,0.386 z m 4.728,-0.127 -0.177,-3.969 -0.354,-1.113 v -3.465 c 0,-0.893 -0.314,-1.549 -0.942,-1.965 -0.629,-0.418 -1.563,-0.643 -2.801,-0.676 l -3.211,-0.09 0.254,-2.377 2.705,0.039 c 2.216,0.033 3.863,0.512 4.937,1.434 1.074,0.924 1.612,2.27 1.612,4.041 v 5.588 l 2.275,0.277 v 2.15 z"
   id="path35" />&#10;                <path
   fill="#75739f"
   d="m 479.676,160.751 v -2.201 h 5.361 v 2.201 z m 0.758,-11.178 v -2.225 h 7.03 v 2.225 z m 5.538,-4.349 c -0.514,0 -0.954,-0.182 -1.32,-0.549 -0.367,-0.367 -0.551,-0.807 -0.551,-1.322 0,-0.521 0.184,-0.965 0.551,-1.326 0.366,-0.363 0.807,-0.545 1.32,-0.545 0.523,0 0.966,0.182 1.327,0.545 0.362,0.361 0.544,0.805 0.544,1.326 0,0.516 -0.182,0.955 -0.544,1.322 -0.361,0.367 -0.804,0.549 -1.327,0.549 z m -1.188,15.527 v -12.645 h 2.68 v 12.645 z m 2.428,0 v -2.201 h 4.374 v 2.201 z"
   id="path36" />&#10;                <path
   fill="#75739f"
   d="m 494.948,160.751 v -13.402 h 2.428 l 0.252,2.832 v 10.57 z m 8.244,0 v -8.725 c 0,-0.809 -0.211,-1.434 -0.633,-1.871 -0.421,-0.438 -1.012,-0.658 -1.77,-0.658 -2.107,0 -3.162,1.24 -3.162,3.717 l -0.782,-3.438 h 1.036 c 0.076,-0.902 0.404,-1.574 0.986,-2.018 0.582,-0.441 1.434,-0.664 2.554,-0.664 1.417,0 2.513,0.432 3.288,1.291 0.775,0.859 1.162,2.072 1.162,3.641 v 8.725 z"
   id="path37" />&#10;            </g>&#10;            <g
   id="trainingIcon">&#10;                <circle
   fill="#dbd9e5"
   cx="471.388"
   cy="127.496"
   r="2.1329999"
   id="circle37" />&#10;                <path
   fill="#dbd9e5"
   d="m 477.755,130.753 c 0.115,-0.227 0.221,-0.457 0.313,-0.695 l 0.006,-0.012 -0.98,-0.373 c 0.166,-0.439 0.276,-0.879 0.339,-1.326 l 1.04,0.145 c 0.035,-0.244 0.059,-0.5 0.066,-0.754 l -1.053,-0.037 c 0.015,-0.457 -0.018,-0.91 -0.109,-1.359 l 1.034,-0.201 c -0.047,-0.246 -0.108,-0.492 -0.183,-0.734 l -1.01,0.309 c -0.129,-0.438 -0.312,-0.861 -0.539,-1.256 l 0.914,-0.521 c -0.125,-0.221 -0.266,-0.434 -0.412,-0.637 l -0.853,0.617 c -0.265,-0.367 -0.573,-0.711 -0.921,-1.016 l 0.693,-0.785 c -0.188,-0.17 -0.393,-0.322 -0.596,-0.471 l -0.605,0.855 c -0.367,-0.254 -0.768,-0.477 -1.201,-0.652 l 0.398,-0.975 c -0.23,-0.092 -0.475,-0.176 -0.712,-0.246 l -0.294,1.01 c -0.449,-0.131 -0.898,-0.209 -1.35,-0.236 l 0.061,-1.047 c -0.25,-0.016 -0.504,-0.016 -0.759,-0.004 l 0.056,1.049 c -0.461,0.023 -0.914,0.1 -1.352,0.223 l -0.284,-1.016 c -0.243,0.068 -0.483,0.152 -0.719,0.244 l 0.391,0.98 c -0.424,0.166 -0.829,0.383 -1.206,0.641 l -0.599,-0.863 c -0.202,0.139 -0.407,0.291 -0.596,0.457 l 0.681,0.799 c -0.344,0.293 -0.655,0.633 -0.934,1.002 l -0.844,-0.623 c -0.148,0.199 -0.289,0.416 -0.414,0.629 l 0.904,0.535 c -0.166,0.283 -0.313,0.586 -0.437,0.9 -0.046,0.115 -0.083,0.232 -0.119,0.348 l -1.003,-0.316 c -0.076,0.238 -0.138,0.486 -0.188,0.732 l 1.027,0.207 c -0.091,0.457 -0.135,0.91 -0.12,1.367 l -1.05,0.021 c 0.005,0.254 0.023,0.51 0.058,0.756 l 1.042,-0.141 c 0.061,0.457 0.173,0.904 0.329,1.328 l -0.984,0.371 c 0.089,0.23 0.188,0.467 0.3,0.693 l 0.943,-0.471 c 0.201,0.41 0.449,0.795 0.742,1.148 l -0.818,0.666 c 0.158,0.197 0.332,0.389 0.51,0.564 l 0.739,-0.748 c 0.319,0.318 0.677,0.6 1.075,0.844 l -0.554,0.896 c 0.214,0.129 0.438,0.254 0.665,0.361 l 0.457,-0.945 c 0.148,0.072 0.301,0.141 0.458,0.201 0.272,0.105 0.55,0.189 0.831,0.25 l -0.234,1.025 c 0.244,0.055 0.492,0.1 0.744,0.133 l 0.128,-1.047 c 0.458,0.059 0.918,0.055 1.362,0.004 l 0.114,1.049 c 0.251,-0.027 0.504,-0.07 0.747,-0.119 l -0.219,-1.029 c 0.447,-0.096 0.877,-0.248 1.295,-0.441 l 0.444,0.957 c 0.228,-0.107 0.453,-0.223 0.669,-0.354 l -0.544,-0.902 c 0.39,-0.236 0.753,-0.514 1.085,-0.834 l 0.73,0.758 c 0.181,-0.17 0.355,-0.359 0.518,-0.553 l -0.805,-0.674 c 0.287,-0.348 0.543,-0.727 0.755,-1.143 z m -8.239,1.617 c -2.687,-1.033 -4.036,-4.059 -3.003,-6.746 1.034,-2.689 4.061,-4.037 6.748,-3.004 2.688,1.035 4.037,4.061 3.002,6.748 -1.034,2.688 -4.059,4.035 -6.747,3.002 z"
   id="path38" />&#10;            </g>&#10;        </g><g
   id="online"
   transform="translate(-2.9965,-178.31312)">&#10;            <g
   id="g78">&#10;                <path
   fill="#2d318d"
   d="m 215.666,287.386 c -4.086,0 -7.262,-1.336 -9.527,-4.012 -2.267,-2.674 -3.399,-6.443 -3.399,-11.309 0,-4.885 1.133,-8.66 3.399,-11.324 2.266,-2.666 5.441,-3.998 9.527,-3.998 4.104,0 7.284,1.332 9.541,3.998 2.257,2.664 3.384,6.439 3.384,11.324 0,4.865 -1.127,8.635 -3.384,11.309 -2.257,2.676 -5.436,4.012 -9.541,4.012 z m 0,-5.293 c 2.173,0 3.849,-0.873 5.028,-2.617 1.178,-1.746 1.768,-4.217 1.768,-7.41 0,-3.213 -0.59,-5.689 -1.768,-7.426 -1.18,-1.736 -2.855,-2.604 -5.028,-2.604 -2.173,0 -3.849,0.867 -5.028,2.604 -1.179,1.737 -1.77,4.213 -1.77,7.426 0,3.193 0.59,5.664 1.77,7.41 1.179,1.744 2.855,2.617 5.028,2.617 z"
   id="path73" />&#10;                <path
   fill="#2d318d"
   d="M 237.061,286.829 V 257.3 h 5.349 l 0.558,6.24 v 23.289 z m 18.163,0 v -19.223 c 0,-1.781 -0.464,-3.156 -1.393,-4.121 -0.929,-0.967 -2.229,-1.449 -3.9,-1.449 -4.644,0 -6.964,2.73 -6.964,8.189 l -1.728,-7.576 h 2.285 c 0.166,-1.988 0.891,-3.469 2.172,-4.443 1.281,-0.977 3.156,-1.463 5.627,-1.463 3.121,0 5.534,0.947 7.244,2.842 1.708,1.895 2.563,4.568 2.563,8.021 v 19.223 z"
   id="path74" />&#10;                <path
   fill="#2d318d"
   d="m 268.261,249.89 v -4.848 h 9.193 v 4.848 z m 18.386,37.496 c -3.417,0 -5.887,-0.928 -7.41,-2.785 -1.523,-1.857 -2.284,-4.828 -2.284,-8.914 v -30.645 h 5.905 v 30.365 c 0,1.561 0.148,2.832 0.446,3.816 0.298,0.984 0.877,1.709 1.741,2.174 0.863,0.465 2.141,0.695 3.83,0.695 1.541,0 3.51,-0.352 5.906,-1.059 l 0.668,5.182 c -1.504,0.41 -2.949,0.707 -4.332,0.893 -1.382,0.184 -2.872,0.278 -4.47,0.278 z"
   id="path75" />&#10;                <path
   fill="#2d318d"
   d="m 303.696,286.829 v -4.848 h 11.813 v 4.848 z m 1.672,-24.627 V 257.3 h 15.488 v 4.902 z m 12.201,-9.582 c -1.133,0 -2.104,-0.404 -2.91,-1.213 -0.809,-0.807 -1.213,-1.777 -1.213,-2.91 0,-1.152 0.404,-2.127 1.213,-2.926 0.807,-0.799 1.777,-1.197 2.91,-1.197 1.152,0 2.127,0.398 2.926,1.197 0.799,0.799 1.197,1.773 1.197,2.926 0,1.133 -0.398,2.104 -1.197,2.91 -0.799,0.809 -1.773,1.213 -2.926,1.213 z m -2.618,34.209 v -27.857 h 5.905 v 27.857 z m 5.348,0 v -4.848 h 9.64 v 4.848 z"
   id="path76" />&#10;                <path
   fill="#2d318d"
   d="M 337.349,286.829 V 257.3 h 5.348 l 0.558,6.24 v 23.289 z m 18.162,0 v -19.223 c 0,-1.781 -0.463,-3.156 -1.392,-4.121 -0.929,-0.967 -2.229,-1.449 -3.899,-1.449 -4.644,0 -6.966,2.73 -6.966,8.189 l -1.727,-7.576 h 2.284 c 0.168,-1.988 0.892,-3.469 2.174,-4.443 1.281,-0.977 3.156,-1.463 5.627,-1.463 3.119,0 5.534,0.947 7.242,2.842 1.709,1.895 2.563,4.568 2.563,8.021 v 19.223 z"
   id="path77" />&#10;                <path
   fill="#2d318d"
   d="m 385.654,287.386 c -5.033,0 -8.92,-1.322 -11.659,-3.969 -2.738,-2.646 -4.108,-6.449 -4.108,-11.408 0,-4.828 1.161,-8.58 3.482,-11.254 2.32,-2.676 5.599,-4.012 9.833,-4.012 3.994,0 7.08,1.207 9.264,3.621 2.182,2.414 3.271,5.924 3.271,10.531 0,1.355 -0.055,2.617 -0.166,3.787 h -20.727 v -4.512 h 15.545 c 0,-2.656 -0.631,-4.695 -1.895,-6.115 -1.264,-1.422 -3.009,-2.131 -5.236,-2.131 -2.508,0 -4.453,0.854 -5.838,2.563 -1.383,1.709 -2.074,4.123 -2.074,7.242 0,3.418 0.952,6.018 2.855,7.801 1.904,1.783 4.611,2.674 8.121,2.674 1.225,0 2.433,-0.068 3.621,-0.209 1.188,-0.139 2.396,-0.328 3.621,-0.57 l 0.725,5.182 c -1.746,0.334 -3.343,0.547 -4.791,0.641 -1.448,0.093 -2.729,0.138 -3.844,0.138 z"
   id="path78" />&#10;            </g>&#10;            <g
   id="g84">&#10;                <path
   fill="#4f4b9f"
   d="m 217.251,285.802 c -4.086,0 -7.262,-1.338 -9.527,-4.012 -2.267,-2.674 -3.398,-6.443 -3.398,-11.311 0,-4.885 1.132,-8.658 3.398,-11.324 2.266,-2.664 5.441,-3.998 9.527,-3.998 4.104,0 7.285,1.334 9.541,3.998 2.256,2.666 3.384,6.439 3.384,11.324 0,4.867 -1.128,8.637 -3.384,11.311 -2.256,2.674 -5.438,4.012 -9.541,4.012 z m 0,-5.293 c 2.173,0 3.849,-0.873 5.027,-2.619 1.18,-1.746 1.77,-4.215 1.77,-7.41 0,-3.213 -0.59,-5.688 -1.77,-7.424 -1.179,-1.736 -2.854,-2.605 -5.027,-2.605 -2.174,0 -3.85,0.869 -5.029,2.605 -1.179,1.736 -1.768,4.211 -1.768,7.424 0,3.195 0.588,5.664 1.768,7.41 1.18,1.746 2.855,2.619 5.029,2.619 z"
   id="path79" />&#10;                <path
   fill="#4f4b9f"
   d="m 238.646,285.245 v -29.529 h 5.348 l 0.559,6.24 v 23.289 z m 18.163,0 v -19.223 c 0,-1.783 -0.464,-3.156 -1.393,-4.123 -0.929,-0.965 -2.229,-1.449 -3.9,-1.449 -4.644,0 -6.964,2.73 -6.964,8.191 l -1.728,-7.578 h 2.284 c 0.168,-1.986 0.892,-3.469 2.173,-4.443 1.28,-0.975 3.157,-1.463 5.628,-1.463 3.119,0 5.533,0.947 7.242,2.842 1.709,1.895 2.563,4.568 2.563,8.023 v 19.223 z"
   id="path80" />&#10;                <path
   fill="#4f4b9f"
   d="m 269.847,248.306 v -4.848 h 9.193 v 4.848 z m 18.384,37.496 c -3.416,0 -5.887,-0.928 -7.409,-2.785 -1.522,-1.857 -2.284,-4.83 -2.284,-8.916 v -30.643 h 5.906 v 30.365 c 0,1.561 0.146,2.832 0.445,3.816 0.297,0.984 0.877,1.709 1.74,2.172 0.864,0.465 2.141,0.697 3.831,0.697 1.542,0 3.511,-0.354 5.905,-1.059 l 0.67,5.182 c -1.505,0.408 -2.949,0.705 -4.332,0.891 -1.384,0.186 -2.874,0.28 -4.472,0.28 z"
   id="path81" />&#10;                <path
   fill="#4f4b9f"
   d="m 305.281,285.245 v -4.848 h 11.812 v 4.848 z m 1.671,-24.627 v -4.902 h 15.488 v 4.902 z m 12.203,-9.584 c -1.134,0 -2.104,-0.402 -2.912,-1.211 -0.808,-0.809 -1.211,-1.777 -1.211,-2.912 0,-1.15 0.403,-2.125 1.211,-2.924 0.809,-0.799 1.778,-1.197 2.912,-1.197 1.15,0 2.126,0.398 2.924,1.197 0.799,0.799 1.198,1.773 1.198,2.924 0,1.135 -0.399,2.104 -1.198,2.912 -0.798,0.809 -1.773,1.211 -2.924,1.211 z m -2.619,34.211 v -27.859 h 5.904 v 27.859 z m 5.348,0 v -4.848 h 9.64 v 4.848 z"
   id="path82" />&#10;                <path
   fill="#4f4b9f"
   d="m 338.934,285.245 v -29.529 h 5.349 l 0.557,6.24 v 23.289 z m 18.163,0 v -19.223 c 0,-1.783 -0.464,-3.156 -1.393,-4.123 -0.929,-0.965 -2.229,-1.449 -3.9,-1.449 -4.643,0 -6.965,2.73 -6.965,8.191 l -1.727,-7.578 h 2.284 c 0.167,-1.986 0.892,-3.469 2.173,-4.443 1.281,-0.974 3.156,-1.463 5.627,-1.463 3.121,0 5.535,0.947 7.244,2.842 1.708,1.895 2.563,4.568 2.563,8.023 v 19.223 z"
   id="path83" />&#10;                <path
   fill="#4f4b9f"
   d="m 387.239,285.802 c -5.033,0 -8.92,-1.324 -11.658,-3.971 -2.74,-2.646 -4.109,-6.447 -4.109,-11.406 0,-4.83 1.16,-8.58 3.482,-11.256 2.32,-2.674 5.6,-4.012 9.834,-4.012 3.992,0 7.079,1.207 9.262,3.623 2.183,2.414 3.273,5.924 3.273,10.529 0,1.355 -0.055,2.619 -0.167,3.789 H 376.43 v -4.514 h 15.546 c 0,-2.656 -0.633,-4.693 -1.895,-6.115 -1.264,-1.42 -3.01,-2.131 -5.238,-2.131 -2.507,0 -4.452,0.855 -5.836,2.564 -1.383,1.707 -2.076,4.123 -2.076,7.242 0,3.418 0.953,6.018 2.856,7.801 1.903,1.783 4.61,2.674 8.12,2.674 1.226,0 2.434,-0.07 3.622,-0.209 1.188,-0.139 2.396,-0.33 3.622,-0.57 l 0.724,5.182 c -1.745,0.334 -3.343,0.545 -4.792,0.641 -1.448,0.092 -2.729,0.139 -3.844,0.139 z"
   id="path84" />&#10;            </g>&#10;        </g><g
   id="fullName"
   transform="translate(-2.9645,-188.02127)">&#10;            <g
   id="Vaibhav">&#10;                <g
   id="g45">&#10;                    <path
   fill="#ed1d64"
   d="M 32.472,228.427 21.328,188.868 h 5.962 l 9.248,34.822 h 0.502 l 9.249,-34.822 h 5.962 l -11.144,39.559 z"
   id="path39" />&#10;                    <path
   fill="#ed1d64"
   d="m 65.901,228.983 c -3.084,0 -5.471,-0.742 -7.16,-2.229 -1.689,-1.484 -2.535,-3.584 -2.535,-6.295 0,-3.121 1.166,-5.518 3.496,-7.188 2.33,-1.672 5.623,-2.508 9.876,-2.508 1.764,0 3.339,0.107 4.722,0.32 1.384,0.213 2.613,0.533 3.691,0.961 l -1.227,4.012 c -1.244,-0.277 -2.46,-0.441 -3.648,-0.486 -1.189,-0.047 -2.405,-0.07 -3.65,-0.07 -5.126,0 -7.688,1.467 -7.688,4.402 0,1.373 0.44,2.441 1.322,3.203 0.882,0.762 2.132,1.143 3.748,1.143 1.838,0 3.375,-0.316 4.609,-0.947 1.235,-0.633 2.159,-1.439 2.772,-2.424 0.612,-0.984 0.919,-1.996 0.919,-3.037 v -3.232 l 1.728,7.578 h -2.341 l 0.947,-0.891 c 0,1.707 -0.395,3.133 -1.184,4.275 -0.789,1.142 -1.899,1.996 -3.329,2.563 -1.43,0.567 -3.118,0.85 -5.068,0.85 z m 10.418,-0.277 -0.39,-8.748 -0.78,-2.451 v -7.633 c 0,-1.969 -0.691,-3.412 -2.076,-4.332 -1.383,-0.92 -3.439,-1.416 -6.17,-1.49 l -7.076,-0.195 0.558,-5.238 5.962,0.084 c 4.885,0.074 8.51,1.129 10.879,3.162 2.367,2.033 3.551,5 3.551,8.9 v 12.314 l 5.014,0.611 v 4.736 z"
   id="path40" />&#10;                    <path
   fill="#ed1d64"
   d="m 91.418,228.427 v -4.848 h 11.813 v 4.848 z M 93.09,203.8 v -4.902 h 15.489 v 4.902 z m 12.202,-9.582 c -1.133,0 -2.104,-0.404 -2.912,-1.213 -0.809,-0.807 -1.211,-1.777 -1.211,-2.91 0,-1.152 0.402,-2.127 1.211,-2.926 0.809,-0.799 1.779,-1.197 2.912,-1.197 1.15,0 2.126,0.398 2.924,1.197 0.799,0.799 1.199,1.773 1.199,2.926 0,1.133 -0.4,2.104 -1.199,2.91 -0.798,0.808 -1.774,1.213 -2.924,1.213 z m -2.619,34.209 V 200.57 h 5.906 v 27.857 z m 5.349,0 v -4.848 h 9.639 v 4.848 z"
   id="path41" />&#10;                    <path
   fill="#ed1d64"
   d="M 125.071,228.427 V 186.64 h 5.905 v 41.285 z m 7.911,0.556 c -1.338,0 -2.655,-0.051 -3.956,-0.152 -1.3,-0.102 -2.619,-0.236 -3.955,-0.404 l 2.283,-5.404 c 0.984,0.465 2.07,0.738 3.26,0.822 1.188,0.084 2.368,0.125 3.538,0.125 3.548,0 6.292,-1.068 8.231,-3.203 1.941,-2.137 2.912,-5.154 2.912,-9.055 0,-2.674 -0.591,-4.736 -1.77,-6.184 -1.18,-1.449 -2.855,-2.174 -5.028,-2.174 -5.015,0 -7.521,2.822 -7.521,8.469 l -1.728,-7.578 h 2.285 c 0.278,-3.936 2.692,-5.904 7.242,-5.904 3.938,0 6.983,1.16 9.137,3.482 2.155,2.32 3.232,5.617 3.232,9.889 0,5.479 -1.584,9.727 -4.75,12.746 -3.165,3.018 -7.635,4.525 -13.412,4.525 z"
   id="path42" />&#10;                    <path
   fill="#ed1d64"
   d="M 158.5,228.427 V 186.64 h 5.905 v 41.787 z m 18.163,0 v -19.223 c 0,-1.875 -0.464,-3.318 -1.393,-4.332 -0.929,-1.012 -2.229,-1.518 -3.9,-1.518 -4.643,0 -6.965,2.822 -6.965,8.469 l -1.727,-7.578 h 2.285 c 0.166,-1.986 0.891,-3.467 2.172,-4.443 1.281,-0.975 3.158,-1.461 5.627,-1.461 3.121,0 5.535,0.947 7.244,2.84 1.708,1.895 2.562,4.57 2.562,8.023 v 19.223 z"
   id="path43" />&#10;                    <path
   fill="#ed1d64"
   d="m 199.618,228.983 c -3.083,0 -5.469,-0.742 -7.159,-2.229 -1.69,-1.484 -2.535,-3.584 -2.535,-6.295 0,-3.121 1.165,-5.518 3.496,-7.188 2.331,-1.672 5.622,-2.508 9.876,-2.508 1.764,0 3.338,0.107 4.722,0.32 1.384,0.213 2.614,0.533 3.69,0.961 l -1.225,4.012 c -1.245,-0.277 -2.461,-0.441 -3.65,-0.486 -1.188,-0.047 -2.404,-0.07 -3.648,-0.07 -5.127,0 -7.689,1.467 -7.689,4.402 0,1.373 0.441,2.441 1.322,3.203 0.883,0.762 2.133,1.143 3.748,1.143 1.838,0 3.375,-0.316 4.61,-0.947 1.235,-0.633 2.159,-1.439 2.772,-2.424 0.611,-0.984 0.919,-1.996 0.919,-3.037 v -3.232 l 1.726,7.578 h -2.338 l 0.946,-0.891 c 0,1.707 -0.395,3.133 -1.184,4.275 -0.79,1.143 -1.899,1.996 -3.329,2.563 -1.43,0.567 -3.12,0.85 -5.07,0.85 z m 10.418,-0.277 -0.389,-8.748 -0.78,-2.451 v -7.633 c 0,-1.969 -0.692,-3.412 -2.075,-4.332 -1.384,-0.92 -3.441,-1.416 -6.171,-1.49 l -7.075,-0.195 0.557,-5.238 5.961,0.084 c 4.885,0.074 8.51,1.129 10.879,3.162 2.368,2.033 3.552,5 3.552,8.9 v 12.314 l 5.015,0.611 v 4.736 z"
   id="path44" />&#10;                    <path
   fill="#ed1d64"
   d="m 233.604,228.427 -10.697,-29.529 h 6.296 l 8.079,24.516 h 0.502 l 7.799,-24.516 h 6.296 l -10.418,29.529 z"
   id="path45" />&#10;                </g>&#10;                <g
   id="g52">&#10;                    <path
   fill="#ee3d7b"
   d="m 32.561,228.401 -11.374,-39.49 5.962,-0.035 9.451,34.768 0.501,-0.004 9.046,-34.875 5.962,-0.035 -10.913,39.623 z"
   id="path46" />&#10;                    <path
   fill="#ee3d7b"
   d="m 65.992,228.765 c -3.083,0.018 -5.474,-0.711 -7.172,-2.188 -1.7,-1.475 -2.556,-3.568 -2.573,-6.279 -0.017,-3.121 1.135,-5.523 3.455,-7.209 2.32,-1.686 5.608,-2.539 9.861,-2.564 1.764,-0.01 3.338,0.088 4.723,0.293 1.386,0.205 2.617,0.518 3.697,0.939 l -1.201,4.02 c -1.247,-0.271 -2.464,-0.428 -3.653,-0.467 -1.188,-0.039 -2.405,-0.057 -3.649,-0.049 -5.125,0.029 -7.68,1.512 -7.663,4.447 0.008,1.373 0.454,2.439 1.342,3.195 0.887,0.756 2.138,1.129 3.754,1.121 1.839,-0.012 3.373,-0.336 4.604,-0.977 1.232,-0.637 2.15,-1.449 2.758,-2.438 0.608,-0.989 0.908,-2.002 0.901,-3.041 l -0.019,-3.232 1.771,7.566 -2.34,0.014 0.941,-0.896 c 0.01,1.707 -0.376,3.137 -1.159,4.283 -0.782,1.146 -1.887,2.008 -3.313,2.582 -1.426,0.574 -3.115,0.868 -5.065,0.88 z m 10.417,-0.34 -0.441,-8.744 -0.795,-2.447 -0.043,-7.633 c -0.012,-1.969 -0.711,-3.408 -2.101,-4.318 -1.39,-0.912 -3.448,-1.396 -6.18,-1.455 l -7.077,-0.154 0.526,-5.24 5.962,0.049 c 4.886,0.045 8.518,1.078 10.897,3.098 2.379,2.02 3.581,4.98 3.604,8.881 l 0.071,12.313 5.018,0.582 0.028,4.736 z"
   id="path47" />&#10;                    <path
   fill="#ee3d7b"
   d="m 91.506,228.058 -0.028,-4.846 11.813,-0.068 0.027,4.848 z m 1.528,-24.635 -0.028,-4.902 15.489,-0.09 0.028,4.902 z m 12.146,-9.654 c -1.134,0.008 -2.106,-0.391 -2.919,-1.193 -0.813,-0.805 -1.223,-1.771 -1.229,-2.904 -0.008,-1.152 0.393,-2.129 1.195,-2.934 0.803,-0.803 1.771,-1.207 2.903,-1.215 1.152,-0.006 2.13,0.387 2.933,1.182 0.803,0.793 1.208,1.766 1.215,2.918 0.008,1.133 -0.387,2.105 -1.182,2.918 -0.792,0.812 -1.765,1.222 -2.916,1.228 z m -2.419,34.224 -0.162,-27.857 5.905,-0.035 0.163,27.857 z m 5.348,-0.031 -0.028,-4.846 9.639,-0.059 0.028,4.848 z"
   id="path48" />&#10;                    <path
   fill="#ee3d7b"
   d="m 125.158,227.862 -0.243,-41.785 5.905,-0.035 0.241,41.285 z m 7.915,0.51 c -1.338,0.01 -2.656,-0.035 -3.957,-0.129 -1.301,-0.096 -2.62,-0.223 -3.958,-0.381 l 2.253,-5.418 c 0.987,0.459 2.075,0.727 3.265,0.803 1.188,0.078 2.368,0.111 3.538,0.105 3.547,-0.021 6.285,-1.105 8.213,-3.252 1.928,-2.147 2.881,-5.17 2.857,-9.07 -0.016,-2.674 -0.617,-4.732 -1.805,-6.174 -1.188,-1.443 -2.868,-2.156 -5.041,-2.145 -5.014,0.029 -7.506,2.867 -7.471,8.514 l -1.771,-7.568 2.283,-0.014 c 0.256,-3.938 2.659,-5.92 7.209,-5.947 3.937,-0.023 6.989,1.121 9.158,3.43 2.167,2.309 3.264,5.598 3.288,9.869 0.032,5.479 -1.526,9.736 -4.675,12.773 -3.149,3.038 -7.61,4.573 -13.386,4.604 z"
   id="path49" />&#10;                    <path
   fill="#ee3d7b"
   d="m 158.586,227.667 -0.243,-41.785 5.906,-0.035 0.244,41.787 z m 18.164,-0.105 -0.112,-19.223 c -0.011,-1.875 -0.483,-3.316 -1.418,-4.322 -0.934,-1.008 -2.237,-1.506 -3.91,-1.496 -4.642,0.027 -6.947,2.863 -6.914,8.508 l -1.771,-7.566 2.285,-0.014 c 0.155,-1.986 0.871,-3.473 2.146,-4.455 1.275,-0.982 3.148,-1.48 5.619,-1.494 3.119,-0.02 5.539,0.914 7.26,2.799 1.719,1.883 2.588,4.553 2.608,8.008 l 0.112,19.223 z"
   id="path50" />&#10;                    <path
   fill="#ee3d7b"
   d="m 199.707,227.983 c -3.083,0.02 -5.474,-0.709 -7.171,-2.186 -1.7,-1.475 -2.557,-3.57 -2.572,-6.281 -0.019,-3.119 1.133,-5.521 3.453,-7.207 2.32,-1.686 5.608,-2.541 9.861,-2.564 1.765,-0.012 3.34,0.086 4.724,0.293 1.386,0.205 2.616,0.518 3.697,0.939 l -1.202,4.018 c -1.246,-0.271 -2.463,-0.426 -3.652,-0.465 -1.189,-0.041 -2.405,-0.057 -3.65,-0.049 -5.125,0.029 -7.68,1.512 -7.664,4.445 0.01,1.375 0.457,2.439 1.344,3.197 0.887,0.754 2.138,1.129 3.754,1.119 1.838,-0.01 3.373,-0.336 4.604,-0.975 1.231,-0.637 2.15,-1.451 2.757,-2.439 0.607,-0.986 0.907,-2 0.902,-3.041 l -0.02,-3.232 1.771,7.568 -2.34,0.014 0.941,-0.898 c 0.01,1.709 -0.377,3.137 -1.158,4.285 -0.783,1.146 -1.887,2.006 -3.314,2.58 -1.426,0.577 -3.115,0.87 -5.065,0.879 z m 10.417,-0.337 -0.44,-8.744 -0.794,-2.447 -0.046,-7.633 c -0.011,-1.969 -0.71,-3.41 -2.101,-4.32 -1.388,-0.91 -3.447,-1.396 -6.179,-1.455 l -7.077,-0.154 0.527,-5.238 5.962,0.047 c 4.884,0.047 8.517,1.08 10.897,3.1 2.379,2.02 3.581,4.979 3.604,8.879 l 0.07,12.313 5.02,0.584 0.026,4.736 z"
   id="path51" />&#10;                    <path
   fill="#ee3d7b"
   d="m 233.688,227.229 -10.867,-29.467 6.295,-0.037 8.222,24.467 0.501,-0.002 7.658,-24.561 6.296,-0.035 -10.247,29.588 z"
   id="path52" />&#10;                </g>&#10;            </g>&#10;            <g
   id="Vijay">&#10;                <g
   id="g57">&#10;                    <path
   fill="#ed1d64"
   d="m 263.022,228.427 -11.144,-39.559 h 5.962 l 9.248,34.822 h 0.502 l 9.248,-34.822 h 5.963 l -11.143,39.559 z"
   id="path53" />&#10;                    <path
   fill="#ed1d64"
   d="m 288.54,228.427 v -4.848 h 11.813 v 4.848 z m 1.672,-24.627 v -4.902 H 305.7 v 4.902 z m 12.201,-9.582 c -1.133,0 -2.103,-0.404 -2.91,-1.213 -0.809,-0.807 -1.213,-1.777 -1.213,-2.91 0,-1.152 0.404,-2.127 1.213,-2.926 0.808,-0.799 1.777,-1.197 2.91,-1.197 1.152,0 2.127,0.398 2.925,1.197 0.8,0.799 1.198,1.773 1.198,2.926 0,1.133 -0.398,2.104 -1.198,2.91 -0.798,0.808 -1.773,1.213 -2.925,1.213 z m -2.618,34.209 V 200.57 h 5.905 v 27.857 z m 5.349,0 v -4.848 h 9.639 v 4.848 z"
   id="path54" />&#10;                    <path
   fill="#ed1d64"
   d="m 322.526,241.798 -0.277,-5.236 5.57,-0.502 c 2.99,-0.277 5.158,-1.15 6.504,-2.619 1.348,-1.467 2.021,-3.713 2.021,-6.74 v -8.971 h 5.907 v 8.078 c 0,3.51 -0.521,6.365 -1.561,8.566 -1.041,2.201 -2.665,3.863 -4.875,4.986 -2.211,1.125 -5.061,1.826 -8.553,2.104 z m 2.341,-38.053 v -4.848 h 11.923 v 4.848 z m 13.818,-9.527 c -1.133,0 -2.104,-0.404 -2.911,-1.213 -0.808,-0.807 -1.212,-1.777 -1.212,-2.91 0,-1.152 0.404,-2.127 1.212,-2.926 0.808,-0.799 1.778,-1.197 2.911,-1.197 1.15,0 2.127,0.398 2.925,1.197 0.799,0.799 1.198,1.773 1.198,2.926 0,1.133 -0.399,2.104 -1.198,2.91 -0.798,0.808 -1.775,1.213 -2.925,1.213 z m -2.341,24.459 v -19.779 h 5.907 v 19.779 z"
   id="path55" />&#10;                    <path
   fill="#ed1d64"
   d="m 363.311,228.983 c -3.083,0 -5.47,-0.742 -7.159,-2.229 -1.689,-1.484 -2.535,-3.584 -2.535,-6.295 0,-3.121 1.166,-5.518 3.496,-7.188 2.33,-1.672 5.622,-2.508 9.875,-2.508 1.766,0 3.339,0.107 4.723,0.32 1.383,0.213 2.613,0.533 3.691,0.961 l -1.227,4.012 c -1.244,-0.277 -2.461,-0.441 -3.648,-0.486 -1.189,-0.047 -2.405,-0.07 -3.65,-0.07 -5.125,0 -7.688,1.467 -7.688,4.402 0,1.373 0.44,2.441 1.322,3.203 0.883,0.762 2.131,1.143 3.747,1.143 1.839,0 3.375,-0.316 4.61,-0.947 1.235,-0.633 2.158,-1.439 2.771,-2.424 0.613,-0.985 0.92,-1.996 0.92,-3.037 v -3.232 l 1.727,7.578 h -2.34 l 0.947,-0.891 c 0,1.707 -0.395,3.133 -1.184,4.275 -0.789,1.142 -1.898,1.996 -3.329,2.563 -1.431,0.567 -3.119,0.85 -5.069,0.85 z m 10.418,-0.277 -0.391,-8.748 -0.779,-2.451 v -7.633 c 0,-1.969 -0.691,-3.412 -2.075,-4.332 -1.384,-0.92 -3.44,-1.416 -6.171,-1.49 l -7.076,-0.195 0.557,-5.238 5.963,0.084 c 4.885,0.074 8.51,1.129 10.877,3.162 2.369,2.033 3.553,5 3.553,8.9 v 12.314 l 5.015,0.611 v 4.736 z"
   id="path56" />&#10;                    <path
   fill="#ed1d64"
   d="m 397.659,228.427 -11.756,-29.529 h 6.129 l 9.639,25.072 h 0.891 v 4.457 z m -11.199,13.371 -0.277,-5.293 4.624,-0.557 c 1.95,-0.24 3.616,-0.77 5.001,-1.588 1.383,-0.816 2.566,-2.029 3.551,-3.635 0.984,-1.607 1.848,-3.711 2.592,-6.311 l 7.354,-25.518 h 6.129 l -8.524,26.91 c -1.114,3.529 -2.363,6.371 -3.747,8.525 -1.383,2.154 -3.018,3.77 -4.902,4.848 -1.887,1.076 -4.147,1.764 -6.783,2.061 z"
   id="path57" />&#10;                </g>&#10;                <g
   id="g62">&#10;                    <path
   fill="#edb4c8"
   d="m 263.108,227.058 -11.375,-39.492 5.963,-0.035 9.451,34.768 0.501,-0.002 9.046,-34.877 5.961,-0.035 -10.912,39.623 z"
   id="path58" />&#10;                    <path
   fill="#edb4c8"
   d="m 288.624,226.909 -0.027,-4.848 11.813,-0.07 0.027,4.848 z m 1.529,-24.637 -0.029,-4.902 15.489,-0.09 0.028,4.902 z m 12.145,-9.654 c -1.133,0.008 -2.105,-0.391 -2.918,-1.195 -0.813,-0.803 -1.223,-1.77 -1.229,-2.902 -0.008,-1.152 0.392,-2.131 1.195,-2.934 0.802,-0.803 1.77,-1.207 2.904,-1.215 1.15,-0.006 2.128,0.387 2.932,1.182 0.803,0.793 1.207,1.768 1.215,2.918 0.007,1.133 -0.387,2.105 -1.182,2.918 -0.792,0.812 -1.765,1.222 -2.917,1.228 z m -2.42,34.225 -0.161,-27.857 5.905,-0.033 0.163,27.855 z m 5.35,-0.031 -0.027,-4.848 9.639,-0.057 0.027,4.848 z"
   id="path59" />&#10;                    <path
   fill="#edb4c8"
   d="m 322.688,240.083 -0.309,-5.236 5.568,-0.533 c 2.988,-0.297 5.151,-1.184 6.489,-2.658 1.338,-1.474 1.998,-3.725 1.98,-6.752 l -0.052,-8.971 5.906,-0.033 0.045,8.078 c 0.021,3.51 -0.482,6.367 -1.509,8.574 -1.027,2.207 -2.643,3.879 -4.846,5.016 -2.204,1.137 -5.051,1.854 -8.54,2.152 z m 2.119,-38.068 -0.028,-4.846 11.923,-0.07 0.028,4.848 z m 13.761,-9.608 c -1.133,0.008 -2.105,-0.393 -2.918,-1.195 -0.813,-0.802 -1.222,-1.771 -1.229,-2.904 -0.006,-1.15 0.393,-2.129 1.195,-2.932 0.802,-0.803 1.771,-1.207 2.904,-1.215 1.151,-0.008 2.129,0.387 2.932,1.182 0.804,0.793 1.208,1.766 1.215,2.918 0.008,1.133 -0.387,2.105 -1.181,2.918 -0.794,0.813 -1.766,1.22 -2.918,1.228 z m -2.196,24.473 -0.117,-19.779 5.907,-0.035 0.115,19.781 z"
   id="path60" />&#10;                    <path
   fill="#edb4c8"
   d="m 363.396,227.03 c -3.082,0.018 -5.472,-0.711 -7.171,-2.188 -1.699,-1.477 -2.557,-3.568 -2.572,-6.281 -0.018,-3.119 1.134,-5.521 3.453,-7.207 2.321,-1.686 5.608,-2.539 9.861,-2.566 1.765,-0.01 3.34,0.088 4.724,0.295 1.386,0.205 2.617,0.518 3.696,0.939 l -1.202,4.018 c -1.245,-0.271 -2.462,-0.426 -3.651,-0.467 -1.189,-0.039 -2.406,-0.055 -3.65,-0.047 -5.125,0.029 -7.68,1.512 -7.662,4.445 0.008,1.375 0.455,2.439 1.342,3.197 0.887,0.754 2.138,1.129 3.754,1.119 1.838,-0.01 3.373,-0.336 4.604,-0.975 1.231,-0.639 2.15,-1.451 2.757,-2.439 0.607,-0.986 0.908,-2.002 0.9,-3.041 l -0.018,-3.232 1.771,7.568 -2.34,0.014 0.941,-0.898 c 0.01,1.709 -0.376,3.137 -1.158,4.283 -0.783,1.146 -1.887,2.008 -3.314,2.582 -1.426,0.575 -3.114,0.87 -5.065,0.881 z m 10.417,-0.34 -0.441,-8.744 -0.793,-2.449 -0.045,-7.633 c -0.012,-1.967 -0.712,-3.408 -2.1,-4.318 -1.39,-0.91 -3.449,-1.396 -6.181,-1.455 l -7.075,-0.152 0.525,-5.242 5.962,0.049 c 4.886,0.047 8.518,1.08 10.897,3.1 2.379,2.02 3.58,4.979 3.604,8.879 l 0.072,12.313 5.018,0.584 0.027,4.736 z"
   id="path61" />&#10;                    <path
   fill="#edb4c8"
   d="m 397.742,226.272 -11.928,-29.461 6.129,-0.035 9.784,25.014 0.893,-0.004 0.025,4.457 z m -11.12,13.438 -0.311,-5.293 4.621,-0.584 c 1.949,-0.252 3.613,-0.791 4.991,-1.615 1.38,-0.826 2.556,-2.045 3.53,-3.658 0.976,-1.611 1.828,-3.721 2.555,-6.324 l 7.205,-25.561 6.129,-0.035 -8.367,26.961 c -1.094,3.533 -2.326,6.383 -3.697,8.545 -1.371,2.162 -2.996,3.787 -4.875,4.875 -1.879,1.088 -4.135,1.789 -6.771,2.102 z"
   id="path62" />&#10;                </g>&#10;            </g>&#10;            <g
   id="Gupta">&#10;                <g
   id="g67">&#10;                    <path
   fill="#ed1d64"
   d="m 433.149,228.983 c -5.904,0 -10.334,-1.699 -13.287,-5.098 -2.954,-3.398 -4.43,-8.496 -4.43,-15.295 0,-6.443 1.532,-11.436 4.597,-14.973 3.065,-3.537 7.362,-5.307 12.897,-5.307 2.768,0 5.191,0.432 7.271,1.295 2.08,0.863 3.612,2.084 4.597,3.664 l -4.151,4.123 c -0.854,-1.264 -1.926,-2.238 -3.217,-2.926 -1.291,-0.688 -2.68,-1.031 -4.165,-1.031 -3.751,0 -6.667,1.297 -8.747,3.887 -2.08,2.59 -3.12,6.254 -3.12,10.99 0,5.182 1.04,9.068 3.12,11.658 2.08,2.592 5.182,3.887 9.305,3.887 1.764,0 3.319,-0.172 4.666,-0.516 1.346,-0.344 2.447,-0.637 3.301,-0.877 l 2.173,4.848 c -0.78,0.24 -2.149,0.58 -4.11,1.016 -1.959,0.439 -4.192,0.655 -6.7,0.655 z m -2.562,-15.043 v -5.293 h 13.205 v 5.293 z m 8.079,13.373 v -18.666 h 5.293 v 18.666 z"
   id="path63" />&#10;                    <path
   fill="#ed1d64"
   d="m 460.284,228.983 c -3.102,0 -5.502,-0.924 -7.203,-2.771 -1.697,-1.848 -2.549,-4.453 -2.549,-7.814 v -19.5 h 5.907 v 19.5 c 0,1.691 0.481,2.996 1.448,3.914 0.965,0.92 2.322,1.379 4.067,1.379 2.153,0 3.78,-0.682 4.874,-2.047 1.098,-1.365 1.645,-3.654 1.645,-6.867 l 1.505,7.967 h -1.95 c -0.465,2.006 -1.375,3.549 -2.73,4.625 -1.356,1.077 -3.027,1.614 -5.014,1.614 z m 8.19,-8.914 v -21.172 h 5.906 v 19.5 z m 0.502,8.637 -0.502,-7.076 v -5.182 h 5.906 v 6.631 l 4.067,0.611 v 4.736 z"
   id="path64" />&#10;                    <path
   fill="#ed1d64"
   d="m 484.298,241.241 v -42.344 h 5.348 l 0.557,6.24 v 36.104 z m 14.318,-12.258 c -2.229,0 -4.044,-0.432 -5.446,-1.295 -1.402,-0.863 -2.206,-2.141 -2.411,-3.83 h -2.562 l 2.005,-8.135 v 3.232 c 0,1.67 0.549,2.924 1.645,3.76 1.096,0.836 2.758,1.254 4.986,1.254 2.545,0 4.462,-0.846 5.753,-2.535 1.29,-1.689 1.935,-4.188 1.935,-7.494 0,-3.381 -0.662,-5.99 -1.99,-7.828 -1.328,-1.838 -3.209,-2.758 -5.643,-2.758 -2.228,0 -3.898,0.607 -5.014,1.824 -1.116,1.217 -1.672,3.061 -1.672,5.529 l -1.727,-6.463 h 2.283 c 0.262,-1.986 1.037,-3.467 2.328,-4.443 1.29,-0.975 3.114,-1.461 5.474,-1.461 3.769,0 6.681,1.359 8.733,4.08 2.052,2.721 3.078,6.561 3.078,11.52 0,4.848 -1.025,8.566 -3.078,11.158 -2.052,2.59 -4.944,3.885 -8.677,3.885 z"
   id="path65" />&#10;                    <path
   fill="#ed1d64"
   d="m 514.718,203.745 v -4.848 h 26.744 v 4.848 z m 7.41,10.752 v -24.514 h 5.906 v 24.514 z m 12.703,14.486 c -4.477,0 -7.713,-0.928 -9.708,-2.785 -1.997,-1.857 -2.995,-4.828 -2.995,-8.914 v -5.016 h 5.906 v 4.736 c 0,2.34 0.57,4.039 1.713,5.098 1.143,1.059 3.023,1.588 5.642,1.588 0.929,0 1.912,-0.051 2.952,-0.152 1.041,-0.102 2.229,-0.236 3.566,-0.404 l 0.668,5.182 c -1.299,0.223 -2.568,0.391 -3.803,0.502 -1.235,0.111 -2.548,0.165 -3.941,0.165 z"
   id="path66" />&#10;                    <path
   fill="#ed1d64"
   d="m 558.845,228.983 c -3.084,0 -5.469,-0.742 -7.16,-2.229 -1.689,-1.484 -2.534,-3.584 -2.534,-6.295 0,-3.121 1.165,-5.518 3.496,-7.188 2.331,-1.672 5.622,-2.508 9.874,-2.508 1.766,0 3.34,0.107 4.723,0.32 1.385,0.213 2.615,0.533 3.691,0.961 l -1.227,4.012 c -1.243,-0.277 -2.459,-0.441 -3.648,-0.486 -1.188,-0.047 -2.404,-0.07 -3.648,-0.07 -5.127,0 -7.689,1.467 -7.689,4.402 0,1.373 0.441,2.441 1.323,3.203 0.882,0.762 2.132,1.143 3.747,1.143 1.838,0 3.375,-0.316 4.61,-0.947 1.235,-0.633 2.159,-1.439 2.771,-2.424 0.614,-0.984 0.921,-1.996 0.921,-3.037 v -3.232 l 1.728,7.578 h -2.341 l 0.947,-0.891 c 0,1.707 -0.396,3.133 -1.185,4.275 -0.789,1.142 -1.898,1.996 -3.328,2.563 -1.43,0.567 -3.121,0.85 -5.071,0.85 z m 10.419,-0.277 -0.39,-8.748 -0.78,-2.451 v -7.633 c 0,-1.969 -0.692,-3.412 -2.075,-4.332 -1.385,-0.92 -3.441,-1.416 -6.171,-1.49 l -7.076,-0.195 0.558,-5.238 5.961,0.084 c 4.885,0.074 8.511,1.129 10.879,3.162 2.367,2.033 3.551,5 3.551,8.9 v 12.314 l 5.016,0.611 v 4.736 z"
   id="path67" />&#10;                </g>&#10;                <g
   id="g72">&#10;                    <path
   fill="#ed78a1"
   d="m 433.235,226.622 c -5.906,0.035 -10.346,-1.639 -13.317,-5.02 -2.974,-3.383 -4.479,-8.471 -4.519,-15.27 -0.038,-6.443 1.465,-11.443 4.51,-15 3.043,-3.557 7.332,-5.35 12.867,-5.383 2.767,-0.014 5.192,0.402 7.276,1.254 2.087,0.852 3.626,2.064 4.619,3.637 l -4.127,4.146 c -0.861,-1.258 -1.94,-2.227 -3.234,-2.906 -1.295,-0.68 -2.686,-1.014 -4.172,-1.006 -3.751,0.021 -6.659,1.334 -8.724,3.938 -2.064,2.602 -3.084,6.271 -3.056,11.008 0.03,5.182 1.093,9.061 3.188,11.641 2.095,2.578 5.204,3.855 9.327,3.83 1.766,-0.008 3.318,-0.189 4.664,-0.541 1.343,-0.352 2.442,-0.652 3.295,-0.898 l 2.202,4.836 c -0.778,0.246 -2.147,0.592 -4.104,1.041 -1.954,0.447 -4.187,0.677 -6.695,0.693 z m -2.65,-15.027 -0.031,-5.293 13.205,-0.078 0.031,5.293 z m 8.157,13.324 -0.109,-18.664 5.293,-0.031 0.109,18.664 z"
   id="path68" />&#10;                    <path
   fill="#ed78a1"
   d="m 460.368,226.464 c -3.102,0.018 -5.508,-0.893 -7.217,-2.729 -1.709,-1.84 -2.574,-4.438 -2.594,-7.799 l -0.113,-19.502 5.904,-0.033 0.113,19.498 c 0.01,1.691 0.5,2.992 1.472,3.906 0.972,0.914 2.329,1.365 4.075,1.355 2.154,-0.014 3.775,-0.705 4.863,-2.076 1.088,-1.371 1.623,-3.662 1.604,-6.877 l 1.551,7.959 -1.95,0.012 c -0.452,2.008 -1.354,3.555 -2.703,4.641 -1.349,1.084 -3.018,1.633 -5.005,1.645 z m 8.138,-8.961 -0.123,-21.174 5.907,-0.033 0.113,19.5 z m 0.552,8.633 -0.542,-7.074 -0.03,-5.182 5.906,-0.033 0.039,6.629 4.07,0.59 0.027,4.734 z"
   id="path69" />&#10;                    <path
   fill="#ed78a1"
   d="m 484.454,238.581 -0.248,-42.344 5.35,-0.031 0.594,6.236 0.21,36.105 z M 498.7,226.239 c -2.229,0.014 -4.046,-0.408 -5.453,-1.262 -1.407,-0.855 -2.219,-2.129 -2.432,-3.816 l -2.563,0.014 1.957,-8.146 0.02,3.232 c 0.01,1.672 0.564,2.922 1.665,3.752 1.101,0.828 2.766,1.236 4.993,1.225 2.545,-0.016 4.457,-0.873 5.738,-2.57 1.281,-1.697 1.912,-4.199 1.893,-7.504 -0.021,-3.381 -0.699,-5.986 -2.038,-7.816 -1.339,-1.832 -3.225,-2.74 -5.657,-2.725 -2.229,0.012 -3.896,0.631 -5.003,1.854 -1.107,1.223 -1.653,3.068 -1.639,5.539 l -1.765,-6.453 2.283,-0.014 c 0.249,-1.988 1.016,-3.475 2.299,-4.457 1.287,-0.982 3.107,-1.479 5.467,-1.494 3.77,-0.021 6.689,1.322 8.757,4.031 2.068,2.709 3.117,6.541 3.146,11.5 0.029,4.848 -0.976,8.574 -3.014,11.176 -2.037,2.6 -4.921,3.913 -8.654,3.934 z"
   id="path70" />&#10;                    <path
   fill="#ed78a1"
   d="m 514.654,200.907 -0.028,-4.848 26.744,-0.156 0.027,4.848 z m 7.474,10.711 -0.144,-24.516 5.905,-0.033 0.144,24.514 z m 12.787,14.41 c -4.477,0.025 -7.718,-0.883 -9.725,-2.729 -2.008,-1.846 -3.023,-4.811 -3.047,-8.896 l -0.029,-5.014 5.906,-0.035 0.027,4.734 c 0.014,2.34 0.596,4.037 1.742,5.09 1.15,1.051 3.032,1.568 5.65,1.553 0.93,-0.004 1.912,-0.061 2.953,-0.17 1.039,-0.107 2.228,-0.248 3.563,-0.424 l 0.699,5.178 c -1.299,0.23 -2.564,0.404 -3.799,0.523 -1.233,0.118 -2.547,0.183 -3.94,0.19 z"
   id="path71" />&#10;                    <path
   fill="#ed78a1"
   d="m 558.927,225.89 c -3.082,0.018 -5.473,-0.711 -7.171,-2.188 -1.7,-1.477 -2.556,-3.57 -2.572,-6.281 -0.019,-3.119 1.134,-5.523 3.454,-7.207 2.32,-1.686 5.607,-2.541 9.861,-2.566 1.764,-0.01 3.339,0.088 4.723,0.295 1.386,0.205 2.617,0.518 3.697,0.939 l -1.202,4.018 c -1.245,-0.271 -2.463,-0.428 -3.652,-0.467 -1.188,-0.039 -2.405,-0.055 -3.649,-0.047 -5.125,0.029 -7.68,1.512 -7.663,4.445 0.008,1.375 0.455,2.439 1.342,3.195 0.887,0.756 2.138,1.129 3.754,1.121 1.839,-0.012 3.373,-0.336 4.604,-0.975 1.23,-0.639 2.15,-1.451 2.758,-2.439 0.608,-0.988 0.908,-2.002 0.901,-3.041 l -0.02,-3.232 1.772,7.568 -2.34,0.014 0.941,-0.898 c 0.01,1.709 -0.376,3.137 -1.159,4.283 -0.782,1.146 -1.887,2.008 -3.313,2.582 -1.428,0.574 -3.116,0.869 -5.066,0.881 z m 10.418,-0.34 -0.441,-8.746 -0.793,-2.445 -0.047,-7.635 c -0.01,-1.967 -0.71,-3.408 -2.099,-4.32 -1.39,-0.91 -3.449,-1.395 -6.18,-1.453 l -7.077,-0.154 0.526,-5.24 5.962,0.049 c 4.886,0.047 8.518,1.078 10.897,3.1 2.38,2.02 3.581,4.979 3.604,8.879 l 0.071,12.313 5.017,0.584 0.027,4.736 z"
   id="path72" />&#10;                </g>&#10;            </g>&#10;        </g>&#10;        &#10;        &#10;    </g>&#10;</svg>
