<svg width="600" height="409" viewBox="0 0 600 409" xmlns="http://www.w3.org/2000/svg"><title>lyft-logo</title><g fill="#FF00BF" fill-rule="nonzero"><path d="M311.0204 94.8507h-80.8163c-1.8368 0-3.6735 1.8359-3.6735 3.6717v113.209c0 8.5671-6.1224 14.6865-14.6939 14.6865-8.5714 0-14.6938-6.7313-14.6938-14.6866V98.5223c0-1.8357-1.8368-3.6716-3.6735-3.6716h-80.204c-1.8368 0-3.6736 1.8359-3.6736 3.6717v142.582c0 40.3881 33.0613 72.821 72.8572 72.821 17.1428 0 34.2857-6.1194 47.755-17.7463-1.2244 11.015-7.3469 19.582-17.1428 25.7015-9.1836 6.1194-21.4285 9.1791-34.898 9.1791-14.0816 0-28.1632-3.0597-41.0203-9.791-.6123 0-1.2245-.612-1.8368-.612-.6122 0-1.2245 0-1.8367.612-1.2245.6119-1.8367 1.8358-1.8367 3.0597v69.1492c0 1.2239 1.2244 3.0597 2.449 3.6717 18.9795 7.3432 39.1836 11.0149 59.3877 11.0149 33.0612 0 62.449-10.403 84.4898-28.7612 23.8775-20.806 36.7347-51.403 36.7347-88.1194V98.5224c0-1.8358-1.8368-3.6717-3.6735-3.6717zM87.551 241.1045V11.0149c0-1.8358-1.8367-3.6716-3.6734-3.6716H3.6735C1.8367 7.3433 0 9.179 0 11.0149v215.403c0 59.9702 39.796 87.5075 76.5306 87.5075 11.0204 0 21.4286-2.4478 31.2245-6.7314 1.2245-.612 1.8367-1.2239 1.8367-2.4477 0-1.224 0-2.4478-.6122-3.0597C95.5102 285.776 87.551 264.97 87.551 241.1045zM596.3265 182.9701c1.8368 0 3.6735-1.8358 3.6735-3.6716V98.5224c0-1.8358-1.8367-3.6717-3.6735-3.6717h-27.551C557.7551 39.7761 509.3878 0 453.6735 0c-64.898 0-116.9388 52.6269-116.9388 116.8806v193.3731c0 1.224.6122 1.8359 1.2245 2.4478.6122.612 1.8367 1.2239 2.449 1.2239 22.653-1.224 43.4694-10.403 59.3877-26.9254 15.9184-16.5224 24.4898-37.9403 24.4898-60.582h33.0612c1.8368 0 3.6735-1.836 3.6735-3.6717V142.582c0-1.8358-1.8367-3.6717-3.6735-3.6717h-33.0612v-22.0298c0-15.9105 12.8572-29.3731 29.3878-29.3731s29.3877 12.8507 29.3877 29.3731v80.1642c0 31.8209 12.245 61.194 33.6735 83.2239 20.8163 20.806 48.9796 33.0447 79.5918 33.6567 1.2245 0 1.8368-.612 2.449-1.224.6123-.6118 1.2245-1.8357 1.2245-2.4477v-80.1641c0-1.8359-1.2245-3.6717-3.0612-3.6717-14.6939-1.8358-25.7143-14.0746-25.7143-28.7612v-14.6866h25.102z"/></g></svg>