<?xml version="1.0" encoding="UTF-8" standalone="no"?>
<!-- Created with Inkscape (http://www.inkscape.org/) -->

<svg
   width="295.28323mm"
   height="218.0289mm"
   viewBox="0 0 295.28323 218.0289"
   version="1.1"
   id="svg1"
   inkscape:version="1.3 (0e150ed6c4, 2023-07-21)"
   sodipodi:docname="ref-pic-svg.svg"
   xmlns:inkscape="http://www.inkscape.org/namespaces/inkscape"
   xmlns:sodipodi="http://sodipodi.sourceforge.net/DTD/sodipodi-0.dtd"
   xmlns="http://www.w3.org/2000/svg"
   xmlns:svg="http://www.w3.org/2000/svg">
  <sodipodi:namedview
     id="namedview1"
     pagecolor="#505050"
     bordercolor="#eeeeee"
     borderopacity="1"
     inkscape:showpageshadow="0"
     inkscape:pageopacity="0"
     inkscape:pagecheckerboard="0"
     inkscape:deskcolor="#505050"
     inkscape:document-units="mm"
     inkscape:zoom="0.62"
     inkscape:cx="558.06452"
     inkscape:cy="412.09677"
     inkscape:window-width="1254"
     inkscape:window-height="1041"
     inkscape:window-x="41"
     inkscape:window-y="0"
     inkscape:window-maximized="0"
     inkscape:current-layer="g2" />
  <defs
     id="defs1" />
  <g
     inkscape:label="Layer 1"
     inkscape:groupmode="layer"
     id="layer1"
     transform="translate(39.828904,-44.292484)">
    <rect
       style="display:inline;fill:#ff377a;fill-opacity:1;fill-rule:evenodd;stroke:#000000;stroke-width:0"
       id="rect1"
       width="295.28323"
       height="218.0289"
       x="-39.828903"
       y="44.292484"
       inkscape:label="bg"
       sodipodi:insensitive="true" />
    <g
       id="g2"
       transform="matrix(0.26458333,0,0,0.26458333,-61.520618,17.841592)">
      <path
         class="st1"
         d="m 127.1,153.19 h -6.14 c -1.7,0 -3.07,-1.38 -3.07,-3.07 0,-1.69 1.38,-3.07 3.07,-3.07 h 6.14 c 1.7,0 3.07,1.38 3.07,3.07 0,1.69 -1.38,3.07 -3.07,3.07 z m 42.99,0 h -6.14 c -1.7,0 -3.07,-1.38 -3.07,-3.07 0,-1.69 1.38,-3.07 3.07,-3.07 h 6.14 a 3.07,3.07 0 0 1 0,6.14 z"
         id="path3"
         style="display:inline;fill:#f8d049;fill-opacity:1" />
      <path
         class="st1"
         d="m 163.95,165.48 a 3.07,3.07 0 0 1 -3.07,-3.07 v -15.36 c -0.03,-8.44 -6.92,-15.33 -15.36,-15.36 -8.43,0.02 -15.32,6.92 -15.35,15.36 v 15.35 c 0,1.7 -1.38,3.07 -3.07,3.07 -1.69,0 -3.07,-1.38 -3.07,-3.07 v -15.36 c 0.04,-11.82 9.68,-21.46 21.49,-21.5 11.83,0.04 21.47,9.68 21.51,21.49 v 15.36 c -0.01,1.71 -1.38,3.09 -3.08,3.09 z"
         id="path4"
         style="display:inline;fill:#f8d049;fill-opacity:1" />
      <path
         class="st1"
         d="m 145.52,131.69 a 3.07,3.07 0 0 1 -3.07,-3.07 v -6.14 c 0,-1.7 1.38,-3.07 3.07,-3.07 1.69,0 3.07,1.38 3.07,3.07 v 6.14 c 0,1.7 -1.37,3.07 -3.07,3.07 z m -12.9,5.53 c -0.79,0 -1.57,-0.3 -2.17,-0.9 l -5.53,-5.53 c -1.2,-1.2 -1.2,-3.14 0,-4.34 1.2,-1.2 3.14,-1.2 4.34,0 l 5.53,5.53 c 1.2,1.2 1.2,3.14 0,4.34 -0.59,0.6 -1.38,0.9 -2.17,0.9 z m 25.8,0 c -0.79,0 -1.57,-0.3 -2.17,-0.9 -1.2,-1.2 -1.2,-3.14 0,-4.34 l 5.53,-5.53 c 1.2,-1.2 3.14,-1.2 4.34,0 1.2,1.2 1.2,3.14 0,4.34 l -5.53,5.53 c -0.6,0.6 -1.38,0.9 -2.17,0.9 z"
         id="path5"
         style="display:inline;fill:#f8d049;fill-opacity:1" />
      <path
         class="st2"
         d="m 160.88,193.12 h -30.71 c -5.08,0 -9.21,-4.13 -9.21,-9.21 v -12.28 c 0,-1.7 1.38,-3.07 3.07,-3.07 1.69,0 3.07,1.38 3.07,3.07 v 12.28 c 0,1.69 1.38,3.07 3.07,3.07 h 30.71 c 1.69,0 3.07,-1.38 3.07,-3.07 v -12.28 c 0,-1.7 1.38,-3.07 3.07,-3.07 1.69,0 3.07,1.38 3.07,3.07 v 12.28 c 0,5.07 -4.13,9.21 -9.21,9.21 z"
         id="path6"
         style="display:inline;fill:#39affe;fill-opacity:1" />
      <path
         class="st2"
         d="m 173.16,174.69 h -55.28 c -1.7,0 -3.07,-1.38 -3.07,-3.07 0,-1.69 1.38,-3.07 3.07,-3.07 h 55.28 a 3.07,3.07 0 0 1 0,6.14 z"
         id="path7"
         style="display:inline;fill:#39affe;fill-opacity:1" />
      <circle
         class="st1"
         cx="274.06"
         cy="176.23"
         r="4.6100001"
         transform="translate(24)"
         id="circle7"
         style="display:inline;fill:#39affe;fill-opacity:1" />
      <path
         class="st2"
         d="m 287.88,193.12 h -27.64 c -5.08,0 -9.21,-4.13 -9.21,-9.21 v -49.14 c 0,-5.08 4.13,-9.21 9.21,-9.21 h 12.28 c 1.7,0 3.07,1.38 3.07,3.07 0,1.69 -1.38,3.07 -3.07,3.07 h -12.28 c -1.69,0 -3.07,1.38 -3.07,3.07 v 49.14 c 0,1.69 1.38,3.07 3.07,3.07 h 27.64 c 1.69,0 3.07,-1.38 3.07,-3.07 v -12.28 c 0,-1.7 1.38,-3.07 3.07,-3.07 1.69,0 3.07,1.38 3.07,3.07 v 12.28 c 0.01,5.07 -4.13,9.21 -9.21,9.21 z"
         transform="translate(24)"
         id="path8"
         style="display:inline;fill:#f8d049;fill-opacity:1" />
      <path
         class="st1"
         d="m 321.67,162.41 h -49.14 a 3.07,3.07 0 0 1 -3.07,-3.07 v -36.85 c 0,-1.7 1.38,-3.07 3.07,-3.07 h 49.14 c 1.7,0 3.07,1.38 3.07,3.07 v 36.85 c 0,1.69 -1.38,3.07 -3.07,3.07 z m -46.07,-6.15 h 43 v -30.71 h -43 z"
         transform="translate(24)"
         id="path9"
         style="display:inline;fill:#39affe;fill-opacity:1" />
      <path
         class="st1"
         d="m 321.67,137.84 h -49.14 c -1.7,0 -3.07,-1.38 -3.07,-3.07 0,-1.69 1.38,-3.07 3.07,-3.07 h 49.14 c 1.7,0 3.07,1.38 3.07,3.07 0,1.69 -1.38,3.07 -3.07,3.07 z m -30.71,12.28 h -6.14 c -1.7,0 -3.07,-1.38 -3.07,-3.07 0,-1.69 1.38,-3.07 3.07,-3.07 h 6.14 c 1.7,0 3.07,1.38 3.07,3.07 0,1.69 -1.38,3.07 -3.07,3.07 z"
         transform="translate(24)"
         id="path10"
         style="display:inline;fill:#39affe;fill-opacity:1" />
      <path
         class="st2"
         d="m 430.25,193.12 c -20.32,0 -36.85,-16.53 -36.85,-36.85 0,-20.32 16.53,-36.85 36.85,-36.85 20.32,0 36.85,16.53 36.85,36.85 0,20.32 -16.53,36.85 -36.85,36.85 z m 0,-67.57 c -16.93,0 -30.71,13.78 -30.71,30.71 0,16.93 13.78,30.71 30.71,30.71 16.93,0 30.71,-13.78 30.71,-30.71 0,-16.93 -13.78,-30.71 -30.71,-30.71 z"
         transform="translate(48)"
         id="path11"
         style="display:inline;fill:#f8d049;fill-opacity:1" />
      <path
         class="st1"
         d="m 430.24,180.83 a 3.068,3.068 0 0 1 -0.22,-6.13 c 5.3,-0.38 10.15,-3.29 12.98,-7.79 0.9,-1.43 2.8,-1.87 4.24,-0.96 1.44,0.9 1.87,2.8 0.96,4.24 -3.87,6.14 -10.5,10.12 -17.73,10.64 z"
         transform="translate(48)"
         id="path12"
         style="display:inline;fill:#39affe;fill-opacity:1" />
      <path
         class="st2"
         d="m 416.04,140.91 c -5.59,-0.14 -10.22,4.28 -10.36,9.87 -0.14,5.59 4.28,10.22 9.87,10.36 3.7,0.09 7.16,-1.85 9.01,-5.06 l 3.54,-6.1 a 2.289,2.289 0 0 1 4.34,0 l 3.52,6.1 c 2.8,4.84 8.98,6.49 13.82,3.7 4.84,-2.8 6.49,-8.98 3.7,-13.82 a 10.105,10.105 0 0 0 -9.02,-5.05 l -14.21,0.07 z"
         transform="translate(48)"
         id="path13"
         style="display:inline;fill:#f8d049;fill-opacity:1" />
      <path
         class="st1"
         d="m 594.1,159.33 h -3.07 c -1.7,0 -3.07,-1.38 -3.07,-3.07 0,-1.69 1.38,-3.07 3.07,-3.07 h 3.07 a 3.07,3.07 0 0 1 0,6.14 z"
         transform="translate(72)"
         id="path14"
         style="display:inline;fill:#39affe;fill-opacity:1" />
      <path
         class="st2"
         d="m 554.18,147.05 h -3.07 c -1.7,0 -3.07,-1.38 -3.07,-3.07 0,-1.69 1.38,-3.07 3.07,-3.07 h 3.07 a 3.07,3.07 0 0 1 0,6.14 z m 15.36,0 h -3.07 c -1.7,0 -3.07,-1.38 -3.07,-3.07 0,-1.69 1.38,-3.07 3.07,-3.07 h 3.07 c 1.7,0 3.07,1.38 3.07,3.07 0,1.69 -1.38,3.07 -3.07,3.07 z"
         transform="translate(72)"
         id="path15"
         style="display:inline;fill:#f8d049;fill-opacity:1" />
      <path
         class="st1"
         d="m 584.87,193.09 c -5.58,0 -11.18,-1.88 -15.78,-5.74 a 3.075,3.075 0 0 1 3.95,-4.71 c 7.78,6.53 19.43,5.51 25.96,-2.27 a 18.42,18.42 0 0 0 4.31,-11.83 v -27.82 a 62.136,62.136 0 0 0 -12.59,-2.58 3.066,3.066 0 0 1 -2.75,-3.36 3.072,3.072 0 0 1 3.36,-2.75 c 5.48,0.54 10.89,1.75 16.08,3.59 1.23,0.43 2.04,1.59 2.04,2.89 v 30.03 c 0,5.76 -2.05,11.36 -5.75,15.78 -4.84,5.79 -11.81,8.77 -18.83,8.77 z"
         transform="translate(72)"
         id="path16"
         style="display:inline;fill:#39affe;fill-opacity:1" />
      <path
         class="st2"
         d="m 560.32,180.83 c -13.55,0 -24.57,-11.02 -24.57,-24.57 v -30.03 c 0,-1.3 0.81,-2.45 2.03,-2.89 a 66.722,66.722 0 0 1 45.08,0 c 1.22,0.44 2.03,1.59 2.03,2.89 v 30.03 c 0,13.55 -11.02,24.57 -24.57,24.57 z m -18.42,-52.4 v 27.83 c 0,10.16 8.27,18.43 18.43,18.43 10.16,0 18.43,-8.27 18.43,-18.43 v -27.83 a 60.56,60.56 0 0 0 -36.86,0 z"
         transform="translate(72)"
         id="path17"
         style="display:inline;fill:#f8d049;fill-opacity:1" />
      <path
         class="st1"
         d="m 569.54,159.33 c 0,5.09 -4.12,9.21 -9.21,9.21 -5.09,0 -9.21,-4.12 -9.21,-9.21 z m 21.87,21.13 c -0.79,0 -1.57,-0.3 -2.17,-0.9 a 6.091,6.091 0 0 0 -4.33,-1.8 h -0.01 a 3.07,3.07 0 0 1 0,-6.14 h 0.01 c 3.28,0 6.36,1.28 8.68,3.6 1.2,1.2 1.2,3.15 0,4.34 -0.62,0.6 -1.4,0.9 -2.18,0.9 z"
         transform="translate(72)"
         id="path18"
         style="display:inline;fill:#39affe;fill-opacity:1" />
      <path
         class="st1"
         d="m 733.39,193.12 h -36.85 a 3.08,3.08 0 0 1 -2.98,-2.32 l -8.91,-35.32 a 3.074,3.074 0 0 1 5.96,-1.5 l 8.32,33 H 731 l 8.32,-33 a 3.077,3.077 0 0 1 3.73,-2.23 c 1.64,0.42 2.64,2.08 2.23,3.73 l -8.91,35.32 a 3.072,3.072 0 0 1 -2.98,2.32 z"
         transform="translate(96)"
         id="path19"
         style="display:inline;fill:#39affe;fill-opacity:1" />
      <path
         class="st1"
         d="m 708.82,193.12 c -1.47,0 -2.78,-1.06 -3.03,-2.57 l -3.07,-18.43 c -0.28,-1.67 0.85,-3.26 2.52,-3.53 1.67,-0.28 3.26,0.85 3.53,2.52 l 3.07,18.43 c 0.28,1.67 -0.85,3.26 -2.52,3.53 -0.16,0.03 -0.33,0.05 -0.5,0.05 z m 12.29,0 a 3.067,3.067 0 0 1 -3.03,-3.57 l 3.07,-18.43 c 0.28,-1.67 1.87,-2.8 3.53,-2.52 1.67,0.28 2.8,1.86 2.52,3.53 l -3.07,18.43 a 3.059,3.059 0 0 1 -3.02,2.56 z"
         transform="translate(96)"
         id="path20"
         style="display:inline;fill:#39affe;fill-opacity:1" />
      <path
         class="st2"
         d="m 714.97,162.41 c -4.99,0 -9.89,-1.88 -13.81,-5.23 -2.37,1.41 -5.02,2.16 -7.69,2.16 -8.47,0 -15.36,-6.89 -15.36,-15.36 0,-8.47 6.89,-15.36 15.36,-15.36 1.34,0 2.52,0.14 3.62,0.43 4.03,-6.01 10.65,-9.65 17.88,-9.65 7.23,0 13.86,3.63 17.88,9.65 1.1,-0.29 2.28,-0.43 3.62,-0.43 8.47,0 15.36,6.89 15.36,15.36 0,8.47 -6.89,15.36 -15.36,15.36 -2.67,0 -5.32,-0.76 -7.69,-2.16 -3.92,3.34 -8.82,5.23 -13.81,5.23 z m -13.52,-12.29 c 0.83,0 1.66,0.34 2.26,1 2.95,3.22 7.16,5.15 11.25,5.15 4.09,0 8.29,-1.92 11.25,-5.15 1.12,-1.22 3,-1.33 4.26,-0.26 1.24,1.06 3.29,2.33 5.99,2.33 5.08,0 9.21,-4.13 9.21,-9.21 0,-5.08 -4.13,-9.21 -9.21,-9.21 -1.43,0 -2.4,0.23 -3.33,0.79 -0.74,0.44 -1.62,0.55 -2.44,0.31 -0.82,-0.24 -1.51,-0.81 -1.89,-1.58 -2.7,-5.39 -8,-8.74 -13.84,-8.74 -5.84,0 -11.14,3.35 -13.84,8.74 a 3.066,3.066 0 0 1 -4.33,1.26 c -0.94,-0.56 -1.9,-0.79 -3.33,-0.79 -5.08,0 -9.21,4.13 -9.21,9.21 0,5.08 4.13,9.21 9.21,9.21 2.7,0 4.75,-1.27 5.99,-2.33 0.58,-0.49 1.3,-0.73 2,-0.73 z"
         transform="translate(96)"
         id="path21"
         style="display:inline;fill:#f8d049;fill-opacity:1" />
      <path
         class="st2"
         d="m 857.33,134.77 a 3.07,3.07 0 0 1 -3.07,-3.07 v -9.21 c 0,-1.7 1.38,-3.07 3.07,-3.07 1.69,0 3.07,1.38 3.07,3.07 v 9.21 a 3.07,3.07 0 0 1 -3.07,3.07 z m 33.78,24.56 h -9.21 c -1.7,0 -3.07,-1.38 -3.07,-3.07 0,-1.69 1.38,-3.07 3.07,-3.07 h 9.21 a 3.07,3.07 0 0 1 0,6.14 z m -33.78,33.79 a 3.07,3.07 0 0 1 -3.07,-3.07 v -9.21 c 0,-1.7 1.38,-3.07 3.07,-3.07 1.69,0 3.07,1.38 3.07,3.07 v 9.21 a 3.07,3.07 0 0 1 -3.07,3.07 z m -24.57,-33.79 h -9.21 c -1.7,0 -3.07,-1.38 -3.07,-3.07 0,-1.69 1.38,-3.07 3.07,-3.07 h 9.21 a 3.07,3.07 0 0 1 0,6.14 z"
         id="path22"
         transform="translate(120)"
         style="display:inline;fill:#f8d049;fill-opacity:1" />
      <path
         class="st2"
         d="m 857.33,193.12 c -20.32,0 -36.85,-16.53 -36.85,-36.85 0,-20.32 16.53,-36.85 36.85,-36.85 20.32,0 36.85,16.53 36.85,36.85 0,20.32 -16.53,36.85 -36.85,36.85 z m 0,-67.57 c -16.93,0 -30.71,13.78 -30.71,30.71 0,16.93 13.78,30.71 30.71,30.71 16.93,0 30.71,-13.78 30.71,-30.71 0,-16.93 -13.78,-30.71 -30.71,-30.71 z"
         transform="translate(120)"
         id="path23"
         style="display:inline;fill:#f8d049;fill-opacity:1" />
      <path
         class="st1"
         d="m 841.97,174.69 c -0.8,0 -1.58,-0.31 -2.17,-0.9 a 3.058,3.058 0 0 1 -0.65,-3.38 l 9.21,-21.5 c 0.31,-0.73 0.89,-1.3 1.61,-1.61 l 21.5,-9.21 c 1.16,-0.49 2.5,-0.24 3.38,0.65 0.89,0.89 1.15,2.23 0.65,3.38 l -9.21,21.5 c -0.31,0.72 -0.89,1.3 -1.61,1.61 l -21.5,9.21 c -0.39,0.17 -0.8,0.25 -1.21,0.25 z m 11.56,-22.23 -5.71,13.31 13.31,-5.71 5.71,-13.31 z"
         transform="translate(120)"
         id="path24"
         style="display:inline;fill:#39affe;fill-opacity:1" />
      <path
         class="st1"
         d="m 999.69,153.19 c -0.82,0 -1.61,-0.33 -2.19,-0.92 l -12.9,-13.11 c -4.42,-4.51 -4.42,-11.84 0,-16.34 0.59,-0.6 1.25,-1.14 1.97,-1.6 2.56,-1.64 5.6,-2.19 8.56,-1.55 1.69,0.37 3.24,1.1 4.57,2.13 2.02,-1.57 4.5,-2.41 7.09,-2.39 3.04,0.03 5.88,1.24 8,3.41 4.41,4.5 4.41,11.83 0,16.33 l -12.9,13.11 c -0.59,0.6 -1.38,0.93 -2.2,0.93 z m -6.98,-27.64 c -0.99,0 -1.96,0.28 -2.82,0.83 -0.33,0.21 -0.63,0.46 -0.9,0.74 -2.09,2.13 -2.09,5.61 0,7.74 l 10.71,10.88 10.71,-10.89 c 2.09,-2.13 2.09,-5.6 0,-7.73 a 5.2,5.2 0 0 0 -3.67,-1.57 c -1.38,0.01 -2.71,0.51 -3.71,1.49 -0.28,0.27 -0.53,0.58 -0.74,0.91 -0.56,0.88 -1.54,1.41 -2.58,1.41 -1.04,0 -2.02,-0.53 -2.58,-1.41 a 5.205,5.205 0 0 0 -3.28,-2.28 c -0.4,-0.08 -0.77,-0.12 -1.14,-0.12 z"
         transform="translate(144)"
         id="path25"
         style="display:inline;fill:#39affe;fill-opacity:1" />
      <path
         class="st2"
         d="m 978.19,193.12 a 3.07,3.07 0 0 1 -3.07,-3.07 v -5.07 l -10.27,-12.83 a 9.258,9.258 0 0 1 -2.02,-5.75 v -17.81 c 0,-4.23 3.44,-7.68 7.68,-7.68 4.23,0 7.68,3.44 7.68,7.68 v 9.48 c 0,1.7 -1.38,3.07 -3.07,3.07 -1.69,0 -3.07,-1.38 -3.07,-3.07 v -9.48 a 1.54,1.54 0 0 0 -3.08,0 v 17.81 c 0,0.69 0.24,1.37 0.67,1.91 l 10.94,13.67 c 0.44,0.54 0.67,1.22 0.67,1.92 v 6.14 c 0.01,1.7 -1.36,3.08 -3.06,3.08 z"
         transform="translate(144)"
         id="path26"
         style="display:inline;fill:#f8d049;fill-opacity:1" />
      <path
         class="st2"
         d="m 993.55,193.12 a 3.07,3.07 0 0 1 -3.07,-3.07 v -15.88 c 0,-0.82 -0.32,-1.59 -0.9,-2.17 l -10.49,-10.48 c -0.5,-0.5 -1.3,-0.5 -1.8,0 -0.49,0.5 -0.49,1.3 0,1.8 l 9.21,9.21 c 1.2,1.2 1.2,3.14 0,4.34 -1.2,1.2 -3.14,1.2 -4.34,0 l -9.21,-9.21 a 7.418,7.418 0 0 1 0,-10.48 c 2.89,-2.89 7.59,-2.89 10.49,0 l 10.49,10.49 a 9.145,9.145 0 0 1 2.7,6.51 v 15.88 a 3.09,3.09 0 0 1 -3.08,3.06 z m 27.64,0 a 3.07,3.07 0 0 1 -3.07,-3.07 v -6.14 c 0,-0.7 0.24,-1.37 0.67,-1.92 l 10.94,-13.67 c 0.43,-0.54 0.67,-1.22 0.67,-1.92 v -17.81 a 1.54,1.54 0 0 0 -3.08,0 v 9.48 c 0,1.7 -1.38,3.07 -3.07,3.07 -1.69,0 -3.07,-1.38 -3.07,-3.07 v -9.48 c 0,-4.23 3.44,-7.68 7.68,-7.68 4.23,0 7.68,3.44 7.68,7.68 v 17.81 c 0,2.08 -0.72,4.13 -2.02,5.75 l -10.27,12.83 v 5.07 a 3.062,3.062 0 0 1 -3.06,3.07 z"
         transform="translate(144)"
         id="path27"
         style="display:inline;fill:#f8d049;fill-opacity:1" />
      <path
         class="st2"
         d="m 1005.83,193.12 a 3.07,3.07 0 0 1 -3.07,-3.07 v -15.88 c 0,-2.46 0.96,-4.77 2.7,-6.51 l 10.49,-10.49 a 7.418,7.418 0 0 1 10.48,0 c 2.89,2.89 2.89,7.6 0,10.49 l -9.21,9.21 c -1.2,1.2 -3.14,1.2 -4.34,0 -1.2,-1.2 -1.2,-3.14 0,-4.34 l 9.21,-9.21 c 0.5,-0.5 0.5,-1.3 0,-1.8 -0.5,-0.5 -1.3,-0.49 -1.8,0 L 1009.81,172 c -0.58,0.58 -0.9,1.35 -0.9,2.17 v 15.88 a 3.086,3.086 0 0 1 -3.08,3.07 z"
         transform="translate(144)"
         id="path28"
         style="display:inline;fill:#f8d049;fill-opacity:1" />
      <path
         class="st2"
         d="m -25.56,370.97 a 3.07,3.07 0 0 1 -3.07,-3.07 v -12.28 c 0,-1.7 1.38,-3.07 3.07,-3.07 1.69,0 3.07,1.38 3.07,3.07 v 12.28 c 0,1.69 -1.38,3.07 -3.07,3.07 z"
         transform="translate(168)"
         id="path29"
         style="display:inline" />
      <path
         class="st1"
         d="m -25.56,346.4 c -11.85,0 -21.5,-9.64 -21.5,-21.5 0,-11.86 9.64,-21.5 21.5,-21.5 11.85,0 21.5,9.64 21.5,21.5 0,11.86 -9.65,21.5 -21.5,21.5 z m 0,-36.85 c -8.47,0 -15.36,6.89 -15.36,15.36 0,8.47 6.89,15.36 15.36,15.36 8.47,0 15.35,-6.89 15.35,-15.36 0,-8.47 -6.89,-15.36 -15.35,-15.36 z"
         transform="translate(168)"
         id="path30"
         style="display:inline;fill:#39affe;fill-opacity:1" />
      <path
         class="st2"
         d="m -10.21,370.97 h -30.71 c -1.7,0 -3.07,-1.38 -3.07,-3.07 0,-1.69 1.38,-3.07 3.07,-3.07 h 30.71 a 3.07,3.07 0 0 1 0,6.14 z m -15.35,-12.28 c -10.71,0 -20.55,-4.92 -26.99,-13.51 a 3.075,3.075 0 0 1 0.61,-4.3 3.075,3.075 0 0 1 4.3,0.61 c 5.27,7.02 13.32,11.05 22.08,11.05 15.24,0 27.64,-12.4 27.64,-27.64 0,-8.76 -4.03,-16.81 -11.05,-22.08 a 3.066,3.066 0 0 1 -0.61,-4.3 3.066,3.066 0 0 1 4.3,-0.61 c 8.58,6.45 13.51,16.29 13.51,26.99 -0.01,18.63 -15.17,33.79 -33.79,33.79 z"
         transform="translate(168)"
         id="path31"
         style="display:inline;fill:#f8d049;fill-opacity:1" />
      <circle
         class="st1"
         cx="119.88"
         cy="323.48999"
         r="7.6799998"
         transform="translate(192)"
         id="circle31"
         style="display:inline;fill:#39affe;fill-opacity:1" />
      <path
         class="st1"
         d="m 141.6,348.28 c -0.79,0 -1.57,-0.3 -2.17,-0.9 -1.2,-1.2 -1.2,-3.14 0,-4.34 10.78,-10.78 10.78,-28.31 0,-39.09 -1.2,-1.2 -1.2,-3.14 0,-4.34 1.2,-1.2 3.14,-1.2 4.34,0 13.17,13.17 13.17,34.6 0,47.77 -0.6,0.6 -1.38,0.9 -2.17,0.9 z"
         transform="translate(192)"
         id="path32"
         style="display:inline;fill:#39affe;fill-opacity:1" />
      <path
         class="st1"
         d="m 132.92,339.59 c -0.79,0 -1.57,-0.3 -2.17,-0.9 -1.2,-1.2 -1.2,-3.14 0,-4.34 5.99,-5.99 5.99,-15.73 0,-21.72 -1.2,-1.2 -1.2,-3.14 0,-4.34 1.2,-1.2 3.14,-1.2 4.34,0 8.38,8.38 8.38,22.02 0,30.4 -0.6,0.6 -1.39,0.9 -2.17,0.9 z m -34.75,8.69 c -0.79,0 -1.57,-0.3 -2.17,-0.9 -13.17,-13.17 -13.17,-34.6 0,-47.77 1.2,-1.2 3.14,-1.2 4.34,0 1.2,1.2 1.2,3.14 0,4.34 -10.78,10.78 -10.78,28.31 0,39.09 1.2,1.2 1.2,3.14 0,4.34 -0.6,0.6 -1.39,0.9 -2.17,0.9 z"
         transform="translate(192)"
         id="path33"
         style="display:inline;fill:#39affe;fill-opacity:1" />
      <path
         class="st1"
         d="m 106.85,339.59 c -0.79,0 -1.57,-0.3 -2.17,-0.9 -4.06,-4.06 -6.3,-9.46 -6.3,-15.2 0,-5.74 2.23,-11.14 6.29,-15.2 l 4.35,4.34 c -2.9,2.9 -4.5,6.76 -4.5,10.86 0,4.1 1.6,7.96 4.5,10.86 1.2,1.2 1.2,3.14 0,4.34 -0.59,0.6 -1.38,0.9 -2.17,0.9 z"
         transform="translate(192)"
         id="path34"
         style="display:inline;fill:#39affe;fill-opacity:1" />
      <path
         class="st2"
         d="m 119.88,369.56 a 3.07,3.07 0 0 1 -3.07,-3.07 v -43 c 0,-1.7 1.38,-3.07 3.07,-3.07 1.69,0 3.07,1.38 3.07,3.07 v 43 c 0.01,1.69 -1.37,3.07 -3.07,3.07 z"
         transform="translate(192)"
         id="path35"
         style="display:inline;fill:#f8d049;fill-opacity:1" />
      <path
         class="st2"
         d="M 132.17,369.56 H 107.6 c -1.7,0 -3.07,-1.38 -3.07,-3.07 0,-1.69 1.38,-3.07 3.07,-3.07 h 24.57 c 1.7,0 3.07,1.38 3.07,3.07 0,1.69 -1.38,3.07 -3.07,3.07 z"
         transform="translate(192)"
         id="path36"
         style="display:inline;fill:#f8d049;fill-opacity:1" />
      <path
         class="st1"
         d="m 296.03,352.56 a 3.07,3.07 0 0 1 -3.07,-3.07 v -24.57 c -0.04,-11.81 -9.68,-21.46 -21.51,-21.5 h -18.42 c -11.81,0.03 -21.46,9.68 -21.5,21.51 v 24.56 c 0,1.7 -1.38,3.07 -3.07,3.07 -1.69,0 -3.07,-1.38 -3.07,-3.07 v -24.57 c 0.05,-15.2 12.44,-27.6 27.63,-27.64 h 18.44 c 15.2,0.04 27.59,12.44 27.64,27.63 v 24.58 c 0,1.69 -1.38,3.07 -3.07,3.07 z"
         transform="translate(216)"
         id="path37"
         style="display:inline;fill:#39affe;fill-opacity:1" />
      <path
         class="st2"
         d="m 243.82,370.98 c -5.08,0 -9.21,-4.13 -9.21,-9.21 V 337.2 c 0,-5.08 4.13,-9.21 9.21,-9.21 5.08,0 9.21,4.13 9.21,9.21 v 24.57 c 0,5.08 -4.13,9.21 -9.21,9.21 z m 0,-36.85 c -1.69,0 -3.07,1.38 -3.07,3.07 v 24.57 c 0,1.69 1.38,3.07 3.07,3.07 1.69,0 3.07,-1.38 3.07,-3.07 V 337.2 c 0,-1.69 -1.38,-3.07 -3.07,-3.07 z m 36.85,36.85 c -5.08,0 -9.21,-4.13 -9.21,-9.21 V 337.2 c 0,-5.08 4.13,-9.21 9.21,-9.21 5.08,0 9.21,4.13 9.21,9.21 v 24.57 c 0.01,5.08 -4.13,9.21 -9.21,9.21 z m 0,-36.85 c -1.69,0 -3.07,1.38 -3.07,3.07 v 24.57 c 0,1.69 1.38,3.07 3.07,3.07 1.69,0 3.07,-1.38 3.07,-3.07 V 337.2 a 3.07,3.07 0 0 0 -3.07,-3.07 z"
         transform="translate(216)"
         id="path38"
         style="display:inline;fill:#f8d049;fill-opacity:1" />
      <path
         class="st2"
         d="m 402.76,370.39 a 3.068,3.068 0 0 1 -2.84,-4.24 c 3.1,-7.52 4.67,-15.45 4.66,-23.58 a 62.256,62.256 0 0 0 -5.83,-26.16 3.062,3.062 0 0 1 1.48,-4.08 c 1.53,-0.72 3.36,-0.06 4.08,1.48 4.19,8.94 6.41,18.89 6.41,28.76 0,8.94 -1.72,17.66 -5.13,25.92 -0.47,1.18 -1.62,1.9 -2.83,1.9 z"
         transform="translate(240)"
         id="path39"
         style="display:inline;fill:#f8d049;fill-opacity:1" />
      <path
         class="st2"
         d="m 438.39,370.39 h -67.56 c -1.7,0 -3.07,-1.38 -3.07,-3.07 0,-1.69 1.38,-3.07 3.07,-3.07 h 67.56 c 1.7,0 3.07,1.38 3.07,3.07 0,1.69 -1.38,3.07 -3.07,3.07 z"
         transform="translate(240)"
         id="path40"
         style="display:inline;fill:#f8d049;fill-opacity:1" />
      <path
         class="st1"
         d="m 380.04,345.82 c -0.17,0 -0.35,-0.01 -0.52,-0.04 a 3.069,3.069 0 0 1 -2.4,-2.06 c -3.65,-10.95 -0.98,-18.02 1.91,-22.02 4.42,-6.14 12.63,-9.66 22.5,-9.66 1.17,0 2.24,0.67 2.76,1.72 0.52,1.05 0.39,2.31 -0.33,3.23 l -21.5,27.64 c -0.59,0.76 -1.48,1.19 -2.42,1.19 z m 14.65,-26.92 c -4.69,1.06 -8.43,3.26 -10.68,6.38 -2.01,2.78 -2.81,6.33 -2.41,10.44 z"
         transform="translate(240)"
         id="path41"
         style="display:inline;fill:#39affe;fill-opacity:1" />
      <path
         class="st1"
         d="m 432.25,336.6 c -0.55,0 -1.09,-0.15 -1.58,-0.44 l -30.71,-18.43 a 3.083,3.083 0 0 1 -1.49,-2.82 3.08,3.08 0 0 1 1.82,-2.62 c 0.55,-0.25 13.67,-5.95 23.99,0.04 6.29,3.66 10,10.69 11.02,20.89 0.12,1.16 -0.43,2.28 -1.41,2.9 -0.5,0.32 -1.07,0.48 -1.64,0.48 z M 409.18,316.11 428,327.4 c -1.34,-4.62 -3.62,-7.89 -6.79,-9.74 -3.79,-2.21 -8.38,-2.16 -12.03,-1.55 z"
         transform="translate(240)"
         id="path42"
         style="display:inline;fill:#39affe;fill-opacity:1" />
      <path
         class="st1"
         d="m 401.54,318.18 c -0.13,0 -0.25,-0.01 -0.38,-0.02 l -24.57,-3.07 a 3.05,3.05 0 0 1 -2.41,-1.77 c -0.44,-0.97 -0.35,-2.1 0.24,-2.98 0.25,-0.37 6.09,-8.99 14.58,-8.71 5.67,0.2 10.78,4.22 15.21,11.96 0.58,1.01 0.53,2.26 -0.11,3.23 a 3.12,3.12 0 0 1 -2.56,1.36 z m -18.12,-8.43 11.56,1.44 c -1.8,-1.92 -3.9,-3.35 -6.18,-3.43 -1.94,-0.08 -3.81,0.83 -5.38,1.99 z"
         transform="translate(240)"
         id="path43"
         style="display:inline;fill:#39affe;fill-opacity:1" />
      <path
         class="st1"
         d="m 401.54,318.18 c -0.7,0 -1.38,-0.24 -1.94,-0.69 -0.82,-0.66 -1.23,-1.7 -1.11,-2.74 0.94,-7.88 3.99,-13.08 9.06,-15.47 9.7,-4.57 22.74,3.69 23.29,4.04 1,0.64 1.53,1.79 1.39,2.97 a 3.064,3.064 0 0 1 -2.08,2.53 l -27.64,9.21 c -0.32,0.09 -0.65,0.15 -0.97,0.15 z m 12.63,-14.16 c -1.44,0 -2.81,0.24 -4.01,0.81 -2.01,0.95 -3.51,2.85 -4.49,5.66 l 15.35,-5.12 c -2.19,-0.77 -4.6,-1.35 -6.85,-1.35 z"
         transform="translate(240)"
         id="path44"
         style="display:inline;fill:#39affe;fill-opacity:1" />
      <path
         class="st2"
         d="m 544.72,329.44 c -0.47,0 -0.95,-0.11 -1.4,-0.34 l -25.46,-13.04 a 3.069,3.069 0 0 1 -0.14,-5.39 l 7.68,-4.46 c 0.76,-0.44 1.67,-0.54 2.5,-0.26 l 30.78,10.07 a 3.0674501,3.0674501 0 1 1 -1.91,5.83 l -29.47,-9.64 -1.63,0.95 20.45,10.48 c 1.51,0.77 2.11,2.62 1.33,4.13 a 3.066,3.066 0 0 1 -2.73,1.67 z"
         transform="translate(264)"
         id="path45"
         style="display:inline;fill:#f8d049;fill-opacity:1" />
      <path
         class="st2"
         d="m 528.48,347.11 c -0.66,0 -1.31,-0.21 -1.84,-0.61 l -12.28,-9.21 a 3.054,3.054 0 0 1 -1.22,-2.65 c 0.07,-1.03 0.64,-1.96 1.54,-2.48 l 6.76,-3.85 c 0.72,-0.41 1.57,-0.51 2.36,-0.29 l 7.92,2.25 38.26,-21.87 c 0.07,-0.04 0.19,-0.11 0.32,-0.18 4.47,-2.42 10.07,-0.74 12.49,3.73 2.42,4.47 0.74,10.07 -3.72,12.49 l -32.25,18.43 c -0.26,0.15 -0.54,0.26 -0.84,0.33 l -16.8,3.85 c -0.24,0.04 -0.47,0.06 -0.7,0.06 z m -6.7,-11.93 7.4,5.55 14.97,-3.43 31.92,-18.24 c 1.55,-0.84 2.11,-2.71 1.3,-4.2 a 3.077,3.077 0 0 0 -4.16,-1.24 l -0.13,0.08 -39.44,22.54 c -0.72,0.41 -1.57,0.51 -2.36,0.29 l -7.92,-2.25 z m 23.5,5.02 z"
         transform="translate(264)"
         id="path46"
         style="display:inline;fill:#f8d049;fill-opacity:1" />
      <path
         class="st1"
         d="m 580.69,362.47 h -67.56 c -1.7,0 -3.07,-1.38 -3.07,-3.07 0,-1.69 1.38,-3.07 3.07,-3.07 h 67.56 c 1.7,0 3.07,1.38 3.07,3.07 0,1.69 -1.38,3.07 -3.07,3.07 z"
         transform="translate(264)"
         id="path47"
         style="display:inline;fill:#39affe;fill-opacity:1" />
      <path
         class="st2"
         d="m 658.62,341.81 h -3.07 c -1.7,0 -3.07,-1.38 -3.07,-3.07 0,-1.69 1.38,-3.07 3.07,-3.07 h 3.07 c 1.7,0 3.07,1.38 3.07,3.07 0,1.69 -1.38,3.07 -3.07,3.07 z m 8.9,-21.81 c -0.79,0 -1.57,-0.3 -2.17,-0.9 l -2.15,-2.15 c -1.2,-1.2 -1.2,-3.14 0,-4.34 1.2,-1.2 3.14,-1.2 4.34,0 l 2.15,2.15 c 1.2,1.2 1.2,3.14 0,4.34 -0.59,0.6 -1.38,0.9 -2.17,0.9 z m 21.81,-8.9 a 3.07,3.07 0 0 1 -3.07,-3.07 v -3.07 c 0,-1.7 1.38,-3.07 3.07,-3.07 1.69,0 3.07,1.38 3.07,3.07 v 3.07 a 3.07,3.07 0 0 1 -3.07,3.07 z m 21.8,8.9 c -0.79,0 -1.57,-0.3 -2.17,-0.9 -1.2,-1.2 -1.2,-3.14 0,-4.34 l 2.15,-2.15 c 1.2,-1.2 3.14,-1.2 4.34,0 1.2,1.2 1.2,3.14 0,4.34 l -2.15,2.15 c -0.59,0.6 -1.38,0.9 -2.17,0.9 z m 11.98,21.81 h -3.07 c -1.7,0 -3.07,-1.38 -3.07,-3.07 0,-1.69 1.38,-3.07 3.07,-3.07 h 3.07 a 3.07,3.07 0 0 1 0,6.14 z m -15.35,0 a 3.07,3.07 0 0 1 -3.07,-3.07 c 0,-8.47 -6.89,-15.36 -15.36,-15.36 -8.47,0 -15.36,6.89 -15.36,15.36 0,1.7 -1.38,3.07 -3.07,3.07 -1.69,0 -3.07,-1.38 -3.07,-3.07 0,-11.85 9.64,-21.5 21.5,-21.5 11.86,0 21.5,9.64 21.5,21.5 0,1.69 -1.38,3.07 -3.07,3.07 z"
         transform="translate(288)"
         id="path48"
         style="display:inline;fill:#f8d049;fill-opacity:1" />
      <path
         class="st1"
         d="m 723.11,354.09 h -67.56 c -1.7,0 -3.07,-1.38 -3.07,-3.07 0,-1.69 1.38,-3.07 3.07,-3.07 h 67.56 a 3.07,3.07 0 0 1 0,6.14 z m -9.21,12.29 h -49.14 c -1.7,0 -3.07,-1.38 -3.07,-3.07 0,-1.69 1.38,-3.07 3.07,-3.07 h 49.14 c 1.7,0 3.07,1.38 3.07,3.07 0,1.69 -1.38,3.07 -3.07,3.07 z"
         transform="translate(288)"
         id="path49"
         style="display:inline;fill:#39affe;fill-opacity:1" />
      <path
         class="st2"
         d="m 807.12,349.18 c -0.29,0 -0.58,-0.04 -0.87,-0.13 -6.83,-2.01 -11.42,-8.01 -11.42,-14.92 0,-6.31 3.85,-11.98 9.42,-14.27 1.74,-12.63 12.93,-22.58 25.9,-22.58 12.93,0 23.6,9.18 25.77,21.74 7.16,1.3 12.62,7.58 12.62,15.11 0,7.09 -4.87,13.39 -11.58,14.97 -1.65,0.39 -3.3,-0.63 -3.69,-2.29 -0.39,-1.65 0.63,-3.3 2.29,-3.69 3.97,-0.93 6.85,-4.71 6.85,-8.99 0,-5.08 -4.13,-9.21 -9.21,-9.21 -1.6,0 -2.94,-1.24 -3.06,-2.84 -0.82,-10.64 -9.4,-18.66 -19.97,-18.66 -10.48,0 -19.43,8.47 -19.97,18.89 a 3.067,3.067 0 0 1 -2.36,2.83 c -3.97,0.93 -6.85,4.71 -6.85,8.99 0,4.17 2.82,7.8 7.01,9.03 1.63,0.48 2.56,2.19 2.08,3.81 a 3.105,3.105 0 0 1 -2.96,2.21 z"
         transform="translate(312)"
         id="path50"
         style="display:inline;fill:#f8d049;fill-opacity:1" />
      <path
         class="st1"
         d="m 831.69,370.98 a 3.07,3.07 0 0 1 -3.07,-3.07 v -18.43 c 0,-1.7 1.38,-3.07 3.07,-3.07 1.69,0 3.07,1.38 3.07,3.07 v 18.43 c 0,1.7 -1.37,3.07 -3.07,3.07 z m -12.28,-9.21 a 3.07,3.07 0 0 1 -3.07,-3.07 v -18.43 c 0,-1.7 1.38,-3.07 3.07,-3.07 1.69,0 3.07,1.38 3.07,3.07 v 18.43 c 0,1.7 -1.38,3.07 -3.07,3.07 z m 24.56,0 a 3.07,3.07 0 0 1 -3.07,-3.07 v -18.43 c 0,-1.7 1.38,-3.07 3.07,-3.07 1.69,0 3.07,1.38 3.07,3.07 v 18.43 c 0.01,1.7 -1.37,3.07 -3.07,3.07 z"
         transform="translate(312)"
         id="path51"
         style="display:inline;fill:#39affe;fill-opacity:1" />
      <path
         class="st1"
         d="m -220.75,541.48 a 3.073,3.073 0 0 1 -3.01,-3.68 c 2.31,-11.39 12.44,-19.66 24.08,-19.66 11.62,0 21.74,8.25 24.07,19.62 0.34,1.66 -0.73,3.29 -2.39,3.62 -1.66,0.33 -3.28,-0.73 -3.62,-2.39 -1.74,-8.52 -9.34,-14.71 -18.05,-14.71 -8.73,0 -16.32,6.2 -18.06,14.74 a 3.102,3.102 0 0 1 -3.02,2.46 z"
         transform="translate(336)"
         id="path52"
         style="display:inline;fill:#39affe;fill-opacity:1" />
      <path
         class="st2"
         d="m -199.69,548.85 c -20.32,0 -36.85,-16.53 -36.85,-36.85 0,-20.32 16.53,-36.85 36.85,-36.85 20.32,0 36.85,16.53 36.85,36.85 0,20.32 -16.53,36.85 -36.85,36.85 z m 0,-67.56 c -16.93,0 -30.71,13.78 -30.71,30.71 0,16.93 13.78,30.71 30.71,30.71 16.93,0 30.71,-13.78 30.71,-30.71 0,-16.93 -13.78,-30.71 -30.71,-30.71 z"
         transform="translate(336)"
         id="path53"
         style="display:inline;fill:#f8d049;fill-opacity:1" />
      <path
         class="st1"
         d="m -199.69,515.07 c -6.77,0 -12.28,-5.51 -12.28,-12.28 0,-6.77 5.51,-12.28 12.28,-12.28 6.77,0 12.28,5.51 12.28,12.28 0,6.77 -5.51,12.28 -12.28,12.28 z m 0,-18.43 c -3.39,0 -6.14,2.76 -6.14,6.14 0,3.38 2.76,6.14 6.14,6.14 3.38,0 6.14,-2.76 6.14,-6.14 0,-3.38 -2.75,-6.14 -6.14,-6.14 z"
         transform="translate(336)"
         id="path54"
         style="display:inline;fill:#39affe;fill-opacity:1" />
      <path
         class="st1"
         d="m -75.76,492.04 c -4.24,0 -7.68,-3.44 -7.68,-7.68 0,-4.24 3.44,-7.68 7.68,-7.68 4.24,0 7.68,3.44 7.68,7.68 0,4.24 -3.43,7.68 -7.68,7.68 z"
         transform="translate(360)"
         id="path55"
         style="display:inline;fill:#39affe;fill-opacity:1" />
      <path
         class="st2"
         d="m -68.08,550.39 h -15.36 a 3.07,3.07 0 0 1 -3.07,-3.07 v -22.67 l -4.44,-2.22 a 3.066,3.066 0 0 1 -1.66,-3.25 l 3.07,-18.43 c 0.15,-0.87 0.66,-1.64 1.41,-2.1 2.59,-1.61 6.84,-3.53 12.37,-3.53 3.05,0 7.67,0.61 12.37,3.53 0.75,0.47 1.26,1.23 1.41,2.1 l 3.07,18.43 c 0.22,1.33 -0.45,2.65 -1.66,3.25 l -4.44,2.22 v 22.67 a 3.07,3.07 0 0 1 -3.07,3.07 z m -12.28,-6.14 h 9.21 v -21.5 c 0,-1.16 0.66,-2.23 1.7,-2.75 l 4.11,-2.06 -2.46,-14.75 a 17.231,17.231 0 0 0 -7.96,-1.94 c -3.33,0 -6.04,0.95 -7.96,1.94 l -2.46,14.75 4.11,2.06 a 3.07,3.07 0 0 1 1.7,2.75 v 21.5 z m 44.53,-52.21 c -4.24,0 -7.68,-3.44 -7.68,-7.68 0,-4.24 3.44,-7.68 7.68,-7.68 4.24,0 7.68,3.44 7.68,7.68 0,4.24 -3.44,7.68 -7.68,7.68 z"
         transform="translate(360)"
         id="path56"
         style="display:inline;fill:#f8d049;fill-opacity:1" />
      <path
         class="st1"
         d="m -28.15,550.39 h -15.36 a 3.07,3.07 0 0 1 -3.07,-3.07 v -12.28 h -3.07 c -0.92,0 -1.79,-0.41 -2.38,-1.12 -0.58,-0.71 -0.82,-1.65 -0.64,-2.55 l 6.14,-30.71 c 0.12,-0.62 0.44,-1.19 0.89,-1.62 1.23,-1.17 4.64,-3.9 9.73,-3.92 h 0.06 c 5.12,0 8.56,2.74 9.8,3.92 0.46,0.44 0.77,1 0.89,1.62 l 6.14,30.71 c 0.18,0.9 -0.05,1.84 -0.64,2.55 -0.58,0.71 -1.46,1.12 -2.38,1.12 h -3.07 v 12.28 c 0.03,1.69 -1.35,3.07 -3.04,3.07 z m -12.29,-6.14 h 9.21 v -12.28 c 0,-1.7 1.38,-3.07 3.07,-3.07 h 2.4 l -5.2,-25.99 c -0.94,-0.7 -2.64,-1.65 -4.88,-1.65 h -0.03 c -2.22,0.01 -3.91,0.96 -4.84,1.65 l -5.2,25.99 h 2.4 c 1.7,0 3.07,1.38 3.07,3.07 z"
         transform="translate(360)"
         id="path57"
         style="display:inline;fill:#39affe;fill-opacity:1" />
      <path
         class="st1"
         d="m 88.1,531.96 a 3.07,3.07 0 0 1 -3.07,-3.07 v -12.28 c 0,-1.7 1.38,-3.07 3.07,-3.07 1.69,0 3.07,1.38 3.07,3.07 v 12.28 c 0,1.7 -1.37,3.07 -3.07,3.07 z m -12.28,0 a 3.07,3.07 0 0 1 -3.07,-3.07 v -12.28 c 0,-1.7 1.38,-3.07 3.07,-3.07 1.69,0 3.07,1.38 3.07,3.07 v 12.28 c 0,1.7 -1.37,3.07 -3.07,3.07 z m 24.57,0 a 3.07,3.07 0 0 1 -3.07,-3.07 v -12.28 c 0,-1.7 1.38,-3.07 3.07,-3.07 1.69,0 3.07,1.38 3.07,3.07 v 12.28 c 0,1.7 -1.38,3.07 -3.07,3.07 z"
         transform="translate(384)"
         id="path58"
         style="display:inline;fill:#39affe;fill-opacity:1" />
      <path
         class="st2"
         d="m 66.6,504.32 c -0.52,0 -1.04,-0.13 -1.52,-0.41 a 3.074,3.074 0 0 1 -1.14,-4.19 l 12.28,-21.5 a 3.074,3.074 0 0 1 4.19,-1.14 c 1.47,0.84 1.98,2.72 1.14,4.19 l -12.28,21.5 c -0.56,1 -1.6,1.55 -2.67,1.55 z m 43,0 c -1.07,0 -2.1,-0.56 -2.67,-1.55 l -12.28,-21.5 a 3.074,3.074 0 0 1 1.14,-4.19 c 1.47,-0.84 3.35,-0.33 4.19,1.14 l 12.28,21.5 c 0.84,1.47 0.33,3.35 -1.14,4.19 -0.48,0.28 -1,0.41 -1.52,0.41 z m 0,43 h -43 c -5.08,0 -9.21,-4.13 -9.21,-9.21 v -24.57 c 0,-1.7 1.38,-3.07 3.07,-3.07 1.69,0 3.07,1.38 3.07,3.07 v 24.57 c 0,1.69 1.38,3.07 3.07,3.07 h 43 c 1.69,0 3.07,-1.38 3.07,-3.07 v -24.57 c 0,-1.7 1.38,-3.07 3.07,-3.07 1.69,0 3.07,1.38 3.07,3.07 v 24.57 c 0,5.07 -4.13,9.21 -9.21,9.21 z"
         transform="translate(384)"
         id="path59"
         style="display:inline;fill:#f8d049;fill-opacity:1" />
      <path
         class="st2"
         d="M 121.89,504.32 H 54.32 c -1.7,0 -3.07,-1.38 -3.07,-3.07 0,-1.69 1.38,-3.07 3.07,-3.07 h 67.56 a 3.0700041,3.0700041 0 0 1 0.01,6.14 z"
         transform="translate(384)"
         id="path60"
         style="display:inline;fill:#f8d049;fill-opacity:1" />
      <path
         class="st1"
         d="m 213.57,488.97 a 3.07,3.07 0 0 1 -3.07,-3.07 v -6.14 c 0,-1.7 1.38,-3.07 3.07,-3.07 1.69,0 3.07,1.38 3.07,3.07 v 6.14 a 3.07,3.07 0 0 1 -3.07,3.07 z m 36.86,0 a 3.07,3.07 0 0 1 -3.07,-3.07 v -6.14 c 0,-1.7 1.38,-3.07 3.07,-3.07 1.69,0 3.07,1.38 3.07,3.07 v 6.14 c 0,1.69 -1.38,3.07 -3.07,3.07 z m -33.79,30.71 h -6.14 a 3.07,3.07 0 0 1 -3.07,-3.07 v -3.07 c 0,-1.7 1.38,-3.07 3.07,-3.07 h 6.14 c 1.7,0 3.07,1.38 3.07,3.07 v 3.07 c 0.01,1.69 -1.37,3.07 -3.07,3.07 z m 18.43,0 h -6.14 a 3.07,3.07 0 0 1 -3.07,-3.07 v -3.07 c 0,-1.7 1.38,-3.07 3.07,-3.07 h 6.14 c 1.7,0 3.07,1.38 3.07,3.07 v 3.07 a 3.07,3.07 0 0 1 -3.07,3.07 z m -18.43,15.35 h -6.14 a 3.07,3.07 0 0 1 -3.07,-3.07 v -3.07 c 0,-1.7 1.38,-3.07 3.07,-3.07 h 6.14 c 1.7,0 3.07,1.38 3.07,3.07 v 3.07 c 0.01,1.7 -1.37,3.07 -3.07,3.07 z m 18.43,0 h -6.14 a 3.07,3.07 0 0 1 -3.07,-3.07 v -3.07 c 0,-1.7 1.38,-3.07 3.07,-3.07 h 6.14 c 1.7,0 3.07,1.38 3.07,3.07 v 3.07 c 0,1.7 -1.37,3.07 -3.07,3.07 z m 18.43,-15.35 h -6.14 a 3.07,3.07 0 0 1 -3.07,-3.07 v -3.07 c 0,-1.7 1.38,-3.07 3.07,-3.07 h 6.14 c 1.7,0 3.07,1.38 3.07,3.07 v 3.07 c 0,1.69 -1.38,3.07 -3.07,3.07 z"
         transform="translate(408)"
         id="path61"
         style="fill:#39affe;fill-opacity:1" />
      <path
         class="st2"
         d="m 265.78,504.32 h -67.56 c -1.7,0 -3.07,-1.38 -3.07,-3.07 0,-1.69 1.38,-3.07 3.07,-3.07 h 67.56 a 3.07,3.07 0 0 1 0,6.14 z"
         transform="translate(408)"
         id="path62"
         style="fill:#f8d049;fill-opacity:1" />
      <path
         class="st2"
         d="m 259.64,547.32 h -55.28 c -5.08,0 -9.21,-4.13 -9.21,-9.21 v -43 c 0,-5.08 4.13,-9.21 9.21,-9.21 h 55.28 c 5.08,0 9.21,4.13 9.21,9.21 v 43 c 0,5.07 -4.13,9.21 -9.21,9.21 z m -55.28,-55.28 c -1.69,0 -3.07,1.38 -3.07,3.07 v 43 c 0,1.69 1.38,3.07 3.07,3.07 h 55.28 c 1.69,0 3.07,-1.38 3.07,-3.07 v -43 c 0,-1.69 -1.38,-3.07 -3.07,-3.07 z"
         transform="translate(408)"
         id="path63"
         style="fill:#f8d049;fill-opacity:1" />
      <path
         class="st1"
         d="m 397.39,545.78 c -0.6,0 -1.19,-0.17 -1.7,-0.52 l -17.65,-11.77 h -2.14 c -1.7,0 -3.07,-1.38 -3.07,-3.07 0,-1.69 1.38,-3.07 3.07,-3.07 h 3.07 c 0.61,0 1.2,0.18 1.7,0.52 l 13.65,9.1 v -6.55 c 0,-1.7 1.38,-3.07 3.07,-3.07 h 6.14 c 1.69,0 3.07,-1.38 3.07,-3.07 V 490.5 c 0,-1.7 1.38,-3.07 3.07,-3.07 1.69,0 3.07,1.38 3.07,3.07 v 33.78 c 0,5.08 -4.13,9.21 -9.21,9.21 h -3.07 v 9.21 c 0,1.13 -0.62,2.17 -1.62,2.71 -0.45,0.25 -0.95,0.37 -1.45,0.37 z"
         transform="translate(432)"
         id="path64"
         style="fill:#39affe;fill-opacity:1" />
      <path
         class="st2"
         d="m 354.4,536.57 c -0.48,0 -0.96,-0.11 -1.41,-0.34 a 3.084,3.084 0 0 1 -1.67,-2.73 v -12.28 h -3.07 c -5.08,0 -9.21,-4.13 -9.21,-9.21 v -24.57 c 0,-5.08 4.13,-9.21 9.21,-9.21 h 43 c 5.08,0 9.21,4.13 9.21,9.21 V 512 c 0,5.08 -4.13,9.21 -9.21,9.21 H 376.88 L 356.18,536 c -0.53,0.38 -1.15,0.57 -1.78,0.57 z m -6.14,-52.21 c -1.69,0 -3.07,1.38 -3.07,3.07 V 512 c 0,1.69 1.38,3.07 3.07,3.07 h 6.14 c 1.7,0 3.07,1.38 3.07,3.07 v 9.39 l 16.64,-11.89 c 0.52,-0.37 1.15,-0.57 1.79,-0.57 h 15.36 c 1.69,0 3.07,-1.38 3.07,-3.07 v -24.57 c 0,-1.69 -1.38,-3.07 -3.07,-3.07 z"
         transform="translate(432)"
         id="path65"
         style="fill:#f8d049;fill-opacity:1" />
      <path
         class="st2"
         d="m 548.97,538.12 -39.92,-0.02 a 3.07,3.07 0 0 1 0,-6.14 l 34.83,0.02 a 45.687,45.687 0 0 1 -4.12,-18.39 v -12.34 c 0,-1.7 1.38,-3.07 3.07,-3.07 1.69,0 3.07,1.38 3.07,3.07 v 12.3 c 0.08,6.99 2.05,13.89 5.7,19.91 0.57,0.95 0.59,2.13 0.05,3.1 -0.55,0.96 -1.57,1.56 -2.68,1.56 z m -55.28,0 c -0.54,0 -1.09,-0.14 -1.59,-0.44 a 3.075,3.075 0 0 1 -1.04,-4.22 39.535,39.535 0 0 0 5.7,-19.94 V 498.2 c 0,-9.22 5.08,-17.58 13.27,-21.82 5.83,-3.02 12.48,-3.58 18.74,-1.6 6.25,1.99 11.36,6.29 14.38,12.12 a 3.07,3.07 0 0 1 -1.32,4.14 c -1.5,0.78 -3.36,0.19 -4.14,-1.31 -2.26,-4.37 -6.09,-7.6 -10.78,-9.09 a 18.317,18.317 0 0 0 -14.05,1.2 c -6.14,3.18 -9.96,9.45 -9.95,16.37 v 15.36 c -0.1,8.16 -2.38,16.13 -6.59,23.09 -0.58,0.93 -1.59,1.46 -2.63,1.46 z"
         transform="translate(456)"
         id="path66"
         style="fill:#f8d049;fill-opacity:1" />
      <path
         class="st1"
         d="m 512.65,541.19 c 1.71,4.79 6.98,7.29 11.77,5.59 a 9.214,9.214 0 0 0 5.59,-5.59 z m -22.03,-0.02 c -0.79,0 -1.57,-0.3 -2.17,-0.9 -1.2,-1.2 -1.2,-3.14 0,-4.34 l 58.35,-58.35 c 1.2,-1.2 3.14,-1.2 4.34,0 1.2,1.2 1.2,3.14 0,4.34 l -58.35,58.35 c -0.6,0.6 -1.39,0.9 -2.17,0.9 z"
         transform="translate(456)"
         id="path67"
         style="fill:#39affe;fill-opacity:1" />
      <path
         class="st1"
         d="m 657.55,518.14 a 3.07,3.07 0 0 1 -3.07,-3.07 v -18.43 c 0,-1.7 1.38,-3.07 3.07,-3.07 1.69,0 3.07,1.38 3.07,3.07 v 18.43 c 0,1.7 -1.38,3.07 -3.07,3.07 z"
         transform="translate(480)"
         id="path68"
         style="fill:#39affe;fill-opacity:1" />
      <path
         class="st1"
         d="m 666.76,508.93 h -18.43 c -1.7,0 -3.07,-1.38 -3.07,-3.07 0,-1.69 1.38,-3.07 3.07,-3.07 h 18.43 a 3.07,3.07 0 0 1 0,6.14 z"
         transform="translate(480)"
         id="path69"
         style="fill:#39affe;fill-opacity:1" />
      <path
         class="st2"
         d="m 694.4,545.78 c -0.79,0 -1.57,-0.3 -2.17,-0.9 L 672.75,525.4 c -1.2,-1.2 -1.2,-3.14 0,-4.34 1.2,-1.2 3.14,-1.2 4.34,0 l 19.48,19.48 c 1.2,1.2 1.2,3.14 0,4.34 -0.6,0.6 -1.38,0.9 -2.17,0.9 z"
         transform="translate(480)"
         id="path70"
         style="fill:#f8d049;fill-opacity:1" />
      <path
         class="st2"
         d="m 657.55,533.5 c -15.24,0 -27.64,-12.4 -27.64,-27.64 0,-15.24 12.4,-27.64 27.64,-27.64 15.24,0 27.64,12.4 27.64,27.64 0,15.24 -12.4,27.64 -27.64,27.64 z m 0,-49.14 c -11.85,0 -21.5,9.64 -21.5,21.5 0,11.86 9.64,21.5 21.5,21.5 11.85,0 21.5,-9.64 21.5,-21.5 0,-11.86 -9.65,-21.5 -21.5,-21.5 z"
         transform="translate(480)"
         id="path71"
         style="fill:#f8d049;fill-opacity:1" />
      <path
         class="st2"
         d="m -344.67,686.8 h -33.78 c -1.7,0 -3.07,-1.38 -3.07,-3.07 0,-1.69 1.38,-3.07 3.07,-3.07 h 33.78 c 6.03,0 10.75,-4.72 10.75,-10.75 0,-6.03 -4.72,-10.75 -10.75,-10.75 h -33.78 c -1.7,0 -3.07,-1.38 -3.07,-3.07 0,-1.69 1.38,-3.07 3.07,-3.07 h 33.78 c 9.31,0 16.89,7.58 16.89,16.89 0,9.31 -7.58,16.89 -16.89,16.89 z"
         transform="translate(504)"
         id="path72"
         style="fill:#f8d049;fill-opacity:1" />
      <path
         class="st1"
         d="m -378.45,686.8 c -9.31,0 -16.89,-7.58 -16.89,-16.89 0,-9.31 7.58,-16.89 16.89,-16.89 9.31,0 16.89,7.58 16.89,16.89 0,9.31 -7.58,16.89 -16.89,16.89 z m 0,-27.64 c -5.93,0 -10.75,4.82 -10.75,10.75 0,5.93 4.82,10.75 10.75,10.75 5.93,0 10.75,-4.82 10.75,-10.75 0,-5.93 -4.83,-10.75 -10.75,-10.75 z"
         transform="translate(504)"
         id="path73"
         style="fill:#39affe;fill-opacity:1" />
      <path
         class="st2"
         d="m -344.67,726.72 h -33.78 c -9.31,0 -16.89,-7.58 -16.89,-16.89 0,-9.31 7.58,-16.89 16.89,-16.89 h 33.78 c 1.7,0 3.07,1.38 3.07,3.07 0,1.69 -1.38,3.07 -3.07,3.07 h -33.78 c -6.03,0 -10.75,4.72 -10.75,10.75 0,6.03 4.72,10.75 10.75,10.75 h 33.78 c 1.7,0 3.07,1.38 3.07,3.07 0,1.69 -1.38,3.07 -3.07,3.07 z"
         transform="translate(504)"
         id="path74"
         style="fill:#f8d049;fill-opacity:1" />
      <path
         class="st1"
         d="m -344.67,726.72 c -9.31,0 -16.89,-7.58 -16.89,-16.89 0,-9.31 7.58,-16.89 16.89,-16.89 9.31,0 16.89,7.58 16.89,16.89 0,9.31 -7.58,16.89 -16.89,16.89 z m 0,-27.64 c -5.93,0 -10.75,4.82 -10.75,10.75 0,5.93 4.82,10.75 10.75,10.75 5.93,0 10.75,-4.82 10.75,-10.75 0,-5.93 -4.83,-10.75 -10.75,-10.75 z"
         transform="translate(504)"
         id="path75"
         style="fill:#39affe;fill-opacity:1" />
      <path
         class="st2"
         d="m -190.7,682.12 c -0.79,0 -1.57,-0.3 -2.17,-0.9 l -18.26,-18.26 c -1.2,-1.2 -1.2,-3.14 0,-4.34 1.2,-1.2 3.14,-1.2 4.34,0 l 18.26,18.26 c 1.2,1.2 1.2,3.14 0,4.34 -0.6,0.6 -1.38,0.9 -2.17,0.9 z m -45.77,6.34 c -0.79,0 -1.57,-0.3 -2.17,-0.9 l -10.53,-10.53 a 3.058,3.058 0 0 1 -0.47,-3.73 c 1.22,-2.07 2.65,-3.92 4.25,-5.53 8.06,-8.06 20.02,-10.35 30.49,-5.84 a 3.076,3.076 0 0 1 -2.43,5.65 c -8.14,-3.5 -17.45,-1.72 -23.71,4.55 -0.71,0.71 -1.38,1.49 -2.01,2.34 l 8.76,8.76 c 1.2,1.2 1.2,3.14 0,4.34 -0.61,0.59 -1.4,0.89 -2.18,0.89 z m 31.76,31.77 c -0.79,0 -1.58,-0.31 -2.17,-0.9 l -10.57,-10.57 c -1.2,-1.2 -1.2,-3.14 0,-4.34 1.2,-1.2 3.14,-1.2 4.34,0 l 8.8,8.8 c 0.84,-0.62 1.63,-1.29 2.34,-2.01 6.33,-6.33 8.1,-15.69 4.51,-23.85 a 3.08,3.08 0 0 1 1.57,-4.05 c 1.55,-0.68 3.36,0.02 4.05,1.58 4.62,10.5 2.35,22.53 -5.79,30.67 -1.6,1.6 -3.46,3.03 -5.53,4.25 -0.47,0.28 -1.01,0.42 -1.55,0.42 z"
         transform="translate(528)"
         id="path76"
         style="fill:#39affe;fill-opacity:1" />
      <path
         class="st2"
         d="m -223.68,714.28 c -0.8,0 -1.58,-0.31 -2.17,-0.9 l -17.37,-17.37 a 3.075,3.075 0 0 1 -0.68,-3.32 c 0.16,-0.39 16.07,-38.76 59.15,-41.01 0.88,-0.03 1.72,0.28 2.34,0.9 0.62,0.62 0.94,1.47 0.89,2.34 -2.44,42.88 -40.61,58.97 -40.99,59.13 -0.39,0.16 -0.78,0.23 -1.17,0.23 z m -13.7,-21.11 14.36,14.36 c 7.03,-3.46 31.61,-17.71 35.07,-49.44 -31.88,3.32 -46.02,28.03 -49.43,35.08 z"
         transform="translate(528)"
         id="path77"
         style="fill:#f8d049;fill-opacity:1" />
      <circle
         class="st2"
         cx="-211.84"
         cy="681.98999"
         r="6.1399999"
         transform="translate(528)"
         id="circle77"
         style="fill:#39affe;fill-opacity:1" />
      <path
         class="st2"
         d="m -251.41,709.15 a 8.733,8.733 0 0 1 12.35,12.35 c -3.41,3.41 -15.77,3.48 -15.77,3.48 0,0 0,-12.42 3.42,-15.83 z"
         transform="translate(528)"
         id="path78"
         style="fill:#f8d049;fill-opacity:1" />
      <path
         class="st2"
         d="m -57.9,723.65 h -46.07 c -5.08,0 -9.21,-4.13 -9.21,-9.21 v -36.85 c 0,-5.08 4.13,-9.21 9.21,-9.21 h 3.07 c 1.7,0 3.07,1.38 3.07,3.07 0,1.69 -1.38,3.07 -3.07,3.07 h -3.07 c -1.69,0 -3.07,1.38 -3.07,3.07 v 36.85 c 0,1.69 1.38,3.07 3.07,3.07 h 46.07 c 1.69,0 3.07,-1.38 3.07,-3.07 v -12.28 c 0,-1.7 1.38,-3.07 3.07,-3.07 1.69,0 3.07,1.38 3.07,3.07 v 12.28 c 0.01,5.08 -4.13,9.21 -9.21,9.21 z"
         transform="translate(552)"
         id="path79"
         style="fill:#f8d049;fill-opacity:1" />
      <path
         class="st1"
         d="m -97.82,705.22 a 3.067,3.067 0 0 1 -3.07,-3.07 c 0,-27.98 14.96,-33.1 27.64,-33.71 v -9.28 c 0,-1.21 0.71,-2.3 1.8,-2.8 1.09,-0.5 2.38,-0.31 3.29,0.49 l 24.57,21.5 c 0.67,0.58 1.05,1.43 1.05,2.31 0,0.88 -0.38,1.73 -1.05,2.31 l -24.57,21.5 c -0.91,0.79 -2.19,0.98 -3.29,0.49 -1.1,-0.5 -1.8,-1.59 -1.8,-2.8 V 693 c -13.16,0.55 -17.39,4.78 -22.12,11.01 -0.6,0.78 -1.51,1.21 -2.45,1.21 z m 27.64,-18.42 c 1.7,0 3.07,1.38 3.07,3.07 v 5.52 l 16.83,-14.73 -16.83,-14.73 v 5.52 c 0,1.7 -1.38,3.07 -3.07,3.07 -16.72,0 -22.54,7.43 -24.09,19.25 5.36,-4.56 12.21,-6.97 24.09,-6.97 z"
         transform="translate(552)"
         id="path80"
         style="fill:#39affe;fill-opacity:1" />
      <path
         class="st2"
         d="M 85.54,726.72 H 85.35 C 70.12,725.89 55.79,719.6 44.92,708.99 A 62.647,62.647 0 0 1 27.14,668.6 c -0.09,-2.84 1.72,-5.27 4.41,-5.96 l 12.38,-3.27 c 2.8,-0.74 5.77,0.71 6.92,3.37 l 6.75,15.77 c 0.93,2.2 0.46,4.72 -1.21,6.43 l -4.77,4.84 c 1.65,2.46 3.51,4.77 5.56,6.91 2.13,2.05 4.45,3.92 6.91,5.57 l 4.83,-4.76 a 5.878,5.878 0 0 1 6.47,-1.22 l 15.75,6.75 c 2.67,1.15 4.11,4.12 3.37,6.92 l -3.27,12.39 a 5.86,5.86 0 0 1 -5.7,4.38 z m -0.25,-5.95 z m -52,-52.24 c 0.79,13.53 6.46,26.37 15.98,36.12 a 56.413,56.413 0 0 0 36.07,15.92 l 3.17,-12 -15.39,-6.6 -6.46,6.36 c -1,0.99 -2.54,1.17 -3.74,0.44 -3.62,-2.18 -7,-4.78 -10.04,-7.72 l -0.08,-0.08 a 57.289,57.289 0 0 1 -7.71,-10.03 c -0.73,-1.2 -0.55,-2.75 0.44,-3.75 l 6.35,-6.45 -6.6,-15.4 z m 37.79,31.14 z M 33.11,668.58 Z"
         transform="translate(576)"
         id="path81"
         style="fill:#f8d049;fill-opacity:1" />
      <path
         class="st1"
         d="m 97.78,686.8 a 3.07,3.07 0 0 1 -3.07,-3.07 c 0,-13.55 -11.02,-24.57 -24.57,-24.57 -1.7,0 -3.07,-1.38 -3.07,-3.07 0,-1.69 1.38,-3.07 3.07,-3.07 16.93,0 30.71,13.78 30.71,30.71 0,1.69 -1.38,3.07 -3.07,3.07 z"
         transform="translate(576)"
         id="path82"
         style="fill:#39affe;fill-opacity:1" />
      <path
         class="st1"
         d="m 85.49,686.8 a 3.07,3.07 0 0 1 -3.07,-3.07 c 0,-6.77 -5.51,-12.28 -12.28,-12.28 -1.7,0 -3.07,-1.38 -3.07,-3.07 0,-1.69 1.38,-3.07 3.07,-3.07 10.16,0 18.43,8.27 18.43,18.43 a 3.084,3.084 0 0 1 -3.08,3.06 z"
         transform="translate(576)"
         id="path83"
         style="fill:#39affe;fill-opacity:1" />
      <path
         class="st1"
         d="M 227.34,720.58 H 199.7 c -8.47,0 -15.36,-6.89 -15.36,-15.36 v -12.28 c 0,-8.47 6.89,-15.36 15.36,-15.36 h 12.28 c 1.7,0 3.07,1.38 3.07,3.07 0,1.69 -1.38,3.07 -3.07,3.07 H 199.7 c -5.08,0 -9.21,4.13 -9.21,9.21 v 12.28 c 0,5.08 4.13,9.21 9.21,9.21 h 27.64 c 5.08,0 9.21,-4.13 9.21,-9.21 v -12.28 c 0,-2.64 -1.14,-5.16 -3.12,-6.91 a 3.069,3.069 0 0 1 4.06,-4.6 15.35,15.35 0 0 1 5.2,11.52 v 12.28 c 0.01,8.47 -6.88,15.36 -15.35,15.36 z"
         transform="translate(600)"
         id="path84"
         style="fill:#39affe;fill-opacity:1" />
      <path
         class="st2"
         d="M 211.99,702.15 H 199.7 c -1.7,0 -3.07,-1.38 -3.07,-3.07 0,-1.69 1.38,-3.07 3.07,-3.07 h 12.28 c 5.08,0 9.21,-4.13 9.21,-9.21 v -12.29 c 0,-5.08 -4.13,-9.21 -9.21,-9.21 h -27.64 c -5.08,0 -9.21,4.13 -9.21,9.21 v 12.29 c 0,2.64 1.14,5.16 3.12,6.91 a 3.069,3.069 0 0 1 -4.06,4.6 15.35,15.35 0 0 1 -5.2,-11.52 V 674.5 c 0,-8.47 6.89,-15.36 15.36,-15.36 h 27.64 c 8.47,0 15.36,6.89 15.36,15.36 v 12.29 c -0.01,8.47 -6.9,15.36 -15.36,15.36 z"
         transform="translate(600)"
         id="path85"
         style="fill:#f8d049;fill-opacity:1" />
      <path
         class="st2"
         d="m 366.83,725.01 h -31.42 c -1.7,0 -3.07,-1.38 -3.07,-3.07 0,-1.69 1.38,-3.07 3.07,-3.07 h 31.42 c 1.36,0 2.54,-0.87 2.94,-2.17 l 8.5,-27.64 c 0.5,-1.62 -0.41,-3.34 -2.03,-3.84 -0.29,-0.09 -0.6,-0.14 -0.9,-0.14 h -21.49 a 3.07,3.07 0 0 1 -3.07,-3.07 v -12.28 c 0,-4.97 -2.01,-7.87 -6.14,-8.87 v 11.94 c 0,0.72 -0.25,1.41 -0.71,1.97 l -15.36,18.43 c -1.09,1.3 -3.02,1.48 -4.33,0.39 -1.31,-1.09 -1.48,-3.02 -0.39,-4.33 l 14.64,-17.57 v -10.81 c 0,-0.48 0.06,-0.95 0.17,-1.41 0.77,-3.3 4.09,-5.36 7.4,-4.58 6.91,1.67 10.86,7.08 10.86,14.84 v 9.21 h 18.43 c 0.92,0 1.83,0.14 2.7,0.41 4.86,1.5 7.59,6.66 6.1,11.52 l -8.5,27.64 a 9.193,9.193 0 0 1 -8.82,6.5 z"
         transform="translate(624)"
         id="path86"
         style="fill:#f8d049;fill-opacity:1" />
      <path
         class="st1"
         d="m 326.2,725.01 h -12.28 a 3.07,3.07 0 0 1 -3.07,-3.07 v -36.85 c 0,-1.7 1.38,-3.07 3.07,-3.07 h 12.28 c 1.7,0 3.07,1.38 3.07,3.07 v 36.85 c 0,1.7 -1.37,3.07 -3.07,3.07 z m -9.21,-6.14 h 6.14 v -30.71 h -6.14 z"
         transform="translate(624)"
         id="path87"
         style="fill:#39affe;fill-opacity:1" />
      <path
         class="st2"
         d="m 489.54,722.86 c -0.81,0 -1.6,-0.32 -2.17,-0.9 l -28.38,-28.39 c -8.38,-8.38 -8.38,-22.02 0,-30.4 8.38,-8.38 22.02,-8.38 30.4,0 0.05,0.05 0.1,0.1 0.15,0.16 0.05,-0.05 0.1,-0.1 0.15,-0.16 8.38,-8.38 22.02,-8.38 30.4,0 8.38,8.38 8.38,22.02 0,30.4 l -28.39,28.39 c -0.56,0.58 -1.34,0.9 -2.16,0.9 z m -15.35,-59.83 c -3.93,0 -7.86,1.5 -10.86,4.49 -5.99,5.99 -5.99,15.73 0,21.71 l 26.21,26.21 26.21,-26.21 c 5.99,-5.99 5.99,-15.73 0,-21.71 -5.99,-5.99 -15.73,-5.99 -21.71,0 -0.71,0.71 -1.37,1.51 -1.94,2.37 -0.57,0.86 -1.53,1.37 -2.56,1.37 -1.03,0 -1.99,-0.52 -2.56,-1.37 a 15.39,15.39 0 0 0 -1.94,-2.38 c -2.98,-2.99 -6.91,-4.48 -10.85,-4.48 z"
         transform="translate(648)"
         id="path88"
         style="fill:#f8d049;fill-opacity:1" />
      <path
         class="st2"
         d="m -347.72,900.88 h -39.92 c -5.08,0 -9.21,-4.13 -9.21,-9.21 v -39.92 c 0,-5.08 4.13,-9.21 9.21,-9.21 h 15.36 c 1.7,0 3.07,1.38 3.07,3.07 0,1.69 -1.38,3.07 -3.07,3.07 h -15.36 c -1.69,0 -3.07,1.38 -3.07,3.07 v 39.92 c 0,1.69 1.38,3.07 3.07,3.07 h 39.92 c 1.69,0 3.07,-1.38 3.07,-3.07 v -15.36 c 0,-1.7 1.38,-3.07 3.07,-3.07 1.69,0 3.07,1.38 3.07,3.07 v 15.36 c 0,5.08 -4.13,9.21 -9.21,9.21 z"
         transform="translate(672)"
         id="path89"
         style="fill:#f7dd44;fill-opacity:1" />
      <path
         class="st1"
         d="m -341.58,857.89 c -0.79,0 -1.57,-0.3 -2.17,-0.9 l -9.21,-9.21 c -1.2,-1.2 -1.2,-3.14 0,-4.34 1.2,-1.2 3.14,-1.2 4.34,0 l 9.21,9.21 c 1.2,1.2 1.2,3.14 0,4.34 -0.6,0.6 -1.38,0.9 -2.17,0.9 z"
         transform="translate(672)"
         id="path90"
         style="fill:#39affe;fill-opacity:1" />
      <path
         class="st1"
         d="m -378.43,885.53 c -0.8,0 -1.59,-0.32 -2.17,-0.9 a 3.085,3.085 0 0 1 -0.81,-2.92 l 3.07,-12.28 c 0.14,-0.54 0.41,-1.03 0.81,-1.43 l 31.61,-31.61 c 1.16,-1.16 2.7,-1.8 4.34,-1.8 1.64,0 3.18,0.64 4.34,1.8 l 4.87,4.87 c 1.16,1.16 1.8,2.7 1.8,4.34 0,1.64 -0.64,3.18 -1.8,4.34 l -31.61,31.61 c -0.39,0.39 -0.89,0.67 -1.43,0.81 l -12.28,3.07 c -0.24,0.07 -0.49,0.1 -0.74,0.1 z m 12.28,-6.14 z m -6.44,-7.65 -1.62,6.49 6.49,-1.62 31.01,-31.01 -4.87,-4.87 z"
         transform="translate(672)"
         id="path91"
         style="fill:#37b0ff;fill-opacity:1" />
      <path
         class="st1"
         d="m -221.86,873.88 c -0.74,0 -1.48,-0.27 -2.07,-0.8 l -31.9,-29 a 3.079,3.079 0 0 1 -0.21,-4.34 3.07,3.07 0 0 1 4.34,-0.21 l 29.83,27.12 29.83,-27.12 a 3.07,3.07 0 0 1 4.34,0.21 3.07,3.07 0 0 1 -0.21,4.34 l -31.89,28.99 c -0.58,0.54 -1.32,0.81 -2.06,0.81 z"
         transform="translate(696)"
         id="path92"
         style="fill:#37b0ff;fill-opacity:1" />
      <path
         class="st2"
         d="m -194.22,898.45 h -55.28 c -5.08,0 -9.21,-4.13 -9.21,-9.21 v -43 c 0,-5.08 4.13,-9.21 9.21,-9.21 h 55.28 c 5.08,0 9.21,4.13 9.21,9.21 v 43 c 0,5.07 -4.13,9.21 -9.21,9.21 z m -55.28,-55.28 c -1.69,0 -3.07,1.38 -3.07,3.07 v 43 c 0,1.69 1.38,3.07 3.07,3.07 h 55.28 c 1.69,0 3.07,-1.38 3.07,-3.07 v -43 c 0,-1.69 -1.38,-3.07 -3.07,-3.07 z"
         id="path93"
         transform="translate(696)"
         style="fill:#f7dd44;fill-opacity:1" />
      <path
         class="st2"
         d="m -80.01,895.38 c -17.54,0 -30.42,-15.55 -35.15,-22.24 l -0.01,-0.01 a 9.433,9.433 0 0 1 0,-10.79 c 4.73,-6.7 17.61,-22.25 35.15,-22.25 17.54,0 30.42,15.55 35.15,22.24 a 9.466,9.466 0 0 1 0.01,10.8 c -4.72,6.7 -17.6,22.25 -35.15,22.25 z m -30.12,-25.78 c 4.17,5.91 15.46,19.63 30.12,19.63 14.67,0 25.96,-13.73 30.13,-19.64 0.78,-1.11 0.78,-2.61 -0.01,-3.73 -4.16,-5.89 -15.45,-19.62 -30.12,-19.62 -14.67,0 -25.96,13.73 -30.13,19.64 -0.77,1.1 -0.77,2.6 0.01,3.72 z"
         transform="translate(720)"
         id="path94"
         style="fill:#f7dd44;fill-opacity:1" />
      <path
         class="st1"
         d="m -80.01,883.09 c -8.47,0 -15.36,-6.89 -15.36,-15.36 0,-8.47 6.89,-15.36 15.36,-15.36 8.47,0 15.36,6.89 15.36,15.36 0,8.47 -6.89,15.36 -15.36,15.36 z m 0,-24.57 c -5.08,0 -9.21,4.13 -9.21,9.21 0,5.08 4.13,9.21 9.21,9.21 5.08,0 9.21,-4.13 9.21,-9.21 0.01,-5.07 -4.13,-9.21 -9.21,-9.21 z"
         transform="translate(720)"
         id="path95"
         style="fill:#37b0ff;fill-opacity:1" />
      <path
         class="st2"
         d="m 60.31,901.52 c -18.63,0 -33.78,-15.15 -33.78,-33.78 0,-18.63 15.15,-33.78 33.78,-33.78 6.5,0 12.52,1.71 17.91,5.07 1.44,0.9 1.88,2.79 0.98,4.23 a 3.067,3.067 0 0 1 -4.23,0.98 c -4.39,-2.75 -9.32,-4.14 -14.65,-4.14 -15.24,0 -27.64,12.4 -27.64,27.64 0,15.24 12.4,27.64 27.64,27.64 15.24,0 27.64,-12.4 27.64,-27.64 0,-2.57 -0.29,-5.07 -0.83,-7.24 a 3.0668632,3.0668632 0 1 1 5.95,-1.49 c 0.66,2.65 1.01,5.67 1.01,8.73 0,18.63 -15.15,33.78 -33.78,33.78 z"
         transform="translate(744)"
         id="path96"
         style="fill:#f7dd44;fill-opacity:1" />
      <path
         class="st1"
         d="m 60.31,876.95 c -0.79,0 -1.57,-0.3 -2.17,-0.9 L 45.86,863.77 c -1.2,-1.2 -1.2,-3.14 0,-4.34 1.2,-1.2 3.14,-1.2 4.34,0 l 10.11,10.11 31.61,-31.61 c 1.2,-1.2 3.14,-1.2 4.34,0 1.2,1.2 1.2,3.14 0,4.34 l -33.78,33.78 c -0.6,0.6 -1.39,0.9 -2.17,0.9 z"
         transform="translate(744)"
         id="path97"
         style="fill:#39affe;fill-opacity:1" />
      <path
         class="st1"
         d="m 237.48,880.02 a 3.07,3.07 0 0 1 -3.07,-3.07 v -18.43 c 0,-1.7 1.38,-3.07 3.07,-3.07 1.69,0 3.07,1.38 3.07,3.07 v 18.43 c 0,1.7 -1.38,3.07 -3.07,3.07 z"
         transform="translate(768)"
         id="path98"
         style="fill:#39affe;fill-opacity:1" />
      <path
         class="st2"
         d="m 222.12,892.31 h -46.07 c -5.08,0 -9.21,-4.13 -9.21,-9.21 v -30.71 c 0,-5.08 4.13,-9.21 9.21,-9.21 h 46.07 c 5.08,0 9.21,4.13 9.21,9.21 v 30.71 c 0.01,5.07 -4.13,9.21 -9.21,9.21 z m -46.06,-43 c -1.69,0 -3.07,1.38 -3.07,3.07 v 30.71 c 0,1.69 1.38,3.07 3.07,3.07 h 46.07 c 1.69,0 3.07,-1.38 3.07,-3.07 v -30.71 c 0,-1.69 -1.38,-3.07 -3.07,-3.07 z"
         transform="translate(768)"
         id="path99"
         style="fill:#f8d049;fill-opacity:1" />
      <path
         class="st1"
         d="m 197.55,876.95 c -0.55,0 -1.09,-0.15 -1.58,-0.44 l -15.36,-9.21 a 3.064,3.064 0 0 1 -1.05,-4.21 3.055,3.055 0 0 1 4.21,-1.05 l 10.7,6.42 v -6.86 c 0,-1.11 0.6,-2.13 1.56,-2.67 0.96,-0.54 2.14,-0.53 3.09,0.04 l 15.36,9.21 c 1.45,0.87 1.93,2.76 1.05,4.21 a 3.055,3.055 0 0 1 -4.21,1.05 l -10.7,-6.42 v 6.86 c 0,1.11 -0.6,2.13 -1.56,2.67 -0.46,0.27 -0.98,0.4 -1.51,0.4 z"
         transform="translate(768)"
         id="path100"
         style="fill:#39affe;fill-opacity:1" />
      <path
         class="st2"
         d="m 361.33,904.59 h -31.56 c -4.81,0 -8.85,-3.76 -9.19,-8.56 l -2.66,-37.29 a 3.068,3.068 0 0 1 2.84,-3.28 c 1.69,-0.11 3.16,1.15 3.28,2.84 l 2.66,37.29 c 0.11,1.6 1.46,2.85 3.06,2.85 h 31.56 c 1.6,0 2.95,-1.25 3.06,-2.85 l 2.66,-37.29 a 3.068,3.068 0 0 1 3.28,-2.84 c 1.69,0.12 2.97,1.59 2.84,3.28 l -2.66,37.29 c -0.32,4.8 -4.36,8.56 -9.17,8.56 z"
         transform="translate(792)"
         id="path101"
         style="fill:#f8d049;fill-opacity:1" />
      <path
         class="st1"
         d="m 379.33,849.31 h -67.56 c -1.7,0 -3.07,-1.38 -3.07,-3.07 0,-1.69 1.38,-3.07 3.07,-3.07 h 67.56 a 3.07,3.07 0 0 1 0,6.14 z"
         transform="translate(792)"
         id="path102"
         style="fill:#39affe;fill-opacity:1" />
      <path
         class="st1"
         d="m 357.83,849.31 a 3.07,3.07 0 0 1 -3.07,-3.07 v -9.21 h -18.43 v 9.21 c 0,1.7 -1.38,3.07 -3.07,3.07 -1.69,0 -3.07,-1.38 -3.07,-3.07 v -12.28 c 0,-1.7 1.38,-3.07 3.07,-3.07 h 24.57 c 1.7,0 3.07,1.38 3.07,3.07 v 12.28 c 0,1.7 -1.37,3.07 -3.07,3.07 z"
         transform="translate(792)"
         id="path103"
         style="fill:#39affe;fill-opacity:1" />
      <path
         class="st1"
         d="m 142.44,903.06 a 3.07,3.07 0 0 1 -3.07,-3.07 V 887.7 c 0,-1.7 1.38,-3.07 3.07,-3.07 1.69,0 3.07,1.38 3.07,3.07 v 12.29 c 0,1.69 -1.38,3.07 -3.07,3.07 z"
         id="path104"
         style="fill:#39affe;fill-opacity:1" />
      <path
         class="st1"
         d="m 157.79,903.06 h -30.71 c -1.7,0 -3.07,-1.38 -3.07,-3.07 0,-1.69 1.38,-3.07 3.07,-3.07 h 30.71 a 3.07,3.07 0 0 1 0,6.14 z"
         id="path105"
         style="fill:#37b0ff;fill-opacity:1" />
      <path
         class="st2"
         d="M 170.08,890.77 H 114.8 a 3.074,3.074 0 0 1 -2.46,-4.92 l 12.44,-16.59 h -3.84 c -1.15,0 -2.2,-0.64 -2.72,-1.65 -0.53,-1.02 -0.45,-2.24 0.21,-3.18 l 21.5,-30.71 c 0.57,-0.82 1.51,-1.31 2.52,-1.31 1.01,0 1.94,0.49 2.52,1.31 l 21.5,30.71 c 0.66,0.94 0.74,2.16 0.21,3.18 a 3.061,3.061 0 0 1 -2.72,1.65 h -3.84 l 12.44,16.59 c 0.7,0.93 0.81,2.18 0.29,3.22 a 3.116,3.116 0 0 1 -2.77,1.7 z m -49.14,-6.14 h 43 L 151.5,868.04 a 3.074,3.074 0 0 1 2.46,-4.92 h 4.08 l -15.6,-22.29 -15.6,22.29 h 4.08 a 3.074,3.074 0 0 1 2.46,4.92 z"
         id="path106"
         style="display:inline;fill:#f6e441;fill-opacity:1" />
    </g>
  </g>
</svg>
