<?xml version="1.0" encoding="UTF-8" standalone="no"?>
<!-- Created with Inkscape (http://www.inkscape.org/) -->

<svg
   width="1200"
   height="200"
   viewBox="0 0 317.49999 52.916667"
   version="1.1"
   id="svg1"
   inkscape:version="1.3 (0e150ed6c4, 2023-07-21)"
   sodipodi:docname="cac-formula.svg"
   xml:space="preserve"
   xmlns:inkscape="http://www.inkscape.org/namespaces/inkscape"
   xmlns:sodipodi="http://sodipodi.sourceforge.net/DTD/sodipodi-0.dtd"
   xmlns="http://www.w3.org/2000/svg"
   xmlns:svg="http://www.w3.org/2000/svg"><sodipodi:namedview
     id="namedview1"
     pagecolor="#505050"
     bordercolor="#eeeeee"
     borderopacity="1"
     inkscape:showpageshadow="0"
     inkscape:pageopacity="0"
     inkscape:pagecheckerboard="0"
     inkscape:deskcolor="#505050"
     inkscape:document-units="mm"
     inkscape:zoom="1.7"
     inkscape:cx="627.35294"
     inkscape:cy="99.705882"
     inkscape:window-width="2560"
     inkscape:window-height="965"
     inkscape:window-x="-8"
     inkscape:window-y="34"
     inkscape:window-maximized="1"
     inkscape:current-layer="g8" /><defs
     id="defs1" /><g
     inkscape:label="Layer 1"
     inkscape:groupmode="layer"
     id="layer1"><rect
       style="fill:#ffdd33;fill-rule:evenodd;stroke-width:0;stroke-opacity:0.996094"
       id="rect1"
       width="317.5"
       height="52.916668"
       x="-1.4210855e-14"
       y="-6.357829e-07"
       inkscape:label="bg"
       sodipodi:insensitive="true" /><g
       id="g6"
       transform="translate(-1.1900222)"
       sodipodi:insensitive="true"><path
         d="m 21.688201,35.057291 q -2.161617,0 -3.871907,-0.855145 -1.686536,-0.878899 -2.66045,-2.731713 -0.950161,-1.87657 -0.950161,-4.89333 v -0.475081 q 0,-2.185372 0.570096,-3.729382 0.570097,-1.567767 1.591521,-2.565435 1.045175,-0.997669 2.399155,-1.47275 1.353979,-0.47508 2.921746,-0.47508 1.401487,0 2.612943,0.35631 1.235209,0.332557 2.185371,1.021423 0.95016,0.688868 1.520258,1.781552 0.59385,1.092686 0.688866,2.565435 H 24.99001 q -0.261295,-1.401487 -1.140194,-2.066601 -0.878897,-0.665113 -2.161615,-0.665113 -0.99767,0 -1.852814,0.498836 -0.855144,0.47508 -1.401488,1.615273 -0.522589,1.140195 -0.522589,3.135532 v 0.475081 q 0,1.567766 0.332557,2.636697 0.332555,1.045178 0.878899,1.686535 0.546343,0.617604 1.211456,0.902653 0.665112,0.261294 1.353979,0.261294 1.353979,0 2.232879,-0.688866 0.878898,-0.71262 1.06893,-2.042845 h 3.705629 q -0.118773,1.544011 -0.688866,2.66045 -0.570098,1.092685 -1.496506,1.781552 -0.926405,0.665113 -2.161615,0.973915 -1.235209,0.308803 -2.660451,0.308803 z m 7.78785,-0.285048 6.176047,-16.62782 h 3.53935 l 6.199802,16.62782 h -3.753137 l -1.282718,-3.396827 h -6.152292 l -1.258962,3.396827 z m 5.819738,-6.342327 h 3.990675 l -1.995339,-5.772227 z m 18.572186,6.627375 q -2.161615,0 -3.871906,-0.855145 -1.686536,-0.878899 -2.660452,-2.731713 -0.95016,-1.87657 -0.95016,-4.89333 v -0.475081 q 0,-2.185372 0.570097,-3.729382 0.570095,-1.567767 1.591519,-2.565435 1.045178,-0.997669 2.399158,-1.47275 1.353978,-0.47508 2.921744,-0.47508 1.401488,0 2.612943,0.35631 1.235209,0.332557 2.185369,1.021423 0.950162,0.688868 1.520259,1.781552 0.593852,1.092686 0.688867,2.565435 h -3.705627 q -0.261295,-1.401487 -1.140194,-2.066601 -0.8789,-0.665113 -2.161617,-0.665113 -0.997668,0 -1.852815,0.498836 -0.855144,0.47508 -1.401487,1.615273 -0.522588,1.140195 -0.522588,3.135532 v 0.475081 q 0,1.567766 0.332557,2.636697 0.332556,1.045178 0.878897,1.686535 0.546344,0.617604 1.211456,0.902653 0.665114,0.261294 1.35398,0.261294 1.35398,0 2.232879,-0.688866 0.8789,-0.71262 1.068932,-2.042845 h 3.705627 q -0.118761,1.544011 -0.688867,2.66045 -0.570097,1.092685 -1.496504,1.781552 -0.926407,0.665113 -2.161617,0.973915 -1.235208,0.308804 -2.66045,0.308803 z"
         id="text1"
         style="font-weight:600;font-size:13.7269px;font-family:'Golos Text';-inkscape-font-specification:'Golos Text, Semi-Bold';letter-spacing:0.0529167px;word-spacing:0.00461608px;fill:#2e2e38;fill-rule:evenodd;stroke-width:0;stroke-opacity:0.996094"
         aria-label="CAC" /><path
         d="m 76.185471,29.633342 v -2.163193 h 8.548099 v 2.163193 z m 0,-4.186825 v -2.163192 h 8.548099 v 2.163192 z"
         id="text2"
         style="font-weight:600;font-size:17.4451px;font-family:'Golos Text';-inkscape-font-specification:'Golos Text, Semi-Bold';letter-spacing:0.0672501px;word-spacing:0.00586642px;fill:#2e2e38;fill-rule:evenodd;stroke-width:0;stroke-opacity:0.996094"
         aria-label="=" /><g
         id="g4"
         transform="matrix(0.84530899,0,0,0.84530899,40.709359,4.0928657)"><g
           id="text3"
           style="font-weight:600;font-size:13.7269px;font-family:'Golos Text';-inkscape-font-specification:'Golos Text, Semi-Bold';letter-spacing:0.0529167px;word-spacing:0.00461608px;fill:#2e2e38;fill-rule:evenodd;stroke-width:0;stroke-opacity:0.996094"
           aria-label="Total Sales and Marketing Expenses&#10;Number of New Customers Acquired"><path
             d="m 74.433495,21.578421 v -7.906695 h -3.088553 v -1.702135 h 8.222413 v 1.702135 h -3.088552 v 7.906695 z m 8.481233,0.164722 q -0.988337,0 -1.825678,-0.39808 Q 80.265436,20.933256 79.771268,20.109642 79.2771,19.272301 79.2771,18.009427 v -0.274538 q 0,-1.194241 0.494168,-1.990401 0.494168,-0.79616 1.317782,-1.19424 0.837341,-0.411807 1.825678,-0.411807 0.988337,0 1.811951,0.411807 0.837341,0.39808 1.331509,1.19424 0.494169,0.79616 0.494169,1.990401 v 0.274538 q 0,1.235421 -0.494169,2.072762 -0.494168,0.823614 -1.331509,1.249147 -0.823614,0.411807 -1.811951,0.411807 z m 0,-1.537412 q 0.521622,0 0.919702,-0.233358 0.411807,-0.247084 0.645165,-0.741252 0.233357,-0.494169 0.233357,-1.221694 v -0.274538 q 0,-0.672618 -0.233357,-1.125606 -0.233358,-0.452988 -0.645165,-0.686345 -0.39808,-0.247084 -0.919702,-0.247084 -0.521622,0 -0.933429,0.247084 -0.39808,0.233357 -0.631438,0.686345 -0.233357,0.452988 -0.233357,1.125606 v 0.274538 q 0,0.741252 0.233357,1.235421 0.233358,0.480441 0.631438,0.727525 0.411807,0.233358 0.933429,0.233358 z m 7.94589,1.455051 q -0.851068,0 -1.400144,-0.233357 -0.549076,-0.247084 -0.809887,-0.782434 -0.247085,-0.535349 -0.247085,-1.386416 v -3.445452 h -0.974609 v -1.509959 h 0.974609 v -1.647228 h 1.798224 v 1.647228 h 1.757044 v 1.509959 h -1.757044 v 3.157187 q 0,0.61771 0.219631,0.892248 0.233357,0.260811 0.851068,0.260811 0.411807,0 0.823614,-0.04118 v 1.509959 q -0.260812,0.02745 -0.549076,0.04118 -0.274538,0.02745 -0.686345,0.02745 z m 4.774964,0.08236 q -0.782433,0 -1.331509,-0.288264 -0.549076,-0.301992 -0.837341,-0.823614 -0.288265,-0.521623 -0.288265,-1.180514 0,-1.098152 0.645164,-1.647228 0.658891,-0.549076 1.962947,-0.549076 h 2.16885 v -0.343172 q 0,-0.713799 -0.329446,-1.002064 -0.315718,-0.288265 -1.01579,-0.288265 -0.617711,0 -0.892249,0.21963 -0.274538,0.205904 -0.315718,0.521623 h -1.811951 q 0.04118,-0.631438 0.39808,-1.125606 0.370626,-0.507896 1.043244,-0.79616 0.686345,-0.301992 1.647228,-0.301992 0.933429,0 1.619774,0.274538 0.700072,0.274538 1.084426,0.892248 0.384353,0.603984 0.384353,1.633501 v 2.786561 q 0,0.57653 0.01373,1.015791 0.02745,0.425534 0.08236,0.837341 H 98.17506 q -0.05491,-0.301992 -0.06863,-0.452988 0,-0.164723 0,-0.480442 -0.288265,0.439261 -0.905976,0.768707 -0.61771,0.329445 -1.564866,0.329445 z M 96.198385,20.343 q 0.439261,0 0.837341,-0.150996 0.411807,-0.164723 0.658891,-0.494169 0.260811,-0.343172 0.260811,-0.864794 V 18.489868 H 96.12975 q -0.521622,0 -0.823614,0.247084 -0.288265,0.233358 -0.288265,0.645165 0,0.43926 0.301992,0.700072 0.301992,0.260811 0.878522,0.260811 z m 7.671355,1.317782 q -0.83734,0 -1.37269,-0.21963 -0.52162,-0.233358 -0.7687,-0.768707 -0.24709,-0.549076 -0.24709,-1.523686 v -7.179168 h 1.79823 v 6.959538 q 0,0.700072 0.19217,0.947156 0.20591,0.247084 0.79616,0.247084 0.151,0 0.26081,0 0.10982,-0.01373 0.21963,-0.02745 v 1.509959 q -0.0686,0.02745 -0.23335,0.04118 -0.16473,0.01373 -0.34318,0.01373 -0.17845,0 -0.30199,0 z m 9.30747,0.08236 q -1.2766,0 -2.12767,-0.356899 -0.85107,-0.356899 -1.30405,-0.988337 -0.43926,-0.645164 -0.48044,-1.496232 h 2.05903 q 0.10982,0.535349 0.49417,0.823614 0.39808,0.288265 1.35896,0.288265 0.98834,0 1.41387,-0.260811 0.43926,-0.274538 0.43926,-0.768706 0,-0.411807 -0.26081,-0.672619 -0.24708,-0.260811 -0.7687,-0.43926 -0.52163,-0.192177 -1.35897,-0.3569 -0.97461,-0.192176 -1.67468,-0.535349 -0.70007,-0.343172 -1.0707,-0.933429 -0.3569,-0.590257 -0.3569,-1.496232 0,-0.837341 0.43926,-1.441325 0.45299,-0.61771 1.26288,-0.960883 0.82361,-0.343172 1.93549,-0.343172 1.20797,0 1.97668,0.343172 0.78243,0.329446 1.18051,0.933429 0.41181,0.603984 0.48044,1.427598 h -2.04531 q -0.10981,-0.494168 -0.45299,-0.727526 -0.34317,-0.247084 -1.13933,-0.247084 -0.80989,0 -1.19424,0.260811 -0.38435,0.260811 -0.38435,0.700072 0,0.535349 0.52162,0.837341 0.53535,0.301992 1.67468,0.521622 0.78244,0.150996 1.38642,0.370627 0.61771,0.21963 1.04324,0.576529 0.42554,0.343173 0.64517,0.837341 0.21963,0.494169 0.21963,1.194241 0,0.878521 -0.46672,1.537412 -0.45298,0.658892 -1.33151,1.015791 -0.86479,0.356899 -2.11394,0.356899 z m 7.57527,0 q -0.78244,0 -1.33151,-0.288264 -0.54908,-0.301992 -0.83734,-0.823614 -0.28827,-0.521623 -0.28827,-1.180514 0,-1.098152 0.64516,-1.647228 0.6589,-0.549076 1.96295,-0.549076 h 2.16885 v -0.343172 q 0,-0.713799 -0.32944,-1.002064 -0.31572,-0.288265 -1.01579,-0.288265 -0.61771,0 -0.89225,0.21963 -0.27454,0.205904 -0.31572,0.521623 h -1.81195 q 0.0412,-0.631438 0.39808,-1.125606 0.37062,-0.507896 1.04324,-0.79616 0.68635,-0.301992 1.64723,-0.301992 0.93343,0 1.61977,0.274538 0.70008,0.274538 1.08443,0.892248 0.38435,0.603984 0.38435,1.633501 v 2.786561 q 0,0.57653 0.0137,1.015791 0.0275,0.425534 0.0824,0.837341 h -1.68841 q -0.0549,-0.301992 -0.0686,-0.452988 0,-0.164723 0,-0.480442 -0.28827,0.439261 -0.90598,0.768707 -0.61771,0.329445 -1.56486,0.329445 z m 0.5628,-1.400143 q 0.43926,0 0.83734,-0.150996 0.41181,-0.164723 0.65889,-0.494169 0.26081,-0.343172 0.26081,-0.864794 v -0.343173 h -1.82568 q -0.52162,0 -0.82361,0.247084 -0.28826,0.233358 -0.28826,0.645165 0,0.43926 0.30199,0.700072 0.30199,0.260811 0.87852,0.260811 z m 7.67136,1.317782 q -0.83734,0 -1.37269,-0.21963 -0.52163,-0.233358 -0.76871,-0.768707 -0.24708,-0.549076 -0.24708,-1.523686 V 11.96959 h 1.79822 v 6.959538 q 0,0.700072 0.19218,0.947156 0.2059,0.247084 0.79616,0.247084 0.15099,0 0.26081,0 0.10981,-0.01373 0.21963,-0.02745 v 1.509959 q -0.0686,0.02745 -0.23336,0.04118 -0.16472,0.01373 -0.34317,0.01373 -0.17845,0 -0.30199,0 z m 5.26913,0.08236 q -0.98833,0 -1.82567,-0.39808 -0.82362,-0.411807 -1.31779,-1.235421 -0.49417,-0.837341 -0.49417,-2.100215 v -0.274538 q 0,-1.207968 0.46672,-2.004128 0.48044,-0.79616 1.2766,-1.19424 0.79616,-0.39808 1.75704,-0.39808 1.71587,0 2.60811,0.905975 0.89225,0.905976 0.89225,2.621838 v 0.768707 h -5.14758 q 0.0274,0.645164 0.27453,1.056971 0.26082,0.39808 0.6589,0.590257 0.39808,0.178449 0.85106,0.178449 0.70007,0 1.05697,-0.205903 0.3569,-0.205904 0.5079,-0.603984 h 1.66095 q -0.21963,1.139333 -1.08442,1.715863 -0.8648,0.576529 -2.1414,0.576529 z m -0.0686,-6.122197 q -0.42554,0 -0.82362,0.137269 -0.39808,0.137269 -0.63143,0.494168 -0.23336,0.343173 -0.26081,0.919703 h 3.39054 q -0.0137,-0.617711 -0.24708,-0.947156 -0.21963,-0.343173 -0.59026,-0.466715 -0.37063,-0.137269 -0.83734,-0.137269 z m 7.73998,6.122197 q -0.89225,0 -1.49623,-0.178449 -0.60399,-0.192177 -1.00207,-0.507896 -0.38435,-0.329445 -0.57653,-0.741252 -0.17845,-0.411807 -0.21963,-0.864795 h 1.81195 q 0.0686,0.3569 0.42554,0.590257 0.3569,0.21963 1.05697,0.21963 0.79616,0 1.13933,-0.21963 0.34317,-0.219631 0.34317,-0.562803 0,-0.247084 -0.15099,-0.39808 -0.151,-0.164723 -0.53535,-0.274538 -0.38435,-0.123542 -1.08443,-0.247084 -0.60398,-0.08236 -1.11187,-0.219631 -0.49417,-0.150996 -0.87853,-0.411807 -0.38435,-0.260811 -0.60398,-0.645164 -0.2059,-0.39808 -0.2059,-0.960883 0,-0.603984 0.3569,-1.098152 0.37062,-0.494169 1.05697,-0.782433 0.70007,-0.301992 1.67468,-0.301992 1.05697,0 1.68841,0.329445 0.63144,0.329446 0.94715,0.851068 0.31572,0.521622 0.38436,1.111879 h -1.81195 q -0.10982,-0.39808 -0.42554,-0.603984 -0.31572,-0.205903 -0.78243,-0.205903 -0.68635,0 -0.98834,0.21963 -0.28826,0.205904 -0.28826,0.521623 0,0.329445 0.31572,0.507895 0.32944,0.17845 1.33151,0.315719 0.61771,0.08236 1.13933,0.247084 0.53535,0.150996 0.93343,0.411807 0.39808,0.260811 0.61771,0.658891 0.23336,0.384353 0.23336,0.947156 0,0.672618 -0.37063,1.19424 -0.3569,0.507896 -1.09815,0.809888 -0.72753,0.288264 -1.82568,0.288264 z m 10.30953,0 q -0.78243,0 -1.33151,-0.288264 -0.54907,-0.301992 -0.83734,-0.823614 -0.28826,-0.521623 -0.28826,-1.180514 0,-1.098152 0.64516,-1.647228 0.65889,-0.549076 1.96295,-0.549076 h 2.16885 v -0.343172 q 0,-0.713799 -0.32945,-1.002064 -0.31572,-0.288265 -1.01579,-0.288265 -0.61771,0 -0.89225,0.21963 -0.27453,0.205904 -0.31572,0.521623 h -1.81195 q 0.0412,-0.631438 0.39808,-1.125606 0.37063,-0.507896 1.04325,-0.79616 0.68634,-0.301992 1.64723,-0.301992 0.93343,0 1.61977,0.274538 0.70007,0.274538 1.08443,0.892248 0.38435,0.603984 0.38435,1.633501 v 2.786561 q 0,0.57653 0.0137,1.015791 0.0274,0.425534 0.0824,0.837341 h -1.68841 q -0.0549,-0.301992 -0.0686,-0.452988 0,-0.164723 0,-0.480442 -0.28826,0.439261 -0.90597,0.768707 -0.61771,0.329445 -1.56487,0.329445 z M 152.79946,20.343 q 0.43926,0 0.83734,-0.150996 0.4118,-0.164723 0.65889,-0.494169 0.26081,-0.343172 0.26081,-0.864794 v -0.343173 h -1.82568 q -0.52162,0 -0.82361,0.247084 -0.28827,0.233358 -0.28827,0.645165 0,0.43926 0.30199,0.700072 0.302,0.260811 0.87853,0.260811 z m 5.21423,1.235421 v -7.275257 h 1.64723 v 1.070698 q 0.27454,-0.494169 0.85107,-0.864795 0.57653,-0.370626 1.57859,-0.370626 1.33151,0 1.97668,0.713799 0.65889,0.713798 0.65889,2.059035 v 4.667146 h -1.81195 v -4.255339 q 0,-0.809887 -0.34317,-1.221695 -0.32945,-0.425533 -1.13934,-0.425533 -0.57653,0 -0.93343,0.233357 -0.3569,0.233357 -0.52162,0.603984 -0.16472,0.370626 -0.16472,0.809887 v 4.255339 z m 11.08935,0.164722 q -0.94716,0 -1.64723,-0.411807 -0.68635,-0.411807 -1.0707,-1.235421 -0.37063,-0.83734 -0.37063,-2.086488 v -0.274538 q 0,-1.180514 0.37063,-1.976674 0.38435,-0.79616 1.08443,-1.207967 0.70007,-0.411807 1.6335,-0.411807 0.75498,0 1.31778,0.329445 0.57653,0.315719 0.9197,0.851068 v -3.349363 h 1.79823 v 9.60883 h -1.67469 v -1.070699 q -0.27453,0.494169 -0.86479,0.864795 -0.59026,0.370626 -1.49623,0.370626 z m 0.42553,-1.537412 q 0.54908,0 0.94716,-0.205904 0.4118,-0.205903 0.63143,-0.631437 0.23336,-0.439261 0.23336,-1.084425 v -0.823614 q 0,-0.603984 -0.23336,-0.988337 -0.23335,-0.39808 -0.64516,-0.590257 -0.41181,-0.205903 -0.93343,-0.205903 -0.74125,0 -1.20797,0.521622 -0.46671,0.507895 -0.46671,1.537413 v 0.274538 q 0,1.125605 0.48044,1.660955 0.48044,0.535349 1.19424,0.535349 z m 9.10157,1.37269 v -9.60883 h 2.0453 l 2.92383,5.408398 2.91011,-5.408398 h 1.9904 v 9.60883 h -2.05904 V 15.46995 l -2.27866,4.186705 h -1.2217 l -2.26494,-4.186705 v 6.108471 z m 14.01316,0.164722 q -0.78243,0 -1.33151,-0.288264 -0.54908,-0.301992 -0.83734,-0.823614 -0.28827,-0.521623 -0.28827,-1.180514 0,-1.098152 0.64517,-1.647228 0.65889,-0.549076 1.96294,-0.549076 h 2.16886 v -0.343172 q 0,-0.713799 -0.32945,-1.002064 -0.31572,-0.288265 -1.01579,-0.288265 -0.61771,0 -0.89225,0.21963 -0.27454,0.205904 -0.31572,0.521623 h -1.81195 q 0.0412,-0.631438 0.39808,-1.125606 0.37063,-0.507896 1.04325,-0.79616 0.68634,-0.301992 1.64722,-0.301992 0.93343,0 1.61978,0.274538 0.70007,0.274538 1.08442,0.892248 0.38436,0.603984 0.38436,1.633501 v 2.786561 q 0,0.57653 0.0137,1.015791 0.0275,0.425534 0.0824,0.837341 h -1.6884 q -0.0549,-0.301992 -0.0686,-0.452988 0,-0.164723 0,-0.480442 -0.28826,0.439261 -0.90597,0.768707 -0.61771,0.329445 -1.56487,0.329445 z M 193.2061,20.343 q 0.43926,0 0.83734,-0.150996 0.41181,-0.164723 0.65889,-0.494169 0.26082,-0.343172 0.26082,-0.864794 v -0.343173 h -1.82568 q -0.52162,0 -0.82362,0.247084 -0.28826,0.233358 -0.28826,0.645165 0,0.43926 0.30199,0.700072 0.30199,0.260811 0.87852,0.260811 z m 5.21425,1.235421 v -7.275257 h 1.64723 v 1.084425 q 0.15099,-0.315719 0.4118,-0.590257 0.26081,-0.274538 0.64517,-0.466715 0.38435,-0.192176 0.85107,-0.192176 0.26081,0 0.43926,0.02745 0.19217,0.02745 0.24708,0.05491 v 1.606047 q -0.13727,-0.05491 -0.3569,-0.09609 -0.2059,-0.05491 -0.5628,-0.05491 -0.54908,0 -0.89225,0.233357 -0.32945,0.233357 -0.48044,0.61771 -0.151,0.370627 -0.151,0.809888 v 4.241612 z m 5.4064,0 v -9.60883 h 1.79823 v 5.326037 l 2.69047,-2.992464 h 2.07276 l -2.78656,3.116006 3.0611,4.159251 h -2.08649 l -2.1414,-2.965011 -0.80988,0.864795 v 2.100216 z m 10.95207,0.164722 q -0.98834,0 -1.82568,-0.39808 -0.82361,-0.411807 -1.31778,-1.235421 -0.49417,-0.837341 -0.49417,-2.100215 v -0.274538 q 0,-1.207968 0.46672,-2.004128 0.48044,-0.79616 1.2766,-1.19424 0.79616,-0.39808 1.75704,-0.39808 1.71586,0 2.60811,0.905975 0.89225,0.905976 0.89225,2.621838 v 0.768707 h -5.14759 q 0.0275,0.645164 0.27454,1.056971 0.26081,0.39808 0.65889,0.590257 0.39808,0.178449 0.85107,0.178449 0.70007,0 1.05697,-0.205903 0.3569,-0.205904 0.5079,-0.603984 h 1.66095 q -0.21963,1.139333 -1.08442,1.715863 -0.8648,0.576529 -2.1414,0.576529 z m -0.0686,-6.122197 q -0.42554,0 -0.82362,0.137269 -0.39808,0.137269 -0.63143,0.494168 -0.23336,0.343173 -0.26082,0.919703 h 3.39055 q -0.0137,-0.617711 -0.24709,-0.947156 -0.21963,-0.343173 -0.59025,-0.466715 -0.37063,-0.137269 -0.83734,-0.137269 z m 7.73999,6.039836 q -0.85107,0 -1.40015,-0.233357 -0.54907,-0.247084 -0.80989,-0.782434 -0.24708,-0.535349 -0.24708,-1.386416 v -3.445452 h -0.97461 v -1.509959 h 0.97461 v -1.647228 h 1.79822 v 1.647228 h 1.75705 v 1.509959 h -1.75705 v 3.157187 q 0,0.61771 0.21963,0.892248 0.23336,0.260811 0.85107,0.260811 0.41181,0 0.82362,-0.04118 v 1.509959 q -0.26081,0.02745 -0.54908,0.04118 -0.27454,0.02745 -0.68634,0.02745 z m 2.74338,-0.08236 v -7.275257 h 1.79822 v 7.275257 z m 0.89225,-7.975329 q -0.48044,0 -0.79616,-0.301992 -0.302,-0.301992 -0.302,-0.782433 0,-0.480442 0.302,-0.782434 0.31572,-0.301992 0.78243,-0.301992 0.49417,0 0.79616,0.301992 0.31572,0.301992 0.31572,0.782434 0,0.480441 -0.31572,0.782433 -0.30199,0.301992 -0.78243,0.301992 z m 2.74338,7.975329 v -7.275257 h 1.64723 v 1.070698 q 0.27454,-0.494169 0.85107,-0.864795 0.57653,-0.370626 1.57859,-0.370626 1.33151,0 1.97668,0.713799 0.65889,0.713798 0.65889,2.059035 v 4.667146 h -1.81195 v -4.255339 q 0,-0.809887 -0.34318,-1.221695 -0.32944,-0.425533 -1.13933,-0.425533 -0.57653,0 -0.93343,0.233357 -0.3569,0.233357 -0.52162,0.603984 -0.16472,0.370626 -0.16472,0.809887 v 4.255339 z m 11.50114,2.910102 q -1.15306,0 -1.8394,-0.288264 -0.68635,-0.274538 -1.01579,-0.768707 -0.31572,-0.494168 -0.37063,-1.166786 h 1.83941 q 0.0824,0.288265 0.37062,0.535349 0.28827,0.260811 1.01579,0.260811 0.91971,0 1.37269,-0.439261 0.45299,-0.439261 0.45299,-1.317782 v -0.878522 q -0.34317,0.535349 -0.9197,0.864795 -0.57653,0.315718 -1.31778,0.315718 -0.94716,0 -1.64723,-0.411807 -0.68635,-0.411807 -1.0707,-1.221694 Q 236.83,19.14876 236.83,17.940793 v -0.274538 q 0,-1.139333 0.37063,-1.921766 0.38435,-0.782433 1.08443,-1.19424 0.70007,-0.411807 1.6335,-0.411807 0.90597,0 1.49623,0.370626 0.59026,0.370626 0.86479,0.864795 v -1.070698 h 1.67469 v 6.86345 q 0,1.619774 -0.89225,2.470842 -0.89225,0.851067 -2.73166,0.851067 z m 0.0137,-4.420061 q 0.54908,0 0.94716,-0.192177 0.4118,-0.205903 0.63143,-0.631437 0.23336,-0.425534 0.23336,-1.029518 v -0.823614 q 0,-0.57653 -0.23336,-0.947156 -0.23335,-0.370626 -0.64516,-0.562803 -0.41181,-0.205903 -0.93343,-0.205903 -0.74125,0 -1.20797,0.507895 -0.46671,0.494168 -0.46671,1.482505 v 0.274538 q 0,1.056971 0.48044,1.592321 0.48044,0.535349 1.19424,0.535349 z m 9.10157,1.509959 v -9.60883 h 6.69873 v 1.702135 h -4.63969 v 2.141397 h 4.22788 v 1.647228 h -4.22788 v 2.415934 h 4.63969 v 1.702136 z m 7.65763,0 2.47084,-3.788625 -2.33357,-3.486632 h 2.01785 l 1.59232,2.333573 1.56487,-2.333573 h 1.96294 l -2.30611,3.417998 2.44338,3.857259 h -2.03158 l -1.70213,-2.717927 -1.68841,2.717927 z m 8.49496,2.74538 V 14.303164 h 1.67468 v 1.070698 q 0.27454,-0.494169 0.8648,-0.864795 0.59025,-0.370626 1.49623,-0.370626 1.45505,0 2.26494,0.905975 0.82361,0.892249 0.82361,2.690473 v 0.274538 q 0,1.249148 -0.38435,2.086488 -0.37063,0.823614 -1.05697,1.235421 -0.68635,0.411807 -1.64723,0.411807 -0.74125,0 -1.31778,-0.315718 -0.56281,-0.329446 -0.91971,-0.851068 v 3.747444 z m 3.61018,-4.11807 q 0.71379,0 1.19424,-0.535349 0.48044,-0.549076 0.48044,-1.660955 V 17.73489 q 0,-1.029518 -0.46672,-1.537413 -0.45299,-0.521622 -1.20796,-0.521622 -0.52163,0 -0.93343,0.205903 -0.41181,0.192177 -0.64517,0.590257 -0.23336,0.384353 -0.23336,0.988337 v 0.823614 q 0,0.645164 0.21963,1.084425 0.23336,0.425534 0.64517,0.631437 0.41181,0.205904 0.94716,0.205904 z m 8.16551,1.537412 q -0.98833,0 -1.82567,-0.39808 -0.82362,-0.411807 -1.31779,-1.235421 -0.49416,-0.837341 -0.49416,-2.100215 V 17.73489 q 0,-1.207968 0.46671,-2.004128 0.48044,-0.79616 1.2766,-1.19424 0.79616,-0.39808 1.75705,-0.39808 1.71586,0 2.60811,0.905975 0.89224,0.905976 0.89224,2.621838 v 0.768707 h -5.14758 q 0.0274,0.645164 0.27454,1.056971 0.26081,0.39808 0.65889,0.590257 0.39808,0.178449 0.85106,0.178449 0.70008,0 1.05698,-0.205903 0.35689,-0.205904 0.50789,-0.603984 h 1.66096 q -0.21963,1.139333 -1.08443,1.715863 -0.86479,0.576529 -2.1414,0.576529 z m -0.0686,-6.122197 q -0.42553,0 -0.82361,0.137269 -0.39808,0.137269 -0.63144,0.494168 -0.23336,0.343173 -0.26081,0.919703 h 3.39054 q -0.0137,-0.617711 -0.24708,-0.947156 -0.21963,-0.343173 -0.59026,-0.466715 -0.37063,-0.137269 -0.83734,-0.137269 z m 4.80242,5.957475 v -7.275257 h 1.64722 v 1.070698 q 0.27454,-0.494169 0.85107,-0.864795 0.57653,-0.370626 1.5786,-0.370626 1.3315,0 1.97667,0.713799 0.65889,0.713798 0.65889,2.059035 v 4.667146 h -1.81195 v -4.255339 q 0,-0.809887 -0.34317,-1.221695 -0.32945,-0.425533 -1.13934,-0.425533 -0.57653,0 -0.93342,0.233357 -0.3569,0.233357 -0.52163,0.603984 -0.16472,0.370626 -0.16472,0.809887 v 4.255339 z m 11.29523,0.164722 q -0.89224,0 -1.49623,-0.178449 -0.60398,-0.192177 -1.00206,-0.507896 -0.38435,-0.329445 -0.57653,-0.741252 -0.17845,-0.411807 -0.21963,-0.864795 h 1.81195 q 0.0686,0.3569 0.42553,0.590257 0.3569,0.21963 1.05697,0.21963 0.79616,0 1.13934,-0.21963 0.34317,-0.219631 0.34317,-0.562803 0,-0.247084 -0.151,-0.39808 -0.15099,-0.164723 -0.53535,-0.274538 -0.38435,-0.123542 -1.08442,-0.247084 -0.60398,-0.08236 -1.11188,-0.219631 -0.49417,-0.150996 -0.87852,-0.411807 -0.38435,-0.260811 -0.60398,-0.645164 -0.20591,-0.39808 -0.20591,-0.960883 0,-0.603984 0.3569,-1.098152 0.37063,-0.494169 1.05697,-0.782433 0.70007,-0.301992 1.67468,-0.301992 1.05698,0 1.68841,0.329445 0.63144,0.329446 0.94716,0.851068 0.31572,0.521622 0.38435,1.111879 h -1.81195 q -0.10981,-0.39808 -0.42553,-0.603984 -0.31572,-0.205903 -0.78244,-0.205903 -0.68634,0 -0.98833,0.21963 -0.28827,0.205904 -0.28827,0.521623 0,0.329445 0.31572,0.507895 0.32945,0.17845 1.33151,0.315719 0.61771,0.08236 1.13933,0.247084 0.53535,0.150996 0.93343,0.411807 0.39808,0.260811 0.61771,0.658891 0.23336,0.384353 0.23336,0.947156 0,0.672618 -0.37063,1.19424 -0.3569,0.507896 -1.09815,0.809888 -0.72752,0.288264 -1.82568,0.288264 z m 7.93217,0 q -0.98834,0 -1.82568,-0.39808 -0.82362,-0.411807 -1.31778,-1.235421 -0.49417,-0.837341 -0.49417,-2.100215 V 17.73489 q 0,-1.207968 0.46671,-2.004128 0.48044,-0.79616 1.2766,-1.19424 0.79616,-0.39808 1.75705,-0.39808 1.71586,0 2.60811,0.905975 0.89225,0.905976 0.89225,2.621838 v 0.768707 h -5.14759 q 0.0275,0.645164 0.27454,1.056971 0.26081,0.39808 0.65889,0.590257 0.39808,0.178449 0.85107,0.178449 0.70007,0 1.05697,-0.205903 0.3569,-0.205904 0.50789,-0.603984 h 1.66096 q -0.21963,1.139333 -1.08443,1.715863 -0.86479,0.576529 -2.14139,0.576529 z m -0.0686,-6.122197 q -0.42553,0 -0.82361,0.137269 -0.39808,0.137269 -0.63144,0.494168 -0.23336,0.343173 -0.26081,0.919703 h 3.39054 q -0.0137,-0.617711 -0.24708,-0.947156 -0.21963,-0.343173 -0.59026,-0.466715 -0.37062,-0.137269 -0.83734,-0.137269 z m 7.73997,6.122197 q -0.89224,0 -1.49623,-0.178449 -0.60398,-0.192177 -1.00206,-0.507896 -0.38435,-0.329445 -0.57653,-0.741252 -0.17845,-0.411807 -0.21963,-0.864795 h 1.81195 q 0.0686,0.3569 0.42553,0.590257 0.3569,0.21963 1.05697,0.21963 0.79616,0 1.13934,-0.21963 0.34317,-0.219631 0.34317,-0.562803 0,-0.247084 -0.151,-0.39808 -0.15099,-0.164723 -0.53535,-0.274538 -0.38435,-0.123542 -1.08442,-0.247084 -0.60398,-0.08236 -1.11188,-0.219631 -0.49417,-0.150996 -0.87852,-0.411807 -0.38435,-0.260811 -0.60398,-0.645164 -0.20591,-0.39808 -0.20591,-0.960883 0,-0.603984 0.3569,-1.098152 0.37063,-0.494169 1.05697,-0.782433 0.70007,-0.301992 1.67468,-0.301992 1.05698,0 1.68841,0.329445 0.63144,0.329446 0.94716,0.851068 0.31572,0.521622 0.38435,1.111879 h -1.81195 q -0.10981,-0.39808 -0.42553,-0.603984 -0.31572,-0.205903 -0.78244,-0.205903 -0.68634,0 -0.98833,0.21963 -0.28827,0.205904 -0.28827,0.521623 0,0.329445 0.31572,0.507895 0.32945,0.17845 1.33151,0.315719 0.61771,0.08236 1.13933,0.247084 0.53535,0.150996 0.93343,0.411807 0.39808,0.260811 0.61771,0.658891 0.23336,0.384353 0.23336,0.947156 0,0.672618 -0.37063,1.19424 -0.3569,0.507896 -1.09815,0.809888 -0.72752,0.288264 -1.82568,0.288264 z"
             id="path5" /><path
             d="m 72.182283,38.737046 v -9.60883 h 1.935493 l 4.241612,6.177105 v -6.177105 h 2.031581 v 9.60883 h -1.935493 l -4.241612,-6.177105 v 6.177105 z m 12.695395,0.164723 q -1.262875,0 -1.908039,-0.713799 -0.645165,-0.727526 -0.645165,-2.237485 v -4.488696 h 1.798224 v 4.241612 q 0,0.823614 0.315719,1.249148 0.329446,0.411807 1.098152,0.411807 0.549076,0 0.878522,-0.233358 0.343172,-0.233357 0.507895,-0.603983 0.164723,-0.370626 0.164723,-0.823614 v -4.241612 h 1.811951 v 7.275257 h -1.674682 v -1.084425 q -0.260811,0.507895 -0.837341,0.878521 -0.562803,0.370627 -1.509959,0.370627 z m 5.735843,-0.164723 v -7.275257 h 1.647228 v 1.084425 q 0.247084,-0.480442 0.79616,-0.864795 0.562803,-0.384353 1.290329,-0.384353 0.878522,0 1.37269,0.356899 0.507895,0.3569 0.713799,0.947156 0.301992,-0.576529 0.864795,-0.933429 0.576529,-0.370626 1.358963,-0.370626 1.153059,0 1.757045,0.672618 0.61771,0.672618 0.61771,2.031581 v 4.735781 h -1.811952 v -4.323974 q 0,-0.864794 -0.288265,-1.221694 -0.274538,-0.356899 -0.892249,-0.356899 -0.356899,0 -0.658891,0.192176 -0.301992,0.17845 -0.494168,0.535349 -0.17845,0.3569 -0.17845,0.851068 v 4.323974 h -1.798224 v -4.323974 q 0,-0.864794 -0.288265,-1.221694 -0.274538,-0.356899 -0.892249,-0.356899 -0.356899,0 -0.672618,0.192176 -0.301991,0.17845 -0.480441,0.535349 -0.164723,0.3569 -0.164723,0.851068 v 4.323974 z m 16.099669,0.164723 q -0.90598,0 -1.49624,-0.370627 -0.59025,-0.370626 -0.86479,-0.864794 v 1.070698 h -1.67468 v -9.60883 h 1.79822 v 3.335636 q 0.34317,-0.521622 0.90598,-0.83734 0.57653,-0.329446 1.33151,-0.329446 1.45505,0 2.26493,0.905975 0.82362,0.892249 0.82362,2.690473 v 0.274538 q 0,1.249148 -0.38436,2.086489 -0.37062,0.823614 -1.05697,1.235421 -0.68634,0.411807 -1.64722,0.411807 z m -0.42554,-1.537413 q 0.7138,0 1.19424,-0.535349 0.48044,-0.549076 0.48044,-1.660955 v -0.274538 q 0,-1.029518 -0.46671,-1.537413 -0.45299,-0.521622 -1.20797,-0.521622 -0.52162,0 -0.93343,0.205903 -0.41181,0.192177 -0.64516,0.590257 -0.23336,0.384353 -0.23336,0.988337 v 0.823614 q 0,0.645164 0.21963,1.084425 0.23336,0.425534 0.64517,0.631437 0.4118,0.205904 0.94715,0.205904 z m 8.16551,1.537413 q -0.98834,0 -1.82568,-0.398081 -0.82361,-0.411807 -1.31778,-1.235421 -0.49417,-0.83734 -0.49417,-2.100215 v -0.274538 q 0,-1.207967 0.46672,-2.004128 0.48044,-0.79616 1.2766,-1.19424 0.79616,-0.39808 1.75704,-0.39808 1.71586,0 2.60811,0.905975 0.89225,0.905976 0.89225,2.621838 v 0.768707 h -5.14759 q 0.0275,0.645164 0.27454,1.056971 0.26081,0.39808 0.65889,0.590257 0.39808,0.178449 0.85107,0.178449 0.70007,0 1.05697,-0.205903 0.3569,-0.205904 0.5079,-0.603984 h 1.66095 q -0.21963,1.139333 -1.08442,1.715863 -0.8648,0.57653 -2.1414,0.57653 z m -0.0686,-6.122198 q -0.42554,0 -0.82362,0.137269 -0.39808,0.137269 -0.63144,0.494169 -0.23335,0.343172 -0.26081,0.919702 h 3.39055 q -0.0137,-0.617711 -0.24709,-0.947156 -0.21963,-0.343173 -0.59025,-0.466715 -0.37063,-0.137269 -0.83734,-0.137269 z m 4.80242,5.957475 v -7.275257 h 1.64723 v 1.084425 q 0.15099,-0.315719 0.41181,-0.590257 0.26081,-0.274538 0.64516,-0.466714 0.38435,-0.192177 0.85107,-0.192177 0.26081,0 0.43926,0.02745 0.19217,0.02745 0.24708,0.05491 v 1.606048 q -0.13727,-0.05491 -0.3569,-0.09609 -0.2059,-0.05491 -0.5628,-0.05491 -0.54908,0 -0.89225,0.233357 -0.32944,0.233357 -0.48044,0.617711 -0.151,0.370626 -0.151,0.809887 v 4.241612 z m 12.17639,0.164723 q -0.98834,0 -1.82568,-0.398081 -0.82362,-0.411807 -1.31778,-1.235421 -0.49417,-0.83734 -0.49417,-2.100215 v -0.274538 q 0,-1.194241 0.49417,-1.990401 0.49416,-0.79616 1.31778,-1.19424 0.83734,-0.411807 1.82568,-0.411807 0.98833,0 1.81195,0.411807 0.83734,0.39808 1.33151,1.19424 0.49416,0.79616 0.49416,1.990401 v 0.274538 q 0,1.235421 -0.49416,2.072762 -0.49417,0.823614 -1.33151,1.249148 -0.82362,0.411807 -1.81195,0.411807 z m 0,-1.537413 q 0.52162,0 0.9197,-0.233358 0.41181,-0.247084 0.64516,-0.741252 0.23336,-0.494169 0.23336,-1.221694 v -0.274538 q 0,-0.672618 -0.23336,-1.125606 -0.23335,-0.452988 -0.64516,-0.686345 -0.39808,-0.247084 -0.9197,-0.247084 -0.52163,0 -0.93343,0.247084 -0.39808,0.233357 -0.63144,0.686345 -0.23336,0.452988 -0.23336,1.125606 v 0.274538 q 0,0.741252 0.23336,1.235421 0.23336,0.480441 0.63144,0.727525 0.4118,0.233358 0.93343,0.233358 z m 5.28286,1.37269 v -5.765298 h -0.90597 v -1.509959 h 0.90597 v -0.274538 q 0,-0.700072 0.24709,-1.166787 0.24708,-0.480441 0.80989,-0.727526 0.57653,-0.247084 1.53741,-0.247084 0.2059,0 0.50789,0.01373 0.31572,0 0.52163,0.02745 v 1.537413 q -0.20591,-0.02745 -0.45299,-0.02745 -0.23336,-0.01373 -0.43926,-0.01373 -0.52162,0 -0.72753,0.17845 -0.2059,0.164723 -0.2059,0.562803 v 0.137269 h 1.68841 v 1.509959 h -1.68841 v 5.765298 z m 8.41523,0 v -9.60883 h 1.93549 l 4.24161,6.177105 v -6.177105 h 2.03158 v 9.60883 h -1.93549 l -4.24161,-6.177105 v 6.177105 z m 13.49155,0.164723 q -0.98833,0 -1.82567,-0.398081 -0.82362,-0.411807 -1.31779,-1.235421 -0.49416,-0.83734 -0.49416,-2.100215 v -0.274538 q 0,-1.207967 0.46671,-2.004128 0.48044,-0.79616 1.2766,-1.19424 0.79616,-0.39808 1.75704,-0.39808 1.71587,0 2.60812,0.905975 0.89224,0.905976 0.89224,2.621838 v 0.768707 h -5.14758 q 0.0274,0.645164 0.27453,1.056971 0.26082,0.39808 0.6589,0.590257 0.39808,0.178449 0.85106,0.178449 0.70008,0 1.05697,-0.205903 0.3569,-0.205904 0.5079,-0.603984 h 1.66096 q -0.21964,1.139333 -1.08443,1.715863 -0.86479,0.57653 -2.1414,0.57653 z m -0.0686,-6.122198 q -0.42553,0 -0.82361,0.137269 -0.39808,0.137269 -0.63144,0.494169 -0.23336,0.343172 -0.26081,0.919702 h 3.39054 q -0.0137,-0.617711 -0.24708,-0.947156 -0.21963,-0.343173 -0.59026,-0.466715 -0.37063,-0.137269 -0.83734,-0.137269 z m 6.13393,5.957475 -2.03159,-7.275257 h 1.94922 l 1.18052,4.804415 1.46878,-4.804415 h 1.67468 l 1.53741,4.804415 1.24915,-4.804415 h 1.7845 l -2.03159,7.275257 h -1.81195 l -1.60604,-5.078953 -1.55114,5.078953 z m 17.6397,0.164723 q -1.24915,0 -2.23749,-0.494169 -0.97461,-0.507895 -1.53741,-1.578593 -0.54908,-1.084425 -0.54908,-2.827742 v -0.274538 q 0,-1.262875 0.32945,-2.155123 0.32944,-0.905975 0.9197,-1.482505 0.60398,-0.57653 1.38642,-0.851068 0.78243,-0.274538 1.68841,-0.274538 0.80988,0 1.50996,0.205903 0.71379,0.192177 1.26287,0.590257 0.54908,0.39808 0.87852,1.029518 0.34317,0.631437 0.39808,1.482505 h -2.14139 q -0.151,-0.809887 -0.6589,-1.19424 -0.50789,-0.384354 -1.24914,-0.384354 -0.57653,0 -1.0707,0.288265 -0.49417,0.274538 -0.80989,0.933429 -0.30199,0.658892 -0.30199,1.811951 v 0.274538 q 0,0.905976 0.19218,1.523686 0.19217,0.603984 0.50789,0.97461 0.31572,0.356899 0.70007,0.521622 0.38436,0.150996 0.78244,0.150996 0.78243,0 1.29032,-0.39808 0.5079,-0.411807 0.61772,-1.180513 h 2.14139 q -0.0686,0.892248 -0.39808,1.537412 -0.32944,0.631438 -0.86479,1.029518 -0.53535,0.384353 -1.24915,0.562803 -0.7138,0.17845 -1.53741,0.17845 z m 7.9596,0 q -1.26288,0 -1.90804,-0.713799 -0.64517,-0.727526 -0.64517,-2.237485 v -4.488696 h 1.79823 v 4.241612 q 0,0.823614 0.31572,1.249148 0.32944,0.411807 1.09815,0.411807 0.54908,0 0.87852,-0.233358 0.34317,-0.233357 0.5079,-0.603983 0.16472,-0.370626 0.16472,-0.823614 v -4.241612 h 1.81195 v 7.275257 h -1.67468 v -1.084425 q -0.26081,0.507895 -0.83734,0.878521 -0.56281,0.370627 -1.50996,0.370627 z m 8.6734,0 q -0.89225,0 -1.49623,-0.17845 -0.60399,-0.192177 -1.00207,-0.507895 -0.38435,-0.329446 -0.57653,-0.741253 -0.17845,-0.411807 -0.21963,-0.864795 h 1.81195 q 0.0686,0.3569 0.42554,0.590257 0.3569,0.21963 1.05697,0.21963 0.79616,0 1.13933,-0.21963 0.34317,-0.21963 0.34317,-0.562803 0,-0.247084 -0.15099,-0.39808 -0.151,-0.164723 -0.53535,-0.274538 -0.38435,-0.123542 -1.08443,-0.247084 -0.60398,-0.08236 -1.11188,-0.219631 -0.49416,-0.150996 -0.87852,-0.411807 -0.38435,-0.260811 -0.60398,-0.645164 -0.2059,-0.39808 -0.2059,-0.960883 0,-0.603984 0.3569,-1.098152 0.37062,-0.494168 1.05697,-0.782433 0.70007,-0.301992 1.67468,-0.301992 1.05697,0 1.68841,0.329446 0.63143,0.329445 0.94715,0.851067 0.31572,0.521623 0.38436,1.111879 h -1.81195 q -0.10982,-0.39808 -0.42554,-0.603983 -0.31572,-0.205904 -0.78243,-0.205904 -0.68635,0 -0.98834,0.219631 -0.28826,0.205903 -0.28826,0.521622 0,0.329445 0.31572,0.507895 0.32944,0.17845 1.33151,0.315719 0.61771,0.08236 1.13933,0.247084 0.53535,0.150996 0.93343,0.411807 0.39808,0.260811 0.61771,0.658891 0.23335,0.384353 0.23335,0.947156 0,0.672618 -0.37062,1.194241 -0.3569,0.507895 -1.09815,0.809887 -0.72753,0.288265 -1.82568,0.288265 z m 7.58898,-0.08236 q -0.85107,0 -1.40014,-0.233357 -0.54908,-0.247084 -0.80989,-0.782433 -0.24708,-0.53535 -0.24708,-1.386417 V 32.97175 h -0.97461 v -1.509959 h 0.97461 v -1.647228 h 1.79822 v 1.647228 h 1.75704 v 1.509959 h -1.75704 v 3.157187 q 0,0.61771 0.21963,0.892248 0.23336,0.260811 0.85107,0.260811 0.4118,0 0.82361,-0.04118 v 1.509959 q -0.26081,0.02745 -0.54907,0.04118 -0.27454,0.02745 -0.68635,0.02745 z m 5.81822,0.08236 q -0.98833,0 -1.82567,-0.398081 -0.82362,-0.411807 -1.31779,-1.235421 -0.49416,-0.83734 -0.49416,-2.100215 v -0.274538 q 0,-1.194241 0.49416,-1.990401 0.49417,-0.79616 1.31779,-1.19424 0.83734,-0.411807 1.82567,-0.411807 0.98834,0 1.81196,0.411807 0.83734,0.39808 1.3315,1.19424 0.49417,0.79616 0.49417,1.990401 v 0.274538 q 0,1.235421 -0.49417,2.072762 -0.49416,0.823614 -1.3315,1.249148 -0.82362,0.411807 -1.81196,0.411807 z m 0,-1.537413 q 0.52163,0 0.91971,-0.233358 0.4118,-0.247084 0.64516,-0.741252 0.23336,-0.494169 0.23336,-1.221694 v -0.274538 q 0,-0.672618 -0.23336,-1.125606 -0.23336,-0.452988 -0.64516,-0.686345 -0.39808,-0.247084 -0.91971,-0.247084 -0.52162,0 -0.93342,0.247084 -0.39808,0.233357 -0.63144,0.686345 -0.23336,0.452988 -0.23336,1.125606 v 0.274538 q 0,0.741252 0.23336,1.235421 0.23336,0.480441 0.63144,0.727525 0.4118,0.233358 0.93342,0.233358 z m 5.00834,1.37269 v -7.275257 h 1.64723 v 1.084425 q 0.24708,-0.480442 0.79616,-0.864795 0.5628,-0.384353 1.29032,-0.384353 0.87853,0 1.37269,0.356899 0.5079,0.3569 0.7138,0.947156 0.302,-0.576529 0.8648,-0.933429 0.57653,-0.370626 1.35896,-0.370626 1.15306,0 1.75704,0.672618 0.61772,0.672618 0.61772,2.031581 v 4.735781 h -1.81196 v -4.323974 q 0,-0.864794 -0.28826,-1.221694 -0.27454,-0.356899 -0.89225,-0.356899 -0.3569,0 -0.65889,0.192176 -0.30199,0.17845 -0.49417,0.535349 -0.17845,0.3569 -0.17845,0.851068 v 4.323974 h -1.79822 v -4.323974 q 0,-0.864794 -0.28827,-1.221694 -0.27454,-0.356899 -0.89225,-0.356899 -0.35689,0 -0.67261,0.192176 -0.302,0.17845 -0.48045,0.535349 -0.16472,0.3569 -0.16472,0.851068 v 4.323974 z m 15.34468,0.164723 q -0.98834,0 -1.82568,-0.398081 -0.82361,-0.411807 -1.31778,-1.235421 -0.49417,-0.83734 -0.49417,-2.100215 v -0.274538 q 0,-1.207967 0.46671,-2.004128 0.48044,-0.79616 1.2766,-1.19424 0.79616,-0.39808 1.75705,-0.39808 1.71586,0 2.60811,0.905975 0.89225,0.905976 0.89225,2.621838 v 0.768707 h -5.14759 q 0.0274,0.645164 0.27454,1.056971 0.26081,0.39808 0.65889,0.590257 0.39808,0.178449 0.85107,0.178449 0.70007,0 1.05697,-0.205903 0.3569,-0.205904 0.50789,-0.603984 h 1.66096 q -0.21963,1.139333 -1.08443,1.715863 -0.86479,0.57653 -2.14139,0.57653 z m -0.0686,-6.122198 q -0.42553,0 -0.82361,0.137269 -0.39808,0.137269 -0.63144,0.494169 -0.23336,0.343172 -0.26081,0.919702 h 3.39054 q -0.0137,-0.617711 -0.24708,-0.947156 -0.21963,-0.343173 -0.59026,-0.466715 -0.37062,-0.137269 -0.83734,-0.137269 z m 4.80242,5.957475 v -7.275257 h 1.64723 v 1.084425 q 0.15099,-0.315719 0.4118,-0.590257 0.26081,-0.274538 0.64517,-0.466714 0.38435,-0.192177 0.85107,-0.192177 0.26081,0 0.43926,0.02745 0.19217,0.02745 0.24708,0.05491 v 1.606048 q -0.13727,-0.05491 -0.3569,-0.09609 -0.2059,-0.05491 -0.5628,-0.05491 -0.54908,0 -0.89225,0.233357 -0.32945,0.233357 -0.48044,0.617711 -0.151,0.370626 -0.151,0.809887 v 4.241612 z m 8.34396,0.164723 q -0.89225,0 -1.49623,-0.17845 -0.60399,-0.192177 -1.00207,-0.507895 -0.38435,-0.329446 -0.57653,-0.741253 -0.17845,-0.411807 -0.21963,-0.864795 h 1.81195 q 0.0686,0.3569 0.42554,0.590257 0.3569,0.21963 1.05697,0.21963 0.79616,0 1.13933,-0.21963 0.34317,-0.21963 0.34317,-0.562803 0,-0.247084 -0.15099,-0.39808 -0.151,-0.164723 -0.53535,-0.274538 -0.38435,-0.123542 -1.08443,-0.247084 -0.60398,-0.08236 -1.11188,-0.219631 -0.49416,-0.150996 -0.87852,-0.411807 -0.38435,-0.260811 -0.60398,-0.645164 -0.2059,-0.39808 -0.2059,-0.960883 0,-0.603984 0.35689,-1.098152 0.37063,-0.494168 1.05698,-0.782433 0.70007,-0.301992 1.67468,-0.301992 1.05697,0 1.68841,0.329446 0.63143,0.329445 0.94715,0.851067 0.31572,0.521623 0.38436,1.111879 h -1.81195 q -0.10982,-0.39808 -0.42554,-0.603983 -0.31572,-0.205904 -0.78243,-0.205904 -0.68635,0 -0.98834,0.219631 -0.28826,0.205903 -0.28826,0.521622 0,0.329445 0.31572,0.507895 0.32944,0.17845 1.3315,0.315719 0.61771,0.08236 1.13934,0.247084 0.53535,0.150996 0.93343,0.411807 0.39808,0.260811 0.61771,0.658891 0.23335,0.384353 0.23335,0.947156 0,0.672618 -0.37062,1.194241 -0.3569,0.507895 -1.09815,0.809887 -0.72753,0.288265 -1.82568,0.288265 z m 7.44062,-0.164723 3.56899,-9.60883 h 2.04531 l 3.58272,9.60883 h -2.16885 l -0.74125,-1.962947 h -3.55527 l -0.72753,1.962947 z m 3.36309,-3.665083 h 2.30612 l -1.15306,-3.335636 z m 9.92253,3.829806 q -1.00206,0 -1.81195,-0.411807 -0.80989,-0.425534 -1.29033,-1.249148 -0.46671,-0.837341 -0.46671,-2.072762 v -0.274538 q 0,-1.180514 0.49417,-1.976674 0.49416,-0.79616 1.30405,-1.207967 0.80989,-0.411807 1.77077,-0.411807 1.02952,0 1.74332,0.343172 0.7138,0.343173 1.09815,0.947157 0.39808,0.603983 0.45299,1.331509 h -1.83941 q -0.10981,-0.494169 -0.45298,-0.782433 -0.32945,-0.301992 -1.00207,-0.301992 -0.46671,0 -0.86479,0.21963 -0.38436,0.219631 -0.63144,0.672618 -0.23336,0.452988 -0.23336,1.166787 v 0.274538 q 0,0.768706 0.21963,1.262875 0.23336,0.480441 0.61771,0.713798 0.39808,0.219631 0.89225,0.219631 0.53535,0 0.9197,-0.274538 0.39808,-0.288265 0.53535,-0.809887 h 1.83941 q -0.0824,0.782433 -0.52162,1.386417 -0.43926,0.603983 -1.16679,0.919702 -0.7138,0.315719 -1.60605,0.315719 z m 9.55192,2.580657 v -3.761171 q -0.34317,0.535349 -0.9197,0.864795 -0.57653,0.315719 -1.31778,0.315719 -0.94716,0 -1.64723,-0.411807 -0.68635,-0.411807 -1.0707,-1.235421 -0.37063,-0.837341 -0.37063,-2.086489 v -0.274538 q 0,-1.180514 0.37063,-1.976674 0.38435,-0.79616 1.08443,-1.207967 0.70007,-0.411807 1.6335,-0.411807 0.90597,0 1.49623,0.370626 0.59026,0.370627 0.86479,0.864795 v -1.070698 h 1.67469 v 10.020637 z m -1.81195,-4.11807 q 0.54908,0 0.94716,-0.205904 0.4118,-0.205903 0.63143,-0.631437 0.23336,-0.439261 0.23336,-1.084425 v -0.823614 q 0,-0.603984 -0.23336,-0.988337 -0.23335,-0.39808 -0.64516,-0.590257 -0.41181,-0.205903 -0.93343,-0.205903 -0.74125,0 -1.20797,0.507895 -0.46671,0.507895 -0.46671,1.55114 v 0.274538 q 0,1.125606 0.48044,1.660955 0.48044,0.535349 1.19424,0.535349 z m 7.82235,1.537413 q -1.26288,0 -1.90804,-0.713799 -0.64517,-0.727526 -0.64517,-2.237485 v -4.488696 h 1.79823 v 4.241612 q 0,0.823614 0.31572,1.249148 0.32944,0.411807 1.09815,0.411807 0.54907,0 0.87852,-0.233358 0.34317,-0.233357 0.5079,-0.603983 0.16472,-0.370626 0.16472,-0.823614 v -4.241612 h 1.81195 v 7.275257 h -1.67468 v -1.084425 q -0.26081,0.507895 -0.83734,0.878521 -0.56281,0.370627 -1.50996,0.370627 z m 5.87311,-0.164723 v -7.275257 h 1.79822 v 7.275257 z m 0.89225,-7.975329 q -0.48044,0 -0.79616,-0.301992 -0.30199,-0.301992 -0.30199,-0.782433 0,-0.480442 0.30199,-0.782434 0.31572,-0.301991 0.78243,-0.301991 0.49417,0 0.79616,0.301991 0.31572,0.301992 0.31572,0.782434 0,0.480441 -0.31572,0.782433 -0.30199,0.301992 -0.78243,0.301992 z m 2.74338,7.975329 v -7.275257 h 1.64723 v 1.084425 q 0.151,-0.315719 0.41181,-0.590257 0.26081,-0.274538 0.64516,-0.466714 0.38436,-0.192177 0.85107,-0.192177 0.26081,0 0.43926,0.02745 0.19218,0.02745 0.24709,0.05491 v 1.606048 q -0.13727,-0.05491 -0.3569,-0.09609 -0.20591,-0.05491 -0.56281,-0.05491 -0.54907,0 -0.89224,0.233357 -0.32945,0.233357 -0.48045,0.617711 -0.15099,0.370626 -0.15099,0.809887 v 4.241612 z m 8.54985,0.164723 q -0.98833,0 -1.82567,-0.398081 -0.82362,-0.411807 -1.31779,-1.235421 -0.49417,-0.83734 -0.49417,-2.100215 v -0.274538 q 0,-1.207967 0.46672,-2.004128 0.48044,-0.79616 1.2766,-1.19424 0.79616,-0.39808 1.75704,-0.39808 1.71587,0 2.60812,0.905975 0.89224,0.905976 0.89224,2.621838 v 0.768707 h -5.14758 q 0.0274,0.645164 0.27453,1.056971 0.26082,0.39808 0.6589,0.590257 0.39808,0.178449 0.85106,0.178449 0.70008,0 1.05697,-0.205903 0.3569,-0.205904 0.5079,-0.603984 h 1.66095 q -0.21963,1.139333 -1.08442,1.715863 -0.8648,0.57653 -2.1414,0.57653 z m -0.0686,-6.122198 q -0.42554,0 -0.82362,0.137269 -0.39808,0.137269 -0.63143,0.494169 -0.23336,0.343172 -0.26081,0.919702 h 3.39054 q -0.0137,-0.617711 -0.24708,-0.947156 -0.21963,-0.343173 -0.59026,-0.466715 -0.37063,-0.137269 -0.83734,-0.137269 z m 7.53408,6.122198 q -0.94715,0 -1.64722,-0.411807 -0.68635,-0.411807 -1.0707,-1.235421 -0.37063,-0.837341 -0.37063,-2.086489 v -0.274538 q 0,-1.180514 0.37063,-1.976674 0.38435,-0.79616 1.08442,-1.207967 0.70007,-0.411807 1.6335,-0.411807 0.75498,0 1.31779,0.329446 0.57653,0.315718 0.9197,0.851067 v -3.349363 h 1.79822 v 9.60883 h -1.67468 v -1.070698 q -0.27454,0.494168 -0.86479,0.864794 -0.59026,0.370627 -1.49624,0.370627 z m 0.42554,-1.537413 q 0.54907,0 0.94715,-0.205904 0.41181,-0.205903 0.63144,-0.631437 0.23336,-0.439261 0.23336,-1.084425 v -0.823614 q 0,-0.603984 -0.23336,-0.988337 -0.23336,-0.39808 -0.64516,-0.590257 -0.41181,-0.205903 -0.93343,-0.205903 -0.74126,0 -1.20797,0.521622 -0.46671,0.507895 -0.46671,1.537413 v 0.274538 q 0,1.125606 0.48044,1.660955 0.48044,0.535349 1.19424,0.535349 z"
             id="path6" /></g><path
           style="fill:#2e2e38;fill-rule:evenodd;stroke:#2e2e38;stroke-width:0.79375;stroke-dasharray:none;stroke-opacity:0.996094"
           d="M 70.192402,26.458333 H 313.45343"
           id="path4" /></g></g><g
       id="g8"
       transform="translate(-43.874278)"><g
         inkscape:label="Layer 1"
         id="layer1-32"
         transform="matrix(0.30000001,0,0,0.30000001,155.575,42.375605)" /><g
         id="g9"
         transform="translate(16.441413)"><g
           id="g10"><rect
             style="fill:#ffdd33;fill-rule:evenodd;stroke:none;stroke-width:1.08113;stroke-opacity:0.996094"
             id="rect1-5"
             width="21.166666"
             height="21.166666"
             x="3.1789145e-07"
             y="2.2455316"
             transform="matrix(0.30000001,0,0,0.30000001,155.575,42.375606)" /><g
             inkscape:label="logo"
             id="layer1-3"
             transform="matrix(0.17280001,0,0,0.17280001,154.36088,41.835144)"><g
               id="g7"
               transform="translate(0.13700365,-0.239022)"><path
                 id="rect5"
                 style="display:inline;fill:#000000;fill-opacity:1;fill-rule:evenodd;stroke:none;stroke-width:0;stroke-dasharray:none;stroke-opacity:0.996094"
                 d="M 8.7265377,15.698743 V 34.302258 H 16.724188 V 33.720897 H 9.7600656 V 16.280104 H 40.765926 v 17.440793 h -6.963403 v 0.581361 h 7.996931 V 15.698743 Z" /><path
                 d="m 18.754535,35.5793 q -0.264583,0 -0.511527,-0.08819 -0.242528,-0.09264 -0.436556,-0.282222 -0.194028,-0.189611 -0.308681,-0.48507 -0.110277,-0.295444 -0.110277,-0.709958 v -0.08819 q 0,-0.396875 0.110277,-0.683513 0.114584,-0.286625 0.308681,-0.471834 0.194028,-0.189625 0.436556,-0.277819 0.246944,-0.08819 0.511527,-0.08819 0.264584,0 0.507125,0.08819 0.246945,0.08819 0.440973,0.277819 0.194027,0.185209 0.304264,0.471834 0.114722,0.286638 0.114722,0.683513 v 0.08819 q 0,0.414514 -0.114722,0.709958 -0.110278,0.295459 -0.304264,0.48507 -0.194028,0.189625 -0.440973,0.282222 -0.242541,0.08819 -0.507125,0.08819 z m 0,-0.370416 q 0.242542,0 0.449792,-0.119028 0.211667,-0.119028 0.343958,-0.383653 0.132223,-0.264583 0.132223,-0.692319 v -0.08819 q 0,-0.405694 -0.132223,-0.657055 -0.132361,-0.255764 -0.343958,-0.37482 -0.20725,-0.119028 -0.449792,-0.119028 -0.238125,0 -0.449791,0.119028 -0.211667,0.119028 -0.343959,0.37482 -0.132361,0.251361 -0.132361,0.657055 v 0.08819 q 0,0.427736 0.132361,0.692319 0.132223,0.264584 0.343959,0.383653 0.211666,0.119028 0.449791,0.119028 z m 2.07257,0.326319 v -3.086806 h 0.405694 l 1.658056,2.403306 v -2.403306 h 0.405695 v 3.086806 h -0.405695 l -1.658056,-2.403292 v 2.403292 z m 3.351389,0 v -3.086806 h 0.414514 v 2.725209 h 1.569861 v 0.361597 z m 2.557639,0 v -3.086806 h 0.414514 v 3.086806 z m 1.340556,0 v -3.086806 h 0.405694 l 1.658056,2.403306 v -2.403306 h 0.405695 v 3.086806 h -0.405695 l -1.658056,-2.403292 v 2.403292 z m 3.351389,0 v -3.086806 h 1.984375 v 0.361598 h -1.569861 v 0.956916 h 1.43757 v 0.361598 h -1.43757 v 1.045097 h 1.569861 v 0.361597 z"
                 id="text2-3"
                 style="font-size:3.175px;font-family:'Golos Text';-inkscape-font-specification:'Golos Text, Normal';text-align:center;letter-spacing:0px;word-spacing:0.00529167px;text-anchor:middle;fill:#000000;fill-opacity:1;fill-rule:evenodd;stroke-width:0;stroke-opacity:0"
                 inkscape:label="online"
                 aria-label="ONLINE" /><g
                 id="g2"
                 transform="matrix(1.0000013,0,0,1,-0.05354535,-9.3322189)"
                 style="fill:#000000"
                 inkscape:label="g2-gemini"><path
                   style="fill:#000000;fill-opacity:1;stroke-width:0.0236903"
                   d="m 33.883617,29.848034 c -0.04444,0.0042 -0.175689,0.02159 -0.292821,0.03353 -0.117087,0.01435 -0.327945,0.05513 -0.468495,0.09347 -0.140562,0.03836 -0.358407,0.11024 -0.480219,0.158126 -0.121813,0.05029 -0.304529,0.131831 -0.405257,0.182091 -0.09833,0.05271 -0.250652,0.138933 -0.339671,0.191666 -0.08667,0.05512 -0.220192,0.148535 -0.297501,0.208441 -0.07736,0.05995 -0.224887,0.186881 -0.325615,0.277926 -0.100704,0.09347 -0.264694,0.268334 -0.360741,0.385731 -0.09833,0.119756 -0.238942,0.313851 -0.316237,0.431249 -0.07736,0.119753 -0.206152,0.356993 -0.285795,0.527094 -0.08195,0.172502 -0.185064,0.431246 -0.229566,0.575011 -0.04444,0.146136 -0.09833,0.349792 -0.11945,0.455213 -0.01876,0.105407 -0.04917,0.282712 -0.0632,0.395307 -0.01403,0.112652 -0.02806,0.354593 -0.02806,0.53907 0,0.184492 0.01403,0.438451 0.02806,0.563035 0.01639,0.124586 0.05153,0.330629 0.07736,0.455215 0.02569,0.124584 0.08667,0.347405 0.13348,0.491151 0.04917,0.146153 0.142894,0.376144 0.208481,0.515109 0.06556,0.138932 0.185066,0.354592 0.264709,0.479178 0.07958,0.124583 0.203802,0.304275 0.278765,0.395321 0.07502,0.09106 0.238929,0.27072 0.36542,0.395306 0.128895,0.127001 0.295169,0.277923 0.372465,0.340216 0.07723,0.05995 0.224886,0.162927 0.327961,0.227607 0.103061,0.06706 0.262361,0.158125 0.351381,0.203655 0.08904,0.04787 0.269388,0.124585 0.398227,0.174889 0.128896,0.04787 0.327948,0.115067 0.44508,0.143764 0.11709,0.03112 0.332642,0.0743 0.480217,0.09831 0.23893,0.03594 0.44976,0.04076 1.920865,0.03594 0.908908,-0.0028 1.670225,-0.0099 1.691309,-0.01677 0.03987,-0.0099 0.04222,-0.131831 0.04222,-2.165871 V 34.481747 H 35.16042 c -0.02806,0.639692 -0.03514,1.082929 -0.03514,1.396792 v 0.567824 c -0.13584,0.03594 -0.257678,0.06221 -0.358407,0.0814 -0.103061,0.02159 -0.299836,0.03836 -0.461468,0.03836 -0.163981,0 -0.356062,-0.01677 -0.46383,-0.03836 -0.09833,-0.02159 -0.255333,-0.06705 -0.34435,-0.102992 -0.08905,-0.03353 -0.248304,-0.11734 -0.35138,-0.182091 -0.103061,-0.06464 -0.267042,-0.198854 -0.363089,-0.299489 -0.09833,-0.0983 -0.2319,-0.270734 -0.299835,-0.38333 -0.06793,-0.112653 -0.154604,-0.292301 -0.192093,-0.400109 -0.03987,-0.110237 -0.08667,-0.299488 -0.107784,-0.419286 -0.02806,-0.158127 -0.03514,-0.304277 -0.02569,-0.510319 0.0097,-0.213228 0.02806,-0.342604 0.07264,-0.503129 0.03515,-0.11734 0.09139,-0.28031 0.128896,-0.35938 0.03514,-0.07912 0.114726,-0.225207 0.178037,-0.323439 0.06097,-0.0983 0.175689,-0.244384 0.255332,-0.325841 0.07958,-0.0814 0.222541,-0.198853 0.318586,-0.263547 0.09598,-0.06705 0.264707,-0.153325 0.374798,-0.196454 0.110142,-0.04318 0.292819,-0.09589 0.409949,-0.117339 0.142884,-0.02401 0.278751,-0.03112 0.421648,-0.02159 0.11709,0.0071 0.295154,0.03594 0.39823,0.06221 0.103059,0.0287 0.281111,0.0983 0.398229,0.153337 0.117088,0.05753 0.299849,0.172503 0.407604,0.256347 0.107783,0.08381 0.201454,0.167714 0.210831,0.184492 0.0097,0.01917 0.119449,-0.09589 0.295154,-0.311464 0.154605,-0.189281 0.47319,-0.567824 0.707439,-0.845747 l 0.423995,-0.503131 c -0.168662,-0.170101 -0.271724,-0.263546 -0.334976,-0.316251 -0.06555,-0.05271 -0.201454,-0.153337 -0.30453,-0.225206 -0.10306,-0.07188 -0.292821,-0.186878 -0.421647,-0.253972 -0.128895,-0.06705 -0.327961,-0.160512 -0.445092,-0.20604 -0.11709,-0.04787 -0.316239,-0.112655 -0.44508,-0.143752 -0.128896,-0.03353 -0.31389,-0.07188 -0.409938,-0.08865 -0.09598,-0.01435 -0.323265,-0.03112 -0.503637,-0.03594 -0.180384,-0.0042 -0.365435,-0.0028 -0.409951,0.0028 z"
                   id="path786"
                   inkscape:label="g" /><path
                   style="fill:#000000;fill-opacity:1;stroke-width:0.023424"
                   d="m 13.376028,29.935116 c 0,0.0097 0.09369,0.269375 0.208474,0.578569 0.114777,0.309194 0.353702,0.953361 0.529383,1.428861 0.178022,0.477847 0.573886,1.557709 0.883081,2.400973 0.309208,0.843264 0.737861,2.023833 0.955708,2.623486 0.2155,0.599653 0.452083,1.253195 0.524695,1.452292 0.075,0.199111 0.135833,0.365416 0.138194,0.365416 0.0028,0.0028 0.276403,0.0069 0.611375,0.01111 l 0.604333,0.0097 c 0.145237,-0.398209 0.269375,-0.735514 0.370098,-1.007236 0.100694,-0.269375 0.252986,-0.681639 0.334972,-0.913528 0.08431,-0.231903 0.168653,-0.463806 0.189736,-0.515334 0.01875,-0.05153 0.121806,-0.325597 0.224861,-0.609027 0.105417,-0.283431 0.241278,-0.658209 0.304514,-0.831556 0.06083,-0.173333 0.182708,-0.505958 0.269375,-0.737861 0.08667,-0.231889 0.180375,-0.489556 0.21082,-0.573889 0.03042,-0.08431 0.152263,-0.414597 0.269375,-0.737847 0.117083,-0.320917 0.248291,-0.679306 0.292805,-0.796417 0.04222,-0.114722 0.21082,-0.573889 0.374778,-1.018945 0.163972,-0.445069 0.32325,-0.88075 0.353708,-0.972111 0.03042,-0.08903 0.05625,-0.166305 0.05625,-0.168653 0,-0.0042 -0.529389,-0.0069 -1.178236,-0.0069 h -1.175875 c -1.02832,3.113056 -1.360945,4.117958 -1.403111,4.239764 l -0.07722,0.222528 C 17.102869,33.961699 16.76791,32.95681 16.407188,31.876963 l -0.653542,-1.960597 c -1.843467,0 -2.377535,0.0069 -2.377535,0.01875 z"
                   id="Path 1"
                   inkscape:label="v1" /><path
                   style="fill:#000000;fill-opacity:1;stroke-width:0.023424"
                   d="m 21.600245,29.935116 c 0,0.0097 0.09369,0.269375 0.208474,0.578569 0.114777,0.309194 0.353702,0.953361 0.529383,1.428861 0.178022,0.477847 0.573886,1.557709 0.883081,2.400973 0.309208,0.843264 0.737861,2.023833 0.955708,2.623486 0.2155,0.599653 0.452083,1.253195 0.524695,1.452292 0.075,0.199111 0.135833,0.365416 0.138194,0.365416 0.0028,0.0028 0.276403,0.0069 0.611375,0.01111 l 0.604333,0.0097 c 0.145237,-0.398209 0.269375,-0.735514 0.370098,-1.007236 0.100694,-0.269375 0.252986,-0.681639 0.334972,-0.913528 0.08431,-0.231903 0.168653,-0.463806 0.189736,-0.515334 0.01875,-0.05153 0.121806,-0.325597 0.224861,-0.609027 0.105417,-0.283431 0.241278,-0.658209 0.304514,-0.831556 0.06083,-0.173333 0.182708,-0.505958 0.269375,-0.737861 0.08667,-0.231889 0.180375,-0.489556 0.21082,-0.573889 0.03042,-0.08431 0.152263,-0.414597 0.269375,-0.737847 0.117083,-0.320917 0.248291,-0.679306 0.292805,-0.796417 0.04222,-0.114722 0.21082,-0.573889 0.374778,-1.018945 0.163972,-0.445069 0.32325,-0.88075 0.353708,-0.972111 0.03042,-0.08903 0.05625,-0.166305 0.05625,-0.168653 0,-0.0042 -0.529389,-0.0069 -1.178236,-0.0069 h -1.175875 c -1.02832,3.113056 -1.360945,4.117958 -1.403111,4.239764 l -0.07722,0.222528 C 25.327086,33.961699 24.992127,32.95681 24.631405,31.876963 l -0.653542,-1.960597 c -1.843467,0 -2.377535,0.0069 -2.377535,0.01875 z"
                   id="path1"
                   inkscape:label="v2" /></g></g></g></g><text
           xml:space="preserve"
           style="font-style:normal;font-variant:normal;font-weight:normal;font-stretch:normal;font-size:4.23333px;line-height:normal;font-family:'IBM Plex Sans';-inkscape-font-specification:'IBM Plex Sans, Normal';font-variant-ligatures:normal;font-variant-caps:normal;font-variant-numeric:normal;font-variant-east-asian:normal;text-decoration-color:#000000;letter-spacing:0px;word-spacing:0.00461608px;fill:#2e2e38;fill-rule:evenodd;stroke:none;stroke-width:0.79375;stroke-dasharray:none;stroke-opacity:0.996094"
           x="165.42697"
           y="47.341862"
           id="text8"><tspan
             sodipodi:role="line"
             id="tspan8"
             style="font-style:normal;font-variant:normal;font-weight:normal;font-stretch:normal;font-size:4.23333px;font-family:'IBM Plex Sans';-inkscape-font-specification:'IBM Plex Sans, Normal';font-variant-ligatures:normal;font-variant-caps:normal;font-variant-numeric:normal;font-variant-east-asian:normal;letter-spacing:0px;stroke:none;stroke-width:0.79375"
             x="165.42697"
             y="47.341862">Digital Business Consulting</tspan></text><path
           style="fill:#2e2e38;fill-rule:evenodd;stroke:#2e2e38;stroke-width:0.176746;stroke-dasharray:none;stroke-opacity:0.996094"
           d="m 163.87284,42.644608 c 0,7.159313 0,7.159313 0,7.159313"
           id="path8" /></g></g></g></svg>
