<?xml version="1.0" encoding="UTF-8" standalone="no"?>
<!-- Created with Inkscape (http://www.inkscape.org/) -->

<svg
   width="1200"
   height="200"
   viewBox="0 0 317.49999 52.916667"
   version="1.1"
   id="svg1"
   inkscape:version="1.3 (0e150ed6c4, 2023-07-21)"
   sodipodi:docname="clv-formula.svg"
   xml:space="preserve"
   xmlns:inkscape="http://www.inkscape.org/namespaces/inkscape"
   xmlns:sodipodi="http://sodipodi.sourceforge.net/DTD/sodipodi-0.dtd"
   xmlns="http://www.w3.org/2000/svg"
   xmlns:svg="http://www.w3.org/2000/svg"><sodipodi:namedview
     id="namedview1"
     pagecolor="#505050"
     bordercolor="#eeeeee"
     borderopacity="1"
     inkscape:showpageshadow="0"
     inkscape:pageopacity="0"
     inkscape:pagecheckerboard="0"
     inkscape:deskcolor="#505050"
     inkscape:document-units="mm"
     inkscape:zoom="1.7"
     inkscape:cx="599.70588"
     inkscape:cy="99.705882"
     inkscape:window-width="2560"
     inkscape:window-height="965"
     inkscape:window-x="-8"
     inkscape:window-y="34"
     inkscape:window-maximized="1"
     inkscape:current-layer="layer1" /><defs
     id="defs1" /><g
     inkscape:label="Layer 1"
     inkscape:groupmode="layer"
     id="layer1"><rect
       style="fill:#ffdd33;fill-rule:evenodd;stroke-width:0;stroke-opacity:0.996094"
       id="rect1"
       width="317.5"
       height="52.916668"
       x="-1.4210855e-14"
       y="-6.357829e-07"
       inkscape:label="bg"
       sodipodi:insensitive="true" /><g
       id="g8"
       transform="translate(-43.874278)"><g
         inkscape:label="Layer 1"
         id="layer1-32"
         transform="matrix(0.30000001,0,0,0.30000001,155.575,42.375605)" /><g
         id="g9"
         transform="translate(16.441413)"><g
           id="g10"><rect
             style="fill:#ffdd33;fill-rule:evenodd;stroke:none;stroke-width:1.08113;stroke-opacity:0.996094"
             id="rect1-5"
             width="21.166666"
             height="21.166666"
             x="3.1789145e-07"
             y="2.2455316"
             transform="matrix(0.30000001,0,0,0.30000001,155.575,42.375606)" /><g
             inkscape:label="logo"
             id="layer1-3"
             transform="matrix(0.17280001,0,0,0.17280001,154.36088,41.835144)"><g
               id="g7"
               transform="translate(0.13700365,-0.239022)"><path
                 id="rect5"
                 style="display:inline;fill:#000000;fill-opacity:1;fill-rule:evenodd;stroke:none;stroke-width:0;stroke-dasharray:none;stroke-opacity:0.996094"
                 d="M 8.7265377,15.698743 V 34.302258 H 16.724188 V 33.720897 H 9.7600656 V 16.280104 H 40.765926 v 17.440793 h -6.963403 v 0.581361 h 7.996931 V 15.698743 Z" /><path
                 d="m 18.754535,35.5793 q -0.264583,0 -0.511527,-0.08819 -0.242528,-0.09264 -0.436556,-0.282222 -0.194028,-0.189611 -0.308681,-0.48507 -0.110277,-0.295444 -0.110277,-0.709958 v -0.08819 q 0,-0.396875 0.110277,-0.683513 0.114584,-0.286625 0.308681,-0.471834 0.194028,-0.189625 0.436556,-0.277819 0.246944,-0.08819 0.511527,-0.08819 0.264584,0 0.507125,0.08819 0.246945,0.08819 0.440973,0.277819 0.194027,0.185209 0.304264,0.471834 0.114722,0.286638 0.114722,0.683513 v 0.08819 q 0,0.414514 -0.114722,0.709958 -0.110278,0.295459 -0.304264,0.48507 -0.194028,0.189625 -0.440973,0.282222 -0.242541,0.08819 -0.507125,0.08819 z m 0,-0.370416 q 0.242542,0 0.449792,-0.119028 0.211667,-0.119028 0.343958,-0.383653 0.132223,-0.264583 0.132223,-0.692319 v -0.08819 q 0,-0.405694 -0.132223,-0.657055 -0.132361,-0.255764 -0.343958,-0.37482 -0.20725,-0.119028 -0.449792,-0.119028 -0.238125,0 -0.449791,0.119028 -0.211667,0.119028 -0.343959,0.37482 -0.132361,0.251361 -0.132361,0.657055 v 0.08819 q 0,0.427736 0.132361,0.692319 0.132223,0.264584 0.343959,0.383653 0.211666,0.119028 0.449791,0.119028 z m 2.07257,0.326319 v -3.086806 h 0.405694 l 1.658056,2.403306 v -2.403306 h 0.405695 v 3.086806 h -0.405695 l -1.658056,-2.403292 v 2.403292 z m 3.351389,0 v -3.086806 h 0.414514 v 2.725209 h 1.569861 v 0.361597 z m 2.557639,0 v -3.086806 h 0.414514 v 3.086806 z m 1.340556,0 v -3.086806 h 0.405694 l 1.658056,2.403306 v -2.403306 h 0.405695 v 3.086806 h -0.405695 l -1.658056,-2.403292 v 2.403292 z m 3.351389,0 v -3.086806 h 1.984375 v 0.361598 h -1.569861 v 0.956916 h 1.43757 v 0.361598 h -1.43757 v 1.045097 h 1.569861 v 0.361597 z"
                 id="text2-3"
                 style="font-size:3.175px;font-family:'Golos Text';-inkscape-font-specification:'Golos Text, Normal';text-align:center;letter-spacing:0px;word-spacing:0.00529167px;text-anchor:middle;fill:#000000;fill-opacity:1;fill-rule:evenodd;stroke-width:0;stroke-opacity:0"
                 inkscape:label="online"
                 aria-label="ONLINE" /><g
                 id="g2"
                 transform="matrix(1.0000013,0,0,1,-0.05354535,-9.3322189)"
                 style="fill:#000000"
                 inkscape:label="g2-gemini"><path
                   style="fill:#000000;fill-opacity:1;stroke-width:0.0236903"
                   d="m 33.883617,29.848034 c -0.04444,0.0042 -0.175689,0.02159 -0.292821,0.03353 -0.117087,0.01435 -0.327945,0.05513 -0.468495,0.09347 -0.140562,0.03836 -0.358407,0.11024 -0.480219,0.158126 -0.121813,0.05029 -0.304529,0.131831 -0.405257,0.182091 -0.09833,0.05271 -0.250652,0.138933 -0.339671,0.191666 -0.08667,0.05512 -0.220192,0.148535 -0.297501,0.208441 -0.07736,0.05995 -0.224887,0.186881 -0.325615,0.277926 -0.100704,0.09347 -0.264694,0.268334 -0.360741,0.385731 -0.09833,0.119756 -0.238942,0.313851 -0.316237,0.431249 -0.07736,0.119753 -0.206152,0.356993 -0.285795,0.527094 -0.08195,0.172502 -0.185064,0.431246 -0.229566,0.575011 -0.04444,0.146136 -0.09833,0.349792 -0.11945,0.455213 -0.01876,0.105407 -0.04917,0.282712 -0.0632,0.395307 -0.01403,0.112652 -0.02806,0.354593 -0.02806,0.53907 0,0.184492 0.01403,0.438451 0.02806,0.563035 0.01639,0.124586 0.05153,0.330629 0.07736,0.455215 0.02569,0.124584 0.08667,0.347405 0.13348,0.491151 0.04917,0.146153 0.142894,0.376144 0.208481,0.515109 0.06556,0.138932 0.185066,0.354592 0.264709,0.479178 0.07958,0.124583 0.203802,0.304275 0.278765,0.395321 0.07502,0.09106 0.238929,0.27072 0.36542,0.395306 0.128895,0.127001 0.295169,0.277923 0.372465,0.340216 0.07723,0.05995 0.224886,0.162927 0.327961,0.227607 0.103061,0.06706 0.262361,0.158125 0.351381,0.203655 0.08904,0.04787 0.269388,0.124585 0.398227,0.174889 0.128896,0.04787 0.327948,0.115067 0.44508,0.143764 0.11709,0.03112 0.332642,0.0743 0.480217,0.09831 0.23893,0.03594 0.44976,0.04076 1.920865,0.03594 0.908908,-0.0028 1.670225,-0.0099 1.691309,-0.01677 0.03987,-0.0099 0.04222,-0.131831 0.04222,-2.165871 V 34.481747 H 35.16042 c -0.02806,0.639692 -0.03514,1.082929 -0.03514,1.396792 v 0.567824 c -0.13584,0.03594 -0.257678,0.06221 -0.358407,0.0814 -0.103061,0.02159 -0.299836,0.03836 -0.461468,0.03836 -0.163981,0 -0.356062,-0.01677 -0.46383,-0.03836 -0.09833,-0.02159 -0.255333,-0.06705 -0.34435,-0.102992 -0.08905,-0.03353 -0.248304,-0.11734 -0.35138,-0.182091 -0.103061,-0.06464 -0.267042,-0.198854 -0.363089,-0.299489 -0.09833,-0.0983 -0.2319,-0.270734 -0.299835,-0.38333 -0.06793,-0.112653 -0.154604,-0.292301 -0.192093,-0.400109 -0.03987,-0.110237 -0.08667,-0.299488 -0.107784,-0.419286 -0.02806,-0.158127 -0.03514,-0.304277 -0.02569,-0.510319 0.0097,-0.213228 0.02806,-0.342604 0.07264,-0.503129 0.03515,-0.11734 0.09139,-0.28031 0.128896,-0.35938 0.03514,-0.07912 0.114726,-0.225207 0.178037,-0.323439 0.06097,-0.0983 0.175689,-0.244384 0.255332,-0.325841 0.07958,-0.0814 0.222541,-0.198853 0.318586,-0.263547 0.09598,-0.06705 0.264707,-0.153325 0.374798,-0.196454 0.110142,-0.04318 0.292819,-0.09589 0.409949,-0.117339 0.142884,-0.02401 0.278751,-0.03112 0.421648,-0.02159 0.11709,0.0071 0.295154,0.03594 0.39823,0.06221 0.103059,0.0287 0.281111,0.0983 0.398229,0.153337 0.117088,0.05753 0.299849,0.172503 0.407604,0.256347 0.107783,0.08381 0.201454,0.167714 0.210831,0.184492 0.0097,0.01917 0.119449,-0.09589 0.295154,-0.311464 0.154605,-0.189281 0.47319,-0.567824 0.707439,-0.845747 l 0.423995,-0.503131 c -0.168662,-0.170101 -0.271724,-0.263546 -0.334976,-0.316251 -0.06555,-0.05271 -0.201454,-0.153337 -0.30453,-0.225206 -0.10306,-0.07188 -0.292821,-0.186878 -0.421647,-0.253972 -0.128895,-0.06705 -0.327961,-0.160512 -0.445092,-0.20604 -0.11709,-0.04787 -0.316239,-0.112655 -0.44508,-0.143752 -0.128896,-0.03353 -0.31389,-0.07188 -0.409938,-0.08865 -0.09598,-0.01435 -0.323265,-0.03112 -0.503637,-0.03594 -0.180384,-0.0042 -0.365435,-0.0028 -0.409951,0.0028 z"
                   id="path786"
                   inkscape:label="g" /><path
                   style="fill:#000000;fill-opacity:1;stroke-width:0.023424"
                   d="m 13.376028,29.935116 c 0,0.0097 0.09369,0.269375 0.208474,0.578569 0.114777,0.309194 0.353702,0.953361 0.529383,1.428861 0.178022,0.477847 0.573886,1.557709 0.883081,2.400973 0.309208,0.843264 0.737861,2.023833 0.955708,2.623486 0.2155,0.599653 0.452083,1.253195 0.524695,1.452292 0.075,0.199111 0.135833,0.365416 0.138194,0.365416 0.0028,0.0028 0.276403,0.0069 0.611375,0.01111 l 0.604333,0.0097 c 0.145237,-0.398209 0.269375,-0.735514 0.370098,-1.007236 0.100694,-0.269375 0.252986,-0.681639 0.334972,-0.913528 0.08431,-0.231903 0.168653,-0.463806 0.189736,-0.515334 0.01875,-0.05153 0.121806,-0.325597 0.224861,-0.609027 0.105417,-0.283431 0.241278,-0.658209 0.304514,-0.831556 0.06083,-0.173333 0.182708,-0.505958 0.269375,-0.737861 0.08667,-0.231889 0.180375,-0.489556 0.21082,-0.573889 0.03042,-0.08431 0.152263,-0.414597 0.269375,-0.737847 0.117083,-0.320917 0.248291,-0.679306 0.292805,-0.796417 0.04222,-0.114722 0.21082,-0.573889 0.374778,-1.018945 0.163972,-0.445069 0.32325,-0.88075 0.353708,-0.972111 0.03042,-0.08903 0.05625,-0.166305 0.05625,-0.168653 0,-0.0042 -0.529389,-0.0069 -1.178236,-0.0069 h -1.175875 c -1.02832,3.113056 -1.360945,4.117958 -1.403111,4.239764 l -0.07722,0.222528 C 17.102869,33.961699 16.76791,32.95681 16.407188,31.876963 l -0.653542,-1.960597 c -1.843467,0 -2.377535,0.0069 -2.377535,0.01875 z"
                   id="Path 1"
                   inkscape:label="v1" /><path
                   style="fill:#000000;fill-opacity:1;stroke-width:0.023424"
                   d="m 21.600245,29.935116 c 0,0.0097 0.09369,0.269375 0.208474,0.578569 0.114777,0.309194 0.353702,0.953361 0.529383,1.428861 0.178022,0.477847 0.573886,1.557709 0.883081,2.400973 0.309208,0.843264 0.737861,2.023833 0.955708,2.623486 0.2155,0.599653 0.452083,1.253195 0.524695,1.452292 0.075,0.199111 0.135833,0.365416 0.138194,0.365416 0.0028,0.0028 0.276403,0.0069 0.611375,0.01111 l 0.604333,0.0097 c 0.145237,-0.398209 0.269375,-0.735514 0.370098,-1.007236 0.100694,-0.269375 0.252986,-0.681639 0.334972,-0.913528 0.08431,-0.231903 0.168653,-0.463806 0.189736,-0.515334 0.01875,-0.05153 0.121806,-0.325597 0.224861,-0.609027 0.105417,-0.283431 0.241278,-0.658209 0.304514,-0.831556 0.06083,-0.173333 0.182708,-0.505958 0.269375,-0.737861 0.08667,-0.231889 0.180375,-0.489556 0.21082,-0.573889 0.03042,-0.08431 0.152263,-0.414597 0.269375,-0.737847 0.117083,-0.320917 0.248291,-0.679306 0.292805,-0.796417 0.04222,-0.114722 0.21082,-0.573889 0.374778,-1.018945 0.163972,-0.445069 0.32325,-0.88075 0.353708,-0.972111 0.03042,-0.08903 0.05625,-0.166305 0.05625,-0.168653 0,-0.0042 -0.529389,-0.0069 -1.178236,-0.0069 h -1.175875 c -1.02832,3.113056 -1.360945,4.117958 -1.403111,4.239764 l -0.07722,0.222528 C 25.327086,33.961699 24.992127,32.95681 24.631405,31.876963 l -0.653542,-1.960597 c -1.843467,0 -2.377535,0.0069 -2.377535,0.01875 z"
                   id="path1"
                   inkscape:label="v2" /></g></g></g></g><text
           xml:space="preserve"
           style="font-style:normal;font-variant:normal;font-weight:normal;font-stretch:normal;font-size:4.23333px;line-height:normal;font-family:'IBM Plex Sans';-inkscape-font-specification:'IBM Plex Sans, Normal';font-variant-ligatures:normal;font-variant-caps:normal;font-variant-numeric:normal;font-variant-east-asian:normal;text-decoration-color:#000000;letter-spacing:0px;word-spacing:0.00461608px;fill:#2e2e38;fill-rule:evenodd;stroke:none;stroke-width:0.79375;stroke-dasharray:none;stroke-opacity:0.996094"
           x="165.42697"
           y="47.341862"
           id="text8"><tspan
             sodipodi:role="line"
             id="tspan8"
             style="font-style:normal;font-variant:normal;font-weight:normal;font-stretch:normal;font-size:4.23333px;font-family:'IBM Plex Sans';-inkscape-font-specification:'IBM Plex Sans, Normal';font-variant-ligatures:normal;font-variant-caps:normal;font-variant-numeric:normal;font-variant-east-asian:normal;letter-spacing:0px;stroke:none;stroke-width:0.79375"
             x="165.42697"
             y="47.341862">Digital Business Consulting</tspan></text><path
           style="fill:#2e2e38;fill-rule:evenodd;stroke:#2e2e38;stroke-width:0.176746;stroke-dasharray:none;stroke-opacity:0.996094"
           d="m 163.87284,42.644608 c 0,7.159313 0,7.159313 0,7.159313"
           id="path8" /></g></g><g
       id="g18"
       transform="translate(-2.889685)"><path
         d="m 26.224683,34.586343 q -1.761068,0 -3.273781,-0.835378 -1.512712,-0.835379 -2.46098,-2.596448 -0.92569,-1.783646 -0.92569,-4.583293 v -0.451556 q 0,-2.032002 0.541867,-3.499559 0.541868,-1.467557 1.467558,-2.415825 0.925689,-0.948268 2.122313,-1.399824 1.219201,-0.474133 2.528713,-0.474133 1.286935,0 2.348092,0.338667 1.083734,0.338667 1.896535,0.970845 0.812801,0.632179 1.309512,1.557868 0.51929,0.92569 0.654757,2.099736 h -2.25778 q -0.31609,-1.535291 -1.332091,-2.302936 -1.016001,-0.767645 -2.619025,-0.767645 -1.106312,0 -2.122313,0.564445 -1.016001,0.564445 -1.648179,1.873957 -0.632179,1.286935 -0.632179,3.454404 v 0.451556 q 0,1.715913 0.383823,2.889958 0.4064,1.174046 1.061157,1.896536 0.654756,0.699912 1.422401,1.016001 0.790223,0.316089 1.53529,0.316089 1.761069,0 2.754492,-0.857956 0.993423,-0.857957 1.196624,-2.212625 h 2.25778 q -0.180623,1.309512 -0.72249,2.25778 -0.541867,0.948268 -1.377246,1.557868 -0.812801,0.587023 -1.873957,0.880535 -1.038579,0.270933 -2.235203,0.270933 z m 9.595572,-0.225778 v -15.80446 h 2.122314 v 13.953081 h 8.037697 v 1.851379 z m 14.969067,0 -6.163739,-15.80446 h 2.302935 l 4.944539,13.095124 4.763916,-13.095124 h 2.212624 l -5.937962,15.80446 z"
         id="text10"
         style="font-size:22.5778px;font-family:'Golos Text';-inkscape-font-specification:'Golos Text, Normal';letter-spacing:0px;word-spacing:0.00461608px;fill:#2e2e38;fill-rule:evenodd;stroke:#2e2e38;stroke-width:0.79375;stroke-opacity:0.996094"
         aria-label="CLV" /><path
         d="m 68.885193,28.845929 v -1.388531 h 7.619985 v 1.388531 z m 0,-3.38666 v -1.388531 h 7.619985 v 1.388531 z"
         id="text11"
         style="font-size:16.9333px;font-family:'Golos Text';-inkscape-font-specification:'Golos Text, Normal';letter-spacing:0px;word-spacing:0.00461608px;fill:#2e2e38;fill-rule:evenodd;stroke:#2e2e38;stroke-width:0.79375;stroke-opacity:0.996094"
         aria-label="=" /><path
         d="m 267.92933,34.586343 q -1.76106,0 -3.27378,-0.835378 -1.51271,-0.835379 -2.46098,-2.596448 -0.92569,-1.783646 -0.92569,-4.583293 v -0.451556 q 0,-2.032002 0.54187,-3.499559 0.54187,-1.467557 1.46756,-2.415825 0.92569,-0.948268 2.12231,-1.399824 1.2192,-0.474133 2.52871,-0.474133 1.28694,0 2.3481,0.338667 1.08373,0.338667 1.89653,0.970845 0.8128,0.632179 1.30951,1.557868 0.51929,0.92569 0.65476,2.099736 h -2.25778 q -0.31609,-1.535291 -1.33209,-2.302936 -1.016,-0.767645 -2.61903,-0.767645 -1.10631,0 -2.12231,0.564445 -1.016,0.564445 -1.64818,1.873957 -0.63218,1.286935 -0.63218,3.454404 v 0.451556 q 0,1.715913 0.38383,2.889958 0.4064,1.174046 1.06115,1.896536 0.65476,0.699912 1.4224,1.016001 0.79023,0.316089 1.53529,0.316089 1.76107,0 2.7545,-0.857956 0.99342,-0.857957 1.19662,-2.212625 h 2.25778 q -0.18062,1.309512 -0.72249,2.25778 -0.54187,0.948268 -1.37725,1.557868 -0.8128,0.587023 -1.87395,0.880535 -1.03858,0.270933 -2.23521,0.270933 z m 7.33779,-0.225778 6.05085,-15.80446 h 2.12231 l 6.05085,15.80446 h -2.30293 l -1.51272,-3.928537 h -6.68303 l -1.51271,3.928537 z m 4.42525,-5.779917 h 5.2832 l -2.6416,-7.315207 z m 17.81387,6.005695 q -1.76107,0 -3.27378,-0.835378 -1.51271,-0.835379 -2.46098,-2.596448 -0.92569,-1.783646 -0.92569,-4.583293 v -0.451556 q 0,-2.032002 0.54187,-3.499559 0.54187,-1.467557 1.46756,-2.415825 0.92569,-0.948268 2.12231,-1.399824 1.2192,-0.474133 2.52871,-0.474133 1.28694,0 2.34809,0.338667 1.08374,0.338667 1.89654,0.970845 0.8128,0.632179 1.30951,1.557868 0.51929,0.92569 0.65476,2.099736 h -2.25778 q -0.31609,-1.535291 -1.33209,-2.302936 -1.016,-0.767645 -2.61903,-0.767645 -1.10631,0 -2.12231,0.564445 -1.016,0.564445 -1.64818,1.873957 -0.63218,1.286935 -0.63218,3.454404 v 0.451556 q 0,1.715913 0.38382,2.889958 0.4064,1.174046 1.06116,1.896536 0.65476,0.699912 1.4224,1.016001 0.79023,0.316089 1.53529,0.316089 1.76107,0 2.75449,-0.857956 0.99343,-0.857957 1.19663,-2.212625 h 2.25778 q -0.18062,1.309512 -0.72249,2.25778 -0.54187,0.948268 -1.37725,1.557868 -0.8128,0.587023 -1.87396,0.880535 -1.03857,0.270933 -2.2352,0.270933 z"
         id="text12"
         style="font-size:22.5778px;font-family:'Golos Text';-inkscape-font-specification:'Golos Text, Normal';letter-spacing:0px;word-spacing:0.00461608px;fill:#2e2e38;fill-rule:evenodd;stroke:#2e2e38;stroke-width:0.79375;stroke-opacity:0.996094"
         aria-label="CAC" /><path
         d="m 246.1533,27.152599 v -1.388531 h 5.07999 v 1.388531 z"
         id="text13"
         style="font-size:16.9333px;font-family:'Golos Text';-inkscape-font-specification:'Golos Text, Normal';letter-spacing:0px;word-spacing:0.00461608px;fill:#2e2e38;fill-rule:evenodd;stroke:#2e2e38;stroke-width:0.79375;stroke-opacity:0.996094"
         aria-label="-" /><path
         d="m 86.540768,34.078318 v -15.23997 h 3.047994 v 1.253064 h -1.625596 v 12.733842 h 1.625596 v 1.253064 z"
         id="text14"
         style="font-size:16.9333px;font-family:'Golos Text';-inkscape-font-specification:'Golos Text, Normal';letter-spacing:0px;word-spacing:0.00461608px;fill:#2e2e38;fill-rule:evenodd;stroke:#2e2e38;stroke-width:0.79375;stroke-opacity:0.996094"
         aria-label="[" /><path
         d="m 236.11771,18.838348 v 15.23997 h -3.04799 v -1.253064 h 1.62559 V 20.091412 h -1.62559 v -1.253064 z"
         id="text15"
         style="font-size:16.9333px;font-family:'Golos Text';-inkscape-font-specification:'Golos Text, Normal';letter-spacing:0px;word-spacing:0.00461608px;fill:#2e2e38;fill-rule:evenodd;stroke:#2e2e38;stroke-width:0.79375;stroke-opacity:0.996094"
         aria-label="]" /><g
         id="g17"
         transform="translate(2.2679631,-1.7315178)"><path
           d="m 97.528683,25.213236 1.51271,-3.951108 h 0.530578 l 1.512709,3.951108 h -0.57573 l -0.37818,-0.982133 h -1.670754 l -0.378178,0.982133 z m 1.10631,-1.444977 h 1.320799 l -0.660399,-1.828798 z m 3.014127,1.444977 v -2.991553 h 0.46285 v 0.564444 q 0.1016,-0.248356 0.3556,-0.434622 0.25964,-0.186267 0.66604,-0.186267 0.56445,0 0.83538,0.3048 0.27658,0.299155 0.27658,0.880533 v 1.862665 h -0.49671 v -1.749777 q 0,-0.417688 -0.17498,-0.632177 -0.17498,-0.214489 -0.58702,-0.214489 -0.29351,0 -0.47978,0.124178 -0.18627,0.124178 -0.27658,0.316089 -0.0847,0.191911 -0.0847,0.406399 v 1.749777 z m 3.47133,0 v -2.991553 h 0.46285 v 0.564444 q 0.1016,-0.248356 0.3556,-0.434622 0.25964,-0.186267 0.66604,-0.186267 0.56445,0 0.83538,0.3048 0.27658,0.299155 0.27658,0.880533 v 1.862665 h -0.49671 v -1.749777 q 0,-0.417688 -0.17498,-0.632177 -0.17498,-0.214489 -0.58702,-0.214489 -0.29351,0 -0.47978,0.124178 -0.18627,0.124178 -0.27658,0.316089 -0.0847,0.191911 -0.0847,0.406399 v 1.749777 z m 4.52684,0.05644 q -0.54186,0 -0.8128,-0.310444 -0.27093,-0.310444 -0.27093,-0.959555 v -1.777998 h 0.49671 v 1.749776 q 0,0.417689 0.16934,0.632177 0.17497,0.214489 0.56444,0.214489 0.28222,0 0.46284,-0.124178 0.18063,-0.124177 0.26529,-0.316088 0.0847,-0.197556 0.0847,-0.4064 v -1.749776 h 0.49671 v 2.991553 h -0.46284 v -0.564444 q -0.1016,0.248355 -0.3556,0.434622 -0.254,0.186266 -0.63783,0.186266 z m 3.21169,0 q -0.32738,0 -0.5588,-0.118533 -0.22578,-0.124178 -0.34431,-0.333022 -0.11854,-0.214489 -0.11854,-0.479777 0,-0.445911 0.25965,-0.643467 0.26529,-0.197555 0.75635,-0.197555 h 0.97085 v -0.2032 q 0,-0.383822 -0.17498,-0.530577 -0.16933,-0.146756 -0.51364,-0.146756 -0.32174,0 -0.46849,0.124178 -0.14676,0.118533 -0.16369,0.270933 h -0.49671 q 0.0169,-0.242711 0.16369,-0.428977 0.14675,-0.191911 0.40075,-0.3048 0.254,-0.112889 0.59267,-0.112889 0.3556,0 0.61524,0.112889 0.25965,0.107244 0.40076,0.344311 0.14111,0.231422 0.14111,0.615244 v 1.213554 q 0,0.237067 0,0.417689 0.006,0.174978 0.0282,0.344311 h -0.43462 q -0.0169,-0.129822 -0.0226,-0.242711 -0.006,-0.118533 -0.006,-0.265289 -0.11854,0.237067 -0.38383,0.400755 -0.26528,0.163689 -0.64346,0.163689 z m 0.10724,-0.451555 q 0.23707,0 0.42898,-0.08467 0.19755,-0.08467 0.31044,-0.248355 0.11854,-0.163689 0.11854,-0.400755 v -0.2032 H 112.938 q -0.27658,0 -0.43462,0.112889 -0.15805,0.107244 -0.15805,0.344311 0,0.208844 0.14676,0.34431 0.1524,0.135467 0.47413,0.135467 z m 3.13267,0.423333 q -0.31044,0 -0.508,-0.09596 -0.19191,-0.1016 -0.28222,-0.310445 -0.0847,-0.214488 -0.0847,-0.553155 v -3.019775 h 0.49671 v 3.019775 q 0,0.293511 0.096,0.400755 0.096,0.107245 0.33866,0.107245 0.0621,0 0.10725,0 0.0452,-0.0056 0.0903,-0.01129 v 0.440266 q -0.0282,0.0056 -0.079,0.01129 -0.0452,0.0056 -0.096,0.0056 -0.0451,0.0056 -0.079,0.0056 z m 2.43172,-0.02822 v -3.951108 h 1.38289 q 0.49671,0 0.82409,0.158044 0.33302,0.1524 0.50235,0.423333 0.16934,0.265289 0.16934,0.603955 0,0.395111 -0.23707,0.694266 -0.23142,0.293511 -0.68862,0.412044 l 1.03858,1.659466 h -0.62654 l -0.94262,-1.591732 h -0.89182 v 1.591732 z m 0.53058,-2.043287 h 0.79587 q 0.54751,0 0.78457,-0.197556 0.23707,-0.2032 0.23707,-0.524933 0,-0.321733 -0.23707,-0.519288 -0.23706,-0.2032 -0.78457,-0.2032 h -0.79587 z m 4.38009,2.099731 q -0.37818,0 -0.7112,-0.163689 -0.32738,-0.163688 -0.53058,-0.502355 -0.19756,-0.338666 -0.19756,-0.857955 v -0.112888 q 0,-0.496711 0.19191,-0.818444 0.19192,-0.327378 0.508,-0.485422 0.31609,-0.163689 0.68298,-0.163689 0.6604,0 1.02165,0.361244 0.36124,0.361245 0.36124,1.021644 v 0.316089 h -2.26907 q 0,0.349955 0.14112,0.558799 0.14675,0.208845 0.36124,0.3048 0.22013,0.09031 0.44027,0.09031 0.33866,0 0.51928,-0.112889 0.18627,-0.112889 0.26529,-0.310444 h 0.48542 q -0.0903,0.428977 -0.44591,0.654755 -0.34995,0.220133 -0.82408,0.220133 z m -0.0282,-2.652887 q -0.23142,0 -0.44026,0.09031 -0.20885,0.08467 -0.34431,0.270934 -0.12983,0.186266 -0.12983,0.479777 h 1.80058 q -0.006,-0.310444 -0.12982,-0.491066 -0.11853,-0.186267 -0.31609,-0.265289 -0.19756,-0.08467 -0.44027,-0.08467 z m 2.85044,2.596443 -1.24177,-2.991553 h 0.55315 l 0.97084,2.483553 0.88054,-2.483553 h 0.53057 l -1.12888,2.991553 z m 3.38666,0.05644 q -0.37818,0 -0.7112,-0.163689 -0.32738,-0.163688 -0.53058,-0.502355 -0.19755,-0.338666 -0.19755,-0.857955 v -0.112888 q 0,-0.496711 0.19191,-0.818444 0.19191,-0.327378 0.508,-0.485422 0.31609,-0.163689 0.68298,-0.163689 0.6604,0 1.02164,0.361244 0.36125,0.361245 0.36125,1.021644 v 0.316089 h -2.26907 q 0,0.349955 0.14111,0.558799 0.14676,0.208845 0.36125,0.3048 0.22013,0.09031 0.44026,0.09031 0.33867,0 0.51929,-0.112889 0.18627,-0.112889 0.26529,-0.310444 h 0.48542 q -0.0903,0.428977 -0.44591,0.654755 -0.34996,0.220133 -0.82409,0.220133 z m -0.0282,-2.652887 q -0.23142,0 -0.44027,0.09031 -0.20884,0.08467 -0.34431,0.270934 -0.12982,0.186266 -0.12982,0.479777 h 1.80058 q -0.006,-0.310444 -0.12983,-0.491066 -0.11853,-0.186267 -0.31608,-0.265289 -0.19756,-0.08467 -0.44027,-0.08467 z m 2.06022,2.596443 v -2.991553 h 0.46284 v 0.564444 q 0.1016,-0.248356 0.3556,-0.434622 0.25965,-0.186267 0.66605,-0.186267 0.56444,0 0.83537,0.3048 0.27658,0.299155 0.27658,0.880533 v 1.862665 h -0.49671 v -1.749777 q 0,-0.417688 -0.17498,-0.632177 -0.17497,-0.214489 -0.58702,-0.214489 -0.29351,0 -0.47978,0.124178 -0.18626,0.124178 -0.27657,0.316089 -0.0847,0.191911 -0.0847,0.406399 v 1.749777 z m 4.52684,0.05644 q -0.54187,0 -0.8128,-0.310444 -0.27093,-0.310444 -0.27093,-0.959555 v -1.777998 h 0.49671 v 1.749776 q 0,0.417689 0.16933,0.632177 0.17498,0.214489 0.56444,0.214489 0.28223,0 0.46285,-0.124178 0.18062,-0.124177 0.26529,-0.316088 0.0847,-0.197556 0.0847,-0.4064 v -1.749776 h 0.49671 v 2.991553 h -0.46284 v -0.564444 q -0.1016,0.248355 -0.3556,0.434622 -0.254,0.186266 -0.63782,0.186266 z m 3.60115,0 q -0.37818,0 -0.7112,-0.163689 -0.32738,-0.163688 -0.53058,-0.502355 -0.19755,-0.338666 -0.19755,-0.857955 v -0.112888 q 0,-0.496711 0.19191,-0.818444 0.19191,-0.327378 0.508,-0.485422 0.31609,-0.163689 0.68297,-0.163689 0.6604,0 1.02165,0.361244 0.36124,0.361245 0.36124,1.021644 v 0.316089 h -2.26906 q 0,0.349955 0.14111,0.558799 0.14675,0.208845 0.36124,0.3048 0.22013,0.09031 0.44027,0.09031 0.33866,0 0.51929,-0.112889 0.18626,-0.112889 0.26529,-0.310444 h 0.48542 q -0.0903,0.428977 -0.44591,0.654755 -0.34996,0.220133 -0.82409,0.220133 z m -0.0282,-2.652887 q -0.23143,0 -0.44027,0.09031 -0.20884,0.08467 -0.34431,0.270934 -0.12982,0.186266 -0.12982,0.479777 h 1.80057 q -0.006,-0.310444 -0.12982,-0.491066 -0.11853,-0.186267 -0.31609,-0.265289 -0.19755,-0.08467 -0.44026,-0.08467 z m 3.47594,3.725331 v -4.120441 h 0.46285 v 0.564444 q 0.1524,-0.299156 0.42333,-0.4572 0.27658,-0.163689 0.63782,-0.163689 0.56445,0 0.90311,0.372533 0.33867,0.366889 0.33867,1.095022 v 0.112888 q 0,0.508 -0.15804,0.846666 -0.1524,0.338667 -0.43463,0.508 -0.27657,0.169333 -0.64911,0.169333 -0.38382,0 -0.64346,-0.169333 -0.254,-0.169333 -0.38383,-0.423333 v 1.66511 z m 1.41111,-1.51271 q 0.36689,0 0.6096,-0.276578 0.24836,-0.276577 0.24836,-0.807155 v -0.112888 q 0,-0.491067 -0.24836,-0.756355 -0.24271,-0.270934 -0.6096,-0.270934 -0.27093,0 -0.47977,0.112889 -0.2032,0.112889 -0.32174,0.310445 -0.11289,0.19191 -0.11289,0.434621 v 0.451556 q 0,0.270933 0.11289,0.479777 0.11854,0.2032 0.32174,0.321733 0.20884,0.112889 0.47977,0.112889 z m 3.302,0.440266 q -0.37818,0 -0.7112,-0.163689 -0.32738,-0.163688 -0.53058,-0.502355 -0.19755,-0.338666 -0.19755,-0.857955 v -0.112888 q 0,-0.496711 0.19191,-0.818444 0.19191,-0.327378 0.508,-0.485422 0.31609,-0.163689 0.68298,-0.163689 0.66039,0 1.02164,0.361244 0.36124,0.361245 0.36124,1.021644 v 0.316089 h -2.26906 q 0,0.349955 0.14111,0.558799 0.14675,0.208845 0.36124,0.3048 0.22014,0.09031 0.44027,0.09031 0.33867,0 0.51929,-0.112889 0.18626,-0.112889 0.26529,-0.310444 h 0.48542 q -0.0903,0.428977 -0.44591,0.654755 -0.34996,0.220133 -0.82409,0.220133 z m -0.0282,-2.652887 q -0.23142,0 -0.44027,0.09031 -0.20884,0.08467 -0.34431,0.270934 -0.12982,0.186266 -0.12982,0.479777 h 1.80057 q -0.006,-0.310444 -0.12982,-0.491066 -0.11853,-0.186267 -0.31609,-0.265289 -0.19755,-0.08467 -0.44026,-0.08467 z m 2.06022,2.596443 v -2.991553 h 0.46284 v 0.564444 q 0.0677,-0.180623 0.18627,-0.316089 0.11853,-0.141111 0.28787,-0.220133 0.17497,-0.08467 0.38946,-0.08467 0.11289,0 0.18063,0.01129 0.0734,0.01129 0.12982,0.02822 v 0.462844 q -0.0734,-0.02822 -0.14676,-0.03951 -0.0677,-0.01129 -0.19191,-0.01129 -0.22578,0 -0.4064,0.107245 -0.18062,0.107244 -0.28787,0.299155 -0.10724,0.186267 -0.10724,0.440266 v 1.749777 z m 5.16927,0.05644 q -0.44026,0 -0.81844,-0.208844 -0.37818,-0.208844 -0.61524,-0.649111 -0.23143,-0.44591 -0.23143,-1.145821 v -0.112889 q 0,-0.507999 0.13547,-0.874888 0.13547,-0.366889 0.36689,-0.603955 0.23142,-0.237067 0.53058,-0.349955 0.3048,-0.118534 0.63217,-0.118534 0.32174,0 0.58703,0.08467 0.27093,0.08467 0.47413,0.242711 0.2032,0.158044 0.32738,0.389466 0.12982,0.231422 0.16369,0.524933 h -0.56445 q -0.079,-0.383822 -0.33302,-0.575733 -0.254,-0.191911 -0.65476,-0.191911 -0.27657,0 -0.53057,0.141111 -0.254,0.141111 -0.41205,0.468489 -0.15804,0.321733 -0.15804,0.863599 v 0.112889 q 0,0.428977 0.0959,0.722488 0.1016,0.293511 0.26529,0.474133 0.16369,0.174978 0.3556,0.254 0.19756,0.07902 0.38382,0.07902 0.44027,0 0.68863,-0.214488 0.24835,-0.214489 0.29915,-0.553156 h 0.56445 q -0.0452,0.327378 -0.18063,0.564444 -0.13546,0.237067 -0.34431,0.389467 -0.2032,0.146755 -0.46849,0.220133 -0.25964,0.06773 -0.5588,0.06773 z m 3.34151,0 q -0.54186,0 -0.8128,-0.310444 -0.27093,-0.310444 -0.27093,-0.959555 v -1.777998 h 0.49671 v 1.749776 q 0,0.417689 0.16933,0.632177 0.17498,0.214489 0.56445,0.214489 0.28222,0 0.46284,-0.124178 0.18062,-0.124177 0.26529,-0.316088 0.0847,-0.197556 0.0847,-0.4064 v -1.749776 h 0.49671 v 2.991553 h -0.46285 v -0.564444 q -0.1016,0.248355 -0.3556,0.434622 -0.254,0.186266 -0.63782,0.186266 z m 3.4036,0 q -0.29916,0 -0.51929,-0.06773 -0.22013,-0.07338 -0.36689,-0.191911 -0.14675,-0.118533 -0.23706,-0.276578 -0.0847,-0.163688 -0.11854,-0.338666 h 0.49671 q 0.0395,0.180622 0.20885,0.316089 0.17498,0.129822 0.53622,0.129822 0.41769,0 0.58138,-0.129822 0.16369,-0.135467 0.16369,-0.316089 0,-0.124178 -0.0734,-0.214489 -0.0677,-0.09596 -0.24836,-0.163688 -0.17497,-0.06773 -0.50235,-0.112889 -0.24836,-0.03387 -0.44591,-0.09596 -0.19756,-0.06773 -0.33867,-0.174977 -0.14111,-0.107245 -0.22013,-0.259645 -0.0734,-0.1524 -0.0734,-0.361244 0,-0.225777 0.12982,-0.417688 0.12982,-0.191911 0.38947,-0.310445 0.25964,-0.118533 0.63782,-0.118533 0.3556,0 0.58702,0.124178 0.23707,0.118533 0.36689,0.316088 0.12982,0.197556 0.17498,0.434622 h -0.49671 q -0.0452,-0.197555 -0.19191,-0.321733 -0.14676,-0.124177 -0.44027,-0.124177 -0.36689,0 -0.51364,0.124177 -0.14676,0.118534 -0.14676,0.293511 0,0.2032 0.15805,0.3048 0.16368,0.1016 0.59266,0.158044 0.27658,0.03387 0.49107,0.1016 0.21449,0.06209 0.36124,0.174978 0.14676,0.107244 0.22013,0.265289 0.079,0.158044 0.079,0.378177 0,0.237067 -0.13547,0.434622 -0.13547,0.197555 -0.41204,0.321733 -0.27094,0.118533 -0.69427,0.118533 z m 3.048,-0.02822 q -0.31609,0 -0.51929,-0.09596 -0.19755,-0.09596 -0.29351,-0.287867 -0.0903,-0.197555 -0.0903,-0.491066 v -1.704621 h -0.45155 v -0.440266 h 0.45155 V 21.54435 h 0.49671 v 0.677333 h 0.80151 v 0.440266 h -0.80151 v 1.648176 q 0,0.254 0.10725,0.366889 0.10724,0.112889 0.41204,0.112889 0.16933,0 0.33867,-0.01693 v 0.440266 q -0.10725,0.01129 -0.21449,0.01693 -0.10725,0.01129 -0.23707,0.01129 z m 2.39889,0.02822 q -0.37818,0 -0.7112,-0.163689 -0.32738,-0.169333 -0.53058,-0.507999 -0.19755,-0.338667 -0.19755,-0.852311 v -0.112888 q 0,-0.485422 0.19755,-0.8128 0.2032,-0.327377 0.53058,-0.491066 0.33302,-0.163689 0.7112,-0.163689 0.38382,0 0.7112,0.163689 0.32738,0.163689 0.52493,0.491066 0.2032,0.327378 0.2032,0.8128 v 0.112888 q 0,0.513644 -0.2032,0.852311 -0.19755,0.338666 -0.52493,0.507999 -0.32738,0.163689 -0.7112,0.163689 z m 0,-0.451555 q 0.23142,0 0.44026,-0.1016 0.21449,-0.107244 0.34996,-0.344311 0.14111,-0.237066 0.14111,-0.626533 v -0.112888 q 0,-0.361245 -0.14111,-0.581378 -0.13547,-0.225777 -0.34996,-0.327377 -0.20884,-0.107245 -0.44026,-0.107245 -0.22578,0 -0.44027,0.107245 -0.21449,0.1016 -0.3556,0.327377 -0.13546,0.220133 -0.13546,0.581378 v 0.112888 q 0,0.389467 0.13546,0.626533 0.14111,0.237067 0.3556,0.344311 0.21449,0.1016 0.44027,0.1016 z m 2.14489,0.395111 v -2.991553 h 0.46284 v 0.564444 q 0.096,-0.276578 0.32738,-0.445911 0.23706,-0.174978 0.53622,-0.174978 0.38947,0 0.59831,0.169333 0.20885,0.163689 0.28787,0.423333 0.14675,-0.276577 0.37253,-0.434622 0.23142,-0.158044 0.55316,-0.158044 0.46284,0 0.72248,0.282222 0.25965,0.276578 0.25965,0.874888 v 1.890888 h -0.49671 v -1.777999 q 0,-0.445911 -0.15805,-0.632177 -0.1524,-0.186267 -0.46849,-0.186267 -0.18062,0 -0.33866,0.1016 -0.15805,0.09596 -0.254,0.282222 -0.096,0.180622 -0.096,0.434622 v 1.777999 h -0.49671 v -1.777999 q 0,-0.445911 -0.15804,-0.632177 -0.15805,-0.186267 -0.46849,-0.186267 -0.18062,0 -0.33867,0.1016 -0.15804,0.09596 -0.254,0.282222 -0.0959,0.180622 -0.0959,0.434622 v 1.777999 z m 6.2371,0.05644 q -0.37817,0 -0.7112,-0.163689 -0.32737,-0.163688 -0.53057,-0.502355 -0.19756,-0.338666 -0.19756,-0.857955 v -0.112888 q 0,-0.496711 0.19191,-0.818444 0.19191,-0.327378 0.508,-0.485422 0.31609,-0.163689 0.68298,-0.163689 0.6604,0 1.02164,0.361244 0.36125,0.361245 0.36125,1.021644 v 0.316089 h -2.26907 q 0,0.349955 0.14111,0.558799 0.14676,0.208845 0.36125,0.3048 0.22013,0.09031 0.44026,0.09031 0.33867,0 0.51929,-0.112889 0.18627,-0.112889 0.26529,-0.310444 h 0.48542 q -0.0903,0.428977 -0.44591,0.654755 -0.34995,0.220133 -0.82409,0.220133 z m -0.0282,-2.652887 q -0.23142,0 -0.44026,0.09031 -0.20885,0.08467 -0.34432,0.270934 -0.12982,0.186266 -0.12982,0.479777 h 1.80058 q -0.006,-0.310444 -0.12982,-0.491066 -0.11854,-0.186267 -0.31609,-0.265289 -0.19756,-0.08467 -0.44027,-0.08467 z m 2.06022,2.596443 v -2.991553 h 0.46284 v 0.564444 q 0.0677,-0.180623 0.18627,-0.316089 0.11853,-0.141111 0.28787,-0.220133 0.17498,-0.08467 0.38946,-0.08467 0.11289,0 0.18063,0.01129 0.0734,0.01129 0.12982,0.02822 v 0.462844 q -0.0734,-0.02822 -0.14676,-0.03951 -0.0677,-0.01129 -0.19191,-0.01129 -0.22578,0 -0.4064,0.107245 -0.18062,0.107244 -0.28786,0.299155 -0.10725,0.186267 -0.10725,0.440266 v 1.749777 z m 3.30661,0 1.12324,-1.518355 -1.0668,-1.473198 h 0.57573 l 0.79023,1.089377 0.79022,-1.089377 h 0.55315 l -1.0668,1.444976 1.12325,1.546577 h -0.58703 l -0.83537,-1.168399 -0.83538,1.168399 z m 6.43927,0.05644 q -0.46284,0 -0.85795,-0.208844 -0.38947,-0.208844 -0.62654,-0.649111 -0.23706,-0.44591 -0.23706,-1.145821 v -0.112889 q 0,-0.507999 0.13546,-0.874888 0.13547,-0.366889 0.37254,-0.603955 0.24271,-0.237067 0.55315,-0.349955 0.31045,-0.118534 0.6604,-0.118534 0.28787,0 0.53622,0.08467 0.24836,0.07902 0.44591,0.231422 0.19756,0.1524 0.33303,0.372533 0.14111,0.220133 0.20884,0.496711 h -0.56444 q -0.079,-0.248356 -0.23143,-0.4064 -0.14675,-0.158044 -0.33866,-0.231422 -0.18627,-0.07338 -0.38947,-0.07338 -0.3048,0 -0.57009,0.141111 -0.26529,0.141111 -0.42898,0.468489 -0.15804,0.321733 -0.15804,0.863599 v 0.112889 q 0,0.428977 0.1016,0.722488 0.1016,0.293511 0.26529,0.474133 0.16933,0.174978 0.37253,0.254 0.20885,0.07902 0.41769,0.07902 0.31609,0 0.54751,-0.112889 0.23707,-0.118533 0.37818,-0.366888 0.14675,-0.254 0.17498,-0.654755 H 187.637 V 23.20946 h 1.49578 v 0.169333 q 0,0.457199 -0.11289,0.812799 -0.10725,0.349955 -0.32174,0.592666 -0.20884,0.237067 -0.508,0.361245 -0.29351,0.124177 -0.66604,0.124177 z m 2.37067,-0.05644 v -2.991553 h 0.46284 v 0.564444 q 0.0677,-0.180623 0.18627,-0.316089 0.11853,-0.141111 0.28786,-0.220133 0.17498,-0.08467 0.38947,-0.08467 0.11289,0 0.18062,0.01129 0.0734,0.01129 0.12982,0.02822 v 0.462844 q -0.0734,-0.02822 -0.14675,-0.03951 -0.0677,-0.01129 -0.19191,-0.01129 -0.22578,0 -0.4064,0.107245 -0.18062,0.107244 -0.28787,0.299155 -0.10724,0.186267 -0.10724,0.440266 v 1.749777 z m 3.38666,0.05644 q -0.37818,0 -0.7112,-0.163689 -0.32738,-0.169333 -0.53058,-0.507999 -0.19756,-0.338667 -0.19756,-0.852311 v -0.112888 q 0,-0.485422 0.19756,-0.8128 0.2032,-0.327377 0.53058,-0.491066 0.33302,-0.163689 0.7112,-0.163689 0.38382,0 0.7112,0.163689 0.32737,0.163689 0.52493,0.491066 0.2032,0.327378 0.2032,0.8128 v 0.112888 q 0,0.513644 -0.2032,0.852311 -0.19756,0.338666 -0.52493,0.507999 -0.32738,0.163689 -0.7112,0.163689 z m 0,-0.451555 q 0.23142,0 0.44026,-0.1016 0.21449,-0.107244 0.34996,-0.344311 0.14111,-0.237066 0.14111,-0.626533 v -0.112888 q 0,-0.361245 -0.14111,-0.581378 -0.13547,-0.225777 -0.34996,-0.327377 -0.20884,-0.107245 -0.44026,-0.107245 -0.22578,0 -0.44027,0.107245 -0.21449,0.1016 -0.3556,0.327377 -0.13547,0.220133 -0.13547,0.581378 v 0.112888 q 0,0.389467 0.13547,0.626533 0.14111,0.237067 0.3556,0.344311 0.21449,0.1016 0.44027,0.1016 z m 3.18911,0.451555 q -0.29916,0 -0.51929,-0.06773 -0.22014,-0.07338 -0.36689,-0.191911 -0.14676,-0.118533 -0.23707,-0.276578 -0.0847,-0.163688 -0.11853,-0.338666 h 0.49671 q 0.0395,0.180622 0.20884,0.316089 0.17498,0.129822 0.53623,0.129822 0.41768,0 0.58137,-0.129822 0.16369,-0.135467 0.16369,-0.316089 0,-0.124178 -0.0734,-0.214489 -0.0677,-0.09596 -0.24835,-0.163688 -0.17498,-0.06773 -0.50236,-0.112889 -0.24835,-0.03387 -0.44591,-0.09596 -0.19755,-0.06773 -0.33866,-0.174977 -0.14111,-0.107245 -0.22014,-0.259645 -0.0734,-0.1524 -0.0734,-0.361244 0,-0.225777 0.12982,-0.417688 0.12982,-0.191911 0.38946,-0.310445 0.25965,-0.118533 0.63783,-0.118533 0.3556,0 0.58702,0.124178 0.23706,0.118533 0.36689,0.316088 0.12982,0.197556 0.17497,0.434622 h -0.49671 q -0.0452,-0.197555 -0.19191,-0.321733 -0.14675,-0.124177 -0.44026,-0.124177 -0.36689,0 -0.51365,0.124177 -0.14675,0.118534 -0.14675,0.293511 0,0.2032 0.15804,0.3048 0.16369,0.1016 0.59267,0.158044 0.27657,0.03387 0.49106,0.1016 0.21449,0.06209 0.36125,0.174978 0.14675,0.107244 0.22013,0.265289 0.079,0.158044 0.079,0.378177 0,0.237067 -0.13546,0.434622 -0.13547,0.197555 -0.41205,0.321733 -0.27093,0.118533 -0.69426,0.118533 z m 2.99156,0 q -0.29916,0 -0.51929,-0.06773 -0.22013,-0.07338 -0.36689,-0.191911 -0.14675,-0.118533 -0.23707,-0.276578 -0.0847,-0.163688 -0.11853,-0.338666 h 0.49671 q 0.0395,0.180622 0.20885,0.316089 0.17497,0.129822 0.53622,0.129822 0.41769,0 0.58138,-0.129822 0.16368,-0.135467 0.16368,-0.316089 0,-0.124178 -0.0734,-0.214489 -0.0677,-0.09596 -0.24836,-0.163688 -0.17498,-0.06773 -0.50235,-0.112889 -0.24836,-0.03387 -0.44591,-0.09596 -0.19756,-0.06773 -0.33867,-0.174977 -0.14111,-0.107245 -0.22013,-0.259645 -0.0734,-0.1524 -0.0734,-0.361244 0,-0.225777 0.12982,-0.417688 0.12982,-0.191911 0.38947,-0.310445 0.25964,-0.118533 0.63782,-0.118533 0.3556,0 0.58702,0.124178 0.23707,0.118533 0.36689,0.316088 0.12982,0.197556 0.17498,0.434622 h -0.49671 q -0.0452,-0.197555 -0.19192,-0.321733 -0.14675,-0.124177 -0.44026,-0.124177 -0.36689,0 -0.51365,0.124177 -0.14675,0.118534 -0.14675,0.293511 0,0.2032 0.15804,0.3048 0.16369,0.1016 0.59267,0.158044 0.27658,0.03387 0.49107,0.1016 0.21448,0.06209 0.36124,0.174978 0.14676,0.107244 0.22013,0.265289 0.079,0.158044 0.079,0.378177 0,0.237067 -0.13546,0.434622 -0.13547,0.197555 -0.41205,0.321733 -0.27093,0.118533 -0.69426,0.118533 z m 3.47595,-0.05644 v -3.951108 h 0.55315 l 1.3208,2.511776 1.3208,-2.511776 h 0.53058 v 3.951108 h -0.53058 v -2.991553 l -1.13453,2.144887 h -0.39511 l -1.13454,-2.144887 v 2.991553 z m 5.59364,0.05644 q -0.32738,0 -0.5588,-0.118533 -0.22577,-0.124178 -0.34431,-0.333022 -0.11853,-0.214489 -0.11853,-0.479777 0,-0.445911 0.25964,-0.643467 0.26529,-0.197555 0.75636,-0.197555 h 0.97084 v -0.2032 q 0,-0.383822 -0.17498,-0.530577 -0.16933,-0.146756 -0.51364,-0.146756 -0.32173,0 -0.46849,0.124178 -0.14675,0.118533 -0.16369,0.270933 h -0.49671 q 0.0169,-0.242711 0.16369,-0.428977 0.14676,-0.191911 0.40076,-0.3048 0.254,-0.112889 0.59266,-0.112889 0.3556,0 0.61525,0.112889 0.25964,0.107244 0.40075,0.344311 0.14111,0.231422 0.14111,0.615244 v 1.213554 q 0,0.237067 0,0.417689 0.006,0.174978 0.0282,0.344311 h -0.43462 q -0.0169,-0.129822 -0.0226,-0.242711 -0.006,-0.118533 -0.006,-0.265289 -0.11853,0.237067 -0.38382,0.400755 -0.26529,0.163689 -0.64347,0.163689 z m 0.10725,-0.451555 q 0.23706,0 0.42897,-0.08467 0.19756,-0.08467 0.31045,-0.248355 0.11853,-0.163689 0.11853,-0.400755 v -0.2032 h -0.88618 q -0.27657,0 -0.43462,0.112889 -0.15804,0.107244 -0.15804,0.344311 0,0.208844 0.14675,0.34431 0.1524,0.135467 0.47414,0.135467 z m 2.22955,0.395111 v -2.991553 h 0.46285 v 0.564444 q 0.0677,-0.180623 0.18626,-0.316089 0.11854,-0.141111 0.28787,-0.220133 0.17498,-0.08467 0.38947,-0.08467 0.11288,0 0.18062,0.01129 0.0734,0.01129 0.12982,0.02822 v 0.462844 q -0.0734,-0.02822 -0.14676,-0.03951 -0.0677,-0.01129 -0.19191,-0.01129 -0.22577,0 -0.4064,0.107245 -0.18062,0.107244 -0.28786,0.299155 -0.10725,0.186267 -0.10725,0.440266 v 1.749777 z m 3.33022,1.185332 q -0.43463,0 -0.70556,-0.112889 -0.27093,-0.112888 -0.40075,-0.304799 -0.12983,-0.191911 -0.16369,-0.428978 h 0.51929 q 0.0564,0.180622 0.21448,0.287867 0.15805,0.107244 0.53623,0.107244 0.4572,0 0.67168,-0.220133 0.21449,-0.220133 0.21449,-0.626533 V 24.62057 q -0.12982,0.299155 -0.40075,0.44591 -0.26529,0.146756 -0.62653,0.146756 -0.36689,0 -0.64912,-0.169333 -0.28222,-0.169334 -0.44026,-0.502356 -0.1524,-0.333021 -0.1524,-0.824088 V 23.60457 q 0,-0.462844 0.15804,-0.778932 0.16369,-0.321733 0.44027,-0.491067 0.28222,-0.169333 0.64347,-0.169333 0.38382,0 0.66604,0.174978 0.28222,0.169333 0.39511,0.445911 v -0.564444 h 0.46284 v 2.878664 q 0,0.6096 -0.3556,0.95391 -0.3556,0.344311 -1.02728,0.344311 z m -0.0282,-1.625598 q 0.27094,0 0.47414,-0.112889 0.20884,-0.112889 0.32173,-0.310444 0.11853,-0.2032 0.11853,-0.462845 v -0.451555 q 0,-0.231422 -0.11853,-0.417688 -0.11289,-0.186267 -0.32173,-0.299156 -0.2032,-0.112889 -0.47414,-0.112889 -0.36124,0 -0.6096,0.265289 -0.24835,0.265289 -0.24835,0.733777 v 0.112889 q 0,0.513644 0.24835,0.784577 0.24836,0.270934 0.6096,0.270934 z m 2.37067,0.440266 v -2.991553 h 0.49671 v 2.991553 z m 0.24835,-3.386664 q -0.14675,0 -0.24271,-0.09596 -0.0959,-0.09596 -0.0959,-0.242711 0,-0.146755 0.0959,-0.242711 0.096,-0.09596 0.24271,-0.09596 0.14676,0 0.24271,0.09596 0.096,0.09596 0.096,0.242711 0,0.146756 -0.096,0.242711 -0.0959,0.09596 -0.24271,0.09596 z m 1.20791,3.386664 v -2.991553 h 0.46285 v 0.564444 q 0.1016,-0.248356 0.3556,-0.434622 0.25964,-0.186267 0.66604,-0.186267 0.56444,0 0.83538,0.3048 0.27658,0.299155 0.27658,0.880533 v 1.862665 h -0.49672 v -1.749777 q 0,-0.417688 -0.17497,-0.632177 -0.17498,-0.214489 -0.58702,-0.214489 -0.29352,0 -0.47978,0.124178 -0.18627,0.124178 -0.27658,0.316089 -0.0847,0.191911 -0.0847,0.406399 v 1.749777 z"
           id="text16"
           style="font-size:5.64444px;font-family:'Golos Text';-inkscape-font-specification:'Golos Text, Normal';letter-spacing:0px;word-spacing:0.00461608px;fill:#2e2e38;fill-rule:evenodd;stroke-width:0.79375;stroke-opacity:0.996094"
           aria-label="Annual Revenue per Customer x Gross Margin​" /><path
           d="m 145.89332,35.230463 q -0.44027,0 -0.81845,-0.208844 -0.37817,-0.208844 -0.61524,-0.649111 -0.23142,-0.44591 -0.23142,-1.145821 v -0.112889 q 0,-0.507999 0.13546,-0.874888 0.13547,-0.366889 0.36689,-0.603955 0.23143,-0.237067 0.53058,-0.349955 0.3048,-0.118534 0.63218,-0.118534 0.32173,0 0.58702,0.08467 0.27093,0.08467 0.47413,0.242711 0.2032,0.158044 0.32738,0.389466 0.12982,0.231422 0.16369,0.524933 h -0.56445 q -0.079,-0.383822 -0.33302,-0.575733 -0.254,-0.191911 -0.65475,-0.191911 -0.27658,0 -0.53058,0.141111 -0.254,0.141111 -0.41204,0.468489 -0.15805,0.321733 -0.15805,0.863599 v 0.112889 q 0,0.428977 0.096,0.722488 0.1016,0.293511 0.26529,0.474133 0.16368,0.174978 0.3556,0.254 0.19755,0.07902 0.38382,0.07902 0.44026,0 0.68862,-0.214488 0.24835,-0.214489 0.29915,-0.553156 h 0.56445 q -0.0452,0.327378 -0.18062,0.564444 -0.13547,0.237067 -0.34431,0.389467 -0.2032,0.146755 -0.46849,0.220133 -0.25965,0.06773 -0.5588,0.06773 z m 2.286,-0.05644 v -3.951108 h 0.49671 v 1.495776 q 0.079,-0.158044 0.21449,-0.293511 0.13546,-0.135466 0.32737,-0.214488 0.19756,-0.08467 0.44592,-0.08467 0.56444,0 0.83537,0.3048 0.27658,0.299155 0.27658,0.880533 v 1.862665 h -0.49671 v -1.749777 q 0,-0.417688 -0.17498,-0.632177 -0.17498,-0.214489 -0.58702,-0.214489 -0.29351,0 -0.47978,0.124178 -0.18626,0.124178 -0.27657,0.316089 -0.0847,0.191911 -0.0847,0.406399 v 1.749777 z m 4.52684,0.05644 q -0.54187,0 -0.8128,-0.310444 -0.27094,-0.310444 -0.27094,-0.959555 v -1.777998 h 0.49672 v 1.749776 q 0,0.417689 0.16933,0.632177 0.17498,0.214489 0.56444,0.214489 0.28222,0 0.46285,-0.124178 0.18062,-0.124177 0.26529,-0.316088 0.0847,-0.197556 0.0847,-0.4064 v -1.749776 h 0.49671 v 2.991553 h -0.46284 v -0.564444 q -0.1016,0.248355 -0.3556,0.434622 -0.254,0.186266 -0.63782,0.186266 z m 2.35937,-0.05644 v -2.991553 h 0.46284 v 0.564444 q 0.0677,-0.180623 0.18627,-0.316089 0.11853,-0.141111 0.28787,-0.220133 0.17498,-0.08467 0.38946,-0.08467 0.11289,0 0.18063,0.01129 0.0734,0.01129 0.12982,0.02822 v 0.462844 q -0.0734,-0.02822 -0.14676,-0.03951 -0.0677,-0.01129 -0.19191,-0.01129 -0.22578,0 -0.4064,0.107245 -0.18062,0.107244 -0.28786,0.299155 -0.10725,0.186267 -0.10725,0.440266 v 1.749777 z m 2.20133,0 v -2.991553 h 0.46284 v 0.564444 q 0.1016,-0.248356 0.3556,-0.434622 0.25965,-0.186267 0.66605,-0.186267 0.56444,0 0.83537,0.3048 0.27658,0.299155 0.27658,0.880533 v 1.862665 h -0.49671 v -1.749777 q 0,-0.417688 -0.17498,-0.632177 -0.17497,-0.214489 -0.58702,-0.214489 -0.29351,0 -0.47978,0.124178 -0.18626,0.124178 -0.27657,0.316089 -0.0847,0.191911 -0.0847,0.406399 v 1.749777 z m 4.99994,0 v -3.951108 h 1.38289 q 0.49671,0 0.82409,0.158044 0.33302,0.1524 0.50236,0.423333 0.16933,0.265289 0.16933,0.603955 0,0.395111 -0.23707,0.694266 -0.23142,0.293511 -0.68862,0.412044 l 1.03858,1.659466 h -0.62654 l -0.94262,-1.591732 h -0.89182 v 1.591732 z m 0.53058,-2.043287 h 0.79587 q 0.54751,0 0.78457,-0.197556 0.23707,-0.2032 0.23707,-0.524933 0,-0.321733 -0.23707,-0.519288 -0.23706,-0.2032 -0.78457,-0.2032 h -0.79587 z m 3.99062,2.099731 q -0.32738,0 -0.5588,-0.118533 -0.22578,-0.124178 -0.34431,-0.333022 -0.11853,-0.214489 -0.11853,-0.479777 0,-0.445911 0.25964,-0.643467 0.26529,-0.197555 0.75636,-0.197555 h 0.97084 v -0.2032 q 0,-0.383822 -0.17498,-0.530577 -0.16933,-0.146756 -0.51364,-0.146756 -0.32174,0 -0.46849,0.124178 -0.14676,0.118533 -0.16369,0.270933 h -0.49671 q 0.0169,-0.242711 0.16369,-0.428977 0.14675,-0.191911 0.40075,-0.3048 0.254,-0.112889 0.59267,-0.112889 0.3556,0 0.61524,0.112889 0.25965,0.107244 0.40076,0.344311 0.14111,0.231422 0.14111,0.615244 v 1.213554 q 0,0.237067 0,0.417689 0.006,0.174978 0.0282,0.344311 h -0.43462 q -0.0169,-0.129822 -0.0226,-0.242711 -0.006,-0.118533 -0.006,-0.265289 -0.11853,0.237067 -0.38382,0.400755 -0.26529,0.163689 -0.64347,0.163689 z m 0.10724,-0.451555 q 0.23707,0 0.42898,-0.08467 0.19756,-0.08467 0.31045,-0.248355 0.11853,-0.163689 0.11853,-0.400755 v -0.2032 h -0.88618 q -0.27658,0 -0.43462,0.112889 -0.15804,0.107244 -0.15804,0.344311 0,0.208844 0.14675,0.34431 0.1524,0.135467 0.47413,0.135467 z m 3.27378,0.423333 q -0.31609,0 -0.51929,-0.09596 -0.19755,-0.09596 -0.29351,-0.287867 -0.0903,-0.197555 -0.0903,-0.491066 v -1.704621 h -0.45155 v -0.440266 h 0.45155 v -0.677333 h 0.49671 v 0.677333 h 0.80151 v 0.440266 h -0.80151 v 1.648176 q 0,0.254 0.10725,0.366889 0.10724,0.112889 0.41204,0.112889 0.16933,0 0.33867,-0.01693 v 0.440266 q -0.10725,0.01129 -0.21449,0.01693 -0.10725,0.01129 -0.23707,0.01129 z m 2.39889,0.02822 q -0.37818,0 -0.7112,-0.163689 -0.32738,-0.163688 -0.53058,-0.502355 -0.19756,-0.338666 -0.19756,-0.857955 v -0.112888 q 0,-0.496711 0.19192,-0.818444 0.19191,-0.327378 0.508,-0.485422 0.31608,-0.163689 0.68297,-0.163689 0.6604,0 1.02165,0.361244 0.36124,0.361245 0.36124,1.021644 v 0.316089 h -2.26906 q 0,0.349955 0.14111,0.558799 0.14675,0.208845 0.36124,0.3048 0.22013,0.09031 0.44027,0.09031 0.33866,0 0.51929,-0.112889 0.18626,-0.112889 0.26528,-0.310444 h 0.48543 q -0.0903,0.428977 -0.44592,0.654755 -0.34995,0.220133 -0.82408,0.220133 z m -0.0282,-2.652887 q -0.23142,0 -0.44026,0.09031 -0.20885,0.08467 -0.34431,0.270934 -0.12982,0.186266 -0.12982,0.479777 h 1.80057 q -0.006,-0.310444 -0.12982,-0.491066 -0.11853,-0.186267 -0.31609,-0.265289 -0.19755,-0.08467 -0.44027,-0.08467 z"
           id="text17"
           style="font-size:5.64444px;font-family:'Golos Text';-inkscape-font-specification:'Golos Text, Normal';letter-spacing:0px;word-spacing:0.00461608px;fill:#2e2e38;fill-rule:evenodd;stroke-width:0.79375;stroke-opacity:0.996094"
           aria-label="Churn Rate" /><path
           style="fill:#2e2e38;fill-rule:evenodd;stroke:#2e2e38;stroke-width:0.79375;stroke-dasharray:none;stroke-opacity:0.996094"
           d="M 96.962009,28.014705 C 221.16054,27.23652 221.16054,27.23652 221.16054,27.23652"
           id="path17" /></g></g></g></svg>
