<?xml version="1.0" encoding="UTF-8" standalone="no"?>
<!-- Created with Inkscape (http://www.inkscape.org/) -->

<svg
   width="64mm"
   height="64mm"
   viewBox="0 0 64 64"
   version="1.1"
   id="svg1"
   inkscape:version="1.3 (0e150ed6c4, 2023-07-21)"
   sodipodi:docname="favicon.svg"
   inkscape:export-filename="..\..\..\Users\vvgon\source\repos\vvgonlineWEB\wwwroot\images\profile\favicon.svg"
   inkscape:export-xdpi="96"
   inkscape:export-ydpi="96"
   xml:space="preserve"
   xmlns:inkscape="http://www.inkscape.org/namespaces/inkscape"
   xmlns:sodipodi="http://sodipodi.sourceforge.net/DTD/sodipodi-0.dtd"
   xmlns:xlink="http://www.w3.org/1999/xlink"
   xmlns="http://www.w3.org/2000/svg"
   xmlns:svg="http://www.w3.org/2000/svg"><sodipodi:namedview
     id="namedview1"
     pagecolor="#505050"
     bordercolor="#eeeeee"
     borderopacity="1"
     inkscape:showpageshadow="0"
     inkscape:pageopacity="0"
     inkscape:pagecheckerboard="0"
     inkscape:deskcolor="#505050"
     inkscape:document-units="mm"
     inkscape:zoom="3"
     inkscape:cx="96.666667"
     inkscape:cy="126.16667"
     inkscape:window-width="2560"
     inkscape:window-height="1009"
     inkscape:window-x="-8"
     inkscape:window-y="-8"
     inkscape:window-maximized="1"
     inkscape:current-layer="g38" /><defs
     id="defs1"><linearGradient
       id="linearGradient38"
       inkscape:collect="always"
       inkscape:label="vvgonline-bg"><stop
         style="stop-color:#4d1a19;stop-opacity:1;"
         offset="0"
         id="stop38" /><stop
         style="stop-color:#24192d;stop-opacity:1;"
         offset="1"
         id="stop39" /></linearGradient><linearGradient
       inkscape:collect="always"
       xlink:href="#linearGradient38"
       id="linearGradient39"
       x1="78.69146"
       y1="179.16722"
       x2="142.69147"
       y2="179.16722"
       gradientUnits="userSpaceOnUse"
       spreadMethod="reflect" /></defs><g
     inkscape:label="Layer 1"
     inkscape:groupmode="layer"
     id="layer1"
     transform="translate(-78.691459,-147.16722)"><rect
       style="display:none;fill:url(#linearGradient39);fill-rule:evenodd;stroke:#ff0000;stroke-width:0;stroke-opacity:1"
       id="rect38"
       width="64"
       height="64"
       x="78.69146"
       y="147.16722"
       inkscape:label="vvgonline-bg" /><g
       id="g38"
       transform="translate(5.279197,14.731038)"
       style="display:inline"><rect
         style="fill:#ff1161;fill-opacity:1;fill-rule:evenodd;stroke:#27293b;stroke-width:0"
         id="rect1"
         width="63.999996"
         height="64"
         x="73.412262"
         y="132.43619"
         sodipodi:insensitive="true" /><path
         d="m 120.88322,180.43617 q -5.05508,0 -8.6261,-1.48405 -3.57103,-1.53044 -5.47249,-4.91594 -1.90145,-3.38551 -1.90145,-8.9971 0,-5.65797 1.90145,-8.9971 1.90146,-3.38551 5.47249,-4.86957 3.57102,-1.53043 8.6261,-1.53043 5.05508,0 8.62611,1.53043 3.57102,1.48406 5.47248,4.86957 1.90145,3.33913 1.90145,8.9971 0,5.61159 -1.90145,8.9971 -1.90146,3.3855 -5.47248,4.91594 -3.57103,1.48405 -8.62611,1.48405 z m 0,-9.50724 q 2.45798,0 3.47827,-1.29855 1.06667,-1.34493 1.06667,-4.5913 0,-3.24638 -1.06667,-4.54493 -1.02029,-1.34493 -3.47827,-1.34493 -2.45798,0 -3.52465,1.34493 -1.02029,1.29855 -1.02029,4.54493 0,3.24637 1.02029,4.5913 1.06667,1.29855 3.52465,1.29855 z"
         id="text2"
         style="font-weight:900;font-size:46.3768px;font-family:Kanit;-inkscape-font-specification:'Kanit, Heavy';fill:#ffffff;stroke-width:0.483092"
         inkscape:label="o"
         aria-label="O" /><path
         d="M 84.115007,178.3813 73.759731,151.49106 h 10.522296 l 5.052372,14.9483 5.094128,-14.9483 H 104.9508 L 94.595546,178.3813 Z"
         id="text1"
         style="font-weight:900;font-size:37.8508px;font-family:Kanit;-inkscape-font-specification:'Kanit, Heavy';fill:#ffffff;stroke:#ffffff;stroke-width:4.10976;stroke-opacity:0"
         inkscape:label="v"
         aria-label="V" /></g></g></svg>
