<?xml version="1.0" encoding="UTF-8" standalone="no"?>
<!-- Created with Inkscape (http://www.inkscape.org/) -->

<svg
   width="150.47499mm"
   height="31.839819mm"
   viewBox="0 0 150.47499 31.839819"
   version="1.1"
   id="svg1"
   inkscape:version="1.3 (0e150ed6c4, 2023-07-21)"
   sodipodi:docname="vvgonline.svg"
   inkscape:export-filename="..\..\..\..\..\..\..\..\Work\2023\logos\vvg online.webp"
   inkscape:export-xdpi="96"
   inkscape:export-ydpi="96"
   xmlns:inkscape="http://www.inkscape.org/namespaces/inkscape"
   xmlns:sodipodi="http://sodipodi.sourceforge.net/DTD/sodipodi-0.dtd"
   xmlns="http://www.w3.org/2000/svg"
   xmlns:svg="http://www.w3.org/2000/svg">
  <sodipodi:namedview
     id="namedview1"
     pagecolor="#505050"
     bordercolor="#eeeeee"
     borderopacity="1"
     inkscape:showpageshadow="0"
     inkscape:pageopacity="0"
     inkscape:pagecheckerboard="0"
     inkscape:deskcolor="#505050"
     inkscape:document-units="mm"
     showguides="true"
     inkscape:zoom="1"
     inkscape:cx="364"
     inkscape:cy="101"
     inkscape:window-width="1278"
     inkscape:window-height="1000"
     inkscape:window-x="1273"
     inkscape:window-y="0"
     inkscape:window-maximized="0"
     inkscape:current-layer="layer1" />
  <defs
     id="defs1" />
  <g
     inkscape:label="Layer 1"
     inkscape:groupmode="layer"
     id="layer1"
     transform="translate(-27.098673,-132.5801)">
    <g
       id="g1"
       transform="translate(25.106027)">
      <g
         id="g3">
        <path
           d="m 81.262831,156 q -2.46235,0 -4.201807,-0.72289 -1.739458,-0.74548 -2.665663,-2.39458 -0.926204,-1.6491 -0.926204,-4.38253 0,-2.75602 0.926204,-4.38253 0.926205,-1.6491 2.665663,-2.37199 Q 78.800481,141 81.262831,141 q 2.462349,0 4.201807,0.74548 1.739458,0.72289 2.665663,2.37199 0.926205,1.62651 0.926205,4.38253 0,2.73343 -0.926205,4.38253 -0.926205,1.6491 -2.665663,2.39458 Q 83.72518,156 81.262831,156 Z m 0,-4.63102 q 1.197289,0 1.694277,-0.63253 0.519578,-0.65512 0.519578,-2.23645 0,-1.58133 -0.519578,-2.21386 -0.496988,-0.65512 -1.694277,-0.65512 -1.197289,0 -1.716868,0.65512 -0.496988,0.63253 -0.496988,2.21386 0,1.58133 0.496988,2.23645 0.519579,0.63253 1.716868,0.63253 z m 8.923177,4.40512 v -14.5482 h 4.585844 l 4.066265,5.69277 v -5.69277 h 5.466863 v 14.5482 h -4.608429 l -4.043675,-5.69277 v 5.69277 z m 15.700292,0 v -14.5482 h 5.46687 v 10.39157 h 5.94126 v 4.15663 z m 12.19881,0 v -14.5482 h 5.46687 v 14.5482 z m 7.04821,0 v -14.5482 h 4.58584 l 4.06626,5.69277 v -5.69277 h 5.46687 v 14.5482 h -4.60843 l -4.04368,-5.69277 v 5.69277 z m 15.70029,0 v -14.5482 h 11.63403 v 3.93073 h -6.16716 v 1.31024 h 5.30873 v 4.06626 h -5.30873 v 1.31024 h 6.16716 v 3.93073 z"
           id="text2"
           style="font-weight:900;font-size:25.4px;font-family:Kanit;-inkscape-font-specification:'Kanit, Heavy';fill:#61bb94;fill-opacity:1;stroke-width:0.235316"
           inkscape:label="ONLINE"
           aria-label="ONLINE" />
        <rect
           style="fill:#9e590d;fill-opacity:0;fill-rule:evenodd;stroke:#f6e441;stroke-width:2.41512;stroke-dasharray:none;stroke-opacity:1"
           id="rect3"
           width="76.584877"
           height="1.3108255"
           x="74.675201"
           y="161.90154" />
      </g>
    </g>
    <g
       id="g4">
      <g
         id="g2"
         transform="translate(-47.81389,0.73019785)">
        <path
           d="M 87.642281,155.12398 81.839758,140.5758 h 5.896112 l 2.83107,8.08735 2.854466,-8.08735 h 5.896112 l -5.802523,14.54818 z m 18.179689,0 -5.80252,-14.54818 h 5.89611 l 2.83107,8.08735 2.85447,-8.08735 h 5.89611 l -5.80253,14.54818 z m 19.9813,0.22592 q -4.25831,0 -6.52784,-1.89759 -2.24614,-1.89759 -2.24614,-5.60242 0,-3.70482 2.36312,-5.60241 2.36313,-1.89758 6.80861,-1.89758 1.45063,0 2.5971,0.15813 1.16986,0.13554 2.24613,0.49698 v 4.65362 q -1.07627,-0.40663 -2.19934,-0.54217 -1.09967,-0.15814 -2.26953,-0.15814 -1.63781,0 -2.71409,0.63254 -1.05288,0.60993 -1.05288,2.25903 0,1.6491 0.74872,2.28163 0.77211,0.60994 2.19934,0.60994 0.74871,0 1.40384,-0.15814 v -0.88102 h -2.50351 v -3.29819 h 7.18296 v 7.52259 q -0.95929,0.56476 -2.45671,0.99398 -1.49743,0.42922 -3.57978,0.42922 z"
           id="text1"
           style="font-weight:900;font-size:25.4px;font-family:Kanit;-inkscape-font-specification:'Kanit, Heavy';fill:#61bb94;fill-opacity:1;stroke-width:0.239481"
           inkscape:label="VVG"
           aria-label="VVG" />
        <rect
           style="fill:#000000;fill-opacity:0;stroke:#f6e441;stroke-width:3.445;stroke-dasharray:none;stroke-opacity:1"
           id="rect2"
           width="60.409389"
           height="28.39481"
           x="76.635063"
           y="133.5724"
           inkscape:label="ALL border" />
      </g>
    </g>
  </g>
</svg>
